%TF.GenerationSoftware,KiCad,Pcbnew,no-vcs-found-33cc7b3~60~ubuntu16.04.1*%
%TF.CreationDate,2017-09-14T13:01:55-04:00*%
%TF.ProjectId,audio_controller_3x2,617564696F5F636F6E74726F6C6C6572,1.1*%
%TF.SameCoordinates,Original*%
%TF.FileFunction,Soldermask,Bot*%
%TF.FilePolarity,Negative*%
%FSLAX46Y46*%
G04 Gerber Fmt 4.6, Leading zero omitted, Abs format (unit mm)*
G04 Created by KiCad (PCBNEW no-vcs-found-33cc7b3~60~ubuntu16.04.1) date Thu Sep 14 13:01:55 2017*
%MOMM*%
%LPD*%
G01*
G04 APERTURE LIST*
%ADD10C,0.228600*%
%ADD11R,0.350000X1.300000*%
%ADD12R,2.100000X1.700000*%
%ADD13C,3.556000*%
%ADD14O,1.854200X2.540000*%
%ADD15R,1.854200X2.540000*%
%ADD16R,3.475000X3.475000*%
%ADD17R,0.325000X2.075000*%
%ADD18R,2.075000X0.325000*%
%ADD19R,2.540000X1.270000*%
%ADD20C,2.100000*%
%ADD21R,2.800000X2.800000*%
%ADD22R,2.200000X2.800000*%
%ADD23R,0.701040X1.000760*%
G04 APERTURE END LIST*
D10*
X156210000Y-67945000D02*
X85725000Y-67945000D01*
X156210000Y-109855000D02*
X156210000Y-67945000D01*
X85725000Y-109855000D02*
X156210000Y-109855000D01*
X85725000Y-67945000D02*
X85725000Y-109855000D01*
D11*
%TO.C,U3*%
X108315000Y-90600000D03*
X107815000Y-90600000D03*
X107315000Y-90600000D03*
X106815000Y-90600000D03*
X106315000Y-90600000D03*
X106315000Y-87200000D03*
X106815000Y-87200000D03*
X107315000Y-87200000D03*
X107815000Y-87200000D03*
X108315000Y-87200000D03*
D12*
X107315000Y-88900000D03*
%TD*%
D13*
%TO.C,MDB1*%
X130175000Y-71120000D03*
X130175000Y-106680000D03*
X89535000Y-101600000D03*
X89535000Y-76200000D03*
D14*
X88265000Y-106680000D03*
X90805000Y-106680000D03*
X93345000Y-106680000D03*
X95885000Y-106680000D03*
X98425000Y-106680000D03*
X100965000Y-106680000D03*
X103505000Y-106680000D03*
X106045000Y-106680000D03*
X108585000Y-106680000D03*
X111125000Y-106680000D03*
X113665000Y-106680000D03*
X116205000Y-106680000D03*
X118745000Y-106680000D03*
X121285000Y-106680000D03*
X123825000Y-106680000D03*
X126365000Y-106680000D03*
X126365000Y-71120000D03*
X123825000Y-71120000D03*
X121285000Y-71120000D03*
X118745000Y-71120000D03*
X116205000Y-71120000D03*
X113665000Y-71120000D03*
X111125000Y-71120000D03*
X108585000Y-71120000D03*
X106045000Y-71120000D03*
X103505000Y-71120000D03*
X100965000Y-71120000D03*
X98425000Y-71120000D03*
X95885000Y-71120000D03*
D15*
X88265000Y-71120000D03*
D14*
X93345000Y-71120000D03*
X90805000Y-71120000D03*
%TD*%
D16*
%TO.C,U1*%
X130810000Y-88900000D03*
D17*
X129060000Y-85900000D03*
X129560000Y-85900000D03*
X130060000Y-85900000D03*
X130560000Y-85900000D03*
X131060000Y-85900000D03*
X131560000Y-85900000D03*
X132060000Y-85900000D03*
X132560000Y-85900000D03*
X132560000Y-91900000D03*
X132060000Y-91900000D03*
X131560000Y-91900000D03*
X131060000Y-91900000D03*
X130560000Y-91900000D03*
X130060000Y-91900000D03*
X129560000Y-91900000D03*
X129060000Y-91900000D03*
D18*
X133810000Y-87150000D03*
X133810000Y-87650000D03*
X133810000Y-88150000D03*
X133810000Y-88650000D03*
X133810000Y-89150000D03*
X133810000Y-89650000D03*
X133810000Y-90150000D03*
X133810000Y-90650000D03*
X127810000Y-90650000D03*
X127810000Y-90150000D03*
X127810000Y-89650000D03*
X127810000Y-89150000D03*
X127810000Y-88650000D03*
X127810000Y-88150000D03*
X127810000Y-87650000D03*
X127810000Y-87150000D03*
%TD*%
D19*
%TO.C,C1*%
X130810000Y-97536000D03*
X130810000Y-100584000D03*
%TD*%
%TO.C,C2*%
X146050000Y-97536000D03*
X146050000Y-100584000D03*
%TD*%
%TO.C,C3*%
X140970000Y-100584000D03*
X140970000Y-97536000D03*
%TD*%
%TO.C,C4*%
X125730000Y-100584000D03*
X125730000Y-97536000D03*
%TD*%
%TO.C,C5*%
X130810000Y-80264000D03*
X130810000Y-77216000D03*
%TD*%
%TO.C,C6*%
X135890000Y-77216000D03*
X135890000Y-80264000D03*
%TD*%
%TO.C,C7*%
X146050000Y-80264000D03*
X146050000Y-77216000D03*
%TD*%
D20*
%TO.C,J1*%
X145075000Y-88900000D03*
X152075000Y-88900000D03*
D21*
X143775000Y-92600000D03*
D22*
X151175000Y-85200000D03*
X153175000Y-92600000D03*
%TD*%
D19*
%TO.C,L1*%
X135890000Y-100584000D03*
X135890000Y-97536000D03*
%TD*%
%TO.C,R1*%
X125730000Y-77216000D03*
X125730000Y-80264000D03*
%TD*%
%TO.C,R2*%
X120650000Y-80264000D03*
X120650000Y-77216000D03*
%TD*%
D23*
%TO.C,U2*%
X140020040Y-77541120D03*
X141919960Y-77541120D03*
X140970000Y-79938880D03*
%TD*%
D19*
%TO.C,C8*%
X116840000Y-97536000D03*
X116840000Y-100584000D03*
%TD*%
%TO.C,C9*%
X97790000Y-100584000D03*
X97790000Y-97536000D03*
%TD*%
%TO.C,C10*%
X110490000Y-92456000D03*
X110490000Y-95504000D03*
%TD*%
%TO.C,C11*%
X104140000Y-95504000D03*
X104140000Y-92456000D03*
%TD*%
%TO.C,C12*%
X91440000Y-90424000D03*
X91440000Y-87376000D03*
%TD*%
%TO.C,C13*%
X97790000Y-90424000D03*
X97790000Y-87376000D03*
%TD*%
%TO.C,R3*%
X110490000Y-100584000D03*
X110490000Y-97536000D03*
%TD*%
%TO.C,R4*%
X104140000Y-97536000D03*
X104140000Y-100584000D03*
%TD*%
M02*
