%TF.GenerationSoftware,KiCad,Pcbnew,no-vcs-found-33cc7b3~60~ubuntu16.04.1*%
%TF.CreationDate,2017-09-14T13:01:55-04:00*%
%TF.ProjectId,audio_controller_3x2,617564696F5F636F6E74726F6C6C6572,1.1*%
%TF.SameCoordinates,Original*%
%TF.FileFunction,Copper,L2,Bot,Signal*%
%TF.FilePolarity,Positive*%
%FSLAX46Y46*%
G04 Gerber Fmt 4.6, Leading zero omitted, Abs format (unit mm)*
G04 Created by KiCad (PCBNEW no-vcs-found-33cc7b3~60~ubuntu16.04.1) date Thu Sep 14 13:01:55 2017*
%MOMM*%
%LPD*%
G01*
G04 APERTURE LIST*
%TA.AperFunction,NonConductor*%
%ADD10C,0.228600*%
%TD*%
%TA.AperFunction,SMDPad,CuDef*%
%ADD11R,0.250000X1.200000*%
%TD*%
%TA.AperFunction,SMDPad,CuDef*%
%ADD12R,2.000000X1.600000*%
%TD*%
%TA.AperFunction,ComponentPad*%
%ADD13C,3.556000*%
%TD*%
%TA.AperFunction,ComponentPad*%
%ADD14O,1.854200X2.540000*%
%TD*%
%TA.AperFunction,ComponentPad*%
%ADD15R,1.854200X2.540000*%
%TD*%
%TA.AperFunction,ComponentPad*%
%ADD16R,3.400000X3.400000*%
%TD*%
%TA.AperFunction,SMDPad,CuDef*%
%ADD17R,0.250000X2.000000*%
%TD*%
%TA.AperFunction,SMDPad,CuDef*%
%ADD18R,2.000000X0.250000*%
%TD*%
%TA.AperFunction,SMDPad,CuDef*%
%ADD19R,2.540000X1.270000*%
%TD*%
%TA.AperFunction,ComponentPad*%
%ADD20C,2.100000*%
%TD*%
%TA.AperFunction,SMDPad,CuDef*%
%ADD21R,2.800000X2.800000*%
%TD*%
%TA.AperFunction,SMDPad,CuDef*%
%ADD22R,2.200000X2.800000*%
%TD*%
%TA.AperFunction,SMDPad,CuDef*%
%ADD23R,0.701040X1.000760*%
%TD*%
%TA.AperFunction,ViaPad*%
%ADD24C,0.889000*%
%TD*%
%TA.AperFunction,Conductor*%
%ADD25C,0.304800*%
%TD*%
%TA.AperFunction,Conductor*%
%ADD26C,0.254000*%
%TD*%
%TA.AperFunction,Conductor*%
%ADD27C,0.203200*%
%TD*%
G04 APERTURE END LIST*
D10*
X156210000Y-67945000D02*
X85725000Y-67945000D01*
X156210000Y-109855000D02*
X156210000Y-67945000D01*
X85725000Y-109855000D02*
X156210000Y-109855000D01*
X85725000Y-67945000D02*
X85725000Y-109855000D01*
D11*
%TO.P,U3,1*%
%TO.N,Net-(C10-Pad2)*%
X108315000Y-90600000D03*
%TO.P,U3,2*%
%TO.N,Net-(C11-Pad2)*%
X107815000Y-90600000D03*
%TO.P,U3,3*%
%TO.N,VEE*%
X107315000Y-90600000D03*
%TO.P,U3,4*%
%TO.N,/SPEAKER_ENABLE*%
X106815000Y-90600000D03*
%TO.P,U3,5*%
%TO.N,VEE*%
X106315000Y-90600000D03*
%TO.P,U3,6*%
%TO.N,Net-(U3-Pad6)*%
X106315000Y-87200000D03*
%TO.P,U3,7*%
%TO.N,/AMP-*%
X106815000Y-87200000D03*
%TO.P,U3,8*%
%TO.N,GND*%
X107315000Y-87200000D03*
%TO.P,U3,9*%
%TO.N,VEE*%
X107815000Y-87200000D03*
%TO.P,U3,10*%
%TO.N,/AMP+*%
X108315000Y-87200000D03*
D12*
%TO.P,U3,*%
%TO.N,*%
X107315000Y-88900000D03*
%TD*%
D13*
%TO.P,MDB1,*%
%TO.N,*%
X130175000Y-71120000D03*
X130175000Y-106680000D03*
X89535000Y-101600000D03*
X89535000Y-76200000D03*
D14*
%TO.P,MDB1,AREF*%
%TO.N,N/C*%
X88265000Y-106680000D03*
%TO.P,MDB1,VEE*%
%TO.N,VEE*%
X90805000Y-106680000D03*
%TO.P,MDB1,AGND*%
%TO.N,/AGND*%
X93345000Y-106680000D03*
%TO.P,MDB1,3V3*%
%TO.N,+3V3*%
X95885000Y-106680000D03*
%TO.P,MDB1,23*%
%TO.N,/LRCLK*%
X98425000Y-106680000D03*
%TO.P,MDB1,22*%
%TO.N,/I2STX*%
X100965000Y-106680000D03*
%TO.P,MDB1,21*%
%TO.N,N/C*%
X103505000Y-106680000D03*
%TO.P,MDB1,20*%
X106045000Y-106680000D03*
%TO.P,MDB1,19*%
%TO.N,/SCL*%
X108585000Y-106680000D03*
%TO.P,MDB1,18*%
%TO.N,/SDA*%
X111125000Y-106680000D03*
%TO.P,MDB1,17*%
%TO.N,N/C*%
X113665000Y-106680000D03*
%TO.P,MDB1,16*%
X116205000Y-106680000D03*
%TO.P,MDB1,15*%
X118745000Y-106680000D03*
%TO.P,MDB1,14*%
X121285000Y-106680000D03*
%TO.P,MDB1,13*%
%TO.N,/I2SRX*%
X123825000Y-106680000D03*
%TO.P,MDB1,DAC*%
%TO.N,/DAC*%
X126365000Y-106680000D03*
%TO.P,MDB1,28*%
%TO.N,N/C*%
X126365000Y-71120000D03*
%TO.P,MDB1,12*%
X123825000Y-71120000D03*
%TO.P,MDB1,11*%
%TO.N,/MCLK*%
X121285000Y-71120000D03*
%TO.P,MDB1,10*%
%TO.N,N/C*%
X118745000Y-71120000D03*
%TO.P,MDB1,9*%
%TO.N,/BCLK*%
X116205000Y-71120000D03*
%TO.P,MDB1,29*%
%TO.N,N/C*%
X113665000Y-71120000D03*
%TO.P,MDB1,30*%
X111125000Y-71120000D03*
%TO.P,MDB1,6*%
%TO.N,/SPEAKER_ENABLE*%
X108585000Y-71120000D03*
%TO.P,MDB1,5*%
%TO.N,N/C*%
X106045000Y-71120000D03*
%TO.P,MDB1,4*%
X103505000Y-71120000D03*
%TO.P,MDB1,3*%
X100965000Y-71120000D03*
%TO.P,MDB1,2*%
X98425000Y-71120000D03*
%TO.P,MDB1,25*%
X95885000Y-71120000D03*
D15*
%TO.P,MDB1,VDD*%
X88265000Y-71120000D03*
D14*
%TO.P,MDB1,24*%
X93345000Y-71120000D03*
%TO.P,MDB1,GND*%
%TO.N,GND*%
X90805000Y-71120000D03*
%TD*%
D16*
%TO.P,U1,PAD*%
%TO.N,GND*%
X130810000Y-88900000D03*
D17*
%TO.P,U1,25*%
%TO.N,/I2SRX*%
X129060000Y-85900000D03*
%TO.P,U1,26*%
%TO.N,/I2STX*%
X129560000Y-85900000D03*
%TO.P,U1,27*%
%TO.N,/SDA*%
X130060000Y-85900000D03*
%TO.P,U1,28*%
%TO.N,N/C*%
X130560000Y-85900000D03*
%TO.P,U1,29*%
%TO.N,/SCL*%
X131060000Y-85900000D03*
%TO.P,U1,30*%
%TO.N,+1V5*%
X131560000Y-85900000D03*
%TO.P,U1,31*%
%TO.N,GND*%
X132060000Y-85900000D03*
%TO.P,U1,32*%
X132560000Y-85900000D03*
%TO.P,U1,9*%
%TO.N,N/C*%
X132560000Y-91900000D03*
%TO.P,U1,10*%
%TO.N,Net-(C4-Pad1)*%
X132060000Y-91900000D03*
%TO.P,U1,11*%
%TO.N,N/C*%
X131560000Y-91900000D03*
%TO.P,U1,12*%
X131060000Y-91900000D03*
%TO.P,U1,13*%
X130560000Y-91900000D03*
%TO.P,U1,14*%
X130060000Y-91900000D03*
%TO.P,U1,15*%
X129560000Y-91900000D03*
%TO.P,U1,16*%
X129060000Y-91900000D03*
D18*
%TO.P,U1,1*%
%TO.N,GND*%
X133810000Y-87150000D03*
%TO.P,U1,2*%
%TO.N,/HP_R*%
X133810000Y-87650000D03*
%TO.P,U1,3*%
%TO.N,GND*%
X133810000Y-88150000D03*
%TO.P,U1,4*%
X133810000Y-88650000D03*
%TO.P,U1,5*%
%TO.N,Net-(C2-Pad1)*%
X133810000Y-89150000D03*
%TO.P,U1,6*%
%TO.N,/HP_L*%
X133810000Y-89650000D03*
%TO.P,U1,7*%
%TO.N,GND*%
X133810000Y-90150000D03*
%TO.P,U1,8*%
%TO.N,N/C*%
X133810000Y-90650000D03*
%TO.P,U1,17*%
X127810000Y-90650000D03*
%TO.P,U1,18*%
X127810000Y-90150000D03*
%TO.P,U1,19*%
X127810000Y-89650000D03*
%TO.P,U1,20*%
%TO.N,+3V3*%
X127810000Y-89150000D03*
%TO.P,U1,21*%
%TO.N,/MCLK*%
X127810000Y-88650000D03*
%TO.P,U1,22*%
%TO.N,N/C*%
X127810000Y-88150000D03*
%TO.P,U1,23*%
%TO.N,/LRCLK*%
X127810000Y-87650000D03*
%TO.P,U1,24*%
%TO.N,/BCLK*%
X127810000Y-87150000D03*
%TD*%
D19*
%TO.P,C1,2*%
%TO.N,GND*%
X130810000Y-97536000D03*
%TO.P,C1,1*%
%TO.N,+3V3*%
X130810000Y-100584000D03*
%TD*%
%TO.P,C2,1*%
%TO.N,Net-(C2-Pad1)*%
X146050000Y-97536000D03*
%TO.P,C2,2*%
%TO.N,GND*%
X146050000Y-100584000D03*
%TD*%
%TO.P,C3,2*%
%TO.N,GND*%
X140970000Y-100584000D03*
%TO.P,C3,1*%
%TO.N,Net-(C2-Pad1)*%
X140970000Y-97536000D03*
%TD*%
%TO.P,C4,1*%
%TO.N,Net-(C4-Pad1)*%
X125730000Y-100584000D03*
%TO.P,C4,2*%
%TO.N,GND*%
X125730000Y-97536000D03*
%TD*%
%TO.P,C5,2*%
%TO.N,GND*%
X130810000Y-80264000D03*
%TO.P,C5,1*%
%TO.N,+3V3*%
X130810000Y-77216000D03*
%TD*%
%TO.P,C6,1*%
%TO.N,+3V3*%
X135890000Y-77216000D03*
%TO.P,C6,2*%
%TO.N,GND*%
X135890000Y-80264000D03*
%TD*%
%TO.P,C7,2*%
%TO.N,GND*%
X146050000Y-80264000D03*
%TO.P,C7,1*%
%TO.N,+1V5*%
X146050000Y-77216000D03*
%TD*%
D20*
%TO.P,J1,*%
%TO.N,*%
X145075000Y-88900000D03*
X152075000Y-88900000D03*
D21*
%TO.P,J1,2*%
%TO.N,/HP_L*%
X143775000Y-92600000D03*
D22*
%TO.P,J1,3*%
%TO.N,/HP_R*%
X151175000Y-85200000D03*
%TO.P,J1,1*%
%TO.N,N/C*%
X153175000Y-92600000D03*
%TD*%
D19*
%TO.P,L1,1*%
%TO.N,+3V3*%
X135890000Y-100584000D03*
%TO.P,L1,2*%
%TO.N,Net-(C2-Pad1)*%
X135890000Y-97536000D03*
%TD*%
%TO.P,R1,1*%
%TO.N,+3V3*%
X125730000Y-77216000D03*
%TO.P,R1,2*%
%TO.N,/SCL*%
X125730000Y-80264000D03*
%TD*%
%TO.P,R2,2*%
%TO.N,/SDA*%
X120650000Y-80264000D03*
%TO.P,R2,1*%
%TO.N,+3V3*%
X120650000Y-77216000D03*
%TD*%
D23*
%TO.P,U2,1*%
%TO.N,+3V3*%
X140020040Y-77541120D03*
%TO.P,U2,2*%
%TO.N,+1V5*%
X141919960Y-77541120D03*
%TO.P,U2,3*%
%TO.N,GND*%
X140970000Y-79938880D03*
%TD*%
D19*
%TO.P,C8,1*%
%TO.N,Net-(C10-Pad1)*%
X116840000Y-97536000D03*
%TO.P,C8,2*%
%TO.N,/AGND*%
X116840000Y-100584000D03*
%TD*%
%TO.P,C9,2*%
%TO.N,/AGND*%
X97790000Y-100584000D03*
%TO.P,C9,1*%
%TO.N,Net-(C11-Pad1)*%
X97790000Y-97536000D03*
%TD*%
%TO.P,C10,2*%
%TO.N,Net-(C10-Pad2)*%
X110490000Y-92456000D03*
%TO.P,C10,1*%
%TO.N,Net-(C10-Pad1)*%
X110490000Y-95504000D03*
%TD*%
%TO.P,C11,1*%
%TO.N,Net-(C11-Pad1)*%
X104140000Y-95504000D03*
%TO.P,C11,2*%
%TO.N,Net-(C11-Pad2)*%
X104140000Y-92456000D03*
%TD*%
%TO.P,C12,1*%
%TO.N,VEE*%
X91440000Y-90424000D03*
%TO.P,C12,2*%
%TO.N,GND*%
X91440000Y-87376000D03*
%TD*%
%TO.P,C13,1*%
%TO.N,VEE*%
X97790000Y-90424000D03*
%TO.P,C13,2*%
%TO.N,GND*%
X97790000Y-87376000D03*
%TD*%
%TO.P,R3,2*%
%TO.N,/DAC*%
X110490000Y-100584000D03*
%TO.P,R3,1*%
%TO.N,Net-(C10-Pad1)*%
X110490000Y-97536000D03*
%TD*%
%TO.P,R4,1*%
%TO.N,Net-(C11-Pad1)*%
X104140000Y-97536000D03*
%TO.P,R4,2*%
%TO.N,/AGND*%
X104140000Y-100584000D03*
%TD*%
D24*
%TO.N,GND*%
X122555000Y-93345000D03*
X127000000Y-94615000D03*
X107701300Y-85638700D03*
%TO.N,/I2SRX*%
X128381800Y-85900100D03*
%TO.N,/SCL*%
X130169300Y-83913600D03*
%TO.N,/I2STX*%
X125893900Y-86505400D03*
%TO.N,/LRCLK*%
X126194300Y-87878900D03*
%TO.N,/AMP-*%
X106607700Y-86053200D03*
%TO.N,/AMP+*%
X108861500Y-88599800D03*
%TD*%
D25*
%TO.N,GND*%
X125730000Y-97536000D02*
X125730000Y-95885000D01*
X125730000Y-95885000D02*
X127000000Y-94615000D01*
X146050000Y-80264000D02*
X144502600Y-80264000D01*
X97790000Y-87376000D02*
X91440000Y-87376000D01*
X135890000Y-80264000D02*
X135890000Y-81176400D01*
X91567400Y-86336200D02*
X91440000Y-86463600D01*
X91567400Y-73429800D02*
X91567400Y-86336200D01*
X90805000Y-72667400D02*
X91567400Y-73429800D01*
X90805000Y-71120000D02*
X90805000Y-72667400D01*
X91440000Y-87376000D02*
X91440000Y-86463600D01*
X132560000Y-84622600D02*
X132060000Y-84622600D01*
X132060000Y-85900000D02*
X132060000Y-84622600D01*
X132560000Y-85900000D02*
X132560000Y-84622600D01*
X132532600Y-87204800D02*
X132560000Y-87177400D01*
X132532600Y-88150000D02*
X132532600Y-87204800D01*
X132560000Y-85900000D02*
X132560000Y-86538700D01*
X132532600Y-86566100D02*
X132532600Y-87150000D01*
X132560000Y-86538700D02*
X132532600Y-86566100D01*
X133810000Y-88150000D02*
X133310000Y-88150000D01*
X132560000Y-87150000D02*
X132560000Y-87177400D01*
X133810000Y-87150000D02*
X132560000Y-87150000D01*
X132560000Y-87150000D02*
X132532600Y-87150000D01*
X133810000Y-88650000D02*
X132532600Y-88650000D01*
X132806300Y-88150000D02*
X132532600Y-88150000D01*
X133310000Y-88150000D02*
X132806300Y-88150000D01*
X134365600Y-93533400D02*
X134365600Y-97536000D01*
X135087400Y-92811600D02*
X134365600Y-93533400D01*
X135087400Y-90150000D02*
X135087400Y-92811600D01*
X134365600Y-98343400D02*
X134365600Y-97536000D01*
X135693800Y-99671600D02*
X134365600Y-98343400D01*
X140970000Y-99671600D02*
X135693800Y-99671600D01*
X133810000Y-90150000D02*
X135087400Y-90150000D01*
X140970000Y-100584000D02*
X140970000Y-100127800D01*
X140970000Y-100127800D02*
X140970000Y-99671600D01*
X144046400Y-100127800D02*
X144502600Y-100584000D01*
X140970000Y-100127800D02*
X144046400Y-100127800D01*
X146050000Y-100584000D02*
X144502600Y-100584000D01*
X134365600Y-97536000D02*
X130810000Y-97536000D01*
X130810000Y-97536000D02*
X125730000Y-97536000D01*
X132532600Y-88423700D02*
X132532600Y-88650000D01*
X132806300Y-88150000D02*
X132532600Y-88423700D01*
X131796300Y-88900000D02*
X130810000Y-88900000D01*
X132046300Y-88650000D02*
X131796300Y-88900000D01*
X132532600Y-88650000D02*
X132046300Y-88650000D01*
X131796300Y-89413700D02*
X132532600Y-90150000D01*
X131796300Y-88900000D02*
X131796300Y-89413700D01*
X133810000Y-90150000D02*
X132532600Y-90150000D01*
X107315000Y-86025000D02*
X107315000Y-87200000D01*
X107701300Y-85638700D02*
X107315000Y-86025000D01*
X144177500Y-79938900D02*
X140970000Y-79938900D01*
X144502600Y-80264000D02*
X144177500Y-79938900D01*
X137762500Y-79938900D02*
X137437400Y-80264000D01*
X140970000Y-79938900D02*
X137762500Y-79938900D01*
X135890000Y-80264000D02*
X137437400Y-80264000D01*
X130810000Y-80264000D02*
X130810000Y-81176400D01*
X131148400Y-81176400D02*
X130810000Y-81176400D01*
X132560000Y-82588000D02*
X131148400Y-81176400D01*
X132560000Y-84622600D02*
X132560000Y-82588000D01*
X133971600Y-81176400D02*
X135890000Y-81176400D01*
X132560000Y-82588000D02*
X133971600Y-81176400D01*
%TO.N,+3V3*%
X125730000Y-77216000D02*
X120650000Y-77216000D01*
X135890000Y-77216000D02*
X137437400Y-77216000D01*
X135890000Y-100584000D02*
X137437400Y-100584000D01*
X139994600Y-77216000D02*
X137437400Y-77216000D01*
X139994600Y-77515700D02*
X139994600Y-77216000D01*
X140020000Y-77541100D02*
X139994600Y-77515700D01*
X138326800Y-101473400D02*
X137437400Y-100584000D01*
X147448700Y-101473400D02*
X138326800Y-101473400D01*
X149248600Y-99673500D02*
X147448700Y-101473400D01*
X149248600Y-89791400D02*
X149248600Y-99673500D01*
X152185600Y-86854400D02*
X149248600Y-89791400D01*
X152380300Y-86854400D02*
X152185600Y-86854400D01*
X152529300Y-86705400D02*
X152380300Y-86854400D01*
X152529300Y-81400800D02*
X152529300Y-86705400D01*
X147455100Y-76326600D02*
X152529300Y-81400800D01*
X140884000Y-76326600D02*
X147455100Y-76326600D01*
X139994600Y-77216000D02*
X140884000Y-76326600D01*
X135890000Y-77216000D02*
X130810000Y-77216000D01*
X130810000Y-77216000D02*
X125730000Y-77216000D01*
X135890000Y-100584000D02*
X130810000Y-100584000D01*
X130810000Y-100584000D02*
X129262600Y-100584000D01*
X127810000Y-89150000D02*
X126532600Y-89150000D01*
X95885000Y-106680000D02*
X97089500Y-106680000D01*
X97089500Y-107416800D02*
X97089500Y-106680000D01*
X97880800Y-108208100D02*
X97089500Y-107416800D01*
X126890200Y-108208100D02*
X97880800Y-108208100D01*
X127606000Y-107492300D02*
X126890200Y-108208100D01*
X127606000Y-101473400D02*
X127606000Y-107492300D01*
X128373200Y-101473400D02*
X127606000Y-101473400D01*
X129262600Y-100584000D02*
X128373200Y-101473400D01*
X123840000Y-91842600D02*
X126532600Y-89150000D01*
X123840000Y-101005800D02*
X123840000Y-91842600D01*
X124307600Y-101473400D02*
X123840000Y-101005800D01*
X127606000Y-101473400D02*
X124307600Y-101473400D01*
D26*
%TO.N,Net-(C2-Pad1)*%
X143516200Y-89150000D02*
X133810000Y-89150000D01*
X145405600Y-91039400D02*
X143516200Y-89150000D01*
X145405600Y-97536000D02*
X145405600Y-91039400D01*
X146050000Y-97536000D02*
X145405600Y-97536000D01*
X145405600Y-97536000D02*
X140970000Y-97536000D01*
X135890000Y-97536000D02*
X140970000Y-97536000D01*
%TO.N,Net-(C4-Pad1)*%
X126615300Y-93152000D02*
X132060000Y-93152000D01*
X124231000Y-95536300D02*
X126615300Y-93152000D01*
X124231000Y-98308900D02*
X124231000Y-95536300D01*
X125619100Y-99697000D02*
X124231000Y-98308900D01*
X125730000Y-99697000D02*
X125619100Y-99697000D01*
X125730000Y-100584000D02*
X125730000Y-99697000D01*
X132060000Y-91900000D02*
X132060000Y-93152000D01*
D25*
%TO.N,+1V5*%
X146050000Y-77216000D02*
X144502600Y-77216000D01*
X144177500Y-77541100D02*
X144502600Y-77216000D01*
X141920000Y-77541100D02*
X144177500Y-77541100D01*
X131560000Y-83284000D02*
X131560000Y-85900000D01*
X129261900Y-80985900D02*
X131560000Y-83284000D01*
X129261900Y-79533700D02*
X129261900Y-80985900D01*
X130125700Y-78669900D02*
X129261900Y-79533700D01*
X140163300Y-78669900D02*
X130125700Y-78669900D01*
X141292100Y-77541100D02*
X140163300Y-78669900D01*
X141920000Y-77541100D02*
X141292100Y-77541100D01*
D26*
%TO.N,/HP_L*%
X139173000Y-89650000D02*
X133810000Y-89650000D01*
X142123000Y-92600000D02*
X139173000Y-89650000D01*
X143775000Y-92600000D02*
X142123000Y-92600000D01*
%TO.N,/HP_R*%
X137512000Y-85200000D02*
X135062000Y-87650000D01*
X149823000Y-85200000D02*
X137512000Y-85200000D01*
X151175000Y-85200000D02*
X149823000Y-85200000D01*
X133810000Y-87650000D02*
X135062000Y-87650000D01*
%TO.N,/BCLK*%
X116205000Y-78064000D02*
X116205000Y-71120000D01*
X125319900Y-87178900D02*
X116205000Y-78064000D01*
X126529100Y-87178900D02*
X125319900Y-87178900D01*
X126558000Y-87150000D02*
X126529100Y-87178900D01*
X127810000Y-87150000D02*
X126558000Y-87150000D01*
%TO.N,/MCLK*%
X120105900Y-70496400D02*
X120105900Y-71120000D01*
X119207700Y-69598200D02*
X120105900Y-70496400D01*
X115719800Y-69598200D02*
X119207700Y-69598200D01*
X115037500Y-70280500D02*
X115719800Y-69598200D01*
X115037500Y-77714500D02*
X115037500Y-70280500D01*
X125973000Y-88650000D02*
X115037500Y-77714500D01*
X127810000Y-88650000D02*
X125973000Y-88650000D01*
X121285000Y-71120000D02*
X120105900Y-71120000D01*
%TO.N,/I2SRX*%
X128381800Y-85900000D02*
X128381800Y-85900100D01*
X129060000Y-85900000D02*
X128381800Y-85900000D01*
%TO.N,/SDA*%
X130060000Y-85900000D02*
X130060000Y-84648000D01*
X123891800Y-84292200D02*
X120650000Y-81050400D01*
X129404200Y-84292200D02*
X123891800Y-84292200D01*
X129760000Y-84648000D02*
X129404200Y-84292200D01*
X130060000Y-84648000D02*
X129760000Y-84648000D01*
X120650000Y-80264000D02*
X120650000Y-81050400D01*
X111125000Y-106680000D02*
X109945900Y-106680000D01*
X120650000Y-80264000D02*
X120650000Y-79377000D01*
X109945900Y-105500900D02*
X109945900Y-106680000D01*
X108991000Y-104546000D02*
X109945900Y-105500900D01*
X108991000Y-99808100D02*
X108991000Y-104546000D01*
X109079100Y-99720000D02*
X108991000Y-99808100D01*
X112704000Y-99720000D02*
X109079100Y-99720000D01*
X114432000Y-101448000D02*
X112704000Y-99720000D01*
X118210400Y-101448000D02*
X114432000Y-101448000D01*
X118376400Y-101282000D02*
X118210400Y-101448000D01*
X118376400Y-91785400D02*
X118376400Y-101282000D01*
X112482800Y-85891800D02*
X118376400Y-91785400D01*
X112482800Y-70319800D02*
X112482800Y-85891800D01*
X113613700Y-69188900D02*
X112482800Y-70319800D01*
X121350800Y-69188900D02*
X113613700Y-69188900D01*
X122482000Y-70320100D02*
X121350800Y-69188900D01*
X122482000Y-71929700D02*
X122482000Y-70320100D01*
X119151000Y-75260700D02*
X122482000Y-71929700D01*
X119151000Y-77988900D02*
X119151000Y-75260700D01*
X120539100Y-79377000D02*
X119151000Y-77988900D01*
X120650000Y-79377000D02*
X120539100Y-79377000D01*
%TO.N,/SCL*%
X125730000Y-80264000D02*
X127252000Y-80264000D01*
X131060000Y-85900000D02*
X131060000Y-84648000D01*
X127252000Y-80996300D02*
X130169300Y-83913600D01*
X127252000Y-80264000D02*
X127252000Y-80996300D01*
X130325600Y-83913600D02*
X131060000Y-84648000D01*
X130169300Y-83913600D02*
X130325600Y-83913600D01*
%TO.N,/I2STX*%
X127728300Y-84671000D02*
X125893900Y-86505400D01*
X129279700Y-84671000D02*
X127728300Y-84671000D01*
X129560000Y-84951300D02*
X129279700Y-84671000D01*
X129560000Y-85900000D02*
X129560000Y-84951300D01*
%TO.N,/LRCLK*%
X126423200Y-87650000D02*
X126194300Y-87878900D01*
X127810000Y-87650000D02*
X126423200Y-87650000D01*
%TO.N,VEE*%
X91582200Y-91453200D02*
X91440000Y-91311000D01*
X91582200Y-104380800D02*
X91582200Y-91453200D01*
X90805000Y-105158000D02*
X91582200Y-104380800D01*
X90805000Y-106680000D02*
X90805000Y-105158000D01*
X91440000Y-90424000D02*
X91440000Y-91311000D01*
X91440000Y-90424000D02*
X97790000Y-90424000D01*
X107815000Y-87200000D02*
X107815000Y-86348000D01*
X97790000Y-90424000D02*
X97790000Y-91311000D01*
X107315000Y-90600000D02*
X107315000Y-90750100D01*
X108042200Y-86348000D02*
X108291600Y-86098600D01*
X107815000Y-86348000D02*
X108042200Y-86348000D01*
X105892300Y-90177300D02*
X106315000Y-90600000D01*
X105892300Y-85783600D02*
X105892300Y-90177300D01*
X106711000Y-84964900D02*
X105892300Y-85783600D01*
X107980800Y-84964900D02*
X106711000Y-84964900D01*
X108374700Y-85358800D02*
X107980800Y-84964900D01*
X108374700Y-86015500D02*
X108374700Y-85358800D01*
X108291600Y-86098600D02*
X108374700Y-86015500D01*
X107315000Y-91152000D02*
X107315000Y-90750100D01*
X106682200Y-91784800D02*
X107315000Y-91152000D01*
X105947800Y-91784800D02*
X106682200Y-91784800D01*
X105710900Y-91547900D02*
X105947800Y-91784800D01*
X102595100Y-91547900D02*
X105710900Y-91547900D01*
X102358200Y-91311000D02*
X102595100Y-91547900D01*
X97790000Y-91311000D02*
X102358200Y-91311000D01*
X111998500Y-89805600D02*
X108291600Y-86098600D01*
X111998500Y-93206000D02*
X111998500Y-89805600D01*
X111829100Y-93375400D02*
X111998500Y-93206000D01*
X102817400Y-93375400D02*
X111829100Y-93375400D01*
X102595100Y-93153100D02*
X102817400Y-93375400D01*
X102595100Y-91547900D02*
X102595100Y-93153100D01*
%TO.N,Net-(C10-Pad1)*%
X110490000Y-95504000D02*
X110490000Y-96391000D01*
X110490000Y-97536000D02*
X110490000Y-96391000D01*
X116840000Y-97536000D02*
X110490000Y-97536000D01*
%TO.N,/AGND*%
X93345000Y-106680000D02*
X93345000Y-105158000D01*
X97032000Y-101471000D02*
X93345000Y-105158000D01*
X97790000Y-101471000D02*
X97032000Y-101471000D01*
X97790000Y-100584000D02*
X97790000Y-101471000D01*
X104140000Y-100584000D02*
X97790000Y-100584000D01*
X116840000Y-100584000D02*
X115318000Y-100584000D01*
X104140000Y-100584000D02*
X105662000Y-100584000D01*
X106940300Y-99305700D02*
X105662000Y-100584000D01*
X114039700Y-99305700D02*
X106940300Y-99305700D01*
X115318000Y-100584000D02*
X114039700Y-99305700D01*
%TO.N,Net-(C11-Pad1)*%
X97790000Y-97536000D02*
X97790000Y-96649000D01*
X104140000Y-96649000D02*
X97790000Y-96649000D01*
X104140000Y-97536000D02*
X104140000Y-96649000D01*
X104140000Y-96649000D02*
X104140000Y-95504000D01*
%TO.N,Net-(C10-Pad2)*%
X108968000Y-92105000D02*
X108315000Y-91452000D01*
X108968000Y-92456000D02*
X108968000Y-92105000D01*
X110490000Y-92456000D02*
X108968000Y-92456000D01*
X108315000Y-90600000D02*
X108315000Y-91452000D01*
%TO.N,Net-(C11-Pad2)*%
X107815000Y-90600000D02*
X107815000Y-91452000D01*
X104140000Y-92456000D02*
X105662000Y-92456000D01*
X106811000Y-92456000D02*
X107815000Y-91452000D01*
X105662000Y-92456000D02*
X106811000Y-92456000D01*
%TO.N,/DAC*%
X125185900Y-106056400D02*
X125185900Y-106680000D01*
X123583700Y-104454200D02*
X125185900Y-106056400D01*
X113473200Y-104454200D02*
X123583700Y-104454200D01*
X110490000Y-101471000D02*
X113473200Y-104454200D01*
X110490000Y-100584000D02*
X110490000Y-101471000D01*
X126365000Y-106680000D02*
X125185900Y-106680000D01*
%TO.N,/SPEAKER_ENABLE*%
X106815000Y-91148700D02*
X106815000Y-90600000D01*
X106534800Y-91428900D02*
X106815000Y-91148700D01*
X106095200Y-91428900D02*
X106534800Y-91428900D01*
X105536300Y-90870000D02*
X106095200Y-91428900D01*
X105536300Y-74168700D02*
X105536300Y-90870000D01*
X107405900Y-72299100D02*
X105536300Y-74168700D01*
X107405900Y-71120000D02*
X107405900Y-72299100D01*
X108585000Y-71120000D02*
X107405900Y-71120000D01*
%TO.N,/AMP-*%
X106815000Y-86260500D02*
X106607700Y-86053200D01*
X106815000Y-87200000D02*
X106815000Y-86260500D01*
%TO.N,/AMP+*%
X108861500Y-87746500D02*
X108861500Y-88599800D01*
X108315000Y-87200000D02*
X108861500Y-87746500D01*
%TD*%
D27*
%TO.N,GND*%
G36*
X155790900Y-109435900D02*
X86144100Y-109435900D01*
X86144100Y-106306248D01*
X87033100Y-106306248D01*
X87033100Y-107053752D01*
X87126873Y-107525180D01*
X87393915Y-107924837D01*
X87793572Y-108191879D01*
X88265000Y-108285652D01*
X88736428Y-108191879D01*
X89136085Y-107924837D01*
X89403127Y-107525180D01*
X89496900Y-107053752D01*
X89496900Y-106306248D01*
X89403127Y-105834820D01*
X89136085Y-105435163D01*
X88736428Y-105168121D01*
X88265000Y-105074348D01*
X87793572Y-105168121D01*
X87393915Y-105435163D01*
X87126873Y-105834820D01*
X87033100Y-106306248D01*
X86144100Y-106306248D01*
X86144100Y-102012477D01*
X87451840Y-102012477D01*
X87768259Y-102778270D01*
X88353648Y-103364682D01*
X89118888Y-103682437D01*
X89947477Y-103683160D01*
X90713270Y-103366741D01*
X91150400Y-102930374D01*
X91150400Y-104201942D01*
X90499671Y-104852671D01*
X90406069Y-104992757D01*
X90373200Y-105158000D01*
X90373200Y-105160238D01*
X90333572Y-105168121D01*
X89933915Y-105435163D01*
X89666873Y-105834820D01*
X89573100Y-106306248D01*
X89573100Y-107053752D01*
X89666873Y-107525180D01*
X89933915Y-107924837D01*
X90333572Y-108191879D01*
X90805000Y-108285652D01*
X91276428Y-108191879D01*
X91676085Y-107924837D01*
X91943127Y-107525180D01*
X92036900Y-107053752D01*
X92036900Y-106306248D01*
X92113100Y-106306248D01*
X92113100Y-107053752D01*
X92206873Y-107525180D01*
X92473915Y-107924837D01*
X92873572Y-108191879D01*
X93345000Y-108285652D01*
X93816428Y-108191879D01*
X94216085Y-107924837D01*
X94483127Y-107525180D01*
X94576900Y-107053752D01*
X94576900Y-106306248D01*
X94483127Y-105834820D01*
X94216085Y-105435163D01*
X93893823Y-105219835D01*
X97210857Y-101902800D01*
X97790000Y-101902800D01*
X97955243Y-101869931D01*
X98095329Y-101776329D01*
X98188931Y-101636243D01*
X98210110Y-101529771D01*
X99060000Y-101529771D01*
X99178927Y-101506115D01*
X99279748Y-101438748D01*
X99347115Y-101337927D01*
X99370771Y-101219000D01*
X99370771Y-101015800D01*
X102559229Y-101015800D01*
X102559229Y-101219000D01*
X102582885Y-101337927D01*
X102650252Y-101438748D01*
X102751073Y-101506115D01*
X102870000Y-101529771D01*
X105410000Y-101529771D01*
X105528927Y-101506115D01*
X105629748Y-101438748D01*
X105697115Y-101337927D01*
X105720771Y-101219000D01*
X105720771Y-101004110D01*
X105827243Y-100982931D01*
X105967329Y-100889329D01*
X107119158Y-99737500D01*
X108573243Y-99737500D01*
X108559200Y-99808100D01*
X108559200Y-104546000D01*
X108592069Y-104711243D01*
X108624333Y-104759529D01*
X108685671Y-104851329D01*
X108989064Y-105154721D01*
X108585000Y-105074348D01*
X108113572Y-105168121D01*
X107713915Y-105435163D01*
X107446873Y-105834820D01*
X107353100Y-106306248D01*
X107353100Y-107053752D01*
X107446873Y-107525180D01*
X107597694Y-107750900D01*
X107032306Y-107750900D01*
X107183127Y-107525180D01*
X107276900Y-107053752D01*
X107276900Y-106306248D01*
X107183127Y-105834820D01*
X106916085Y-105435163D01*
X106516428Y-105168121D01*
X106045000Y-105074348D01*
X105573572Y-105168121D01*
X105173915Y-105435163D01*
X104906873Y-105834820D01*
X104813100Y-106306248D01*
X104813100Y-107053752D01*
X104906873Y-107525180D01*
X105057694Y-107750900D01*
X104492306Y-107750900D01*
X104643127Y-107525180D01*
X104736900Y-107053752D01*
X104736900Y-106306248D01*
X104643127Y-105834820D01*
X104376085Y-105435163D01*
X103976428Y-105168121D01*
X103505000Y-105074348D01*
X103033572Y-105168121D01*
X102633915Y-105435163D01*
X102366873Y-105834820D01*
X102273100Y-106306248D01*
X102273100Y-107053752D01*
X102366873Y-107525180D01*
X102517694Y-107750900D01*
X101952306Y-107750900D01*
X102103127Y-107525180D01*
X102196900Y-107053752D01*
X102196900Y-106306248D01*
X102103127Y-105834820D01*
X101836085Y-105435163D01*
X101436428Y-105168121D01*
X100965000Y-105074348D01*
X100493572Y-105168121D01*
X100093915Y-105435163D01*
X99826873Y-105834820D01*
X99733100Y-106306248D01*
X99733100Y-107053752D01*
X99826873Y-107525180D01*
X99977694Y-107750900D01*
X99412306Y-107750900D01*
X99563127Y-107525180D01*
X99656900Y-107053752D01*
X99656900Y-106306248D01*
X99563127Y-105834820D01*
X99296085Y-105435163D01*
X98896428Y-105168121D01*
X98425000Y-105074348D01*
X97953572Y-105168121D01*
X97553915Y-105435163D01*
X97286873Y-105834820D01*
X97205124Y-106245799D01*
X97100746Y-106225037D01*
X97023127Y-105834820D01*
X96756085Y-105435163D01*
X96356428Y-105168121D01*
X95885000Y-105074348D01*
X95413572Y-105168121D01*
X95013915Y-105435163D01*
X94746873Y-105834820D01*
X94653100Y-106306248D01*
X94653100Y-107053752D01*
X94746873Y-107525180D01*
X95013915Y-107924837D01*
X95413572Y-108191879D01*
X95885000Y-108285652D01*
X96356428Y-108191879D01*
X96756085Y-107924837D01*
X96834141Y-107808019D01*
X97557511Y-108531389D01*
X97705837Y-108630498D01*
X97880800Y-108665300D01*
X126890200Y-108665300D01*
X127065163Y-108630498D01*
X127213489Y-108531389D01*
X127929289Y-107815589D01*
X128028398Y-107667263D01*
X128063200Y-107492300D01*
X128063200Y-107092477D01*
X128091840Y-107092477D01*
X128408259Y-107858270D01*
X128993648Y-108444682D01*
X129758888Y-108762437D01*
X130587477Y-108763160D01*
X131353270Y-108446741D01*
X131939682Y-107861352D01*
X132257437Y-107096112D01*
X132258160Y-106267523D01*
X131941741Y-105501730D01*
X131356352Y-104915318D01*
X130591112Y-104597563D01*
X129762523Y-104596840D01*
X128996730Y-104913259D01*
X128410318Y-105498648D01*
X128092563Y-106263888D01*
X128091840Y-107092477D01*
X128063200Y-107092477D01*
X128063200Y-101930600D01*
X128373200Y-101930600D01*
X128548163Y-101895798D01*
X128696489Y-101796689D01*
X129236687Y-101256492D01*
X129252885Y-101337927D01*
X129320252Y-101438748D01*
X129421073Y-101506115D01*
X129540000Y-101529771D01*
X132080000Y-101529771D01*
X132198927Y-101506115D01*
X132299748Y-101438748D01*
X132367115Y-101337927D01*
X132390771Y-101219000D01*
X132390771Y-101041200D01*
X134309229Y-101041200D01*
X134309229Y-101219000D01*
X134332885Y-101337927D01*
X134400252Y-101438748D01*
X134501073Y-101506115D01*
X134620000Y-101529771D01*
X137160000Y-101529771D01*
X137278927Y-101506115D01*
X137379748Y-101438748D01*
X137447115Y-101337927D01*
X137463313Y-101256492D01*
X138003511Y-101796690D01*
X138151837Y-101895798D01*
X138326800Y-101930600D01*
X147448700Y-101930600D01*
X147623663Y-101895798D01*
X147771989Y-101796689D01*
X149571889Y-99996789D01*
X149670998Y-99848463D01*
X149705800Y-99673500D01*
X149705800Y-91200000D01*
X151764229Y-91200000D01*
X151764229Y-94000000D01*
X151787885Y-94118927D01*
X151855252Y-94219748D01*
X151956073Y-94287115D01*
X152075000Y-94310771D01*
X154275000Y-94310771D01*
X154393927Y-94287115D01*
X154494748Y-94219748D01*
X154562115Y-94118927D01*
X154585771Y-94000000D01*
X154585771Y-91200000D01*
X154562115Y-91081073D01*
X154494748Y-90980252D01*
X154393927Y-90912885D01*
X154275000Y-90889229D01*
X152075000Y-90889229D01*
X151956073Y-90912885D01*
X151855252Y-90980252D01*
X151787885Y-91081073D01*
X151764229Y-91200000D01*
X149705800Y-91200000D01*
X149705800Y-89980778D01*
X150720141Y-88966437D01*
X150719965Y-89168304D01*
X150925787Y-89666430D01*
X151306566Y-90047874D01*
X151804331Y-90254564D01*
X152343304Y-90255035D01*
X152841430Y-90049213D01*
X153222874Y-89668434D01*
X153429564Y-89170669D01*
X153430035Y-88631696D01*
X153224213Y-88133570D01*
X152843434Y-87752126D01*
X152345669Y-87545436D01*
X152141321Y-87545257D01*
X152374978Y-87311600D01*
X152380300Y-87311600D01*
X152555263Y-87276798D01*
X152703589Y-87177689D01*
X152852589Y-87028689D01*
X152951698Y-86880363D01*
X152986500Y-86705400D01*
X152986500Y-81400800D01*
X152951698Y-81225837D01*
X152940963Y-81209771D01*
X152852589Y-81077510D01*
X147778389Y-76003311D01*
X147630063Y-75904202D01*
X147455100Y-75869400D01*
X140884000Y-75869400D01*
X140709037Y-75904202D01*
X140560711Y-76003310D01*
X139834053Y-76729969D01*
X139669520Y-76729969D01*
X139550593Y-76753625D01*
X139542848Y-76758800D01*
X137470771Y-76758800D01*
X137470771Y-76581000D01*
X137447115Y-76462073D01*
X137379748Y-76361252D01*
X137278927Y-76293885D01*
X137160000Y-76270229D01*
X134620000Y-76270229D01*
X134501073Y-76293885D01*
X134400252Y-76361252D01*
X134332885Y-76462073D01*
X134309229Y-76581000D01*
X134309229Y-76758800D01*
X132390771Y-76758800D01*
X132390771Y-76581000D01*
X132367115Y-76462073D01*
X132299748Y-76361252D01*
X132198927Y-76293885D01*
X132080000Y-76270229D01*
X129540000Y-76270229D01*
X129421073Y-76293885D01*
X129320252Y-76361252D01*
X129252885Y-76462073D01*
X129229229Y-76581000D01*
X129229229Y-76758800D01*
X127310771Y-76758800D01*
X127310771Y-76581000D01*
X127287115Y-76462073D01*
X127219748Y-76361252D01*
X127118927Y-76293885D01*
X127000000Y-76270229D01*
X124460000Y-76270229D01*
X124341073Y-76293885D01*
X124240252Y-76361252D01*
X124172885Y-76462073D01*
X124149229Y-76581000D01*
X124149229Y-76758800D01*
X122230771Y-76758800D01*
X122230771Y-76581000D01*
X122207115Y-76462073D01*
X122139748Y-76361252D01*
X122038927Y-76293885D01*
X121920000Y-76270229D01*
X119582800Y-76270229D01*
X119582800Y-75439558D01*
X122787326Y-72235031D01*
X122787329Y-72235029D01*
X122827254Y-72175276D01*
X122953915Y-72364837D01*
X123353572Y-72631879D01*
X123825000Y-72725652D01*
X124296428Y-72631879D01*
X124696085Y-72364837D01*
X124963127Y-71965180D01*
X125056900Y-71493752D01*
X125056900Y-70746248D01*
X125133100Y-70746248D01*
X125133100Y-71493752D01*
X125226873Y-71965180D01*
X125493915Y-72364837D01*
X125893572Y-72631879D01*
X126365000Y-72725652D01*
X126836428Y-72631879D01*
X127236085Y-72364837D01*
X127503127Y-71965180D01*
X127589197Y-71532477D01*
X128091840Y-71532477D01*
X128408259Y-72298270D01*
X128993648Y-72884682D01*
X129758888Y-73202437D01*
X130587477Y-73203160D01*
X131353270Y-72886741D01*
X131939682Y-72301352D01*
X132257437Y-71536112D01*
X132258160Y-70707523D01*
X131941741Y-69941730D01*
X131356352Y-69355318D01*
X130591112Y-69037563D01*
X129762523Y-69036840D01*
X128996730Y-69353259D01*
X128410318Y-69938648D01*
X128092563Y-70703888D01*
X128091840Y-71532477D01*
X127589197Y-71532477D01*
X127596900Y-71493752D01*
X127596900Y-70746248D01*
X127503127Y-70274820D01*
X127236085Y-69875163D01*
X126836428Y-69608121D01*
X126365000Y-69514348D01*
X125893572Y-69608121D01*
X125493915Y-69875163D01*
X125226873Y-70274820D01*
X125133100Y-70746248D01*
X125056900Y-70746248D01*
X124963127Y-70274820D01*
X124696085Y-69875163D01*
X124296428Y-69608121D01*
X123825000Y-69514348D01*
X123353572Y-69608121D01*
X122953915Y-69875163D01*
X122823980Y-70069624D01*
X122787329Y-70014771D01*
X122787326Y-70014769D01*
X121656129Y-68883571D01*
X121516043Y-68789969D01*
X121350800Y-68757100D01*
X113613700Y-68757100D01*
X113448457Y-68789969D01*
X113308371Y-68883571D01*
X112177471Y-70014471D01*
X112133319Y-70080549D01*
X111996085Y-69875163D01*
X111596428Y-69608121D01*
X111125000Y-69514348D01*
X110653572Y-69608121D01*
X110253915Y-69875163D01*
X109986873Y-70274820D01*
X109893100Y-70746248D01*
X109893100Y-71493752D01*
X109986873Y-71965180D01*
X110253915Y-72364837D01*
X110653572Y-72631879D01*
X111125000Y-72725652D01*
X111596428Y-72631879D01*
X111996085Y-72364837D01*
X112051000Y-72282651D01*
X112051000Y-85891800D01*
X112083869Y-86057043D01*
X112133553Y-86131400D01*
X112177471Y-86197129D01*
X117944600Y-91964258D01*
X117944600Y-96590229D01*
X115570000Y-96590229D01*
X115451073Y-96613885D01*
X115350252Y-96681252D01*
X115282885Y-96782073D01*
X115259229Y-96901000D01*
X115259229Y-97104200D01*
X112070771Y-97104200D01*
X112070771Y-96901000D01*
X112047115Y-96782073D01*
X111979748Y-96681252D01*
X111878927Y-96613885D01*
X111760000Y-96590229D01*
X110921800Y-96590229D01*
X110921800Y-96449771D01*
X111760000Y-96449771D01*
X111878927Y-96426115D01*
X111979748Y-96358748D01*
X112047115Y-96257927D01*
X112070771Y-96139000D01*
X112070771Y-94869000D01*
X112047115Y-94750073D01*
X111979748Y-94649252D01*
X111878927Y-94581885D01*
X111760000Y-94558229D01*
X109220000Y-94558229D01*
X109101073Y-94581885D01*
X109000252Y-94649252D01*
X108932885Y-94750073D01*
X108909229Y-94869000D01*
X108909229Y-96139000D01*
X108932885Y-96257927D01*
X109000252Y-96358748D01*
X109101073Y-96426115D01*
X109220000Y-96449771D01*
X110058200Y-96449771D01*
X110058200Y-96590229D01*
X109220000Y-96590229D01*
X109101073Y-96613885D01*
X109000252Y-96681252D01*
X108932885Y-96782073D01*
X108909229Y-96901000D01*
X108909229Y-98171000D01*
X108932885Y-98289927D01*
X109000252Y-98390748D01*
X109101073Y-98458115D01*
X109220000Y-98481771D01*
X111760000Y-98481771D01*
X111878927Y-98458115D01*
X111979748Y-98390748D01*
X112047115Y-98289927D01*
X112070771Y-98171000D01*
X112070771Y-97967800D01*
X115259229Y-97967800D01*
X115259229Y-98171000D01*
X115282885Y-98289927D01*
X115350252Y-98390748D01*
X115451073Y-98458115D01*
X115570000Y-98481771D01*
X117944600Y-98481771D01*
X117944600Y-99638229D01*
X115570000Y-99638229D01*
X115451073Y-99661885D01*
X115350252Y-99729252D01*
X115282885Y-99830073D01*
X115264941Y-99920283D01*
X114345029Y-99000371D01*
X114204943Y-98906769D01*
X114039700Y-98873900D01*
X106940300Y-98873900D01*
X106775057Y-98906769D01*
X106634971Y-99000371D01*
X105715059Y-99920283D01*
X105697115Y-99830073D01*
X105629748Y-99729252D01*
X105528927Y-99661885D01*
X105410000Y-99638229D01*
X102870000Y-99638229D01*
X102751073Y-99661885D01*
X102650252Y-99729252D01*
X102582885Y-99830073D01*
X102559229Y-99949000D01*
X102559229Y-100152200D01*
X99370771Y-100152200D01*
X99370771Y-99949000D01*
X99347115Y-99830073D01*
X99279748Y-99729252D01*
X99178927Y-99661885D01*
X99060000Y-99638229D01*
X96520000Y-99638229D01*
X96401073Y-99661885D01*
X96300252Y-99729252D01*
X96232885Y-99830073D01*
X96209229Y-99949000D01*
X96209229Y-101219000D01*
X96232885Y-101337927D01*
X96300252Y-101438748D01*
X96392174Y-101500169D01*
X93039671Y-104852671D01*
X92946069Y-104992757D01*
X92913200Y-105158000D01*
X92913200Y-105160238D01*
X92873572Y-105168121D01*
X92473915Y-105435163D01*
X92206873Y-105834820D01*
X92113100Y-106306248D01*
X92036900Y-106306248D01*
X91943127Y-105834820D01*
X91676085Y-105435163D01*
X91353823Y-105219835D01*
X91887529Y-104686129D01*
X91932087Y-104619443D01*
X91981131Y-104546043D01*
X91999400Y-104454200D01*
X92014001Y-104380800D01*
X92014000Y-104380795D01*
X92014000Y-96901000D01*
X96209229Y-96901000D01*
X96209229Y-98171000D01*
X96232885Y-98289927D01*
X96300252Y-98390748D01*
X96401073Y-98458115D01*
X96520000Y-98481771D01*
X99060000Y-98481771D01*
X99178927Y-98458115D01*
X99279748Y-98390748D01*
X99347115Y-98289927D01*
X99370771Y-98171000D01*
X99370771Y-97080800D01*
X102559229Y-97080800D01*
X102559229Y-98171000D01*
X102582885Y-98289927D01*
X102650252Y-98390748D01*
X102751073Y-98458115D01*
X102870000Y-98481771D01*
X105410000Y-98481771D01*
X105528927Y-98458115D01*
X105629748Y-98390748D01*
X105697115Y-98289927D01*
X105720771Y-98171000D01*
X105720771Y-96901000D01*
X105697115Y-96782073D01*
X105629748Y-96681252D01*
X105528927Y-96613885D01*
X105410000Y-96590229D01*
X104571800Y-96590229D01*
X104571800Y-96449771D01*
X105410000Y-96449771D01*
X105528927Y-96426115D01*
X105629748Y-96358748D01*
X105697115Y-96257927D01*
X105720771Y-96139000D01*
X105720771Y-94869000D01*
X105697115Y-94750073D01*
X105629748Y-94649252D01*
X105528927Y-94581885D01*
X105410000Y-94558229D01*
X102870000Y-94558229D01*
X102751073Y-94581885D01*
X102650252Y-94649252D01*
X102582885Y-94750073D01*
X102559229Y-94869000D01*
X102559229Y-96139000D01*
X102574784Y-96217200D01*
X97790000Y-96217200D01*
X97624757Y-96250069D01*
X97484671Y-96343671D01*
X97391069Y-96483757D01*
X97369890Y-96590229D01*
X96520000Y-96590229D01*
X96401073Y-96613885D01*
X96300252Y-96681252D01*
X96232885Y-96782073D01*
X96209229Y-96901000D01*
X92014000Y-96901000D01*
X92014000Y-91453200D01*
X91997405Y-91369771D01*
X92710000Y-91369771D01*
X92828927Y-91346115D01*
X92929748Y-91278748D01*
X92997115Y-91177927D01*
X93020771Y-91059000D01*
X93020771Y-90855800D01*
X96209229Y-90855800D01*
X96209229Y-91059000D01*
X96232885Y-91177927D01*
X96300252Y-91278748D01*
X96401073Y-91346115D01*
X96520000Y-91369771D01*
X97369890Y-91369771D01*
X97391069Y-91476243D01*
X97484671Y-91616329D01*
X97624757Y-91709931D01*
X97790000Y-91742800D01*
X102163300Y-91742800D01*
X102163300Y-93153100D01*
X102196169Y-93318343D01*
X102251914Y-93401771D01*
X102289771Y-93458429D01*
X102512069Y-93680726D01*
X102512071Y-93680729D01*
X102652157Y-93774331D01*
X102679573Y-93779785D01*
X102817400Y-93807201D01*
X102817405Y-93807200D01*
X111829100Y-93807200D01*
X111994343Y-93774331D01*
X112134429Y-93680729D01*
X112303829Y-93511329D01*
X112339910Y-93457329D01*
X112397431Y-93371243D01*
X112407954Y-93318342D01*
X112430301Y-93206000D01*
X112430300Y-93205995D01*
X112430300Y-89805600D01*
X112416831Y-89737885D01*
X112397434Y-89640363D01*
X112397431Y-89640359D01*
X112397431Y-89640357D01*
X112357008Y-89579860D01*
X112303833Y-89500275D01*
X108806500Y-86002848D01*
X108806500Y-85358805D01*
X108806501Y-85358800D01*
X108779085Y-85220973D01*
X108773631Y-85193557D01*
X108680029Y-85053471D01*
X108286129Y-84659571D01*
X108216258Y-84612885D01*
X108146043Y-84565969D01*
X107980800Y-84533100D01*
X106711005Y-84533100D01*
X106711000Y-84533099D01*
X106545758Y-84565968D01*
X106545756Y-84565969D01*
X106545757Y-84565969D01*
X106405671Y-84659571D01*
X106405669Y-84659574D01*
X105968100Y-85097142D01*
X105968100Y-74347558D01*
X107711226Y-72604431D01*
X107711229Y-72604429D01*
X107804831Y-72464343D01*
X107811636Y-72430132D01*
X108113572Y-72631879D01*
X108585000Y-72725652D01*
X109056428Y-72631879D01*
X109456085Y-72364837D01*
X109723127Y-71965180D01*
X109816900Y-71493752D01*
X109816900Y-70746248D01*
X109723127Y-70274820D01*
X109456085Y-69875163D01*
X109056428Y-69608121D01*
X108585000Y-69514348D01*
X108113572Y-69608121D01*
X107713915Y-69875163D01*
X107446873Y-70274820D01*
X107362947Y-70696744D01*
X107270703Y-70715093D01*
X107183127Y-70274820D01*
X106916085Y-69875163D01*
X106516428Y-69608121D01*
X106045000Y-69514348D01*
X105573572Y-69608121D01*
X105173915Y-69875163D01*
X104906873Y-70274820D01*
X104813100Y-70746248D01*
X104813100Y-71493752D01*
X104906873Y-71965180D01*
X105173915Y-72364837D01*
X105573572Y-72631879D01*
X106045000Y-72725652D01*
X106449064Y-72645279D01*
X105230971Y-73863371D01*
X105137369Y-74003457D01*
X105104500Y-74168700D01*
X105104500Y-90870000D01*
X105137369Y-91035243D01*
X105191396Y-91116100D01*
X102773958Y-91116100D01*
X102663529Y-91005671D01*
X102653442Y-90998931D01*
X102523443Y-90912069D01*
X102358200Y-90879200D01*
X99370771Y-90879200D01*
X99370771Y-89789000D01*
X99347115Y-89670073D01*
X99279748Y-89569252D01*
X99178927Y-89501885D01*
X99060000Y-89478229D01*
X96520000Y-89478229D01*
X96401073Y-89501885D01*
X96300252Y-89569252D01*
X96232885Y-89670073D01*
X96209229Y-89789000D01*
X96209229Y-89992200D01*
X93020771Y-89992200D01*
X93020771Y-89789000D01*
X92997115Y-89670073D01*
X92929748Y-89569252D01*
X92828927Y-89501885D01*
X92710000Y-89478229D01*
X90170000Y-89478229D01*
X90051073Y-89501885D01*
X89950252Y-89569252D01*
X89882885Y-89670073D01*
X89859229Y-89789000D01*
X89859229Y-91059000D01*
X89882885Y-91177927D01*
X89950252Y-91278748D01*
X90051073Y-91346115D01*
X90170000Y-91369771D01*
X91019890Y-91369771D01*
X91041069Y-91476243D01*
X91090974Y-91550931D01*
X91134671Y-91616329D01*
X91150400Y-91632058D01*
X91150400Y-100270125D01*
X90716352Y-99835318D01*
X89951112Y-99517563D01*
X89122523Y-99516840D01*
X88356730Y-99833259D01*
X87770318Y-100418648D01*
X87452563Y-101183888D01*
X87451840Y-102012477D01*
X86144100Y-102012477D01*
X86144100Y-87680800D01*
X89560400Y-87680800D01*
X89560400Y-88132257D01*
X89653206Y-88356311D01*
X89824689Y-88527794D01*
X90048743Y-88620600D01*
X91135200Y-88620600D01*
X91287600Y-88468200D01*
X91287600Y-87528400D01*
X91592400Y-87528400D01*
X91592400Y-88468200D01*
X91744800Y-88620600D01*
X92831257Y-88620600D01*
X93055311Y-88527794D01*
X93226794Y-88356311D01*
X93319600Y-88132257D01*
X93319600Y-87680800D01*
X95910400Y-87680800D01*
X95910400Y-88132257D01*
X96003206Y-88356311D01*
X96174689Y-88527794D01*
X96398743Y-88620600D01*
X97485200Y-88620600D01*
X97637600Y-88468200D01*
X97637600Y-87528400D01*
X97942400Y-87528400D01*
X97942400Y-88468200D01*
X98094800Y-88620600D01*
X99181257Y-88620600D01*
X99405311Y-88527794D01*
X99576794Y-88356311D01*
X99669600Y-88132257D01*
X99669600Y-87680800D01*
X99517200Y-87528400D01*
X97942400Y-87528400D01*
X97637600Y-87528400D01*
X96062800Y-87528400D01*
X95910400Y-87680800D01*
X93319600Y-87680800D01*
X93167200Y-87528400D01*
X91592400Y-87528400D01*
X91287600Y-87528400D01*
X89712800Y-87528400D01*
X89560400Y-87680800D01*
X86144100Y-87680800D01*
X86144100Y-86619743D01*
X89560400Y-86619743D01*
X89560400Y-87071200D01*
X89712800Y-87223600D01*
X91287600Y-87223600D01*
X91287600Y-86283800D01*
X91592400Y-86283800D01*
X91592400Y-87223600D01*
X93167200Y-87223600D01*
X93319600Y-87071200D01*
X93319600Y-86619743D01*
X95910400Y-86619743D01*
X95910400Y-87071200D01*
X96062800Y-87223600D01*
X97637600Y-87223600D01*
X97637600Y-86283800D01*
X97942400Y-86283800D01*
X97942400Y-87223600D01*
X99517200Y-87223600D01*
X99669600Y-87071200D01*
X99669600Y-86619743D01*
X99576794Y-86395689D01*
X99405311Y-86224206D01*
X99181257Y-86131400D01*
X98094800Y-86131400D01*
X97942400Y-86283800D01*
X97637600Y-86283800D01*
X97485200Y-86131400D01*
X96398743Y-86131400D01*
X96174689Y-86224206D01*
X96003206Y-86395689D01*
X95910400Y-86619743D01*
X93319600Y-86619743D01*
X93226794Y-86395689D01*
X93055311Y-86224206D01*
X92831257Y-86131400D01*
X91744800Y-86131400D01*
X91592400Y-86283800D01*
X91287600Y-86283800D01*
X91135200Y-86131400D01*
X90048743Y-86131400D01*
X89824689Y-86224206D01*
X89653206Y-86395689D01*
X89560400Y-86619743D01*
X86144100Y-86619743D01*
X86144100Y-76612477D01*
X87451840Y-76612477D01*
X87768259Y-77378270D01*
X88353648Y-77964682D01*
X89118888Y-78282437D01*
X89947477Y-78283160D01*
X90713270Y-77966741D01*
X91299682Y-77381352D01*
X91617437Y-76616112D01*
X91618160Y-75787523D01*
X91301741Y-75021730D01*
X90716352Y-74435318D01*
X89951112Y-74117563D01*
X89122523Y-74116840D01*
X88356730Y-74433259D01*
X87770318Y-75018648D01*
X87452563Y-75783888D01*
X87451840Y-76612477D01*
X86144100Y-76612477D01*
X86144100Y-69850000D01*
X87027129Y-69850000D01*
X87027129Y-72390000D01*
X87050785Y-72508927D01*
X87118152Y-72609748D01*
X87218973Y-72677115D01*
X87337900Y-72700771D01*
X89192100Y-72700771D01*
X89311027Y-72677115D01*
X89411848Y-72609748D01*
X89479215Y-72508927D01*
X89502871Y-72390000D01*
X89502871Y-72263898D01*
X89826152Y-72657274D01*
X90357730Y-72940947D01*
X90415269Y-72949357D01*
X90652600Y-72838785D01*
X90652600Y-71272400D01*
X90632600Y-71272400D01*
X90632600Y-70967600D01*
X90652600Y-70967600D01*
X90652600Y-69401215D01*
X90957400Y-69401215D01*
X90957400Y-70967600D01*
X90977400Y-70967600D01*
X90977400Y-71272400D01*
X90957400Y-71272400D01*
X90957400Y-72838785D01*
X91194731Y-72949357D01*
X91252270Y-72940947D01*
X91783848Y-72657274D01*
X92166405Y-72191769D01*
X92226414Y-71994425D01*
X92473915Y-72364837D01*
X92873572Y-72631879D01*
X93345000Y-72725652D01*
X93816428Y-72631879D01*
X94216085Y-72364837D01*
X94483127Y-71965180D01*
X94576900Y-71493752D01*
X94576900Y-70746248D01*
X94653100Y-70746248D01*
X94653100Y-71493752D01*
X94746873Y-71965180D01*
X95013915Y-72364837D01*
X95413572Y-72631879D01*
X95885000Y-72725652D01*
X96356428Y-72631879D01*
X96756085Y-72364837D01*
X97023127Y-71965180D01*
X97116900Y-71493752D01*
X97116900Y-70746248D01*
X97193100Y-70746248D01*
X97193100Y-71493752D01*
X97286873Y-71965180D01*
X97553915Y-72364837D01*
X97953572Y-72631879D01*
X98425000Y-72725652D01*
X98896428Y-72631879D01*
X99296085Y-72364837D01*
X99563127Y-71965180D01*
X99656900Y-71493752D01*
X99656900Y-70746248D01*
X99733100Y-70746248D01*
X99733100Y-71493752D01*
X99826873Y-71965180D01*
X100093915Y-72364837D01*
X100493572Y-72631879D01*
X100965000Y-72725652D01*
X101436428Y-72631879D01*
X101836085Y-72364837D01*
X102103127Y-71965180D01*
X102196900Y-71493752D01*
X102196900Y-70746248D01*
X102273100Y-70746248D01*
X102273100Y-71493752D01*
X102366873Y-71965180D01*
X102633915Y-72364837D01*
X103033572Y-72631879D01*
X103505000Y-72725652D01*
X103976428Y-72631879D01*
X104376085Y-72364837D01*
X104643127Y-71965180D01*
X104736900Y-71493752D01*
X104736900Y-70746248D01*
X104643127Y-70274820D01*
X104376085Y-69875163D01*
X103976428Y-69608121D01*
X103505000Y-69514348D01*
X103033572Y-69608121D01*
X102633915Y-69875163D01*
X102366873Y-70274820D01*
X102273100Y-70746248D01*
X102196900Y-70746248D01*
X102103127Y-70274820D01*
X101836085Y-69875163D01*
X101436428Y-69608121D01*
X100965000Y-69514348D01*
X100493572Y-69608121D01*
X100093915Y-69875163D01*
X99826873Y-70274820D01*
X99733100Y-70746248D01*
X99656900Y-70746248D01*
X99563127Y-70274820D01*
X99296085Y-69875163D01*
X98896428Y-69608121D01*
X98425000Y-69514348D01*
X97953572Y-69608121D01*
X97553915Y-69875163D01*
X97286873Y-70274820D01*
X97193100Y-70746248D01*
X97116900Y-70746248D01*
X97023127Y-70274820D01*
X96756085Y-69875163D01*
X96356428Y-69608121D01*
X95885000Y-69514348D01*
X95413572Y-69608121D01*
X95013915Y-69875163D01*
X94746873Y-70274820D01*
X94653100Y-70746248D01*
X94576900Y-70746248D01*
X94483127Y-70274820D01*
X94216085Y-69875163D01*
X93816428Y-69608121D01*
X93345000Y-69514348D01*
X92873572Y-69608121D01*
X92473915Y-69875163D01*
X92226414Y-70245575D01*
X92166405Y-70048231D01*
X91783848Y-69582726D01*
X91252270Y-69299053D01*
X91194731Y-69290643D01*
X90957400Y-69401215D01*
X90652600Y-69401215D01*
X90415269Y-69290643D01*
X90357730Y-69299053D01*
X89826152Y-69582726D01*
X89502871Y-69976102D01*
X89502871Y-69850000D01*
X89479215Y-69731073D01*
X89411848Y-69630252D01*
X89311027Y-69562885D01*
X89192100Y-69539229D01*
X87337900Y-69539229D01*
X87218973Y-69562885D01*
X87118152Y-69630252D01*
X87050785Y-69731073D01*
X87027129Y-69850000D01*
X86144100Y-69850000D01*
X86144100Y-68364100D01*
X155790900Y-68364100D01*
X155790900Y-109435900D01*
X155790900Y-109435900D01*
G37*
X155790900Y-109435900D02*
X86144100Y-109435900D01*
X86144100Y-106306248D01*
X87033100Y-106306248D01*
X87033100Y-107053752D01*
X87126873Y-107525180D01*
X87393915Y-107924837D01*
X87793572Y-108191879D01*
X88265000Y-108285652D01*
X88736428Y-108191879D01*
X89136085Y-107924837D01*
X89403127Y-107525180D01*
X89496900Y-107053752D01*
X89496900Y-106306248D01*
X89403127Y-105834820D01*
X89136085Y-105435163D01*
X88736428Y-105168121D01*
X88265000Y-105074348D01*
X87793572Y-105168121D01*
X87393915Y-105435163D01*
X87126873Y-105834820D01*
X87033100Y-106306248D01*
X86144100Y-106306248D01*
X86144100Y-102012477D01*
X87451840Y-102012477D01*
X87768259Y-102778270D01*
X88353648Y-103364682D01*
X89118888Y-103682437D01*
X89947477Y-103683160D01*
X90713270Y-103366741D01*
X91150400Y-102930374D01*
X91150400Y-104201942D01*
X90499671Y-104852671D01*
X90406069Y-104992757D01*
X90373200Y-105158000D01*
X90373200Y-105160238D01*
X90333572Y-105168121D01*
X89933915Y-105435163D01*
X89666873Y-105834820D01*
X89573100Y-106306248D01*
X89573100Y-107053752D01*
X89666873Y-107525180D01*
X89933915Y-107924837D01*
X90333572Y-108191879D01*
X90805000Y-108285652D01*
X91276428Y-108191879D01*
X91676085Y-107924837D01*
X91943127Y-107525180D01*
X92036900Y-107053752D01*
X92036900Y-106306248D01*
X92113100Y-106306248D01*
X92113100Y-107053752D01*
X92206873Y-107525180D01*
X92473915Y-107924837D01*
X92873572Y-108191879D01*
X93345000Y-108285652D01*
X93816428Y-108191879D01*
X94216085Y-107924837D01*
X94483127Y-107525180D01*
X94576900Y-107053752D01*
X94576900Y-106306248D01*
X94483127Y-105834820D01*
X94216085Y-105435163D01*
X93893823Y-105219835D01*
X97210857Y-101902800D01*
X97790000Y-101902800D01*
X97955243Y-101869931D01*
X98095329Y-101776329D01*
X98188931Y-101636243D01*
X98210110Y-101529771D01*
X99060000Y-101529771D01*
X99178927Y-101506115D01*
X99279748Y-101438748D01*
X99347115Y-101337927D01*
X99370771Y-101219000D01*
X99370771Y-101015800D01*
X102559229Y-101015800D01*
X102559229Y-101219000D01*
X102582885Y-101337927D01*
X102650252Y-101438748D01*
X102751073Y-101506115D01*
X102870000Y-101529771D01*
X105410000Y-101529771D01*
X105528927Y-101506115D01*
X105629748Y-101438748D01*
X105697115Y-101337927D01*
X105720771Y-101219000D01*
X105720771Y-101004110D01*
X105827243Y-100982931D01*
X105967329Y-100889329D01*
X107119158Y-99737500D01*
X108573243Y-99737500D01*
X108559200Y-99808100D01*
X108559200Y-104546000D01*
X108592069Y-104711243D01*
X108624333Y-104759529D01*
X108685671Y-104851329D01*
X108989064Y-105154721D01*
X108585000Y-105074348D01*
X108113572Y-105168121D01*
X107713915Y-105435163D01*
X107446873Y-105834820D01*
X107353100Y-106306248D01*
X107353100Y-107053752D01*
X107446873Y-107525180D01*
X107597694Y-107750900D01*
X107032306Y-107750900D01*
X107183127Y-107525180D01*
X107276900Y-107053752D01*
X107276900Y-106306248D01*
X107183127Y-105834820D01*
X106916085Y-105435163D01*
X106516428Y-105168121D01*
X106045000Y-105074348D01*
X105573572Y-105168121D01*
X105173915Y-105435163D01*
X104906873Y-105834820D01*
X104813100Y-106306248D01*
X104813100Y-107053752D01*
X104906873Y-107525180D01*
X105057694Y-107750900D01*
X104492306Y-107750900D01*
X104643127Y-107525180D01*
X104736900Y-107053752D01*
X104736900Y-106306248D01*
X104643127Y-105834820D01*
X104376085Y-105435163D01*
X103976428Y-105168121D01*
X103505000Y-105074348D01*
X103033572Y-105168121D01*
X102633915Y-105435163D01*
X102366873Y-105834820D01*
X102273100Y-106306248D01*
X102273100Y-107053752D01*
X102366873Y-107525180D01*
X102517694Y-107750900D01*
X101952306Y-107750900D01*
X102103127Y-107525180D01*
X102196900Y-107053752D01*
X102196900Y-106306248D01*
X102103127Y-105834820D01*
X101836085Y-105435163D01*
X101436428Y-105168121D01*
X100965000Y-105074348D01*
X100493572Y-105168121D01*
X100093915Y-105435163D01*
X99826873Y-105834820D01*
X99733100Y-106306248D01*
X99733100Y-107053752D01*
X99826873Y-107525180D01*
X99977694Y-107750900D01*
X99412306Y-107750900D01*
X99563127Y-107525180D01*
X99656900Y-107053752D01*
X99656900Y-106306248D01*
X99563127Y-105834820D01*
X99296085Y-105435163D01*
X98896428Y-105168121D01*
X98425000Y-105074348D01*
X97953572Y-105168121D01*
X97553915Y-105435163D01*
X97286873Y-105834820D01*
X97205124Y-106245799D01*
X97100746Y-106225037D01*
X97023127Y-105834820D01*
X96756085Y-105435163D01*
X96356428Y-105168121D01*
X95885000Y-105074348D01*
X95413572Y-105168121D01*
X95013915Y-105435163D01*
X94746873Y-105834820D01*
X94653100Y-106306248D01*
X94653100Y-107053752D01*
X94746873Y-107525180D01*
X95013915Y-107924837D01*
X95413572Y-108191879D01*
X95885000Y-108285652D01*
X96356428Y-108191879D01*
X96756085Y-107924837D01*
X96834141Y-107808019D01*
X97557511Y-108531389D01*
X97705837Y-108630498D01*
X97880800Y-108665300D01*
X126890200Y-108665300D01*
X127065163Y-108630498D01*
X127213489Y-108531389D01*
X127929289Y-107815589D01*
X128028398Y-107667263D01*
X128063200Y-107492300D01*
X128063200Y-107092477D01*
X128091840Y-107092477D01*
X128408259Y-107858270D01*
X128993648Y-108444682D01*
X129758888Y-108762437D01*
X130587477Y-108763160D01*
X131353270Y-108446741D01*
X131939682Y-107861352D01*
X132257437Y-107096112D01*
X132258160Y-106267523D01*
X131941741Y-105501730D01*
X131356352Y-104915318D01*
X130591112Y-104597563D01*
X129762523Y-104596840D01*
X128996730Y-104913259D01*
X128410318Y-105498648D01*
X128092563Y-106263888D01*
X128091840Y-107092477D01*
X128063200Y-107092477D01*
X128063200Y-101930600D01*
X128373200Y-101930600D01*
X128548163Y-101895798D01*
X128696489Y-101796689D01*
X129236687Y-101256492D01*
X129252885Y-101337927D01*
X129320252Y-101438748D01*
X129421073Y-101506115D01*
X129540000Y-101529771D01*
X132080000Y-101529771D01*
X132198927Y-101506115D01*
X132299748Y-101438748D01*
X132367115Y-101337927D01*
X132390771Y-101219000D01*
X132390771Y-101041200D01*
X134309229Y-101041200D01*
X134309229Y-101219000D01*
X134332885Y-101337927D01*
X134400252Y-101438748D01*
X134501073Y-101506115D01*
X134620000Y-101529771D01*
X137160000Y-101529771D01*
X137278927Y-101506115D01*
X137379748Y-101438748D01*
X137447115Y-101337927D01*
X137463313Y-101256492D01*
X138003511Y-101796690D01*
X138151837Y-101895798D01*
X138326800Y-101930600D01*
X147448700Y-101930600D01*
X147623663Y-101895798D01*
X147771989Y-101796689D01*
X149571889Y-99996789D01*
X149670998Y-99848463D01*
X149705800Y-99673500D01*
X149705800Y-91200000D01*
X151764229Y-91200000D01*
X151764229Y-94000000D01*
X151787885Y-94118927D01*
X151855252Y-94219748D01*
X151956073Y-94287115D01*
X152075000Y-94310771D01*
X154275000Y-94310771D01*
X154393927Y-94287115D01*
X154494748Y-94219748D01*
X154562115Y-94118927D01*
X154585771Y-94000000D01*
X154585771Y-91200000D01*
X154562115Y-91081073D01*
X154494748Y-90980252D01*
X154393927Y-90912885D01*
X154275000Y-90889229D01*
X152075000Y-90889229D01*
X151956073Y-90912885D01*
X151855252Y-90980252D01*
X151787885Y-91081073D01*
X151764229Y-91200000D01*
X149705800Y-91200000D01*
X149705800Y-89980778D01*
X150720141Y-88966437D01*
X150719965Y-89168304D01*
X150925787Y-89666430D01*
X151306566Y-90047874D01*
X151804331Y-90254564D01*
X152343304Y-90255035D01*
X152841430Y-90049213D01*
X153222874Y-89668434D01*
X153429564Y-89170669D01*
X153430035Y-88631696D01*
X153224213Y-88133570D01*
X152843434Y-87752126D01*
X152345669Y-87545436D01*
X152141321Y-87545257D01*
X152374978Y-87311600D01*
X152380300Y-87311600D01*
X152555263Y-87276798D01*
X152703589Y-87177689D01*
X152852589Y-87028689D01*
X152951698Y-86880363D01*
X152986500Y-86705400D01*
X152986500Y-81400800D01*
X152951698Y-81225837D01*
X152940963Y-81209771D01*
X152852589Y-81077510D01*
X147778389Y-76003311D01*
X147630063Y-75904202D01*
X147455100Y-75869400D01*
X140884000Y-75869400D01*
X140709037Y-75904202D01*
X140560711Y-76003310D01*
X139834053Y-76729969D01*
X139669520Y-76729969D01*
X139550593Y-76753625D01*
X139542848Y-76758800D01*
X137470771Y-76758800D01*
X137470771Y-76581000D01*
X137447115Y-76462073D01*
X137379748Y-76361252D01*
X137278927Y-76293885D01*
X137160000Y-76270229D01*
X134620000Y-76270229D01*
X134501073Y-76293885D01*
X134400252Y-76361252D01*
X134332885Y-76462073D01*
X134309229Y-76581000D01*
X134309229Y-76758800D01*
X132390771Y-76758800D01*
X132390771Y-76581000D01*
X132367115Y-76462073D01*
X132299748Y-76361252D01*
X132198927Y-76293885D01*
X132080000Y-76270229D01*
X129540000Y-76270229D01*
X129421073Y-76293885D01*
X129320252Y-76361252D01*
X129252885Y-76462073D01*
X129229229Y-76581000D01*
X129229229Y-76758800D01*
X127310771Y-76758800D01*
X127310771Y-76581000D01*
X127287115Y-76462073D01*
X127219748Y-76361252D01*
X127118927Y-76293885D01*
X127000000Y-76270229D01*
X124460000Y-76270229D01*
X124341073Y-76293885D01*
X124240252Y-76361252D01*
X124172885Y-76462073D01*
X124149229Y-76581000D01*
X124149229Y-76758800D01*
X122230771Y-76758800D01*
X122230771Y-76581000D01*
X122207115Y-76462073D01*
X122139748Y-76361252D01*
X122038927Y-76293885D01*
X121920000Y-76270229D01*
X119582800Y-76270229D01*
X119582800Y-75439558D01*
X122787326Y-72235031D01*
X122787329Y-72235029D01*
X122827254Y-72175276D01*
X122953915Y-72364837D01*
X123353572Y-72631879D01*
X123825000Y-72725652D01*
X124296428Y-72631879D01*
X124696085Y-72364837D01*
X124963127Y-71965180D01*
X125056900Y-71493752D01*
X125056900Y-70746248D01*
X125133100Y-70746248D01*
X125133100Y-71493752D01*
X125226873Y-71965180D01*
X125493915Y-72364837D01*
X125893572Y-72631879D01*
X126365000Y-72725652D01*
X126836428Y-72631879D01*
X127236085Y-72364837D01*
X127503127Y-71965180D01*
X127589197Y-71532477D01*
X128091840Y-71532477D01*
X128408259Y-72298270D01*
X128993648Y-72884682D01*
X129758888Y-73202437D01*
X130587477Y-73203160D01*
X131353270Y-72886741D01*
X131939682Y-72301352D01*
X132257437Y-71536112D01*
X132258160Y-70707523D01*
X131941741Y-69941730D01*
X131356352Y-69355318D01*
X130591112Y-69037563D01*
X129762523Y-69036840D01*
X128996730Y-69353259D01*
X128410318Y-69938648D01*
X128092563Y-70703888D01*
X128091840Y-71532477D01*
X127589197Y-71532477D01*
X127596900Y-71493752D01*
X127596900Y-70746248D01*
X127503127Y-70274820D01*
X127236085Y-69875163D01*
X126836428Y-69608121D01*
X126365000Y-69514348D01*
X125893572Y-69608121D01*
X125493915Y-69875163D01*
X125226873Y-70274820D01*
X125133100Y-70746248D01*
X125056900Y-70746248D01*
X124963127Y-70274820D01*
X124696085Y-69875163D01*
X124296428Y-69608121D01*
X123825000Y-69514348D01*
X123353572Y-69608121D01*
X122953915Y-69875163D01*
X122823980Y-70069624D01*
X122787329Y-70014771D01*
X122787326Y-70014769D01*
X121656129Y-68883571D01*
X121516043Y-68789969D01*
X121350800Y-68757100D01*
X113613700Y-68757100D01*
X113448457Y-68789969D01*
X113308371Y-68883571D01*
X112177471Y-70014471D01*
X112133319Y-70080549D01*
X111996085Y-69875163D01*
X111596428Y-69608121D01*
X111125000Y-69514348D01*
X110653572Y-69608121D01*
X110253915Y-69875163D01*
X109986873Y-70274820D01*
X109893100Y-70746248D01*
X109893100Y-71493752D01*
X109986873Y-71965180D01*
X110253915Y-72364837D01*
X110653572Y-72631879D01*
X111125000Y-72725652D01*
X111596428Y-72631879D01*
X111996085Y-72364837D01*
X112051000Y-72282651D01*
X112051000Y-85891800D01*
X112083869Y-86057043D01*
X112133553Y-86131400D01*
X112177471Y-86197129D01*
X117944600Y-91964258D01*
X117944600Y-96590229D01*
X115570000Y-96590229D01*
X115451073Y-96613885D01*
X115350252Y-96681252D01*
X115282885Y-96782073D01*
X115259229Y-96901000D01*
X115259229Y-97104200D01*
X112070771Y-97104200D01*
X112070771Y-96901000D01*
X112047115Y-96782073D01*
X111979748Y-96681252D01*
X111878927Y-96613885D01*
X111760000Y-96590229D01*
X110921800Y-96590229D01*
X110921800Y-96449771D01*
X111760000Y-96449771D01*
X111878927Y-96426115D01*
X111979748Y-96358748D01*
X112047115Y-96257927D01*
X112070771Y-96139000D01*
X112070771Y-94869000D01*
X112047115Y-94750073D01*
X111979748Y-94649252D01*
X111878927Y-94581885D01*
X111760000Y-94558229D01*
X109220000Y-94558229D01*
X109101073Y-94581885D01*
X109000252Y-94649252D01*
X108932885Y-94750073D01*
X108909229Y-94869000D01*
X108909229Y-96139000D01*
X108932885Y-96257927D01*
X109000252Y-96358748D01*
X109101073Y-96426115D01*
X109220000Y-96449771D01*
X110058200Y-96449771D01*
X110058200Y-96590229D01*
X109220000Y-96590229D01*
X109101073Y-96613885D01*
X109000252Y-96681252D01*
X108932885Y-96782073D01*
X108909229Y-96901000D01*
X108909229Y-98171000D01*
X108932885Y-98289927D01*
X109000252Y-98390748D01*
X109101073Y-98458115D01*
X109220000Y-98481771D01*
X111760000Y-98481771D01*
X111878927Y-98458115D01*
X111979748Y-98390748D01*
X112047115Y-98289927D01*
X112070771Y-98171000D01*
X112070771Y-97967800D01*
X115259229Y-97967800D01*
X115259229Y-98171000D01*
X115282885Y-98289927D01*
X115350252Y-98390748D01*
X115451073Y-98458115D01*
X115570000Y-98481771D01*
X117944600Y-98481771D01*
X117944600Y-99638229D01*
X115570000Y-99638229D01*
X115451073Y-99661885D01*
X115350252Y-99729252D01*
X115282885Y-99830073D01*
X115264941Y-99920283D01*
X114345029Y-99000371D01*
X114204943Y-98906769D01*
X114039700Y-98873900D01*
X106940300Y-98873900D01*
X106775057Y-98906769D01*
X106634971Y-99000371D01*
X105715059Y-99920283D01*
X105697115Y-99830073D01*
X105629748Y-99729252D01*
X105528927Y-99661885D01*
X105410000Y-99638229D01*
X102870000Y-99638229D01*
X102751073Y-99661885D01*
X102650252Y-99729252D01*
X102582885Y-99830073D01*
X102559229Y-99949000D01*
X102559229Y-100152200D01*
X99370771Y-100152200D01*
X99370771Y-99949000D01*
X99347115Y-99830073D01*
X99279748Y-99729252D01*
X99178927Y-99661885D01*
X99060000Y-99638229D01*
X96520000Y-99638229D01*
X96401073Y-99661885D01*
X96300252Y-99729252D01*
X96232885Y-99830073D01*
X96209229Y-99949000D01*
X96209229Y-101219000D01*
X96232885Y-101337927D01*
X96300252Y-101438748D01*
X96392174Y-101500169D01*
X93039671Y-104852671D01*
X92946069Y-104992757D01*
X92913200Y-105158000D01*
X92913200Y-105160238D01*
X92873572Y-105168121D01*
X92473915Y-105435163D01*
X92206873Y-105834820D01*
X92113100Y-106306248D01*
X92036900Y-106306248D01*
X91943127Y-105834820D01*
X91676085Y-105435163D01*
X91353823Y-105219835D01*
X91887529Y-104686129D01*
X91932087Y-104619443D01*
X91981131Y-104546043D01*
X91999400Y-104454200D01*
X92014001Y-104380800D01*
X92014000Y-104380795D01*
X92014000Y-96901000D01*
X96209229Y-96901000D01*
X96209229Y-98171000D01*
X96232885Y-98289927D01*
X96300252Y-98390748D01*
X96401073Y-98458115D01*
X96520000Y-98481771D01*
X99060000Y-98481771D01*
X99178927Y-98458115D01*
X99279748Y-98390748D01*
X99347115Y-98289927D01*
X99370771Y-98171000D01*
X99370771Y-97080800D01*
X102559229Y-97080800D01*
X102559229Y-98171000D01*
X102582885Y-98289927D01*
X102650252Y-98390748D01*
X102751073Y-98458115D01*
X102870000Y-98481771D01*
X105410000Y-98481771D01*
X105528927Y-98458115D01*
X105629748Y-98390748D01*
X105697115Y-98289927D01*
X105720771Y-98171000D01*
X105720771Y-96901000D01*
X105697115Y-96782073D01*
X105629748Y-96681252D01*
X105528927Y-96613885D01*
X105410000Y-96590229D01*
X104571800Y-96590229D01*
X104571800Y-96449771D01*
X105410000Y-96449771D01*
X105528927Y-96426115D01*
X105629748Y-96358748D01*
X105697115Y-96257927D01*
X105720771Y-96139000D01*
X105720771Y-94869000D01*
X105697115Y-94750073D01*
X105629748Y-94649252D01*
X105528927Y-94581885D01*
X105410000Y-94558229D01*
X102870000Y-94558229D01*
X102751073Y-94581885D01*
X102650252Y-94649252D01*
X102582885Y-94750073D01*
X102559229Y-94869000D01*
X102559229Y-96139000D01*
X102574784Y-96217200D01*
X97790000Y-96217200D01*
X97624757Y-96250069D01*
X97484671Y-96343671D01*
X97391069Y-96483757D01*
X97369890Y-96590229D01*
X96520000Y-96590229D01*
X96401073Y-96613885D01*
X96300252Y-96681252D01*
X96232885Y-96782073D01*
X96209229Y-96901000D01*
X92014000Y-96901000D01*
X92014000Y-91453200D01*
X91997405Y-91369771D01*
X92710000Y-91369771D01*
X92828927Y-91346115D01*
X92929748Y-91278748D01*
X92997115Y-91177927D01*
X93020771Y-91059000D01*
X93020771Y-90855800D01*
X96209229Y-90855800D01*
X96209229Y-91059000D01*
X96232885Y-91177927D01*
X96300252Y-91278748D01*
X96401073Y-91346115D01*
X96520000Y-91369771D01*
X97369890Y-91369771D01*
X97391069Y-91476243D01*
X97484671Y-91616329D01*
X97624757Y-91709931D01*
X97790000Y-91742800D01*
X102163300Y-91742800D01*
X102163300Y-93153100D01*
X102196169Y-93318343D01*
X102251914Y-93401771D01*
X102289771Y-93458429D01*
X102512069Y-93680726D01*
X102512071Y-93680729D01*
X102652157Y-93774331D01*
X102679573Y-93779785D01*
X102817400Y-93807201D01*
X102817405Y-93807200D01*
X111829100Y-93807200D01*
X111994343Y-93774331D01*
X112134429Y-93680729D01*
X112303829Y-93511329D01*
X112339910Y-93457329D01*
X112397431Y-93371243D01*
X112407954Y-93318342D01*
X112430301Y-93206000D01*
X112430300Y-93205995D01*
X112430300Y-89805600D01*
X112416831Y-89737885D01*
X112397434Y-89640363D01*
X112397431Y-89640359D01*
X112397431Y-89640357D01*
X112357008Y-89579860D01*
X112303833Y-89500275D01*
X108806500Y-86002848D01*
X108806500Y-85358805D01*
X108806501Y-85358800D01*
X108779085Y-85220973D01*
X108773631Y-85193557D01*
X108680029Y-85053471D01*
X108286129Y-84659571D01*
X108216258Y-84612885D01*
X108146043Y-84565969D01*
X107980800Y-84533100D01*
X106711005Y-84533100D01*
X106711000Y-84533099D01*
X106545758Y-84565968D01*
X106545756Y-84565969D01*
X106545757Y-84565969D01*
X106405671Y-84659571D01*
X106405669Y-84659574D01*
X105968100Y-85097142D01*
X105968100Y-74347558D01*
X107711226Y-72604431D01*
X107711229Y-72604429D01*
X107804831Y-72464343D01*
X107811636Y-72430132D01*
X108113572Y-72631879D01*
X108585000Y-72725652D01*
X109056428Y-72631879D01*
X109456085Y-72364837D01*
X109723127Y-71965180D01*
X109816900Y-71493752D01*
X109816900Y-70746248D01*
X109723127Y-70274820D01*
X109456085Y-69875163D01*
X109056428Y-69608121D01*
X108585000Y-69514348D01*
X108113572Y-69608121D01*
X107713915Y-69875163D01*
X107446873Y-70274820D01*
X107362947Y-70696744D01*
X107270703Y-70715093D01*
X107183127Y-70274820D01*
X106916085Y-69875163D01*
X106516428Y-69608121D01*
X106045000Y-69514348D01*
X105573572Y-69608121D01*
X105173915Y-69875163D01*
X104906873Y-70274820D01*
X104813100Y-70746248D01*
X104813100Y-71493752D01*
X104906873Y-71965180D01*
X105173915Y-72364837D01*
X105573572Y-72631879D01*
X106045000Y-72725652D01*
X106449064Y-72645279D01*
X105230971Y-73863371D01*
X105137369Y-74003457D01*
X105104500Y-74168700D01*
X105104500Y-90870000D01*
X105137369Y-91035243D01*
X105191396Y-91116100D01*
X102773958Y-91116100D01*
X102663529Y-91005671D01*
X102653442Y-90998931D01*
X102523443Y-90912069D01*
X102358200Y-90879200D01*
X99370771Y-90879200D01*
X99370771Y-89789000D01*
X99347115Y-89670073D01*
X99279748Y-89569252D01*
X99178927Y-89501885D01*
X99060000Y-89478229D01*
X96520000Y-89478229D01*
X96401073Y-89501885D01*
X96300252Y-89569252D01*
X96232885Y-89670073D01*
X96209229Y-89789000D01*
X96209229Y-89992200D01*
X93020771Y-89992200D01*
X93020771Y-89789000D01*
X92997115Y-89670073D01*
X92929748Y-89569252D01*
X92828927Y-89501885D01*
X92710000Y-89478229D01*
X90170000Y-89478229D01*
X90051073Y-89501885D01*
X89950252Y-89569252D01*
X89882885Y-89670073D01*
X89859229Y-89789000D01*
X89859229Y-91059000D01*
X89882885Y-91177927D01*
X89950252Y-91278748D01*
X90051073Y-91346115D01*
X90170000Y-91369771D01*
X91019890Y-91369771D01*
X91041069Y-91476243D01*
X91090974Y-91550931D01*
X91134671Y-91616329D01*
X91150400Y-91632058D01*
X91150400Y-100270125D01*
X90716352Y-99835318D01*
X89951112Y-99517563D01*
X89122523Y-99516840D01*
X88356730Y-99833259D01*
X87770318Y-100418648D01*
X87452563Y-101183888D01*
X87451840Y-102012477D01*
X86144100Y-102012477D01*
X86144100Y-87680800D01*
X89560400Y-87680800D01*
X89560400Y-88132257D01*
X89653206Y-88356311D01*
X89824689Y-88527794D01*
X90048743Y-88620600D01*
X91135200Y-88620600D01*
X91287600Y-88468200D01*
X91287600Y-87528400D01*
X91592400Y-87528400D01*
X91592400Y-88468200D01*
X91744800Y-88620600D01*
X92831257Y-88620600D01*
X93055311Y-88527794D01*
X93226794Y-88356311D01*
X93319600Y-88132257D01*
X93319600Y-87680800D01*
X95910400Y-87680800D01*
X95910400Y-88132257D01*
X96003206Y-88356311D01*
X96174689Y-88527794D01*
X96398743Y-88620600D01*
X97485200Y-88620600D01*
X97637600Y-88468200D01*
X97637600Y-87528400D01*
X97942400Y-87528400D01*
X97942400Y-88468200D01*
X98094800Y-88620600D01*
X99181257Y-88620600D01*
X99405311Y-88527794D01*
X99576794Y-88356311D01*
X99669600Y-88132257D01*
X99669600Y-87680800D01*
X99517200Y-87528400D01*
X97942400Y-87528400D01*
X97637600Y-87528400D01*
X96062800Y-87528400D01*
X95910400Y-87680800D01*
X93319600Y-87680800D01*
X93167200Y-87528400D01*
X91592400Y-87528400D01*
X91287600Y-87528400D01*
X89712800Y-87528400D01*
X89560400Y-87680800D01*
X86144100Y-87680800D01*
X86144100Y-86619743D01*
X89560400Y-86619743D01*
X89560400Y-87071200D01*
X89712800Y-87223600D01*
X91287600Y-87223600D01*
X91287600Y-86283800D01*
X91592400Y-86283800D01*
X91592400Y-87223600D01*
X93167200Y-87223600D01*
X93319600Y-87071200D01*
X93319600Y-86619743D01*
X95910400Y-86619743D01*
X95910400Y-87071200D01*
X96062800Y-87223600D01*
X97637600Y-87223600D01*
X97637600Y-86283800D01*
X97942400Y-86283800D01*
X97942400Y-87223600D01*
X99517200Y-87223600D01*
X99669600Y-87071200D01*
X99669600Y-86619743D01*
X99576794Y-86395689D01*
X99405311Y-86224206D01*
X99181257Y-86131400D01*
X98094800Y-86131400D01*
X97942400Y-86283800D01*
X97637600Y-86283800D01*
X97485200Y-86131400D01*
X96398743Y-86131400D01*
X96174689Y-86224206D01*
X96003206Y-86395689D01*
X95910400Y-86619743D01*
X93319600Y-86619743D01*
X93226794Y-86395689D01*
X93055311Y-86224206D01*
X92831257Y-86131400D01*
X91744800Y-86131400D01*
X91592400Y-86283800D01*
X91287600Y-86283800D01*
X91135200Y-86131400D01*
X90048743Y-86131400D01*
X89824689Y-86224206D01*
X89653206Y-86395689D01*
X89560400Y-86619743D01*
X86144100Y-86619743D01*
X86144100Y-76612477D01*
X87451840Y-76612477D01*
X87768259Y-77378270D01*
X88353648Y-77964682D01*
X89118888Y-78282437D01*
X89947477Y-78283160D01*
X90713270Y-77966741D01*
X91299682Y-77381352D01*
X91617437Y-76616112D01*
X91618160Y-75787523D01*
X91301741Y-75021730D01*
X90716352Y-74435318D01*
X89951112Y-74117563D01*
X89122523Y-74116840D01*
X88356730Y-74433259D01*
X87770318Y-75018648D01*
X87452563Y-75783888D01*
X87451840Y-76612477D01*
X86144100Y-76612477D01*
X86144100Y-69850000D01*
X87027129Y-69850000D01*
X87027129Y-72390000D01*
X87050785Y-72508927D01*
X87118152Y-72609748D01*
X87218973Y-72677115D01*
X87337900Y-72700771D01*
X89192100Y-72700771D01*
X89311027Y-72677115D01*
X89411848Y-72609748D01*
X89479215Y-72508927D01*
X89502871Y-72390000D01*
X89502871Y-72263898D01*
X89826152Y-72657274D01*
X90357730Y-72940947D01*
X90415269Y-72949357D01*
X90652600Y-72838785D01*
X90652600Y-71272400D01*
X90632600Y-71272400D01*
X90632600Y-70967600D01*
X90652600Y-70967600D01*
X90652600Y-69401215D01*
X90957400Y-69401215D01*
X90957400Y-70967600D01*
X90977400Y-70967600D01*
X90977400Y-71272400D01*
X90957400Y-71272400D01*
X90957400Y-72838785D01*
X91194731Y-72949357D01*
X91252270Y-72940947D01*
X91783848Y-72657274D01*
X92166405Y-72191769D01*
X92226414Y-71994425D01*
X92473915Y-72364837D01*
X92873572Y-72631879D01*
X93345000Y-72725652D01*
X93816428Y-72631879D01*
X94216085Y-72364837D01*
X94483127Y-71965180D01*
X94576900Y-71493752D01*
X94576900Y-70746248D01*
X94653100Y-70746248D01*
X94653100Y-71493752D01*
X94746873Y-71965180D01*
X95013915Y-72364837D01*
X95413572Y-72631879D01*
X95885000Y-72725652D01*
X96356428Y-72631879D01*
X96756085Y-72364837D01*
X97023127Y-71965180D01*
X97116900Y-71493752D01*
X97116900Y-70746248D01*
X97193100Y-70746248D01*
X97193100Y-71493752D01*
X97286873Y-71965180D01*
X97553915Y-72364837D01*
X97953572Y-72631879D01*
X98425000Y-72725652D01*
X98896428Y-72631879D01*
X99296085Y-72364837D01*
X99563127Y-71965180D01*
X99656900Y-71493752D01*
X99656900Y-70746248D01*
X99733100Y-70746248D01*
X99733100Y-71493752D01*
X99826873Y-71965180D01*
X100093915Y-72364837D01*
X100493572Y-72631879D01*
X100965000Y-72725652D01*
X101436428Y-72631879D01*
X101836085Y-72364837D01*
X102103127Y-71965180D01*
X102196900Y-71493752D01*
X102196900Y-70746248D01*
X102273100Y-70746248D01*
X102273100Y-71493752D01*
X102366873Y-71965180D01*
X102633915Y-72364837D01*
X103033572Y-72631879D01*
X103505000Y-72725652D01*
X103976428Y-72631879D01*
X104376085Y-72364837D01*
X104643127Y-71965180D01*
X104736900Y-71493752D01*
X104736900Y-70746248D01*
X104643127Y-70274820D01*
X104376085Y-69875163D01*
X103976428Y-69608121D01*
X103505000Y-69514348D01*
X103033572Y-69608121D01*
X102633915Y-69875163D01*
X102366873Y-70274820D01*
X102273100Y-70746248D01*
X102196900Y-70746248D01*
X102103127Y-70274820D01*
X101836085Y-69875163D01*
X101436428Y-69608121D01*
X100965000Y-69514348D01*
X100493572Y-69608121D01*
X100093915Y-69875163D01*
X99826873Y-70274820D01*
X99733100Y-70746248D01*
X99656900Y-70746248D01*
X99563127Y-70274820D01*
X99296085Y-69875163D01*
X98896428Y-69608121D01*
X98425000Y-69514348D01*
X97953572Y-69608121D01*
X97553915Y-69875163D01*
X97286873Y-70274820D01*
X97193100Y-70746248D01*
X97116900Y-70746248D01*
X97023127Y-70274820D01*
X96756085Y-69875163D01*
X96356428Y-69608121D01*
X95885000Y-69514348D01*
X95413572Y-69608121D01*
X95013915Y-69875163D01*
X94746873Y-70274820D01*
X94653100Y-70746248D01*
X94576900Y-70746248D01*
X94483127Y-70274820D01*
X94216085Y-69875163D01*
X93816428Y-69608121D01*
X93345000Y-69514348D01*
X92873572Y-69608121D01*
X92473915Y-69875163D01*
X92226414Y-70245575D01*
X92166405Y-70048231D01*
X91783848Y-69582726D01*
X91252270Y-69299053D01*
X91194731Y-69290643D01*
X90957400Y-69401215D01*
X90652600Y-69401215D01*
X90415269Y-69290643D01*
X90357730Y-69299053D01*
X89826152Y-69582726D01*
X89502871Y-69976102D01*
X89502871Y-69850000D01*
X89479215Y-69731073D01*
X89411848Y-69630252D01*
X89311027Y-69562885D01*
X89192100Y-69539229D01*
X87337900Y-69539229D01*
X87218973Y-69562885D01*
X87118152Y-69630252D01*
X87050785Y-69731073D01*
X87027129Y-69850000D01*
X86144100Y-69850000D01*
X86144100Y-68364100D01*
X155790900Y-68364100D01*
X155790900Y-109435900D01*
G36*
X114605700Y-77714500D02*
X114638569Y-77879743D01*
X114694532Y-77963498D01*
X114732171Y-78019829D01*
X125667669Y-88955326D01*
X125667671Y-88955329D01*
X125807757Y-89048931D01*
X125957337Y-89078684D01*
X123516711Y-91519311D01*
X123417602Y-91667637D01*
X123382800Y-91842600D01*
X123382800Y-101005800D01*
X123417602Y-101180763D01*
X123516711Y-101329089D01*
X123984311Y-101796689D01*
X124132637Y-101895798D01*
X124307600Y-101930600D01*
X127148800Y-101930600D01*
X127148800Y-105376841D01*
X126836428Y-105168121D01*
X126365000Y-105074348D01*
X125893572Y-105168121D01*
X125493915Y-105435163D01*
X125366304Y-105626146D01*
X123889029Y-104148871D01*
X123837140Y-104114200D01*
X123748943Y-104055269D01*
X123583700Y-104022400D01*
X113652058Y-104022400D01*
X111159429Y-101529771D01*
X111760000Y-101529771D01*
X111878927Y-101506115D01*
X111979748Y-101438748D01*
X112047115Y-101337927D01*
X112070771Y-101219000D01*
X112070771Y-100151800D01*
X112525142Y-100151800D01*
X114126671Y-101753329D01*
X114266757Y-101846931D01*
X114432000Y-101879800D01*
X118210400Y-101879800D01*
X118375643Y-101846931D01*
X118515729Y-101753329D01*
X118681726Y-101587331D01*
X118681729Y-101587329D01*
X118775331Y-101447243D01*
X118808200Y-101282000D01*
X118808200Y-91785400D01*
X118775331Y-91620157D01*
X118681729Y-91480071D01*
X112914600Y-85712942D01*
X112914600Y-72445476D01*
X113193572Y-72631879D01*
X113665000Y-72725652D01*
X114136428Y-72631879D01*
X114536085Y-72364837D01*
X114605700Y-72260651D01*
X114605700Y-77714500D01*
X114605700Y-77714500D01*
G37*
X114605700Y-77714500D02*
X114638569Y-77879743D01*
X114694532Y-77963498D01*
X114732171Y-78019829D01*
X125667669Y-88955326D01*
X125667671Y-88955329D01*
X125807757Y-89048931D01*
X125957337Y-89078684D01*
X123516711Y-91519311D01*
X123417602Y-91667637D01*
X123382800Y-91842600D01*
X123382800Y-101005800D01*
X123417602Y-101180763D01*
X123516711Y-101329089D01*
X123984311Y-101796689D01*
X124132637Y-101895798D01*
X124307600Y-101930600D01*
X127148800Y-101930600D01*
X127148800Y-105376841D01*
X126836428Y-105168121D01*
X126365000Y-105074348D01*
X125893572Y-105168121D01*
X125493915Y-105435163D01*
X125366304Y-105626146D01*
X123889029Y-104148871D01*
X123837140Y-104114200D01*
X123748943Y-104055269D01*
X123583700Y-104022400D01*
X113652058Y-104022400D01*
X111159429Y-101529771D01*
X111760000Y-101529771D01*
X111878927Y-101506115D01*
X111979748Y-101438748D01*
X112047115Y-101337927D01*
X112070771Y-101219000D01*
X112070771Y-100151800D01*
X112525142Y-100151800D01*
X114126671Y-101753329D01*
X114266757Y-101846931D01*
X114432000Y-101879800D01*
X118210400Y-101879800D01*
X118375643Y-101846931D01*
X118515729Y-101753329D01*
X118681726Y-101587331D01*
X118681729Y-101587329D01*
X118775331Y-101447243D01*
X118808200Y-101282000D01*
X118808200Y-91785400D01*
X118775331Y-91620157D01*
X118681729Y-91480071D01*
X112914600Y-85712942D01*
X112914600Y-72445476D01*
X113193572Y-72631879D01*
X113665000Y-72725652D01*
X114136428Y-72631879D01*
X114536085Y-72364837D01*
X114605700Y-72260651D01*
X114605700Y-77714500D01*
G36*
X149764229Y-86600000D02*
X149787885Y-86718927D01*
X149855252Y-86819748D01*
X149956073Y-86887115D01*
X150075000Y-86910771D01*
X151482651Y-86910771D01*
X148925311Y-89468111D01*
X148826202Y-89616437D01*
X148791400Y-89791400D01*
X148791400Y-99484122D01*
X147843924Y-100431598D01*
X147777202Y-100431598D01*
X147929600Y-100279200D01*
X147929600Y-99827743D01*
X147836794Y-99603689D01*
X147665311Y-99432206D01*
X147441257Y-99339400D01*
X146354800Y-99339400D01*
X146202400Y-99491800D01*
X146202400Y-100431600D01*
X146222400Y-100431600D01*
X146222400Y-100736400D01*
X146202400Y-100736400D01*
X146202400Y-100756400D01*
X145897600Y-100756400D01*
X145897600Y-100736400D01*
X144322800Y-100736400D01*
X144170400Y-100888800D01*
X144170400Y-101016200D01*
X142849600Y-101016200D01*
X142849600Y-100888800D01*
X142697200Y-100736400D01*
X141122400Y-100736400D01*
X141122400Y-100756400D01*
X140817600Y-100756400D01*
X140817600Y-100736400D01*
X139242800Y-100736400D01*
X139090400Y-100888800D01*
X139090400Y-101016200D01*
X138516179Y-101016200D01*
X137760689Y-100260711D01*
X137612363Y-100161602D01*
X137470771Y-100133438D01*
X137470771Y-99949000D01*
X137447115Y-99830073D01*
X137445559Y-99827743D01*
X139090400Y-99827743D01*
X139090400Y-100279200D01*
X139242800Y-100431600D01*
X140817600Y-100431600D01*
X140817600Y-99491800D01*
X141122400Y-99491800D01*
X141122400Y-100431600D01*
X142697200Y-100431600D01*
X142849600Y-100279200D01*
X142849600Y-99827743D01*
X144170400Y-99827743D01*
X144170400Y-100279200D01*
X144322800Y-100431600D01*
X145897600Y-100431600D01*
X145897600Y-99491800D01*
X145745200Y-99339400D01*
X144658743Y-99339400D01*
X144434689Y-99432206D01*
X144263206Y-99603689D01*
X144170400Y-99827743D01*
X142849600Y-99827743D01*
X142756794Y-99603689D01*
X142585311Y-99432206D01*
X142361257Y-99339400D01*
X141274800Y-99339400D01*
X141122400Y-99491800D01*
X140817600Y-99491800D01*
X140665200Y-99339400D01*
X139578743Y-99339400D01*
X139354689Y-99432206D01*
X139183206Y-99603689D01*
X139090400Y-99827743D01*
X137445559Y-99827743D01*
X137379748Y-99729252D01*
X137278927Y-99661885D01*
X137160000Y-99638229D01*
X134620000Y-99638229D01*
X134501073Y-99661885D01*
X134400252Y-99729252D01*
X134332885Y-99830073D01*
X134309229Y-99949000D01*
X134309229Y-100126800D01*
X132390771Y-100126800D01*
X132390771Y-99949000D01*
X132367115Y-99830073D01*
X132299748Y-99729252D01*
X132198927Y-99661885D01*
X132080000Y-99638229D01*
X129540000Y-99638229D01*
X129421073Y-99661885D01*
X129320252Y-99729252D01*
X129252885Y-99830073D01*
X129229229Y-99949000D01*
X129229229Y-100133438D01*
X129087637Y-100161602D01*
X128939311Y-100260710D01*
X128183822Y-101016200D01*
X127310771Y-101016200D01*
X127310771Y-99949000D01*
X127287115Y-99830073D01*
X127219748Y-99729252D01*
X127118927Y-99661885D01*
X127000000Y-99638229D01*
X126150110Y-99638229D01*
X126128931Y-99531757D01*
X126035329Y-99391671D01*
X125895243Y-99298069D01*
X125814832Y-99282074D01*
X125313358Y-98780600D01*
X125425200Y-98780600D01*
X125577600Y-98628200D01*
X125577600Y-97688400D01*
X125882400Y-97688400D01*
X125882400Y-98628200D01*
X126034800Y-98780600D01*
X127121257Y-98780600D01*
X127345311Y-98687794D01*
X127516794Y-98516311D01*
X127609600Y-98292257D01*
X127609600Y-97840800D01*
X128930400Y-97840800D01*
X128930400Y-98292257D01*
X129023206Y-98516311D01*
X129194689Y-98687794D01*
X129418743Y-98780600D01*
X130505200Y-98780600D01*
X130657600Y-98628200D01*
X130657600Y-97688400D01*
X130962400Y-97688400D01*
X130962400Y-98628200D01*
X131114800Y-98780600D01*
X132201257Y-98780600D01*
X132425311Y-98687794D01*
X132596794Y-98516311D01*
X132689600Y-98292257D01*
X132689600Y-97840800D01*
X132537200Y-97688400D01*
X130962400Y-97688400D01*
X130657600Y-97688400D01*
X129082800Y-97688400D01*
X128930400Y-97840800D01*
X127609600Y-97840800D01*
X127457200Y-97688400D01*
X125882400Y-97688400D01*
X125577600Y-97688400D01*
X125557600Y-97688400D01*
X125557600Y-97383600D01*
X125577600Y-97383600D01*
X125577600Y-96443800D01*
X125882400Y-96443800D01*
X125882400Y-97383600D01*
X127457200Y-97383600D01*
X127609600Y-97231200D01*
X127609600Y-96779743D01*
X128930400Y-96779743D01*
X128930400Y-97231200D01*
X129082800Y-97383600D01*
X130657600Y-97383600D01*
X130657600Y-96443800D01*
X130962400Y-96443800D01*
X130962400Y-97383600D01*
X132537200Y-97383600D01*
X132689600Y-97231200D01*
X132689600Y-96779743D01*
X132596794Y-96555689D01*
X132425311Y-96384206D01*
X132201257Y-96291400D01*
X131114800Y-96291400D01*
X130962400Y-96443800D01*
X130657600Y-96443800D01*
X130505200Y-96291400D01*
X129418743Y-96291400D01*
X129194689Y-96384206D01*
X129023206Y-96555689D01*
X128930400Y-96779743D01*
X127609600Y-96779743D01*
X127516794Y-96555689D01*
X127345311Y-96384206D01*
X127121257Y-96291400D01*
X126034800Y-96291400D01*
X125882400Y-96443800D01*
X125577600Y-96443800D01*
X125425200Y-96291400D01*
X124662800Y-96291400D01*
X124662800Y-95715158D01*
X126794157Y-93583800D01*
X132060000Y-93583800D01*
X132225243Y-93550931D01*
X132365329Y-93457329D01*
X132458931Y-93317243D01*
X132480110Y-93210771D01*
X132685000Y-93210771D01*
X132803927Y-93187115D01*
X132904748Y-93119748D01*
X132972115Y-93018927D01*
X132995771Y-92900000D01*
X132995771Y-91085771D01*
X134810000Y-91085771D01*
X134928927Y-91062115D01*
X135029748Y-90994748D01*
X135097115Y-90893927D01*
X135114029Y-90808893D01*
X135155311Y-90791794D01*
X135326794Y-90620311D01*
X135419600Y-90396257D01*
X135419600Y-90364900D01*
X135267200Y-90212500D01*
X133962400Y-90212500D01*
X133962400Y-90214229D01*
X133657600Y-90214229D01*
X133657600Y-90212500D01*
X133637600Y-90212500D01*
X133637600Y-90087500D01*
X133657600Y-90087500D01*
X133657600Y-90085771D01*
X133962400Y-90085771D01*
X133962400Y-90087500D01*
X135267200Y-90087500D01*
X135272900Y-90081800D01*
X138994142Y-90081800D01*
X141817671Y-92905329D01*
X141957757Y-92998931D01*
X142064229Y-93020110D01*
X142064229Y-94000000D01*
X142087885Y-94118927D01*
X142155252Y-94219748D01*
X142256073Y-94287115D01*
X142375000Y-94310771D01*
X144973800Y-94310771D01*
X144973800Y-96590229D01*
X144780000Y-96590229D01*
X144661073Y-96613885D01*
X144560252Y-96681252D01*
X144492885Y-96782073D01*
X144469229Y-96901000D01*
X144469229Y-97104200D01*
X142550771Y-97104200D01*
X142550771Y-96901000D01*
X142527115Y-96782073D01*
X142459748Y-96681252D01*
X142358927Y-96613885D01*
X142240000Y-96590229D01*
X139700000Y-96590229D01*
X139581073Y-96613885D01*
X139480252Y-96681252D01*
X139412885Y-96782073D01*
X139389229Y-96901000D01*
X139389229Y-97104200D01*
X137470771Y-97104200D01*
X137470771Y-96901000D01*
X137447115Y-96782073D01*
X137379748Y-96681252D01*
X137278927Y-96613885D01*
X137160000Y-96590229D01*
X134620000Y-96590229D01*
X134501073Y-96613885D01*
X134400252Y-96681252D01*
X134332885Y-96782073D01*
X134309229Y-96901000D01*
X134309229Y-98171000D01*
X134332885Y-98289927D01*
X134400252Y-98390748D01*
X134501073Y-98458115D01*
X134620000Y-98481771D01*
X137160000Y-98481771D01*
X137278927Y-98458115D01*
X137379748Y-98390748D01*
X137447115Y-98289927D01*
X137470771Y-98171000D01*
X137470771Y-97967800D01*
X139389229Y-97967800D01*
X139389229Y-98171000D01*
X139412885Y-98289927D01*
X139480252Y-98390748D01*
X139581073Y-98458115D01*
X139700000Y-98481771D01*
X142240000Y-98481771D01*
X142358927Y-98458115D01*
X142459748Y-98390748D01*
X142527115Y-98289927D01*
X142550771Y-98171000D01*
X142550771Y-97967800D01*
X144469229Y-97967800D01*
X144469229Y-98171000D01*
X144492885Y-98289927D01*
X144560252Y-98390748D01*
X144661073Y-98458115D01*
X144780000Y-98481771D01*
X147320000Y-98481771D01*
X147438927Y-98458115D01*
X147539748Y-98390748D01*
X147607115Y-98289927D01*
X147630771Y-98171000D01*
X147630771Y-96901000D01*
X147607115Y-96782073D01*
X147539748Y-96681252D01*
X147438927Y-96613885D01*
X147320000Y-96590229D01*
X145837400Y-96590229D01*
X145837400Y-91039400D01*
X145804531Y-90874157D01*
X145710929Y-90734071D01*
X145231796Y-90254938D01*
X145343304Y-90255035D01*
X145841430Y-90049213D01*
X146222874Y-89668434D01*
X146429564Y-89170669D01*
X146430035Y-88631696D01*
X146224213Y-88133570D01*
X145843434Y-87752126D01*
X145345669Y-87545436D01*
X144806696Y-87544965D01*
X144308570Y-87750787D01*
X143927126Y-88131566D01*
X143720436Y-88629331D01*
X143720307Y-88777037D01*
X143681443Y-88751069D01*
X143516200Y-88718200D01*
X135272900Y-88718200D01*
X135267200Y-88712500D01*
X135234605Y-88712500D01*
X135326794Y-88620311D01*
X135392134Y-88462566D01*
X135419600Y-88435100D01*
X135419600Y-88403743D01*
X135418050Y-88400000D01*
X135419600Y-88396257D01*
X135419600Y-88364900D01*
X135392134Y-88337434D01*
X135326794Y-88179689D01*
X135234605Y-88087500D01*
X135267200Y-88087500D01*
X135419600Y-87935100D01*
X135419600Y-87903743D01*
X135419399Y-87903259D01*
X137690858Y-85631800D01*
X149764229Y-85631800D01*
X149764229Y-86600000D01*
X149764229Y-86600000D01*
G37*
X149764229Y-86600000D02*
X149787885Y-86718927D01*
X149855252Y-86819748D01*
X149956073Y-86887115D01*
X150075000Y-86910771D01*
X151482651Y-86910771D01*
X148925311Y-89468111D01*
X148826202Y-89616437D01*
X148791400Y-89791400D01*
X148791400Y-99484122D01*
X147843924Y-100431598D01*
X147777202Y-100431598D01*
X147929600Y-100279200D01*
X147929600Y-99827743D01*
X147836794Y-99603689D01*
X147665311Y-99432206D01*
X147441257Y-99339400D01*
X146354800Y-99339400D01*
X146202400Y-99491800D01*
X146202400Y-100431600D01*
X146222400Y-100431600D01*
X146222400Y-100736400D01*
X146202400Y-100736400D01*
X146202400Y-100756400D01*
X145897600Y-100756400D01*
X145897600Y-100736400D01*
X144322800Y-100736400D01*
X144170400Y-100888800D01*
X144170400Y-101016200D01*
X142849600Y-101016200D01*
X142849600Y-100888800D01*
X142697200Y-100736400D01*
X141122400Y-100736400D01*
X141122400Y-100756400D01*
X140817600Y-100756400D01*
X140817600Y-100736400D01*
X139242800Y-100736400D01*
X139090400Y-100888800D01*
X139090400Y-101016200D01*
X138516179Y-101016200D01*
X137760689Y-100260711D01*
X137612363Y-100161602D01*
X137470771Y-100133438D01*
X137470771Y-99949000D01*
X137447115Y-99830073D01*
X137445559Y-99827743D01*
X139090400Y-99827743D01*
X139090400Y-100279200D01*
X139242800Y-100431600D01*
X140817600Y-100431600D01*
X140817600Y-99491800D01*
X141122400Y-99491800D01*
X141122400Y-100431600D01*
X142697200Y-100431600D01*
X142849600Y-100279200D01*
X142849600Y-99827743D01*
X144170400Y-99827743D01*
X144170400Y-100279200D01*
X144322800Y-100431600D01*
X145897600Y-100431600D01*
X145897600Y-99491800D01*
X145745200Y-99339400D01*
X144658743Y-99339400D01*
X144434689Y-99432206D01*
X144263206Y-99603689D01*
X144170400Y-99827743D01*
X142849600Y-99827743D01*
X142756794Y-99603689D01*
X142585311Y-99432206D01*
X142361257Y-99339400D01*
X141274800Y-99339400D01*
X141122400Y-99491800D01*
X140817600Y-99491800D01*
X140665200Y-99339400D01*
X139578743Y-99339400D01*
X139354689Y-99432206D01*
X139183206Y-99603689D01*
X139090400Y-99827743D01*
X137445559Y-99827743D01*
X137379748Y-99729252D01*
X137278927Y-99661885D01*
X137160000Y-99638229D01*
X134620000Y-99638229D01*
X134501073Y-99661885D01*
X134400252Y-99729252D01*
X134332885Y-99830073D01*
X134309229Y-99949000D01*
X134309229Y-100126800D01*
X132390771Y-100126800D01*
X132390771Y-99949000D01*
X132367115Y-99830073D01*
X132299748Y-99729252D01*
X132198927Y-99661885D01*
X132080000Y-99638229D01*
X129540000Y-99638229D01*
X129421073Y-99661885D01*
X129320252Y-99729252D01*
X129252885Y-99830073D01*
X129229229Y-99949000D01*
X129229229Y-100133438D01*
X129087637Y-100161602D01*
X128939311Y-100260710D01*
X128183822Y-101016200D01*
X127310771Y-101016200D01*
X127310771Y-99949000D01*
X127287115Y-99830073D01*
X127219748Y-99729252D01*
X127118927Y-99661885D01*
X127000000Y-99638229D01*
X126150110Y-99638229D01*
X126128931Y-99531757D01*
X126035329Y-99391671D01*
X125895243Y-99298069D01*
X125814832Y-99282074D01*
X125313358Y-98780600D01*
X125425200Y-98780600D01*
X125577600Y-98628200D01*
X125577600Y-97688400D01*
X125882400Y-97688400D01*
X125882400Y-98628200D01*
X126034800Y-98780600D01*
X127121257Y-98780600D01*
X127345311Y-98687794D01*
X127516794Y-98516311D01*
X127609600Y-98292257D01*
X127609600Y-97840800D01*
X128930400Y-97840800D01*
X128930400Y-98292257D01*
X129023206Y-98516311D01*
X129194689Y-98687794D01*
X129418743Y-98780600D01*
X130505200Y-98780600D01*
X130657600Y-98628200D01*
X130657600Y-97688400D01*
X130962400Y-97688400D01*
X130962400Y-98628200D01*
X131114800Y-98780600D01*
X132201257Y-98780600D01*
X132425311Y-98687794D01*
X132596794Y-98516311D01*
X132689600Y-98292257D01*
X132689600Y-97840800D01*
X132537200Y-97688400D01*
X130962400Y-97688400D01*
X130657600Y-97688400D01*
X129082800Y-97688400D01*
X128930400Y-97840800D01*
X127609600Y-97840800D01*
X127457200Y-97688400D01*
X125882400Y-97688400D01*
X125577600Y-97688400D01*
X125557600Y-97688400D01*
X125557600Y-97383600D01*
X125577600Y-97383600D01*
X125577600Y-96443800D01*
X125882400Y-96443800D01*
X125882400Y-97383600D01*
X127457200Y-97383600D01*
X127609600Y-97231200D01*
X127609600Y-96779743D01*
X128930400Y-96779743D01*
X128930400Y-97231200D01*
X129082800Y-97383600D01*
X130657600Y-97383600D01*
X130657600Y-96443800D01*
X130962400Y-96443800D01*
X130962400Y-97383600D01*
X132537200Y-97383600D01*
X132689600Y-97231200D01*
X132689600Y-96779743D01*
X132596794Y-96555689D01*
X132425311Y-96384206D01*
X132201257Y-96291400D01*
X131114800Y-96291400D01*
X130962400Y-96443800D01*
X130657600Y-96443800D01*
X130505200Y-96291400D01*
X129418743Y-96291400D01*
X129194689Y-96384206D01*
X129023206Y-96555689D01*
X128930400Y-96779743D01*
X127609600Y-96779743D01*
X127516794Y-96555689D01*
X127345311Y-96384206D01*
X127121257Y-96291400D01*
X126034800Y-96291400D01*
X125882400Y-96443800D01*
X125577600Y-96443800D01*
X125425200Y-96291400D01*
X124662800Y-96291400D01*
X124662800Y-95715158D01*
X126794157Y-93583800D01*
X132060000Y-93583800D01*
X132225243Y-93550931D01*
X132365329Y-93457329D01*
X132458931Y-93317243D01*
X132480110Y-93210771D01*
X132685000Y-93210771D01*
X132803927Y-93187115D01*
X132904748Y-93119748D01*
X132972115Y-93018927D01*
X132995771Y-92900000D01*
X132995771Y-91085771D01*
X134810000Y-91085771D01*
X134928927Y-91062115D01*
X135029748Y-90994748D01*
X135097115Y-90893927D01*
X135114029Y-90808893D01*
X135155311Y-90791794D01*
X135326794Y-90620311D01*
X135419600Y-90396257D01*
X135419600Y-90364900D01*
X135267200Y-90212500D01*
X133962400Y-90212500D01*
X133962400Y-90214229D01*
X133657600Y-90214229D01*
X133657600Y-90212500D01*
X133637600Y-90212500D01*
X133637600Y-90087500D01*
X133657600Y-90087500D01*
X133657600Y-90085771D01*
X133962400Y-90085771D01*
X133962400Y-90087500D01*
X135267200Y-90087500D01*
X135272900Y-90081800D01*
X138994142Y-90081800D01*
X141817671Y-92905329D01*
X141957757Y-92998931D01*
X142064229Y-93020110D01*
X142064229Y-94000000D01*
X142087885Y-94118927D01*
X142155252Y-94219748D01*
X142256073Y-94287115D01*
X142375000Y-94310771D01*
X144973800Y-94310771D01*
X144973800Y-96590229D01*
X144780000Y-96590229D01*
X144661073Y-96613885D01*
X144560252Y-96681252D01*
X144492885Y-96782073D01*
X144469229Y-96901000D01*
X144469229Y-97104200D01*
X142550771Y-97104200D01*
X142550771Y-96901000D01*
X142527115Y-96782073D01*
X142459748Y-96681252D01*
X142358927Y-96613885D01*
X142240000Y-96590229D01*
X139700000Y-96590229D01*
X139581073Y-96613885D01*
X139480252Y-96681252D01*
X139412885Y-96782073D01*
X139389229Y-96901000D01*
X139389229Y-97104200D01*
X137470771Y-97104200D01*
X137470771Y-96901000D01*
X137447115Y-96782073D01*
X137379748Y-96681252D01*
X137278927Y-96613885D01*
X137160000Y-96590229D01*
X134620000Y-96590229D01*
X134501073Y-96613885D01*
X134400252Y-96681252D01*
X134332885Y-96782073D01*
X134309229Y-96901000D01*
X134309229Y-98171000D01*
X134332885Y-98289927D01*
X134400252Y-98390748D01*
X134501073Y-98458115D01*
X134620000Y-98481771D01*
X137160000Y-98481771D01*
X137278927Y-98458115D01*
X137379748Y-98390748D01*
X137447115Y-98289927D01*
X137470771Y-98171000D01*
X137470771Y-97967800D01*
X139389229Y-97967800D01*
X139389229Y-98171000D01*
X139412885Y-98289927D01*
X139480252Y-98390748D01*
X139581073Y-98458115D01*
X139700000Y-98481771D01*
X142240000Y-98481771D01*
X142358927Y-98458115D01*
X142459748Y-98390748D01*
X142527115Y-98289927D01*
X142550771Y-98171000D01*
X142550771Y-97967800D01*
X144469229Y-97967800D01*
X144469229Y-98171000D01*
X144492885Y-98289927D01*
X144560252Y-98390748D01*
X144661073Y-98458115D01*
X144780000Y-98481771D01*
X147320000Y-98481771D01*
X147438927Y-98458115D01*
X147539748Y-98390748D01*
X147607115Y-98289927D01*
X147630771Y-98171000D01*
X147630771Y-96901000D01*
X147607115Y-96782073D01*
X147539748Y-96681252D01*
X147438927Y-96613885D01*
X147320000Y-96590229D01*
X145837400Y-96590229D01*
X145837400Y-91039400D01*
X145804531Y-90874157D01*
X145710929Y-90734071D01*
X145231796Y-90254938D01*
X145343304Y-90255035D01*
X145841430Y-90049213D01*
X146222874Y-89668434D01*
X146429564Y-89170669D01*
X146430035Y-88631696D01*
X146224213Y-88133570D01*
X145843434Y-87752126D01*
X145345669Y-87545436D01*
X144806696Y-87544965D01*
X144308570Y-87750787D01*
X143927126Y-88131566D01*
X143720436Y-88629331D01*
X143720307Y-88777037D01*
X143681443Y-88751069D01*
X143516200Y-88718200D01*
X135272900Y-88718200D01*
X135267200Y-88712500D01*
X135234605Y-88712500D01*
X135326794Y-88620311D01*
X135392134Y-88462566D01*
X135419600Y-88435100D01*
X135419600Y-88403743D01*
X135418050Y-88400000D01*
X135419600Y-88396257D01*
X135419600Y-88364900D01*
X135392134Y-88337434D01*
X135326794Y-88179689D01*
X135234605Y-88087500D01*
X135267200Y-88087500D01*
X135419600Y-87935100D01*
X135419600Y-87903743D01*
X135419399Y-87903259D01*
X137690858Y-85631800D01*
X149764229Y-85631800D01*
X149764229Y-86600000D01*
G36*
X130962400Y-88747600D02*
X130982400Y-88747600D01*
X130982400Y-89052400D01*
X130962400Y-89052400D01*
X130962400Y-89072400D01*
X130657600Y-89072400D01*
X130657600Y-89052400D01*
X130637600Y-89052400D01*
X130637600Y-88747600D01*
X130657600Y-88747600D01*
X130657600Y-88727600D01*
X130962400Y-88727600D01*
X130962400Y-88747600D01*
X130962400Y-88747600D01*
G37*
X130962400Y-88747600D02*
X130982400Y-88747600D01*
X130982400Y-89052400D01*
X130962400Y-89052400D01*
X130962400Y-89072400D01*
X130657600Y-89072400D01*
X130657600Y-89052400D01*
X130637600Y-89052400D01*
X130637600Y-88747600D01*
X130657600Y-88747600D01*
X130657600Y-88727600D01*
X130962400Y-88727600D01*
X130962400Y-88747600D01*
G36*
X152072100Y-81590179D02*
X152072100Y-83489229D01*
X150075000Y-83489229D01*
X149956073Y-83512885D01*
X149855252Y-83580252D01*
X149787885Y-83681073D01*
X149764229Y-83800000D01*
X149764229Y-84768200D01*
X137512000Y-84768200D01*
X137346757Y-84801069D01*
X137206671Y-84894671D01*
X135354578Y-86746764D01*
X135326794Y-86679689D01*
X135155311Y-86508206D01*
X134931257Y-86415400D01*
X134114800Y-86415400D01*
X133962400Y-86567800D01*
X133962400Y-87087500D01*
X133982400Y-87087500D01*
X133982400Y-87212500D01*
X133962400Y-87212500D01*
X133962400Y-87214229D01*
X133657600Y-87214229D01*
X133657600Y-87212500D01*
X133637600Y-87212500D01*
X133637600Y-87087500D01*
X133657600Y-87087500D01*
X133657600Y-86567800D01*
X133505200Y-86415400D01*
X133294600Y-86415400D01*
X133294600Y-86204800D01*
X133142200Y-86052400D01*
X132435000Y-86052400D01*
X132435000Y-85747600D01*
X133142200Y-85747600D01*
X133294600Y-85595200D01*
X133294600Y-84778743D01*
X133201794Y-84554689D01*
X133030311Y-84383206D01*
X132806257Y-84290400D01*
X132774900Y-84290400D01*
X132622500Y-84442800D01*
X132622500Y-84475395D01*
X132530311Y-84383206D01*
X132372566Y-84317866D01*
X132345100Y-84290400D01*
X132313743Y-84290400D01*
X132310000Y-84291950D01*
X132306257Y-84290400D01*
X132274900Y-84290400D01*
X132247434Y-84317866D01*
X132089689Y-84383206D01*
X132017200Y-84455695D01*
X132017200Y-83284000D01*
X131982398Y-83109037D01*
X131883289Y-82960711D01*
X130431178Y-81508600D01*
X130505200Y-81508600D01*
X130657600Y-81356200D01*
X130657600Y-80416400D01*
X130962400Y-80416400D01*
X130962400Y-81356200D01*
X131114800Y-81508600D01*
X132201257Y-81508600D01*
X132425311Y-81415794D01*
X132596794Y-81244311D01*
X132689600Y-81020257D01*
X132689600Y-80568800D01*
X134010400Y-80568800D01*
X134010400Y-81020257D01*
X134103206Y-81244311D01*
X134274689Y-81415794D01*
X134498743Y-81508600D01*
X135585200Y-81508600D01*
X135737600Y-81356200D01*
X135737600Y-80416400D01*
X136042400Y-80416400D01*
X136042400Y-81356200D01*
X136194800Y-81508600D01*
X137281257Y-81508600D01*
X137505311Y-81415794D01*
X137676794Y-81244311D01*
X137769600Y-81020257D01*
X137769600Y-80568800D01*
X137617200Y-80416400D01*
X136042400Y-80416400D01*
X135737600Y-80416400D01*
X134162800Y-80416400D01*
X134010400Y-80568800D01*
X132689600Y-80568800D01*
X132537200Y-80416400D01*
X130962400Y-80416400D01*
X130657600Y-80416400D01*
X130637600Y-80416400D01*
X130637600Y-80243680D01*
X140009880Y-80243680D01*
X140009880Y-80560517D01*
X140102686Y-80784571D01*
X140274169Y-80956054D01*
X140498223Y-81048860D01*
X140665200Y-81048860D01*
X140817600Y-80896460D01*
X140817600Y-80091280D01*
X141122400Y-80091280D01*
X141122400Y-80896460D01*
X141274800Y-81048860D01*
X141441777Y-81048860D01*
X141665831Y-80956054D01*
X141837314Y-80784571D01*
X141926689Y-80568800D01*
X144170400Y-80568800D01*
X144170400Y-81020257D01*
X144263206Y-81244311D01*
X144434689Y-81415794D01*
X144658743Y-81508600D01*
X145745200Y-81508600D01*
X145897600Y-81356200D01*
X145897600Y-80416400D01*
X146202400Y-80416400D01*
X146202400Y-81356200D01*
X146354800Y-81508600D01*
X147441257Y-81508600D01*
X147665311Y-81415794D01*
X147836794Y-81244311D01*
X147929600Y-81020257D01*
X147929600Y-80568800D01*
X147777200Y-80416400D01*
X146202400Y-80416400D01*
X145897600Y-80416400D01*
X144322800Y-80416400D01*
X144170400Y-80568800D01*
X141926689Y-80568800D01*
X141930120Y-80560517D01*
X141930120Y-80243680D01*
X141777720Y-80091280D01*
X141122400Y-80091280D01*
X140817600Y-80091280D01*
X140162280Y-80091280D01*
X140009880Y-80243680D01*
X130637600Y-80243680D01*
X130637600Y-80111600D01*
X130657600Y-80111600D01*
X130657600Y-80091600D01*
X130962400Y-80091600D01*
X130962400Y-80111600D01*
X132537200Y-80111600D01*
X132689600Y-79959200D01*
X132689600Y-79507743D01*
X132596794Y-79283689D01*
X132440205Y-79127100D01*
X134259795Y-79127100D01*
X134103206Y-79283689D01*
X134010400Y-79507743D01*
X134010400Y-79959200D01*
X134162800Y-80111600D01*
X135737600Y-80111600D01*
X135737600Y-80091600D01*
X136042400Y-80091600D01*
X136042400Y-80111600D01*
X137617200Y-80111600D01*
X137769600Y-79959200D01*
X137769600Y-79507743D01*
X137676794Y-79283689D01*
X137520205Y-79127100D01*
X140088640Y-79127100D01*
X140009880Y-79317243D01*
X140009880Y-79634080D01*
X140162280Y-79786480D01*
X140817600Y-79786480D01*
X140817600Y-78981300D01*
X141122400Y-78981300D01*
X141122400Y-79786480D01*
X141777720Y-79786480D01*
X141930120Y-79634080D01*
X141930120Y-79507743D01*
X144170400Y-79507743D01*
X144170400Y-79959200D01*
X144322800Y-80111600D01*
X145897600Y-80111600D01*
X145897600Y-79171800D01*
X146202400Y-79171800D01*
X146202400Y-80111600D01*
X147777200Y-80111600D01*
X147929600Y-79959200D01*
X147929600Y-79507743D01*
X147836794Y-79283689D01*
X147665311Y-79112206D01*
X147441257Y-79019400D01*
X146354800Y-79019400D01*
X146202400Y-79171800D01*
X145897600Y-79171800D01*
X145745200Y-79019400D01*
X144658743Y-79019400D01*
X144434689Y-79112206D01*
X144263206Y-79283689D01*
X144170400Y-79507743D01*
X141930120Y-79507743D01*
X141930120Y-79317243D01*
X141837314Y-79093189D01*
X141665831Y-78921706D01*
X141441777Y-78828900D01*
X141274800Y-78828900D01*
X141122400Y-78981300D01*
X140817600Y-78981300D01*
X140665200Y-78828900D01*
X140650878Y-78828900D01*
X141297156Y-78182622D01*
X141349692Y-78261248D01*
X141450513Y-78328615D01*
X141569440Y-78352271D01*
X142270480Y-78352271D01*
X142389407Y-78328615D01*
X142490228Y-78261248D01*
X142557595Y-78160427D01*
X142581251Y-78041500D01*
X142581251Y-77998300D01*
X144177500Y-77998300D01*
X144352463Y-77963498D01*
X144475282Y-77881432D01*
X144492885Y-77969927D01*
X144560252Y-78070748D01*
X144661073Y-78138115D01*
X144780000Y-78161771D01*
X147320000Y-78161771D01*
X147438927Y-78138115D01*
X147539748Y-78070748D01*
X147607115Y-77969927D01*
X147630771Y-77851000D01*
X147630771Y-77148849D01*
X152072100Y-81590179D01*
X152072100Y-81590179D01*
G37*
X152072100Y-81590179D02*
X152072100Y-83489229D01*
X150075000Y-83489229D01*
X149956073Y-83512885D01*
X149855252Y-83580252D01*
X149787885Y-83681073D01*
X149764229Y-83800000D01*
X149764229Y-84768200D01*
X137512000Y-84768200D01*
X137346757Y-84801069D01*
X137206671Y-84894671D01*
X135354578Y-86746764D01*
X135326794Y-86679689D01*
X135155311Y-86508206D01*
X134931257Y-86415400D01*
X134114800Y-86415400D01*
X133962400Y-86567800D01*
X133962400Y-87087500D01*
X133982400Y-87087500D01*
X133982400Y-87212500D01*
X133962400Y-87212500D01*
X133962400Y-87214229D01*
X133657600Y-87214229D01*
X133657600Y-87212500D01*
X133637600Y-87212500D01*
X133637600Y-87087500D01*
X133657600Y-87087500D01*
X133657600Y-86567800D01*
X133505200Y-86415400D01*
X133294600Y-86415400D01*
X133294600Y-86204800D01*
X133142200Y-86052400D01*
X132435000Y-86052400D01*
X132435000Y-85747600D01*
X133142200Y-85747600D01*
X133294600Y-85595200D01*
X133294600Y-84778743D01*
X133201794Y-84554689D01*
X133030311Y-84383206D01*
X132806257Y-84290400D01*
X132774900Y-84290400D01*
X132622500Y-84442800D01*
X132622500Y-84475395D01*
X132530311Y-84383206D01*
X132372566Y-84317866D01*
X132345100Y-84290400D01*
X132313743Y-84290400D01*
X132310000Y-84291950D01*
X132306257Y-84290400D01*
X132274900Y-84290400D01*
X132247434Y-84317866D01*
X132089689Y-84383206D01*
X132017200Y-84455695D01*
X132017200Y-83284000D01*
X131982398Y-83109037D01*
X131883289Y-82960711D01*
X130431178Y-81508600D01*
X130505200Y-81508600D01*
X130657600Y-81356200D01*
X130657600Y-80416400D01*
X130962400Y-80416400D01*
X130962400Y-81356200D01*
X131114800Y-81508600D01*
X132201257Y-81508600D01*
X132425311Y-81415794D01*
X132596794Y-81244311D01*
X132689600Y-81020257D01*
X132689600Y-80568800D01*
X134010400Y-80568800D01*
X134010400Y-81020257D01*
X134103206Y-81244311D01*
X134274689Y-81415794D01*
X134498743Y-81508600D01*
X135585200Y-81508600D01*
X135737600Y-81356200D01*
X135737600Y-80416400D01*
X136042400Y-80416400D01*
X136042400Y-81356200D01*
X136194800Y-81508600D01*
X137281257Y-81508600D01*
X137505311Y-81415794D01*
X137676794Y-81244311D01*
X137769600Y-81020257D01*
X137769600Y-80568800D01*
X137617200Y-80416400D01*
X136042400Y-80416400D01*
X135737600Y-80416400D01*
X134162800Y-80416400D01*
X134010400Y-80568800D01*
X132689600Y-80568800D01*
X132537200Y-80416400D01*
X130962400Y-80416400D01*
X130657600Y-80416400D01*
X130637600Y-80416400D01*
X130637600Y-80243680D01*
X140009880Y-80243680D01*
X140009880Y-80560517D01*
X140102686Y-80784571D01*
X140274169Y-80956054D01*
X140498223Y-81048860D01*
X140665200Y-81048860D01*
X140817600Y-80896460D01*
X140817600Y-80091280D01*
X141122400Y-80091280D01*
X141122400Y-80896460D01*
X141274800Y-81048860D01*
X141441777Y-81048860D01*
X141665831Y-80956054D01*
X141837314Y-80784571D01*
X141926689Y-80568800D01*
X144170400Y-80568800D01*
X144170400Y-81020257D01*
X144263206Y-81244311D01*
X144434689Y-81415794D01*
X144658743Y-81508600D01*
X145745200Y-81508600D01*
X145897600Y-81356200D01*
X145897600Y-80416400D01*
X146202400Y-80416400D01*
X146202400Y-81356200D01*
X146354800Y-81508600D01*
X147441257Y-81508600D01*
X147665311Y-81415794D01*
X147836794Y-81244311D01*
X147929600Y-81020257D01*
X147929600Y-80568800D01*
X147777200Y-80416400D01*
X146202400Y-80416400D01*
X145897600Y-80416400D01*
X144322800Y-80416400D01*
X144170400Y-80568800D01*
X141926689Y-80568800D01*
X141930120Y-80560517D01*
X141930120Y-80243680D01*
X141777720Y-80091280D01*
X141122400Y-80091280D01*
X140817600Y-80091280D01*
X140162280Y-80091280D01*
X140009880Y-80243680D01*
X130637600Y-80243680D01*
X130637600Y-80111600D01*
X130657600Y-80111600D01*
X130657600Y-80091600D01*
X130962400Y-80091600D01*
X130962400Y-80111600D01*
X132537200Y-80111600D01*
X132689600Y-79959200D01*
X132689600Y-79507743D01*
X132596794Y-79283689D01*
X132440205Y-79127100D01*
X134259795Y-79127100D01*
X134103206Y-79283689D01*
X134010400Y-79507743D01*
X134010400Y-79959200D01*
X134162800Y-80111600D01*
X135737600Y-80111600D01*
X135737600Y-80091600D01*
X136042400Y-80091600D01*
X136042400Y-80111600D01*
X137617200Y-80111600D01*
X137769600Y-79959200D01*
X137769600Y-79507743D01*
X137676794Y-79283689D01*
X137520205Y-79127100D01*
X140088640Y-79127100D01*
X140009880Y-79317243D01*
X140009880Y-79634080D01*
X140162280Y-79786480D01*
X140817600Y-79786480D01*
X140817600Y-78981300D01*
X141122400Y-78981300D01*
X141122400Y-79786480D01*
X141777720Y-79786480D01*
X141930120Y-79634080D01*
X141930120Y-79507743D01*
X144170400Y-79507743D01*
X144170400Y-79959200D01*
X144322800Y-80111600D01*
X145897600Y-80111600D01*
X145897600Y-79171800D01*
X146202400Y-79171800D01*
X146202400Y-80111600D01*
X147777200Y-80111600D01*
X147929600Y-79959200D01*
X147929600Y-79507743D01*
X147836794Y-79283689D01*
X147665311Y-79112206D01*
X147441257Y-79019400D01*
X146354800Y-79019400D01*
X146202400Y-79171800D01*
X145897600Y-79171800D01*
X145745200Y-79019400D01*
X144658743Y-79019400D01*
X144434689Y-79112206D01*
X144263206Y-79283689D01*
X144170400Y-79507743D01*
X141930120Y-79507743D01*
X141930120Y-79317243D01*
X141837314Y-79093189D01*
X141665831Y-78921706D01*
X141441777Y-78828900D01*
X141274800Y-78828900D01*
X141122400Y-78981300D01*
X140817600Y-78981300D01*
X140665200Y-78828900D01*
X140650878Y-78828900D01*
X141297156Y-78182622D01*
X141349692Y-78261248D01*
X141450513Y-78328615D01*
X141569440Y-78352271D01*
X142270480Y-78352271D01*
X142389407Y-78328615D01*
X142490228Y-78261248D01*
X142557595Y-78160427D01*
X142581251Y-78041500D01*
X142581251Y-77998300D01*
X144177500Y-77998300D01*
X144352463Y-77963498D01*
X144475282Y-77881432D01*
X144492885Y-77969927D01*
X144560252Y-78070748D01*
X144661073Y-78138115D01*
X144780000Y-78161771D01*
X147320000Y-78161771D01*
X147438927Y-78138115D01*
X147539748Y-78070748D01*
X147607115Y-77969927D01*
X147630771Y-77851000D01*
X147630771Y-77148849D01*
X152072100Y-81590179D01*
G36*
X107377500Y-87047600D02*
X107379229Y-87047600D01*
X107379229Y-87352400D01*
X107377500Y-87352400D01*
X107377500Y-87372400D01*
X107252500Y-87372400D01*
X107252500Y-87352400D01*
X107250771Y-87352400D01*
X107250771Y-87047600D01*
X107252500Y-87047600D01*
X107252500Y-87027600D01*
X107377500Y-87027600D01*
X107377500Y-87047600D01*
X107377500Y-87047600D01*
G37*
X107377500Y-87047600D02*
X107379229Y-87047600D01*
X107379229Y-87352400D01*
X107377500Y-87352400D01*
X107377500Y-87372400D01*
X107252500Y-87372400D01*
X107252500Y-87352400D01*
X107250771Y-87352400D01*
X107250771Y-87047600D01*
X107252500Y-87047600D01*
X107252500Y-87027600D01*
X107377500Y-87027600D01*
X107377500Y-87047600D01*
G36*
X107942900Y-85537658D02*
X107942900Y-85836642D01*
X107863342Y-85916200D01*
X107815000Y-85916200D01*
X107649757Y-85949069D01*
X107577704Y-85997213D01*
X107561257Y-85990400D01*
X107529900Y-85990400D01*
X107467402Y-86052898D01*
X107467402Y-85990400D01*
X107357055Y-85990400D01*
X107357130Y-85904809D01*
X107243296Y-85629310D01*
X107032699Y-85418344D01*
X106980574Y-85396700D01*
X107801942Y-85396700D01*
X107942900Y-85537658D01*
X107942900Y-85537658D01*
G37*
X107942900Y-85537658D02*
X107942900Y-85836642D01*
X107863342Y-85916200D01*
X107815000Y-85916200D01*
X107649757Y-85949069D01*
X107577704Y-85997213D01*
X107561257Y-85990400D01*
X107529900Y-85990400D01*
X107467402Y-86052898D01*
X107467402Y-85990400D01*
X107357055Y-85990400D01*
X107357130Y-85904809D01*
X107243296Y-85629310D01*
X107032699Y-85418344D01*
X106980574Y-85396700D01*
X107801942Y-85396700D01*
X107942900Y-85537658D01*
%TD*%
M02*
