%TF.GenerationSoftware,KiCad,Pcbnew,no-vcs-found-33cc7b3~60~ubuntu16.04.1*%
%TF.CreationDate,2017-09-14T13:01:55-04:00*%
%TF.ProjectId,audio_controller_3x2,617564696F5F636F6E74726F6C6C6572,1.1*%
%TF.SameCoordinates,Original*%
%TF.FileFunction,Soldermask,Top*%
%TF.FilePolarity,Negative*%
%FSLAX46Y46*%
G04 Gerber Fmt 4.6, Leading zero omitted, Abs format (unit mm)*
G04 Created by KiCad (PCBNEW no-vcs-found-33cc7b3~60~ubuntu16.04.1) date Thu Sep 14 13:01:55 2017*
%MOMM*%
%LPD*%
G01*
G04 APERTURE LIST*
%ADD10C,0.228600*%
%ADD11R,6.500000X3.500000*%
%ADD12R,4.500000X3.500000*%
%ADD13C,3.556000*%
%ADD14O,1.854200X2.540000*%
%ADD15R,1.854200X2.540000*%
%ADD16R,3.475000X3.475000*%
%ADD17C,2.100000*%
G04 APERTURE END LIST*
D10*
X156210000Y-67945000D02*
X85725000Y-67945000D01*
X156210000Y-109855000D02*
X156210000Y-67945000D01*
X85725000Y-109855000D02*
X156210000Y-109855000D01*
X85725000Y-67945000D02*
X85725000Y-109855000D01*
D11*
%TO.C,SP1*%
X101565000Y-95150000D03*
X113065000Y-95150000D03*
D12*
X100565000Y-82650000D03*
X114065000Y-82650000D03*
%TD*%
D13*
%TO.C,MDB1*%
X130175000Y-71120000D03*
X130175000Y-106680000D03*
X89535000Y-101600000D03*
X89535000Y-76200000D03*
D14*
X88265000Y-106680000D03*
X90805000Y-106680000D03*
X93345000Y-106680000D03*
X95885000Y-106680000D03*
X98425000Y-106680000D03*
X100965000Y-106680000D03*
X103505000Y-106680000D03*
X106045000Y-106680000D03*
X108585000Y-106680000D03*
X111125000Y-106680000D03*
X113665000Y-106680000D03*
X116205000Y-106680000D03*
X118745000Y-106680000D03*
X121285000Y-106680000D03*
X123825000Y-106680000D03*
X126365000Y-106680000D03*
X126365000Y-71120000D03*
X123825000Y-71120000D03*
X121285000Y-71120000D03*
X118745000Y-71120000D03*
X116205000Y-71120000D03*
X113665000Y-71120000D03*
X111125000Y-71120000D03*
X108585000Y-71120000D03*
X106045000Y-71120000D03*
X103505000Y-71120000D03*
X100965000Y-71120000D03*
X98425000Y-71120000D03*
X95885000Y-71120000D03*
D15*
X88265000Y-71120000D03*
D14*
X93345000Y-71120000D03*
X90805000Y-71120000D03*
%TD*%
D16*
%TO.C,U1*%
X130810000Y-88900000D03*
%TD*%
D17*
%TO.C,J1*%
X145075000Y-88900000D03*
X152075000Y-88900000D03*
%TD*%
M02*
