G04 #@! TF.GenerationSoftware,KiCad,Pcbnew,no-vcs-found-0f0cb64~58~ubuntu16.04.1*
G04 #@! TF.CreationDate,2017-03-27T14:16:00-04:00*
G04 #@! TF.ProjectId,audio_controller_3x2,617564696F5F636F6E74726F6C6C6572,1.0*
G04 #@! TF.FileFunction,Copper,L2,Bot,Signal*
G04 #@! TF.FilePolarity,Positive*
%FSLAX46Y46*%
G04 Gerber Fmt 4.6, Leading zero omitted, Abs format (unit mm)*
G04 Created by KiCad (PCBNEW no-vcs-found-0f0cb64~58~ubuntu16.04.1) date Mon Mar 27 14:16:00 2017*
%MOMM*%
%LPD*%
G01*
G04 APERTURE LIST*
%ADD10C,0.100000*%
%ADD11C,0.228600*%
%ADD12R,3.400000X3.400000*%
%ADD13R,0.250000X2.000000*%
%ADD14R,2.000000X0.250000*%
%ADD15O,1.854200X2.540000*%
%ADD16R,1.854200X2.540000*%
%ADD17C,3.556000*%
%ADD18R,2.540000X1.270000*%
%ADD19C,2.100000*%
%ADD20R,2.800000X2.800000*%
%ADD21R,2.200000X2.800000*%
%ADD22R,0.701040X1.000760*%
%ADD23C,0.889000*%
%ADD24C,0.304800*%
%ADD25C,0.254000*%
%ADD26C,0.406400*%
%ADD27C,0.203200*%
G04 APERTURE END LIST*
D10*
D11*
X155575000Y-68580000D02*
X85725000Y-68580000D01*
X155575000Y-109220000D02*
X155575000Y-68580000D01*
X85725000Y-109220000D02*
X155575000Y-109220000D01*
X85725000Y-68580000D02*
X85725000Y-109220000D01*
D12*
X130810000Y-88900000D03*
D13*
X129060000Y-85900000D03*
X129560000Y-85900000D03*
X130060000Y-85900000D03*
X130560000Y-85900000D03*
X131060000Y-85900000D03*
X131560000Y-85900000D03*
X132060000Y-85900000D03*
X132560000Y-85900000D03*
X132560000Y-91900000D03*
X132060000Y-91900000D03*
X131560000Y-91900000D03*
X131060000Y-91900000D03*
X130560000Y-91900000D03*
X130060000Y-91900000D03*
X129560000Y-91900000D03*
X129060000Y-91900000D03*
D14*
X133810000Y-87150000D03*
X133810000Y-87650000D03*
X133810000Y-88150000D03*
X133810000Y-88650000D03*
X133810000Y-89150000D03*
X133810000Y-89650000D03*
X133810000Y-90150000D03*
X133810000Y-90650000D03*
X127810000Y-90650000D03*
X127810000Y-90150000D03*
X127810000Y-89650000D03*
X127810000Y-89150000D03*
X127810000Y-88650000D03*
X127810000Y-88150000D03*
X127810000Y-87650000D03*
X127810000Y-87150000D03*
D15*
X90805000Y-71120000D03*
X93345000Y-71120000D03*
D16*
X88265000Y-71120000D03*
D15*
X95885000Y-71120000D03*
X98425000Y-71120000D03*
X100965000Y-71120000D03*
X103505000Y-71120000D03*
X106045000Y-71120000D03*
X108585000Y-71120000D03*
X111125000Y-71120000D03*
X113665000Y-71120000D03*
X116205000Y-71120000D03*
X118745000Y-71120000D03*
X121285000Y-71120000D03*
X123825000Y-71120000D03*
X126365000Y-71120000D03*
X126365000Y-106680000D03*
X123825000Y-106680000D03*
X121285000Y-106680000D03*
X118745000Y-106680000D03*
X116205000Y-106680000D03*
X113665000Y-106680000D03*
X111125000Y-106680000D03*
X108585000Y-106680000D03*
X106045000Y-106680000D03*
X103505000Y-106680000D03*
X100965000Y-106680000D03*
X98425000Y-106680000D03*
X95885000Y-106680000D03*
X93345000Y-106680000D03*
X90805000Y-106680000D03*
X88265000Y-106680000D03*
D17*
X89535000Y-76200000D03*
X89535000Y-101600000D03*
X130175000Y-106680000D03*
X130175000Y-71120000D03*
D18*
X130810000Y-97536000D03*
X130810000Y-100584000D03*
X146050000Y-97536000D03*
X146050000Y-100584000D03*
X140970000Y-100584000D03*
X140970000Y-97536000D03*
X125730000Y-100584000D03*
X125730000Y-97536000D03*
X130810000Y-80264000D03*
X130810000Y-77216000D03*
X135890000Y-77216000D03*
X135890000Y-80264000D03*
X146050000Y-80264000D03*
X146050000Y-77216000D03*
D19*
X145075000Y-88900000D03*
X152075000Y-88900000D03*
D20*
X143775000Y-92600000D03*
D21*
X151175000Y-85200000D03*
X153175000Y-92600000D03*
D18*
X135890000Y-100584000D03*
X135890000Y-97536000D03*
X125730000Y-77216000D03*
X125730000Y-80264000D03*
X120650000Y-80264000D03*
X120650000Y-77216000D03*
D22*
X140020040Y-77541120D03*
X141919960Y-77541120D03*
X140970000Y-79938880D03*
D23*
X145730100Y-91971000D03*
X135539800Y-91971000D03*
X127810000Y-86473700D03*
X126130600Y-86428200D03*
D24*
X131560000Y-88150000D02*
X130810000Y-88900000D01*
X133810000Y-88150000D02*
X131560000Y-88150000D01*
X133810000Y-87150000D02*
X132560000Y-87150000D01*
X132560000Y-87150000D02*
X130810000Y-88900000D01*
X132560000Y-85900000D02*
X132560000Y-87150000D01*
X132560000Y-87150000D02*
X130810000Y-88900000D01*
X132060000Y-87650000D02*
X130810000Y-88900000D01*
X132060000Y-85900000D02*
X132060000Y-87650000D01*
X146050000Y-80264000D02*
X144500600Y-80264000D01*
X125730000Y-97536000D02*
X130810000Y-97536000D01*
X144175500Y-79938900D02*
X140970000Y-79938900D01*
X144500600Y-80264000D02*
X144175500Y-79938900D01*
X137764500Y-79938900D02*
X137439400Y-80264000D01*
X140970000Y-79938900D02*
X137764500Y-79938900D01*
X135890000Y-80264000D02*
X137439400Y-80264000D01*
X132060000Y-90150000D02*
X130810000Y-88900000D01*
X133810000Y-90150000D02*
X132060000Y-90150000D01*
X133810000Y-90150000D02*
X135089400Y-90150000D01*
X130810000Y-97536000D02*
X132359400Y-97536000D01*
X134365600Y-97536000D02*
X132359400Y-97536000D01*
X135758900Y-99669600D02*
X140970000Y-99669600D01*
X134365600Y-98276300D02*
X135758900Y-99669600D01*
X134365600Y-97536000D02*
X134365600Y-98276300D01*
X134365600Y-91654900D02*
X134365600Y-97536000D01*
X135089400Y-90931100D02*
X134365600Y-91654900D01*
X135089400Y-90150000D02*
X135089400Y-90931100D01*
X140970000Y-100584000D02*
X140970000Y-100126800D01*
X140970000Y-100126800D02*
X140970000Y-99669600D01*
X144043400Y-100126800D02*
X144500600Y-100584000D01*
X140970000Y-100126800D02*
X144043400Y-100126800D01*
X146050000Y-100584000D02*
X144500600Y-100584000D01*
X130810000Y-80264000D02*
X132359400Y-80264000D01*
X133291900Y-81196500D02*
X132359400Y-80264000D01*
X134224400Y-80264000D02*
X133291900Y-81196500D01*
X135890000Y-80264000D02*
X134224400Y-80264000D01*
X132060000Y-82428400D02*
X132060000Y-85900000D01*
X133291900Y-81196500D02*
X132060000Y-82428400D01*
X135890000Y-77216000D02*
X130810000Y-77216000D01*
X130810000Y-77216000D02*
X125730000Y-77216000D01*
X135890000Y-77216000D02*
X137439400Y-77216000D01*
X135890000Y-100584000D02*
X137439400Y-100584000D01*
X139354600Y-77216000D02*
X137439400Y-77216000D01*
X139390100Y-77251500D02*
X139354600Y-77216000D01*
X139390100Y-77541100D02*
X139390100Y-77251500D01*
X138328800Y-101473400D02*
X137439400Y-100584000D01*
X147458500Y-101473400D02*
X138328800Y-101473400D01*
X154529400Y-94402500D02*
X147458500Y-101473400D01*
X154529400Y-83360300D02*
X154529400Y-94402500D01*
X147495700Y-76326600D02*
X154529400Y-83360300D01*
X140106800Y-76326600D02*
X147495700Y-76326600D01*
X139354600Y-77078800D02*
X140106800Y-76326600D01*
X139354600Y-77216000D02*
X139354600Y-77078800D01*
X140020000Y-77541100D02*
X139390100Y-77541100D01*
X127810000Y-89150000D02*
X126530600Y-89150000D01*
X135890000Y-100584000D02*
X130810000Y-100584000D01*
X123803000Y-91877600D02*
X126530600Y-89150000D01*
X123803000Y-100921800D02*
X123803000Y-91877600D01*
X124354600Y-101473400D02*
X123803000Y-100921800D01*
X128371200Y-101473400D02*
X124354600Y-101473400D01*
X129260600Y-100584000D02*
X128371200Y-101473400D01*
X130810000Y-100584000D02*
X129260600Y-100584000D01*
X125730000Y-77216000D02*
X120650000Y-77216000D01*
X95885000Y-102666800D02*
X95885000Y-106680000D01*
X120421400Y-78130400D02*
X95885000Y-102666800D01*
X120650000Y-78130400D02*
X120421400Y-78130400D01*
X120650000Y-77216000D02*
X120650000Y-78130400D01*
D25*
X140970000Y-97536000D02*
X146050000Y-97536000D01*
X135890000Y-97536000D02*
X140970000Y-97536000D01*
X133810000Y-89150000D02*
X135064000Y-89150000D01*
X135189800Y-89150000D02*
X135064000Y-89150000D01*
X136245900Y-90206100D02*
X135189800Y-89150000D01*
X136245900Y-96291100D02*
X136245900Y-90206100D01*
X135890000Y-96647000D02*
X136245900Y-96291100D01*
X135890000Y-97536000D02*
X135890000Y-96647000D01*
X127824400Y-93154000D02*
X132060000Y-93154000D01*
X124231000Y-96747400D02*
X127824400Y-93154000D01*
X124231000Y-98307100D02*
X124231000Y-96747400D01*
X125618900Y-99695000D02*
X124231000Y-98307100D01*
X125730000Y-99695000D02*
X125618900Y-99695000D01*
X125730000Y-100584000D02*
X125730000Y-99695000D01*
X132060000Y-91900000D02*
X132060000Y-93154000D01*
D24*
X146050000Y-77216000D02*
X144500600Y-77216000D01*
X144175500Y-77541100D02*
X141920000Y-77541100D01*
X144500600Y-77216000D02*
X144175500Y-77541100D01*
X131560000Y-83341600D02*
X131560000Y-85900000D01*
X129285600Y-81067200D02*
X131560000Y-83341600D01*
X129285600Y-79513600D02*
X129285600Y-81067200D01*
X130130300Y-78668900D02*
X129285600Y-79513600D01*
X140162300Y-78668900D02*
X130130300Y-78668900D01*
X141290100Y-77541100D02*
X140162300Y-78668900D01*
X141920000Y-77541100D02*
X141290100Y-77541100D01*
D25*
X135539800Y-90059600D02*
X135539800Y-91971000D01*
X135130200Y-89650000D02*
X135539800Y-90059600D01*
X133810000Y-89650000D02*
X135130200Y-89650000D01*
X143775000Y-92600000D02*
X145429000Y-92600000D01*
X145429000Y-92272100D02*
X145730100Y-91971000D01*
X145429000Y-92600000D02*
X145429000Y-92272100D01*
X137514000Y-85200000D02*
X135064000Y-87650000D01*
X149821000Y-85200000D02*
X137514000Y-85200000D01*
X151175000Y-85200000D02*
X149821000Y-85200000D01*
X133810000Y-87650000D02*
X135064000Y-87650000D01*
D26*
X137500500Y-88650000D02*
X133810000Y-88650000D01*
X139605300Y-90754800D02*
X137500500Y-88650000D01*
X149899600Y-90754800D02*
X139605300Y-90754800D01*
X151744800Y-92600000D02*
X149899600Y-90754800D01*
X153175000Y-92600000D02*
X151744800Y-92600000D01*
D25*
X127810000Y-86473700D02*
X127810000Y-87150000D01*
X126130600Y-88224600D02*
X126130600Y-86428200D01*
X126556000Y-88650000D02*
X126130600Y-88224600D01*
X127810000Y-88650000D02*
X126556000Y-88650000D01*
X123825000Y-106680000D02*
X123825000Y-105156000D01*
X123015400Y-104346400D02*
X123825000Y-105156000D01*
X123015400Y-88087800D02*
X123015400Y-104346400D01*
X125704300Y-85398900D02*
X123015400Y-88087800D01*
X128558900Y-85398900D02*
X125704300Y-85398900D01*
X129060000Y-85900000D02*
X128558900Y-85398900D01*
X130060000Y-85900000D02*
X130060000Y-84646000D01*
X111125000Y-106680000D02*
X111125000Y-105156000D01*
X111125000Y-98971600D02*
X111125000Y-105156000D01*
X125826200Y-84270400D02*
X111125000Y-98971600D01*
X129684400Y-84270400D02*
X125826200Y-84270400D01*
X130060000Y-84646000D02*
X129684400Y-84270400D01*
X109943900Y-107304200D02*
X109943900Y-106680000D01*
X109069000Y-108179100D02*
X109943900Y-107304200D01*
X108087600Y-108179100D02*
X109069000Y-108179100D01*
X107416900Y-107508400D02*
X108087600Y-108179100D01*
X107416900Y-94386100D02*
X107416900Y-107508400D01*
X120650000Y-81153000D02*
X107416900Y-94386100D01*
X120650000Y-80264000D02*
X120650000Y-81153000D01*
X111125000Y-106680000D02*
X109943900Y-106680000D01*
X108585000Y-98298000D02*
X108585000Y-106680000D01*
X125730000Y-81153000D02*
X108585000Y-98298000D01*
X125730000Y-80708500D02*
X125730000Y-80746400D01*
X125730000Y-80264000D02*
X125730000Y-80708500D01*
X125730000Y-80746400D02*
X125730000Y-81146600D01*
X125730000Y-81146600D02*
X125730000Y-81153000D01*
X127560600Y-81146600D02*
X131060000Y-84646000D01*
X125730000Y-81146600D02*
X127560600Y-81146600D01*
X131060000Y-85900000D02*
X131060000Y-84646000D01*
X100965000Y-106680000D02*
X102146100Y-106680000D01*
X129560000Y-84931100D02*
X129560000Y-85900000D01*
X129277600Y-84648700D02*
X129560000Y-84931100D01*
X125951200Y-84648700D02*
X129277600Y-84648700D01*
X112384500Y-98215400D02*
X125951200Y-84648700D01*
X112384500Y-107480300D02*
X112384500Y-98215400D01*
X111329800Y-108535000D02*
X112384500Y-107480300D01*
X103336700Y-108535000D02*
X111329800Y-108535000D01*
X102146100Y-107344400D02*
X103336700Y-108535000D01*
X102146100Y-106680000D02*
X102146100Y-107344400D01*
X126556000Y-86955300D02*
X126556000Y-87650000D01*
X126864400Y-86646900D02*
X126556000Y-86955300D01*
X126864400Y-86209600D02*
X126864400Y-86646900D01*
X126409600Y-85754800D02*
X126864400Y-86209600D01*
X125851700Y-85754800D02*
X126409600Y-85754800D01*
X123421600Y-88184900D02*
X125851700Y-85754800D01*
X123421600Y-101304900D02*
X123421600Y-88184900D01*
X124981400Y-102864700D02*
X123421600Y-101304900D01*
X124981400Y-107573800D02*
X124981400Y-102864700D01*
X123662200Y-108893000D02*
X124981400Y-107573800D01*
X101154700Y-108893000D02*
X123662200Y-108893000D01*
X99606100Y-107344400D02*
X101154700Y-108893000D01*
X99606100Y-106680000D02*
X99606100Y-107344400D01*
X98425000Y-106680000D02*
X99606100Y-106680000D01*
X127810000Y-87650000D02*
X126556000Y-87650000D01*
D27*
G36*
X155155900Y-108800900D02*
X124364958Y-108800900D01*
X125286726Y-107879131D01*
X125286729Y-107879129D01*
X125375051Y-107746945D01*
X125493915Y-107924837D01*
X125893572Y-108191879D01*
X126365000Y-108285652D01*
X126836428Y-108191879D01*
X127236085Y-107924837D01*
X127503127Y-107525180D01*
X127589197Y-107092477D01*
X128091840Y-107092477D01*
X128408259Y-107858270D01*
X128993648Y-108444682D01*
X129758888Y-108762437D01*
X130587477Y-108763160D01*
X131353270Y-108446741D01*
X131939682Y-107861352D01*
X132257437Y-107096112D01*
X132258160Y-106267523D01*
X131941741Y-105501730D01*
X131356352Y-104915318D01*
X130591112Y-104597563D01*
X129762523Y-104596840D01*
X128996730Y-104913259D01*
X128410318Y-105498648D01*
X128092563Y-106263888D01*
X128091840Y-107092477D01*
X127589197Y-107092477D01*
X127596900Y-107053752D01*
X127596900Y-106306248D01*
X127503127Y-105834820D01*
X127236085Y-105435163D01*
X126836428Y-105168121D01*
X126365000Y-105074348D01*
X125893572Y-105168121D01*
X125493915Y-105435163D01*
X125413200Y-105555962D01*
X125413200Y-102864700D01*
X125380331Y-102699457D01*
X125286729Y-102559371D01*
X125286726Y-102559369D01*
X123853400Y-101126042D01*
X123853400Y-98504267D01*
X123917092Y-98599589D01*
X123925671Y-98612429D01*
X124951471Y-99638229D01*
X124460000Y-99638229D01*
X124341073Y-99661885D01*
X124240252Y-99729252D01*
X124172885Y-99830073D01*
X124149229Y-99949000D01*
X124149229Y-101219000D01*
X124172885Y-101337927D01*
X124240252Y-101438748D01*
X124341073Y-101506115D01*
X124460000Y-101529771D01*
X127000000Y-101529771D01*
X127118927Y-101506115D01*
X127219748Y-101438748D01*
X127287115Y-101337927D01*
X127310771Y-101219000D01*
X127310771Y-100888800D01*
X128930400Y-100888800D01*
X128930400Y-101340257D01*
X129023206Y-101564311D01*
X129194689Y-101735794D01*
X129418743Y-101828600D01*
X130505200Y-101828600D01*
X130657600Y-101676200D01*
X130657600Y-100736400D01*
X130962400Y-100736400D01*
X130962400Y-101676200D01*
X131114800Y-101828600D01*
X132201257Y-101828600D01*
X132425311Y-101735794D01*
X132596794Y-101564311D01*
X132689600Y-101340257D01*
X132689600Y-100888800D01*
X134010400Y-100888800D01*
X134010400Y-101340257D01*
X134103206Y-101564311D01*
X134274689Y-101735794D01*
X134498743Y-101828600D01*
X135585200Y-101828600D01*
X135737600Y-101676200D01*
X135737600Y-100736400D01*
X136042400Y-100736400D01*
X136042400Y-101676200D01*
X136194800Y-101828600D01*
X137281257Y-101828600D01*
X137505311Y-101735794D01*
X137676794Y-101564311D01*
X137769600Y-101340257D01*
X137769600Y-100888800D01*
X137617200Y-100736400D01*
X136042400Y-100736400D01*
X135737600Y-100736400D01*
X134162800Y-100736400D01*
X134010400Y-100888800D01*
X132689600Y-100888800D01*
X132537200Y-100736400D01*
X130962400Y-100736400D01*
X130657600Y-100736400D01*
X129082800Y-100736400D01*
X128930400Y-100888800D01*
X127310771Y-100888800D01*
X127310771Y-99949000D01*
X127287115Y-99830073D01*
X127285559Y-99827743D01*
X128930400Y-99827743D01*
X128930400Y-100279200D01*
X129082800Y-100431600D01*
X130657600Y-100431600D01*
X130657600Y-99491800D01*
X130962400Y-99491800D01*
X130962400Y-100431600D01*
X132537200Y-100431600D01*
X132689600Y-100279200D01*
X132689600Y-99827743D01*
X132596794Y-99603689D01*
X132425311Y-99432206D01*
X132201257Y-99339400D01*
X131114800Y-99339400D01*
X130962400Y-99491800D01*
X130657600Y-99491800D01*
X130505200Y-99339400D01*
X129418743Y-99339400D01*
X129194689Y-99432206D01*
X129023206Y-99603689D01*
X128930400Y-99827743D01*
X127285559Y-99827743D01*
X127219748Y-99729252D01*
X127118927Y-99661885D01*
X127000000Y-99638229D01*
X126150508Y-99638229D01*
X126128931Y-99529757D01*
X126035329Y-99389671D01*
X125895243Y-99296069D01*
X125814583Y-99280025D01*
X125016329Y-98481771D01*
X127000000Y-98481771D01*
X127118927Y-98458115D01*
X127219748Y-98390748D01*
X127287115Y-98289927D01*
X127310771Y-98171000D01*
X127310771Y-97993200D01*
X129229229Y-97993200D01*
X129229229Y-98171000D01*
X129252885Y-98289927D01*
X129320252Y-98390748D01*
X129421073Y-98458115D01*
X129540000Y-98481771D01*
X132080000Y-98481771D01*
X132198927Y-98458115D01*
X132299748Y-98390748D01*
X132367115Y-98289927D01*
X132390771Y-98171000D01*
X132390771Y-97993200D01*
X133908400Y-97993200D01*
X133908400Y-98276300D01*
X133943202Y-98451263D01*
X134042311Y-98599589D01*
X134782122Y-99339400D01*
X134498743Y-99339400D01*
X134274689Y-99432206D01*
X134103206Y-99603689D01*
X134010400Y-99827743D01*
X134010400Y-100279200D01*
X134162800Y-100431600D01*
X135737600Y-100431600D01*
X135737600Y-100411600D01*
X136042400Y-100411600D01*
X136042400Y-100431600D01*
X137617200Y-100431600D01*
X137769600Y-100279200D01*
X137769600Y-100126800D01*
X139389229Y-100126800D01*
X139389229Y-101219000D01*
X139412885Y-101337927D01*
X139480252Y-101438748D01*
X139581073Y-101506115D01*
X139700000Y-101529771D01*
X142240000Y-101529771D01*
X142358927Y-101506115D01*
X142459748Y-101438748D01*
X142527115Y-101337927D01*
X142550771Y-101219000D01*
X142550771Y-100584000D01*
X143854022Y-100584000D01*
X144177310Y-100907289D01*
X144290516Y-100982931D01*
X144325637Y-101006398D01*
X144469229Y-101034960D01*
X144469229Y-101219000D01*
X144492885Y-101337927D01*
X144560252Y-101438748D01*
X144661073Y-101506115D01*
X144780000Y-101529771D01*
X147320000Y-101529771D01*
X147438927Y-101506115D01*
X147539748Y-101438748D01*
X147607115Y-101337927D01*
X147630771Y-101219000D01*
X147630771Y-99949000D01*
X147607115Y-99830073D01*
X147539748Y-99729252D01*
X147438927Y-99661885D01*
X147320000Y-99638229D01*
X144780000Y-99638229D01*
X144661073Y-99661885D01*
X144560252Y-99729252D01*
X144492885Y-99830073D01*
X144476355Y-99913176D01*
X144366689Y-99803511D01*
X144218363Y-99704402D01*
X144043400Y-99669600D01*
X142370473Y-99669600D01*
X142358927Y-99661885D01*
X142240000Y-99638229D01*
X141420960Y-99638229D01*
X141392398Y-99494637D01*
X141293289Y-99346311D01*
X141144963Y-99247202D01*
X140970000Y-99212400D01*
X135948278Y-99212400D01*
X135217649Y-98481771D01*
X137160000Y-98481771D01*
X137278927Y-98458115D01*
X137379748Y-98390748D01*
X137447115Y-98289927D01*
X137470771Y-98171000D01*
X137470771Y-97967800D01*
X139389229Y-97967800D01*
X139389229Y-98171000D01*
X139412885Y-98289927D01*
X139480252Y-98390748D01*
X139581073Y-98458115D01*
X139700000Y-98481771D01*
X142240000Y-98481771D01*
X142358927Y-98458115D01*
X142459748Y-98390748D01*
X142527115Y-98289927D01*
X142550771Y-98171000D01*
X142550771Y-97967800D01*
X144469229Y-97967800D01*
X144469229Y-98171000D01*
X144492885Y-98289927D01*
X144560252Y-98390748D01*
X144661073Y-98458115D01*
X144780000Y-98481771D01*
X147320000Y-98481771D01*
X147438927Y-98458115D01*
X147539748Y-98390748D01*
X147607115Y-98289927D01*
X147630771Y-98171000D01*
X147630771Y-96901000D01*
X147607115Y-96782073D01*
X147539748Y-96681252D01*
X147438927Y-96613885D01*
X147320000Y-96590229D01*
X144780000Y-96590229D01*
X144661073Y-96613885D01*
X144560252Y-96681252D01*
X144492885Y-96782073D01*
X144469229Y-96901000D01*
X144469229Y-97104200D01*
X142550771Y-97104200D01*
X142550771Y-96901000D01*
X142527115Y-96782073D01*
X142459748Y-96681252D01*
X142358927Y-96613885D01*
X142240000Y-96590229D01*
X139700000Y-96590229D01*
X139581073Y-96613885D01*
X139480252Y-96681252D01*
X139412885Y-96782073D01*
X139389229Y-96901000D01*
X139389229Y-97104200D01*
X137470771Y-97104200D01*
X137470771Y-96901000D01*
X137447115Y-96782073D01*
X137379748Y-96681252D01*
X137278927Y-96613885D01*
X137160000Y-96590229D01*
X136555372Y-96590229D01*
X136644831Y-96456343D01*
X136644832Y-96456342D01*
X136677701Y-96291100D01*
X136677700Y-96291095D01*
X136677700Y-90206100D01*
X136644831Y-90040857D01*
X136551229Y-89900771D01*
X135808458Y-89158000D01*
X137290080Y-89158000D01*
X139246090Y-91114010D01*
X139410897Y-91224131D01*
X139605300Y-91262800D01*
X142064229Y-91262800D01*
X142064229Y-94000000D01*
X142087885Y-94118927D01*
X142155252Y-94219748D01*
X142256073Y-94287115D01*
X142375000Y-94310771D01*
X145175000Y-94310771D01*
X145293927Y-94287115D01*
X145394748Y-94219748D01*
X145462115Y-94118927D01*
X145485771Y-94000000D01*
X145485771Y-93020508D01*
X145594243Y-92998931D01*
X145734329Y-92905329D01*
X145827931Y-92765243D01*
X145836852Y-92720394D01*
X145878491Y-92720430D01*
X146153990Y-92606596D01*
X146364956Y-92395999D01*
X146479270Y-92120699D01*
X146479530Y-91822609D01*
X146365696Y-91547110D01*
X146155099Y-91336144D01*
X145978466Y-91262800D01*
X149689180Y-91262800D01*
X151385590Y-92959210D01*
X151550397Y-93069331D01*
X151744800Y-93108000D01*
X151764229Y-93108000D01*
X151764229Y-94000000D01*
X151787885Y-94118927D01*
X151855252Y-94219748D01*
X151956073Y-94287115D01*
X152075000Y-94310771D01*
X154275000Y-94310771D01*
X154393927Y-94287115D01*
X154494748Y-94219748D01*
X154562115Y-94118927D01*
X154585771Y-94000000D01*
X154585771Y-91200000D01*
X154562115Y-91081073D01*
X154494748Y-90980252D01*
X154393927Y-90912885D01*
X154275000Y-90889229D01*
X152075000Y-90889229D01*
X151956073Y-90912885D01*
X151855252Y-90980252D01*
X151787885Y-91081073D01*
X151764229Y-91200000D01*
X151764229Y-91901009D01*
X150258810Y-90395590D01*
X150094003Y-90285469D01*
X149899600Y-90246800D01*
X145363234Y-90246800D01*
X145841430Y-90049213D01*
X146222874Y-89668434D01*
X146429564Y-89170669D01*
X146429566Y-89168304D01*
X150719965Y-89168304D01*
X150925787Y-89666430D01*
X151306566Y-90047874D01*
X151804331Y-90254564D01*
X152343304Y-90255035D01*
X152841430Y-90049213D01*
X153222874Y-89668434D01*
X153429564Y-89170669D01*
X153430035Y-88631696D01*
X153224213Y-88133570D01*
X152843434Y-87752126D01*
X152345669Y-87545436D01*
X151806696Y-87544965D01*
X151308570Y-87750787D01*
X150927126Y-88131566D01*
X150720436Y-88629331D01*
X150719965Y-89168304D01*
X146429566Y-89168304D01*
X146430035Y-88631696D01*
X146224213Y-88133570D01*
X145843434Y-87752126D01*
X145345669Y-87545436D01*
X144806696Y-87544965D01*
X144308570Y-87750787D01*
X143927126Y-88131566D01*
X143720436Y-88629331D01*
X143719965Y-89168304D01*
X143925787Y-89666430D01*
X144306566Y-90047874D01*
X144785633Y-90246800D01*
X139815720Y-90246800D01*
X137859710Y-88290790D01*
X137694903Y-88180669D01*
X137500500Y-88142000D01*
X135120771Y-88142000D01*
X135120771Y-88070508D01*
X135229243Y-88048931D01*
X135369329Y-87955329D01*
X137692858Y-85631800D01*
X149764229Y-85631800D01*
X149764229Y-86600000D01*
X149787885Y-86718927D01*
X149855252Y-86819748D01*
X149956073Y-86887115D01*
X150075000Y-86910771D01*
X152275000Y-86910771D01*
X152393927Y-86887115D01*
X152494748Y-86819748D01*
X152562115Y-86718927D01*
X152585771Y-86600000D01*
X152585771Y-83800000D01*
X152562115Y-83681073D01*
X152494748Y-83580252D01*
X152393927Y-83512885D01*
X152275000Y-83489229D01*
X150075000Y-83489229D01*
X149956073Y-83512885D01*
X149855252Y-83580252D01*
X149787885Y-83681073D01*
X149764229Y-83800000D01*
X149764229Y-84768200D01*
X137514000Y-84768200D01*
X137348757Y-84801069D01*
X137208671Y-84894671D01*
X135113732Y-86989610D01*
X135097115Y-86906073D01*
X135029748Y-86805252D01*
X134928927Y-86737885D01*
X134810000Y-86714229D01*
X133917732Y-86714229D01*
X133810000Y-86692800D01*
X133017200Y-86692800D01*
X133017200Y-85900000D01*
X132995771Y-85792268D01*
X132995771Y-84900000D01*
X132972115Y-84781073D01*
X132904748Y-84680252D01*
X132803927Y-84612885D01*
X132685000Y-84589229D01*
X132517200Y-84589229D01*
X132517200Y-82617778D01*
X134309229Y-80825749D01*
X134309229Y-80899000D01*
X134332885Y-81017927D01*
X134400252Y-81118748D01*
X134501073Y-81186115D01*
X134620000Y-81209771D01*
X137160000Y-81209771D01*
X137278927Y-81186115D01*
X137379748Y-81118748D01*
X137447115Y-81017927D01*
X137470771Y-80899000D01*
X137470771Y-80714960D01*
X137614363Y-80686398D01*
X137762689Y-80587289D01*
X137953878Y-80396100D01*
X140308709Y-80396100D01*
X140308709Y-80439260D01*
X140332365Y-80558187D01*
X140399732Y-80659008D01*
X140500553Y-80726375D01*
X140619480Y-80750031D01*
X141320520Y-80750031D01*
X141439447Y-80726375D01*
X141540268Y-80659008D01*
X141607635Y-80558187D01*
X141631291Y-80439260D01*
X141631291Y-80396100D01*
X143986122Y-80396100D01*
X144177311Y-80587289D01*
X144325637Y-80686398D01*
X144469229Y-80714960D01*
X144469229Y-80899000D01*
X144492885Y-81017927D01*
X144560252Y-81118748D01*
X144661073Y-81186115D01*
X144780000Y-81209771D01*
X147320000Y-81209771D01*
X147438927Y-81186115D01*
X147539748Y-81118748D01*
X147607115Y-81017927D01*
X147630771Y-80899000D01*
X147630771Y-79629000D01*
X147607115Y-79510073D01*
X147539748Y-79409252D01*
X147438927Y-79341885D01*
X147320000Y-79318229D01*
X144780000Y-79318229D01*
X144661073Y-79341885D01*
X144560252Y-79409252D01*
X144492885Y-79510073D01*
X144475048Y-79599747D01*
X144350463Y-79516502D01*
X144175500Y-79481700D01*
X141631291Y-79481700D01*
X141631291Y-79438500D01*
X141607635Y-79319573D01*
X141540268Y-79218752D01*
X141439447Y-79151385D01*
X141320520Y-79127729D01*
X140619480Y-79127729D01*
X140500553Y-79151385D01*
X140399732Y-79218752D01*
X140332365Y-79319573D01*
X140308709Y-79438500D01*
X140308709Y-79481700D01*
X137764500Y-79481700D01*
X137589537Y-79516502D01*
X137464952Y-79599747D01*
X137447115Y-79510073D01*
X137379748Y-79409252D01*
X137278927Y-79341885D01*
X137160000Y-79318229D01*
X134620000Y-79318229D01*
X134501073Y-79341885D01*
X134400252Y-79409252D01*
X134332885Y-79510073D01*
X134309229Y-79629000D01*
X134309229Y-79806800D01*
X134224400Y-79806800D01*
X134049437Y-79841602D01*
X133901111Y-79940711D01*
X133291900Y-80549922D01*
X132682689Y-79940711D01*
X132534363Y-79841602D01*
X132390771Y-79813040D01*
X132390771Y-79629000D01*
X132367115Y-79510073D01*
X132299748Y-79409252D01*
X132198927Y-79341885D01*
X132080000Y-79318229D01*
X130127549Y-79318229D01*
X130319678Y-79126100D01*
X140162300Y-79126100D01*
X140337263Y-79091298D01*
X140485589Y-78992189D01*
X141296355Y-78181423D01*
X141349692Y-78261248D01*
X141450513Y-78328615D01*
X141569440Y-78352271D01*
X142270480Y-78352271D01*
X142389407Y-78328615D01*
X142490228Y-78261248D01*
X142557595Y-78160427D01*
X142581251Y-78041500D01*
X142581251Y-77998300D01*
X144175500Y-77998300D01*
X144350463Y-77963498D01*
X144475048Y-77880253D01*
X144492885Y-77969927D01*
X144560252Y-78070748D01*
X144661073Y-78138115D01*
X144780000Y-78161771D01*
X147320000Y-78161771D01*
X147438927Y-78138115D01*
X147539748Y-78070748D01*
X147607115Y-77969927D01*
X147630771Y-77851000D01*
X147630771Y-76581000D01*
X147607115Y-76462073D01*
X147539748Y-76361252D01*
X147438927Y-76293885D01*
X147320000Y-76270229D01*
X144780000Y-76270229D01*
X144661073Y-76293885D01*
X144560252Y-76361252D01*
X144492885Y-76462073D01*
X144469229Y-76581000D01*
X144469229Y-76765040D01*
X144325637Y-76793602D01*
X144177311Y-76892711D01*
X143986122Y-77083900D01*
X142581251Y-77083900D01*
X142581251Y-77040740D01*
X142557595Y-76921813D01*
X142490228Y-76820992D01*
X142389407Y-76753625D01*
X142270480Y-76729969D01*
X141569440Y-76729969D01*
X141450513Y-76753625D01*
X141349692Y-76820992D01*
X141282325Y-76921813D01*
X141258669Y-77040740D01*
X141258669Y-77090152D01*
X141115137Y-77118702D01*
X140980160Y-77208891D01*
X140980160Y-76919483D01*
X140887354Y-76695429D01*
X140715871Y-76523946D01*
X140491817Y-76431140D01*
X140324840Y-76431140D01*
X140172440Y-76583540D01*
X140172440Y-77388720D01*
X140192440Y-77388720D01*
X140192440Y-77693520D01*
X140172440Y-77693520D01*
X140172440Y-77713520D01*
X139867640Y-77713520D01*
X139867640Y-77693520D01*
X139212320Y-77693520D01*
X139059920Y-77845920D01*
X139059920Y-78162757D01*
X139080193Y-78211700D01*
X137661405Y-78211700D01*
X137676794Y-78196311D01*
X137769600Y-77972257D01*
X137769600Y-77520800D01*
X137617200Y-77368400D01*
X136042400Y-77368400D01*
X136042400Y-77388400D01*
X135737600Y-77388400D01*
X135737600Y-77368400D01*
X134162800Y-77368400D01*
X134010400Y-77520800D01*
X134010400Y-77972257D01*
X134103206Y-78196311D01*
X134118595Y-78211700D01*
X132581405Y-78211700D01*
X132596794Y-78196311D01*
X132689600Y-77972257D01*
X132689600Y-77520800D01*
X132537200Y-77368400D01*
X130962400Y-77368400D01*
X130962400Y-77388400D01*
X130657600Y-77388400D01*
X130657600Y-77368400D01*
X129082800Y-77368400D01*
X128930400Y-77520800D01*
X128930400Y-77972257D01*
X129023206Y-78196311D01*
X129194689Y-78367794D01*
X129418743Y-78460600D01*
X129692022Y-78460600D01*
X128962311Y-79190311D01*
X128863202Y-79338637D01*
X128828400Y-79513600D01*
X128828400Y-81067200D01*
X128863202Y-81242163D01*
X128962311Y-81390489D01*
X131102800Y-83530978D01*
X131102800Y-84078142D01*
X127865929Y-80841271D01*
X127725843Y-80747669D01*
X127560600Y-80714800D01*
X127310771Y-80714800D01*
X127310771Y-79629000D01*
X127287115Y-79510073D01*
X127219748Y-79409252D01*
X127118927Y-79341885D01*
X127000000Y-79318229D01*
X124460000Y-79318229D01*
X124341073Y-79341885D01*
X124240252Y-79409252D01*
X124172885Y-79510073D01*
X124149229Y-79629000D01*
X124149229Y-80899000D01*
X124172885Y-81017927D01*
X124240252Y-81118748D01*
X124341073Y-81186115D01*
X124460000Y-81209771D01*
X125062572Y-81209771D01*
X108279671Y-97992671D01*
X108186069Y-98132757D01*
X108153200Y-98298000D01*
X108153200Y-105160238D01*
X108113572Y-105168121D01*
X107848700Y-105345103D01*
X107848700Y-94564958D01*
X120955326Y-81458331D01*
X120955329Y-81458329D01*
X121048931Y-81318243D01*
X121070508Y-81209771D01*
X121920000Y-81209771D01*
X122038927Y-81186115D01*
X122139748Y-81118748D01*
X122207115Y-81017927D01*
X122230771Y-80899000D01*
X122230771Y-79629000D01*
X122207115Y-79510073D01*
X122139748Y-79409252D01*
X122038927Y-79341885D01*
X121920000Y-79318229D01*
X119380000Y-79318229D01*
X119261073Y-79341885D01*
X119160252Y-79409252D01*
X119092885Y-79510073D01*
X119069229Y-79629000D01*
X119069229Y-80899000D01*
X119092885Y-81017927D01*
X119160252Y-81118748D01*
X119261073Y-81186115D01*
X119380000Y-81209771D01*
X119982572Y-81209771D01*
X107111571Y-94080771D01*
X107017969Y-94220857D01*
X106985100Y-94386100D01*
X106985100Y-105538451D01*
X106916085Y-105435163D01*
X106516428Y-105168121D01*
X106045000Y-105074348D01*
X105573572Y-105168121D01*
X105173915Y-105435163D01*
X104906873Y-105834820D01*
X104813100Y-106306248D01*
X104813100Y-107053752D01*
X104906873Y-107525180D01*
X105173915Y-107924837D01*
X105440854Y-108103200D01*
X104109146Y-108103200D01*
X104376085Y-107924837D01*
X104643127Y-107525180D01*
X104736900Y-107053752D01*
X104736900Y-106306248D01*
X104643127Y-105834820D01*
X104376085Y-105435163D01*
X103976428Y-105168121D01*
X103505000Y-105074348D01*
X103033572Y-105168121D01*
X102633915Y-105435163D01*
X102366873Y-105834820D01*
X102279373Y-106274710D01*
X102186971Y-106256330D01*
X102103127Y-105834820D01*
X101836085Y-105435163D01*
X101436428Y-105168121D01*
X100965000Y-105074348D01*
X100493572Y-105168121D01*
X100093915Y-105435163D01*
X99826873Y-105834820D01*
X99739373Y-106274710D01*
X99646971Y-106256330D01*
X99563127Y-105834820D01*
X99296085Y-105435163D01*
X98896428Y-105168121D01*
X98425000Y-105074348D01*
X97953572Y-105168121D01*
X97553915Y-105435163D01*
X97306414Y-105805575D01*
X97246405Y-105608231D01*
X96863848Y-105142726D01*
X96332270Y-104859053D01*
X96274731Y-104850643D01*
X96037400Y-104961215D01*
X96037400Y-106527600D01*
X96057400Y-106527600D01*
X96057400Y-106832400D01*
X96037400Y-106832400D01*
X96037400Y-108398785D01*
X96274731Y-108509357D01*
X96332270Y-108500947D01*
X96863848Y-108217274D01*
X97246405Y-107751769D01*
X97306414Y-107554425D01*
X97553915Y-107924837D01*
X97953572Y-108191879D01*
X98425000Y-108285652D01*
X98896428Y-108191879D01*
X99296085Y-107924837D01*
X99408155Y-107757113D01*
X100451942Y-108800900D01*
X86144100Y-108800900D01*
X86144100Y-106306248D01*
X87033100Y-106306248D01*
X87033100Y-107053752D01*
X87126873Y-107525180D01*
X87393915Y-107924837D01*
X87793572Y-108191879D01*
X88265000Y-108285652D01*
X88736428Y-108191879D01*
X89136085Y-107924837D01*
X89403127Y-107525180D01*
X89496900Y-107053752D01*
X89496900Y-106306248D01*
X89573100Y-106306248D01*
X89573100Y-107053752D01*
X89666873Y-107525180D01*
X89933915Y-107924837D01*
X90333572Y-108191879D01*
X90805000Y-108285652D01*
X91276428Y-108191879D01*
X91676085Y-107924837D01*
X91943127Y-107525180D01*
X92036900Y-107053752D01*
X92036900Y-106306248D01*
X92113100Y-106306248D01*
X92113100Y-107053752D01*
X92206873Y-107525180D01*
X92473915Y-107924837D01*
X92873572Y-108191879D01*
X93345000Y-108285652D01*
X93816428Y-108191879D01*
X94216085Y-107924837D01*
X94463586Y-107554425D01*
X94523595Y-107751769D01*
X94906152Y-108217274D01*
X95437730Y-108500947D01*
X95495269Y-108509357D01*
X95732600Y-108398785D01*
X95732600Y-106832400D01*
X95712600Y-106832400D01*
X95712600Y-106527600D01*
X95732600Y-106527600D01*
X95732600Y-104961215D01*
X95495269Y-104850643D01*
X95437730Y-104859053D01*
X94906152Y-105142726D01*
X94523595Y-105608231D01*
X94463586Y-105805575D01*
X94216085Y-105435163D01*
X93816428Y-105168121D01*
X93345000Y-105074348D01*
X92873572Y-105168121D01*
X92473915Y-105435163D01*
X92206873Y-105834820D01*
X92113100Y-106306248D01*
X92036900Y-106306248D01*
X91943127Y-105834820D01*
X91676085Y-105435163D01*
X91276428Y-105168121D01*
X90805000Y-105074348D01*
X90333572Y-105168121D01*
X89933915Y-105435163D01*
X89666873Y-105834820D01*
X89573100Y-106306248D01*
X89496900Y-106306248D01*
X89403127Y-105834820D01*
X89136085Y-105435163D01*
X88736428Y-105168121D01*
X88265000Y-105074348D01*
X87793572Y-105168121D01*
X87393915Y-105435163D01*
X87126873Y-105834820D01*
X87033100Y-106306248D01*
X86144100Y-106306248D01*
X86144100Y-102012477D01*
X87451840Y-102012477D01*
X87768259Y-102778270D01*
X88353648Y-103364682D01*
X89118888Y-103682437D01*
X89947477Y-103683160D01*
X90713270Y-103366741D01*
X91299682Y-102781352D01*
X91617437Y-102016112D01*
X91618160Y-101187523D01*
X91301741Y-100421730D01*
X90716352Y-99835318D01*
X89951112Y-99517563D01*
X89122523Y-99516840D01*
X88356730Y-99833259D01*
X87770318Y-100418648D01*
X87452563Y-101183888D01*
X87451840Y-102012477D01*
X86144100Y-102012477D01*
X86144100Y-76612477D01*
X87451840Y-76612477D01*
X87768259Y-77378270D01*
X88353648Y-77964682D01*
X89118888Y-78282437D01*
X89947477Y-78283160D01*
X90713270Y-77966741D01*
X91159990Y-77520800D01*
X118770400Y-77520800D01*
X118770400Y-77972257D01*
X118863206Y-78196311D01*
X119034689Y-78367794D01*
X119258743Y-78460600D01*
X120345200Y-78460600D01*
X120497600Y-78308200D01*
X120497600Y-77368400D01*
X120802400Y-77368400D01*
X120802400Y-78308200D01*
X120954800Y-78460600D01*
X122041257Y-78460600D01*
X122265311Y-78367794D01*
X122436794Y-78196311D01*
X122529600Y-77972257D01*
X122529600Y-77520800D01*
X123850400Y-77520800D01*
X123850400Y-77972257D01*
X123943206Y-78196311D01*
X124114689Y-78367794D01*
X124338743Y-78460600D01*
X125425200Y-78460600D01*
X125577600Y-78308200D01*
X125577600Y-77368400D01*
X125882400Y-77368400D01*
X125882400Y-78308200D01*
X126034800Y-78460600D01*
X127121257Y-78460600D01*
X127345311Y-78367794D01*
X127516794Y-78196311D01*
X127609600Y-77972257D01*
X127609600Y-77520800D01*
X127457200Y-77368400D01*
X125882400Y-77368400D01*
X125577600Y-77368400D01*
X124002800Y-77368400D01*
X123850400Y-77520800D01*
X122529600Y-77520800D01*
X122377200Y-77368400D01*
X120802400Y-77368400D01*
X120497600Y-77368400D01*
X118922800Y-77368400D01*
X118770400Y-77520800D01*
X91159990Y-77520800D01*
X91299682Y-77381352D01*
X91617437Y-76616112D01*
X91617573Y-76459743D01*
X118770400Y-76459743D01*
X118770400Y-76911200D01*
X118922800Y-77063600D01*
X120497600Y-77063600D01*
X120497600Y-76123800D01*
X120802400Y-76123800D01*
X120802400Y-77063600D01*
X122377200Y-77063600D01*
X122529600Y-76911200D01*
X122529600Y-76459743D01*
X123850400Y-76459743D01*
X123850400Y-76911200D01*
X124002800Y-77063600D01*
X125577600Y-77063600D01*
X125577600Y-76123800D01*
X125882400Y-76123800D01*
X125882400Y-77063600D01*
X127457200Y-77063600D01*
X127609600Y-76911200D01*
X127609600Y-76459743D01*
X128930400Y-76459743D01*
X128930400Y-76911200D01*
X129082800Y-77063600D01*
X130657600Y-77063600D01*
X130657600Y-76123800D01*
X130962400Y-76123800D01*
X130962400Y-77063600D01*
X132537200Y-77063600D01*
X132689600Y-76911200D01*
X132689600Y-76459743D01*
X134010400Y-76459743D01*
X134010400Y-76911200D01*
X134162800Y-77063600D01*
X135737600Y-77063600D01*
X135737600Y-76123800D01*
X136042400Y-76123800D01*
X136042400Y-77063600D01*
X137617200Y-77063600D01*
X137761317Y-76919483D01*
X139059920Y-76919483D01*
X139059920Y-77236320D01*
X139212320Y-77388720D01*
X139867640Y-77388720D01*
X139867640Y-76583540D01*
X139715240Y-76431140D01*
X139548263Y-76431140D01*
X139324209Y-76523946D01*
X139152726Y-76695429D01*
X139059920Y-76919483D01*
X137761317Y-76919483D01*
X137769600Y-76911200D01*
X137769600Y-76459743D01*
X137676794Y-76235689D01*
X137505311Y-76064206D01*
X137281257Y-75971400D01*
X136194800Y-75971400D01*
X136042400Y-76123800D01*
X135737600Y-76123800D01*
X135585200Y-75971400D01*
X134498743Y-75971400D01*
X134274689Y-76064206D01*
X134103206Y-76235689D01*
X134010400Y-76459743D01*
X132689600Y-76459743D01*
X132596794Y-76235689D01*
X132425311Y-76064206D01*
X132201257Y-75971400D01*
X131114800Y-75971400D01*
X130962400Y-76123800D01*
X130657600Y-76123800D01*
X130505200Y-75971400D01*
X129418743Y-75971400D01*
X129194689Y-76064206D01*
X129023206Y-76235689D01*
X128930400Y-76459743D01*
X127609600Y-76459743D01*
X127516794Y-76235689D01*
X127345311Y-76064206D01*
X127121257Y-75971400D01*
X126034800Y-75971400D01*
X125882400Y-76123800D01*
X125577600Y-76123800D01*
X125425200Y-75971400D01*
X124338743Y-75971400D01*
X124114689Y-76064206D01*
X123943206Y-76235689D01*
X123850400Y-76459743D01*
X122529600Y-76459743D01*
X122436794Y-76235689D01*
X122265311Y-76064206D01*
X122041257Y-75971400D01*
X120954800Y-75971400D01*
X120802400Y-76123800D01*
X120497600Y-76123800D01*
X120345200Y-75971400D01*
X119258743Y-75971400D01*
X119034689Y-76064206D01*
X118863206Y-76235689D01*
X118770400Y-76459743D01*
X91617573Y-76459743D01*
X91618160Y-75787523D01*
X91301741Y-75021730D01*
X90716352Y-74435318D01*
X89951112Y-74117563D01*
X89122523Y-74116840D01*
X88356730Y-74433259D01*
X87770318Y-75018648D01*
X87452563Y-75783888D01*
X87451840Y-76612477D01*
X86144100Y-76612477D01*
X86144100Y-69850000D01*
X87027129Y-69850000D01*
X87027129Y-72390000D01*
X87050785Y-72508927D01*
X87118152Y-72609748D01*
X87218973Y-72677115D01*
X87337900Y-72700771D01*
X89192100Y-72700771D01*
X89311027Y-72677115D01*
X89411848Y-72609748D01*
X89479215Y-72508927D01*
X89502871Y-72390000D01*
X89502871Y-70746248D01*
X89573100Y-70746248D01*
X89573100Y-71493752D01*
X89666873Y-71965180D01*
X89933915Y-72364837D01*
X90333572Y-72631879D01*
X90805000Y-72725652D01*
X91276428Y-72631879D01*
X91676085Y-72364837D01*
X91943127Y-71965180D01*
X92036900Y-71493752D01*
X92036900Y-70746248D01*
X92113100Y-70746248D01*
X92113100Y-71493752D01*
X92206873Y-71965180D01*
X92473915Y-72364837D01*
X92873572Y-72631879D01*
X93345000Y-72725652D01*
X93816428Y-72631879D01*
X94216085Y-72364837D01*
X94483127Y-71965180D01*
X94576900Y-71493752D01*
X94576900Y-70746248D01*
X94653100Y-70746248D01*
X94653100Y-71493752D01*
X94746873Y-71965180D01*
X95013915Y-72364837D01*
X95413572Y-72631879D01*
X95885000Y-72725652D01*
X96356428Y-72631879D01*
X96756085Y-72364837D01*
X97023127Y-71965180D01*
X97116900Y-71493752D01*
X97116900Y-70746248D01*
X97193100Y-70746248D01*
X97193100Y-71493752D01*
X97286873Y-71965180D01*
X97553915Y-72364837D01*
X97953572Y-72631879D01*
X98425000Y-72725652D01*
X98896428Y-72631879D01*
X99296085Y-72364837D01*
X99563127Y-71965180D01*
X99656900Y-71493752D01*
X99656900Y-70746248D01*
X99733100Y-70746248D01*
X99733100Y-71493752D01*
X99826873Y-71965180D01*
X100093915Y-72364837D01*
X100493572Y-72631879D01*
X100965000Y-72725652D01*
X101436428Y-72631879D01*
X101836085Y-72364837D01*
X102103127Y-71965180D01*
X102196900Y-71493752D01*
X102196900Y-70746248D01*
X102273100Y-70746248D01*
X102273100Y-71493752D01*
X102366873Y-71965180D01*
X102633915Y-72364837D01*
X103033572Y-72631879D01*
X103505000Y-72725652D01*
X103976428Y-72631879D01*
X104376085Y-72364837D01*
X104643127Y-71965180D01*
X104736900Y-71493752D01*
X104736900Y-70746248D01*
X104813100Y-70746248D01*
X104813100Y-71493752D01*
X104906873Y-71965180D01*
X105173915Y-72364837D01*
X105573572Y-72631879D01*
X106045000Y-72725652D01*
X106516428Y-72631879D01*
X106916085Y-72364837D01*
X107183127Y-71965180D01*
X107276900Y-71493752D01*
X107276900Y-70746248D01*
X107353100Y-70746248D01*
X107353100Y-71493752D01*
X107446873Y-71965180D01*
X107713915Y-72364837D01*
X108113572Y-72631879D01*
X108585000Y-72725652D01*
X109056428Y-72631879D01*
X109456085Y-72364837D01*
X109723127Y-71965180D01*
X109816900Y-71493752D01*
X109816900Y-70746248D01*
X109893100Y-70746248D01*
X109893100Y-71493752D01*
X109986873Y-71965180D01*
X110253915Y-72364837D01*
X110653572Y-72631879D01*
X111125000Y-72725652D01*
X111596428Y-72631879D01*
X111996085Y-72364837D01*
X112263127Y-71965180D01*
X112356900Y-71493752D01*
X112356900Y-70746248D01*
X112433100Y-70746248D01*
X112433100Y-71493752D01*
X112526873Y-71965180D01*
X112793915Y-72364837D01*
X113193572Y-72631879D01*
X113665000Y-72725652D01*
X114136428Y-72631879D01*
X114536085Y-72364837D01*
X114803127Y-71965180D01*
X114896900Y-71493752D01*
X114896900Y-70746248D01*
X114973100Y-70746248D01*
X114973100Y-71493752D01*
X115066873Y-71965180D01*
X115333915Y-72364837D01*
X115733572Y-72631879D01*
X116205000Y-72725652D01*
X116676428Y-72631879D01*
X117076085Y-72364837D01*
X117343127Y-71965180D01*
X117436900Y-71493752D01*
X117436900Y-70746248D01*
X117513100Y-70746248D01*
X117513100Y-71493752D01*
X117606873Y-71965180D01*
X117873915Y-72364837D01*
X118273572Y-72631879D01*
X118745000Y-72725652D01*
X119216428Y-72631879D01*
X119616085Y-72364837D01*
X119883127Y-71965180D01*
X119976900Y-71493752D01*
X119976900Y-70746248D01*
X120053100Y-70746248D01*
X120053100Y-71493752D01*
X120146873Y-71965180D01*
X120413915Y-72364837D01*
X120813572Y-72631879D01*
X121285000Y-72725652D01*
X121756428Y-72631879D01*
X122156085Y-72364837D01*
X122423127Y-71965180D01*
X122516900Y-71493752D01*
X122516900Y-70746248D01*
X122593100Y-70746248D01*
X122593100Y-71493752D01*
X122686873Y-71965180D01*
X122953915Y-72364837D01*
X123353572Y-72631879D01*
X123825000Y-72725652D01*
X124296428Y-72631879D01*
X124696085Y-72364837D01*
X124963127Y-71965180D01*
X125056900Y-71493752D01*
X125056900Y-70746248D01*
X125133100Y-70746248D01*
X125133100Y-71493752D01*
X125226873Y-71965180D01*
X125493915Y-72364837D01*
X125893572Y-72631879D01*
X126365000Y-72725652D01*
X126836428Y-72631879D01*
X127236085Y-72364837D01*
X127503127Y-71965180D01*
X127589197Y-71532477D01*
X128091840Y-71532477D01*
X128408259Y-72298270D01*
X128993648Y-72884682D01*
X129758888Y-73202437D01*
X130587477Y-73203160D01*
X131353270Y-72886741D01*
X131939682Y-72301352D01*
X132257437Y-71536112D01*
X132258160Y-70707523D01*
X131941741Y-69941730D01*
X131356352Y-69355318D01*
X130591112Y-69037563D01*
X129762523Y-69036840D01*
X128996730Y-69353259D01*
X128410318Y-69938648D01*
X128092563Y-70703888D01*
X128091840Y-71532477D01*
X127589197Y-71532477D01*
X127596900Y-71493752D01*
X127596900Y-70746248D01*
X127503127Y-70274820D01*
X127236085Y-69875163D01*
X126836428Y-69608121D01*
X126365000Y-69514348D01*
X125893572Y-69608121D01*
X125493915Y-69875163D01*
X125226873Y-70274820D01*
X125133100Y-70746248D01*
X125056900Y-70746248D01*
X124963127Y-70274820D01*
X124696085Y-69875163D01*
X124296428Y-69608121D01*
X123825000Y-69514348D01*
X123353572Y-69608121D01*
X122953915Y-69875163D01*
X122686873Y-70274820D01*
X122593100Y-70746248D01*
X122516900Y-70746248D01*
X122423127Y-70274820D01*
X122156085Y-69875163D01*
X121756428Y-69608121D01*
X121285000Y-69514348D01*
X120813572Y-69608121D01*
X120413915Y-69875163D01*
X120146873Y-70274820D01*
X120053100Y-70746248D01*
X119976900Y-70746248D01*
X119883127Y-70274820D01*
X119616085Y-69875163D01*
X119216428Y-69608121D01*
X118745000Y-69514348D01*
X118273572Y-69608121D01*
X117873915Y-69875163D01*
X117606873Y-70274820D01*
X117513100Y-70746248D01*
X117436900Y-70746248D01*
X117343127Y-70274820D01*
X117076085Y-69875163D01*
X116676428Y-69608121D01*
X116205000Y-69514348D01*
X115733572Y-69608121D01*
X115333915Y-69875163D01*
X115066873Y-70274820D01*
X114973100Y-70746248D01*
X114896900Y-70746248D01*
X114803127Y-70274820D01*
X114536085Y-69875163D01*
X114136428Y-69608121D01*
X113665000Y-69514348D01*
X113193572Y-69608121D01*
X112793915Y-69875163D01*
X112526873Y-70274820D01*
X112433100Y-70746248D01*
X112356900Y-70746248D01*
X112263127Y-70274820D01*
X111996085Y-69875163D01*
X111596428Y-69608121D01*
X111125000Y-69514348D01*
X110653572Y-69608121D01*
X110253915Y-69875163D01*
X109986873Y-70274820D01*
X109893100Y-70746248D01*
X109816900Y-70746248D01*
X109723127Y-70274820D01*
X109456085Y-69875163D01*
X109056428Y-69608121D01*
X108585000Y-69514348D01*
X108113572Y-69608121D01*
X107713915Y-69875163D01*
X107446873Y-70274820D01*
X107353100Y-70746248D01*
X107276900Y-70746248D01*
X107183127Y-70274820D01*
X106916085Y-69875163D01*
X106516428Y-69608121D01*
X106045000Y-69514348D01*
X105573572Y-69608121D01*
X105173915Y-69875163D01*
X104906873Y-70274820D01*
X104813100Y-70746248D01*
X104736900Y-70746248D01*
X104643127Y-70274820D01*
X104376085Y-69875163D01*
X103976428Y-69608121D01*
X103505000Y-69514348D01*
X103033572Y-69608121D01*
X102633915Y-69875163D01*
X102366873Y-70274820D01*
X102273100Y-70746248D01*
X102196900Y-70746248D01*
X102103127Y-70274820D01*
X101836085Y-69875163D01*
X101436428Y-69608121D01*
X100965000Y-69514348D01*
X100493572Y-69608121D01*
X100093915Y-69875163D01*
X99826873Y-70274820D01*
X99733100Y-70746248D01*
X99656900Y-70746248D01*
X99563127Y-70274820D01*
X99296085Y-69875163D01*
X98896428Y-69608121D01*
X98425000Y-69514348D01*
X97953572Y-69608121D01*
X97553915Y-69875163D01*
X97286873Y-70274820D01*
X97193100Y-70746248D01*
X97116900Y-70746248D01*
X97023127Y-70274820D01*
X96756085Y-69875163D01*
X96356428Y-69608121D01*
X95885000Y-69514348D01*
X95413572Y-69608121D01*
X95013915Y-69875163D01*
X94746873Y-70274820D01*
X94653100Y-70746248D01*
X94576900Y-70746248D01*
X94483127Y-70274820D01*
X94216085Y-69875163D01*
X93816428Y-69608121D01*
X93345000Y-69514348D01*
X92873572Y-69608121D01*
X92473915Y-69875163D01*
X92206873Y-70274820D01*
X92113100Y-70746248D01*
X92036900Y-70746248D01*
X91943127Y-70274820D01*
X91676085Y-69875163D01*
X91276428Y-69608121D01*
X90805000Y-69514348D01*
X90333572Y-69608121D01*
X89933915Y-69875163D01*
X89666873Y-70274820D01*
X89573100Y-70746248D01*
X89502871Y-70746248D01*
X89502871Y-69850000D01*
X89479215Y-69731073D01*
X89411848Y-69630252D01*
X89311027Y-69562885D01*
X89192100Y-69539229D01*
X87337900Y-69539229D01*
X87218973Y-69562885D01*
X87118152Y-69630252D01*
X87050785Y-69731073D01*
X87027129Y-69850000D01*
X86144100Y-69850000D01*
X86144100Y-68999100D01*
X155155900Y-68999100D01*
X155155900Y-108800900D01*
X155155900Y-108800900D01*
G37*
X155155900Y-108800900D02*
X124364958Y-108800900D01*
X125286726Y-107879131D01*
X125286729Y-107879129D01*
X125375051Y-107746945D01*
X125493915Y-107924837D01*
X125893572Y-108191879D01*
X126365000Y-108285652D01*
X126836428Y-108191879D01*
X127236085Y-107924837D01*
X127503127Y-107525180D01*
X127589197Y-107092477D01*
X128091840Y-107092477D01*
X128408259Y-107858270D01*
X128993648Y-108444682D01*
X129758888Y-108762437D01*
X130587477Y-108763160D01*
X131353270Y-108446741D01*
X131939682Y-107861352D01*
X132257437Y-107096112D01*
X132258160Y-106267523D01*
X131941741Y-105501730D01*
X131356352Y-104915318D01*
X130591112Y-104597563D01*
X129762523Y-104596840D01*
X128996730Y-104913259D01*
X128410318Y-105498648D01*
X128092563Y-106263888D01*
X128091840Y-107092477D01*
X127589197Y-107092477D01*
X127596900Y-107053752D01*
X127596900Y-106306248D01*
X127503127Y-105834820D01*
X127236085Y-105435163D01*
X126836428Y-105168121D01*
X126365000Y-105074348D01*
X125893572Y-105168121D01*
X125493915Y-105435163D01*
X125413200Y-105555962D01*
X125413200Y-102864700D01*
X125380331Y-102699457D01*
X125286729Y-102559371D01*
X125286726Y-102559369D01*
X123853400Y-101126042D01*
X123853400Y-98504267D01*
X123917092Y-98599589D01*
X123925671Y-98612429D01*
X124951471Y-99638229D01*
X124460000Y-99638229D01*
X124341073Y-99661885D01*
X124240252Y-99729252D01*
X124172885Y-99830073D01*
X124149229Y-99949000D01*
X124149229Y-101219000D01*
X124172885Y-101337927D01*
X124240252Y-101438748D01*
X124341073Y-101506115D01*
X124460000Y-101529771D01*
X127000000Y-101529771D01*
X127118927Y-101506115D01*
X127219748Y-101438748D01*
X127287115Y-101337927D01*
X127310771Y-101219000D01*
X127310771Y-100888800D01*
X128930400Y-100888800D01*
X128930400Y-101340257D01*
X129023206Y-101564311D01*
X129194689Y-101735794D01*
X129418743Y-101828600D01*
X130505200Y-101828600D01*
X130657600Y-101676200D01*
X130657600Y-100736400D01*
X130962400Y-100736400D01*
X130962400Y-101676200D01*
X131114800Y-101828600D01*
X132201257Y-101828600D01*
X132425311Y-101735794D01*
X132596794Y-101564311D01*
X132689600Y-101340257D01*
X132689600Y-100888800D01*
X134010400Y-100888800D01*
X134010400Y-101340257D01*
X134103206Y-101564311D01*
X134274689Y-101735794D01*
X134498743Y-101828600D01*
X135585200Y-101828600D01*
X135737600Y-101676200D01*
X135737600Y-100736400D01*
X136042400Y-100736400D01*
X136042400Y-101676200D01*
X136194800Y-101828600D01*
X137281257Y-101828600D01*
X137505311Y-101735794D01*
X137676794Y-101564311D01*
X137769600Y-101340257D01*
X137769600Y-100888800D01*
X137617200Y-100736400D01*
X136042400Y-100736400D01*
X135737600Y-100736400D01*
X134162800Y-100736400D01*
X134010400Y-100888800D01*
X132689600Y-100888800D01*
X132537200Y-100736400D01*
X130962400Y-100736400D01*
X130657600Y-100736400D01*
X129082800Y-100736400D01*
X128930400Y-100888800D01*
X127310771Y-100888800D01*
X127310771Y-99949000D01*
X127287115Y-99830073D01*
X127285559Y-99827743D01*
X128930400Y-99827743D01*
X128930400Y-100279200D01*
X129082800Y-100431600D01*
X130657600Y-100431600D01*
X130657600Y-99491800D01*
X130962400Y-99491800D01*
X130962400Y-100431600D01*
X132537200Y-100431600D01*
X132689600Y-100279200D01*
X132689600Y-99827743D01*
X132596794Y-99603689D01*
X132425311Y-99432206D01*
X132201257Y-99339400D01*
X131114800Y-99339400D01*
X130962400Y-99491800D01*
X130657600Y-99491800D01*
X130505200Y-99339400D01*
X129418743Y-99339400D01*
X129194689Y-99432206D01*
X129023206Y-99603689D01*
X128930400Y-99827743D01*
X127285559Y-99827743D01*
X127219748Y-99729252D01*
X127118927Y-99661885D01*
X127000000Y-99638229D01*
X126150508Y-99638229D01*
X126128931Y-99529757D01*
X126035329Y-99389671D01*
X125895243Y-99296069D01*
X125814583Y-99280025D01*
X125016329Y-98481771D01*
X127000000Y-98481771D01*
X127118927Y-98458115D01*
X127219748Y-98390748D01*
X127287115Y-98289927D01*
X127310771Y-98171000D01*
X127310771Y-97993200D01*
X129229229Y-97993200D01*
X129229229Y-98171000D01*
X129252885Y-98289927D01*
X129320252Y-98390748D01*
X129421073Y-98458115D01*
X129540000Y-98481771D01*
X132080000Y-98481771D01*
X132198927Y-98458115D01*
X132299748Y-98390748D01*
X132367115Y-98289927D01*
X132390771Y-98171000D01*
X132390771Y-97993200D01*
X133908400Y-97993200D01*
X133908400Y-98276300D01*
X133943202Y-98451263D01*
X134042311Y-98599589D01*
X134782122Y-99339400D01*
X134498743Y-99339400D01*
X134274689Y-99432206D01*
X134103206Y-99603689D01*
X134010400Y-99827743D01*
X134010400Y-100279200D01*
X134162800Y-100431600D01*
X135737600Y-100431600D01*
X135737600Y-100411600D01*
X136042400Y-100411600D01*
X136042400Y-100431600D01*
X137617200Y-100431600D01*
X137769600Y-100279200D01*
X137769600Y-100126800D01*
X139389229Y-100126800D01*
X139389229Y-101219000D01*
X139412885Y-101337927D01*
X139480252Y-101438748D01*
X139581073Y-101506115D01*
X139700000Y-101529771D01*
X142240000Y-101529771D01*
X142358927Y-101506115D01*
X142459748Y-101438748D01*
X142527115Y-101337927D01*
X142550771Y-101219000D01*
X142550771Y-100584000D01*
X143854022Y-100584000D01*
X144177310Y-100907289D01*
X144290516Y-100982931D01*
X144325637Y-101006398D01*
X144469229Y-101034960D01*
X144469229Y-101219000D01*
X144492885Y-101337927D01*
X144560252Y-101438748D01*
X144661073Y-101506115D01*
X144780000Y-101529771D01*
X147320000Y-101529771D01*
X147438927Y-101506115D01*
X147539748Y-101438748D01*
X147607115Y-101337927D01*
X147630771Y-101219000D01*
X147630771Y-99949000D01*
X147607115Y-99830073D01*
X147539748Y-99729252D01*
X147438927Y-99661885D01*
X147320000Y-99638229D01*
X144780000Y-99638229D01*
X144661073Y-99661885D01*
X144560252Y-99729252D01*
X144492885Y-99830073D01*
X144476355Y-99913176D01*
X144366689Y-99803511D01*
X144218363Y-99704402D01*
X144043400Y-99669600D01*
X142370473Y-99669600D01*
X142358927Y-99661885D01*
X142240000Y-99638229D01*
X141420960Y-99638229D01*
X141392398Y-99494637D01*
X141293289Y-99346311D01*
X141144963Y-99247202D01*
X140970000Y-99212400D01*
X135948278Y-99212400D01*
X135217649Y-98481771D01*
X137160000Y-98481771D01*
X137278927Y-98458115D01*
X137379748Y-98390748D01*
X137447115Y-98289927D01*
X137470771Y-98171000D01*
X137470771Y-97967800D01*
X139389229Y-97967800D01*
X139389229Y-98171000D01*
X139412885Y-98289927D01*
X139480252Y-98390748D01*
X139581073Y-98458115D01*
X139700000Y-98481771D01*
X142240000Y-98481771D01*
X142358927Y-98458115D01*
X142459748Y-98390748D01*
X142527115Y-98289927D01*
X142550771Y-98171000D01*
X142550771Y-97967800D01*
X144469229Y-97967800D01*
X144469229Y-98171000D01*
X144492885Y-98289927D01*
X144560252Y-98390748D01*
X144661073Y-98458115D01*
X144780000Y-98481771D01*
X147320000Y-98481771D01*
X147438927Y-98458115D01*
X147539748Y-98390748D01*
X147607115Y-98289927D01*
X147630771Y-98171000D01*
X147630771Y-96901000D01*
X147607115Y-96782073D01*
X147539748Y-96681252D01*
X147438927Y-96613885D01*
X147320000Y-96590229D01*
X144780000Y-96590229D01*
X144661073Y-96613885D01*
X144560252Y-96681252D01*
X144492885Y-96782073D01*
X144469229Y-96901000D01*
X144469229Y-97104200D01*
X142550771Y-97104200D01*
X142550771Y-96901000D01*
X142527115Y-96782073D01*
X142459748Y-96681252D01*
X142358927Y-96613885D01*
X142240000Y-96590229D01*
X139700000Y-96590229D01*
X139581073Y-96613885D01*
X139480252Y-96681252D01*
X139412885Y-96782073D01*
X139389229Y-96901000D01*
X139389229Y-97104200D01*
X137470771Y-97104200D01*
X137470771Y-96901000D01*
X137447115Y-96782073D01*
X137379748Y-96681252D01*
X137278927Y-96613885D01*
X137160000Y-96590229D01*
X136555372Y-96590229D01*
X136644831Y-96456343D01*
X136644832Y-96456342D01*
X136677701Y-96291100D01*
X136677700Y-96291095D01*
X136677700Y-90206100D01*
X136644831Y-90040857D01*
X136551229Y-89900771D01*
X135808458Y-89158000D01*
X137290080Y-89158000D01*
X139246090Y-91114010D01*
X139410897Y-91224131D01*
X139605300Y-91262800D01*
X142064229Y-91262800D01*
X142064229Y-94000000D01*
X142087885Y-94118927D01*
X142155252Y-94219748D01*
X142256073Y-94287115D01*
X142375000Y-94310771D01*
X145175000Y-94310771D01*
X145293927Y-94287115D01*
X145394748Y-94219748D01*
X145462115Y-94118927D01*
X145485771Y-94000000D01*
X145485771Y-93020508D01*
X145594243Y-92998931D01*
X145734329Y-92905329D01*
X145827931Y-92765243D01*
X145836852Y-92720394D01*
X145878491Y-92720430D01*
X146153990Y-92606596D01*
X146364956Y-92395999D01*
X146479270Y-92120699D01*
X146479530Y-91822609D01*
X146365696Y-91547110D01*
X146155099Y-91336144D01*
X145978466Y-91262800D01*
X149689180Y-91262800D01*
X151385590Y-92959210D01*
X151550397Y-93069331D01*
X151744800Y-93108000D01*
X151764229Y-93108000D01*
X151764229Y-94000000D01*
X151787885Y-94118927D01*
X151855252Y-94219748D01*
X151956073Y-94287115D01*
X152075000Y-94310771D01*
X154275000Y-94310771D01*
X154393927Y-94287115D01*
X154494748Y-94219748D01*
X154562115Y-94118927D01*
X154585771Y-94000000D01*
X154585771Y-91200000D01*
X154562115Y-91081073D01*
X154494748Y-90980252D01*
X154393927Y-90912885D01*
X154275000Y-90889229D01*
X152075000Y-90889229D01*
X151956073Y-90912885D01*
X151855252Y-90980252D01*
X151787885Y-91081073D01*
X151764229Y-91200000D01*
X151764229Y-91901009D01*
X150258810Y-90395590D01*
X150094003Y-90285469D01*
X149899600Y-90246800D01*
X145363234Y-90246800D01*
X145841430Y-90049213D01*
X146222874Y-89668434D01*
X146429564Y-89170669D01*
X146429566Y-89168304D01*
X150719965Y-89168304D01*
X150925787Y-89666430D01*
X151306566Y-90047874D01*
X151804331Y-90254564D01*
X152343304Y-90255035D01*
X152841430Y-90049213D01*
X153222874Y-89668434D01*
X153429564Y-89170669D01*
X153430035Y-88631696D01*
X153224213Y-88133570D01*
X152843434Y-87752126D01*
X152345669Y-87545436D01*
X151806696Y-87544965D01*
X151308570Y-87750787D01*
X150927126Y-88131566D01*
X150720436Y-88629331D01*
X150719965Y-89168304D01*
X146429566Y-89168304D01*
X146430035Y-88631696D01*
X146224213Y-88133570D01*
X145843434Y-87752126D01*
X145345669Y-87545436D01*
X144806696Y-87544965D01*
X144308570Y-87750787D01*
X143927126Y-88131566D01*
X143720436Y-88629331D01*
X143719965Y-89168304D01*
X143925787Y-89666430D01*
X144306566Y-90047874D01*
X144785633Y-90246800D01*
X139815720Y-90246800D01*
X137859710Y-88290790D01*
X137694903Y-88180669D01*
X137500500Y-88142000D01*
X135120771Y-88142000D01*
X135120771Y-88070508D01*
X135229243Y-88048931D01*
X135369329Y-87955329D01*
X137692858Y-85631800D01*
X149764229Y-85631800D01*
X149764229Y-86600000D01*
X149787885Y-86718927D01*
X149855252Y-86819748D01*
X149956073Y-86887115D01*
X150075000Y-86910771D01*
X152275000Y-86910771D01*
X152393927Y-86887115D01*
X152494748Y-86819748D01*
X152562115Y-86718927D01*
X152585771Y-86600000D01*
X152585771Y-83800000D01*
X152562115Y-83681073D01*
X152494748Y-83580252D01*
X152393927Y-83512885D01*
X152275000Y-83489229D01*
X150075000Y-83489229D01*
X149956073Y-83512885D01*
X149855252Y-83580252D01*
X149787885Y-83681073D01*
X149764229Y-83800000D01*
X149764229Y-84768200D01*
X137514000Y-84768200D01*
X137348757Y-84801069D01*
X137208671Y-84894671D01*
X135113732Y-86989610D01*
X135097115Y-86906073D01*
X135029748Y-86805252D01*
X134928927Y-86737885D01*
X134810000Y-86714229D01*
X133917732Y-86714229D01*
X133810000Y-86692800D01*
X133017200Y-86692800D01*
X133017200Y-85900000D01*
X132995771Y-85792268D01*
X132995771Y-84900000D01*
X132972115Y-84781073D01*
X132904748Y-84680252D01*
X132803927Y-84612885D01*
X132685000Y-84589229D01*
X132517200Y-84589229D01*
X132517200Y-82617778D01*
X134309229Y-80825749D01*
X134309229Y-80899000D01*
X134332885Y-81017927D01*
X134400252Y-81118748D01*
X134501073Y-81186115D01*
X134620000Y-81209771D01*
X137160000Y-81209771D01*
X137278927Y-81186115D01*
X137379748Y-81118748D01*
X137447115Y-81017927D01*
X137470771Y-80899000D01*
X137470771Y-80714960D01*
X137614363Y-80686398D01*
X137762689Y-80587289D01*
X137953878Y-80396100D01*
X140308709Y-80396100D01*
X140308709Y-80439260D01*
X140332365Y-80558187D01*
X140399732Y-80659008D01*
X140500553Y-80726375D01*
X140619480Y-80750031D01*
X141320520Y-80750031D01*
X141439447Y-80726375D01*
X141540268Y-80659008D01*
X141607635Y-80558187D01*
X141631291Y-80439260D01*
X141631291Y-80396100D01*
X143986122Y-80396100D01*
X144177311Y-80587289D01*
X144325637Y-80686398D01*
X144469229Y-80714960D01*
X144469229Y-80899000D01*
X144492885Y-81017927D01*
X144560252Y-81118748D01*
X144661073Y-81186115D01*
X144780000Y-81209771D01*
X147320000Y-81209771D01*
X147438927Y-81186115D01*
X147539748Y-81118748D01*
X147607115Y-81017927D01*
X147630771Y-80899000D01*
X147630771Y-79629000D01*
X147607115Y-79510073D01*
X147539748Y-79409252D01*
X147438927Y-79341885D01*
X147320000Y-79318229D01*
X144780000Y-79318229D01*
X144661073Y-79341885D01*
X144560252Y-79409252D01*
X144492885Y-79510073D01*
X144475048Y-79599747D01*
X144350463Y-79516502D01*
X144175500Y-79481700D01*
X141631291Y-79481700D01*
X141631291Y-79438500D01*
X141607635Y-79319573D01*
X141540268Y-79218752D01*
X141439447Y-79151385D01*
X141320520Y-79127729D01*
X140619480Y-79127729D01*
X140500553Y-79151385D01*
X140399732Y-79218752D01*
X140332365Y-79319573D01*
X140308709Y-79438500D01*
X140308709Y-79481700D01*
X137764500Y-79481700D01*
X137589537Y-79516502D01*
X137464952Y-79599747D01*
X137447115Y-79510073D01*
X137379748Y-79409252D01*
X137278927Y-79341885D01*
X137160000Y-79318229D01*
X134620000Y-79318229D01*
X134501073Y-79341885D01*
X134400252Y-79409252D01*
X134332885Y-79510073D01*
X134309229Y-79629000D01*
X134309229Y-79806800D01*
X134224400Y-79806800D01*
X134049437Y-79841602D01*
X133901111Y-79940711D01*
X133291900Y-80549922D01*
X132682689Y-79940711D01*
X132534363Y-79841602D01*
X132390771Y-79813040D01*
X132390771Y-79629000D01*
X132367115Y-79510073D01*
X132299748Y-79409252D01*
X132198927Y-79341885D01*
X132080000Y-79318229D01*
X130127549Y-79318229D01*
X130319678Y-79126100D01*
X140162300Y-79126100D01*
X140337263Y-79091298D01*
X140485589Y-78992189D01*
X141296355Y-78181423D01*
X141349692Y-78261248D01*
X141450513Y-78328615D01*
X141569440Y-78352271D01*
X142270480Y-78352271D01*
X142389407Y-78328615D01*
X142490228Y-78261248D01*
X142557595Y-78160427D01*
X142581251Y-78041500D01*
X142581251Y-77998300D01*
X144175500Y-77998300D01*
X144350463Y-77963498D01*
X144475048Y-77880253D01*
X144492885Y-77969927D01*
X144560252Y-78070748D01*
X144661073Y-78138115D01*
X144780000Y-78161771D01*
X147320000Y-78161771D01*
X147438927Y-78138115D01*
X147539748Y-78070748D01*
X147607115Y-77969927D01*
X147630771Y-77851000D01*
X147630771Y-76581000D01*
X147607115Y-76462073D01*
X147539748Y-76361252D01*
X147438927Y-76293885D01*
X147320000Y-76270229D01*
X144780000Y-76270229D01*
X144661073Y-76293885D01*
X144560252Y-76361252D01*
X144492885Y-76462073D01*
X144469229Y-76581000D01*
X144469229Y-76765040D01*
X144325637Y-76793602D01*
X144177311Y-76892711D01*
X143986122Y-77083900D01*
X142581251Y-77083900D01*
X142581251Y-77040740D01*
X142557595Y-76921813D01*
X142490228Y-76820992D01*
X142389407Y-76753625D01*
X142270480Y-76729969D01*
X141569440Y-76729969D01*
X141450513Y-76753625D01*
X141349692Y-76820992D01*
X141282325Y-76921813D01*
X141258669Y-77040740D01*
X141258669Y-77090152D01*
X141115137Y-77118702D01*
X140980160Y-77208891D01*
X140980160Y-76919483D01*
X140887354Y-76695429D01*
X140715871Y-76523946D01*
X140491817Y-76431140D01*
X140324840Y-76431140D01*
X140172440Y-76583540D01*
X140172440Y-77388720D01*
X140192440Y-77388720D01*
X140192440Y-77693520D01*
X140172440Y-77693520D01*
X140172440Y-77713520D01*
X139867640Y-77713520D01*
X139867640Y-77693520D01*
X139212320Y-77693520D01*
X139059920Y-77845920D01*
X139059920Y-78162757D01*
X139080193Y-78211700D01*
X137661405Y-78211700D01*
X137676794Y-78196311D01*
X137769600Y-77972257D01*
X137769600Y-77520800D01*
X137617200Y-77368400D01*
X136042400Y-77368400D01*
X136042400Y-77388400D01*
X135737600Y-77388400D01*
X135737600Y-77368400D01*
X134162800Y-77368400D01*
X134010400Y-77520800D01*
X134010400Y-77972257D01*
X134103206Y-78196311D01*
X134118595Y-78211700D01*
X132581405Y-78211700D01*
X132596794Y-78196311D01*
X132689600Y-77972257D01*
X132689600Y-77520800D01*
X132537200Y-77368400D01*
X130962400Y-77368400D01*
X130962400Y-77388400D01*
X130657600Y-77388400D01*
X130657600Y-77368400D01*
X129082800Y-77368400D01*
X128930400Y-77520800D01*
X128930400Y-77972257D01*
X129023206Y-78196311D01*
X129194689Y-78367794D01*
X129418743Y-78460600D01*
X129692022Y-78460600D01*
X128962311Y-79190311D01*
X128863202Y-79338637D01*
X128828400Y-79513600D01*
X128828400Y-81067200D01*
X128863202Y-81242163D01*
X128962311Y-81390489D01*
X131102800Y-83530978D01*
X131102800Y-84078142D01*
X127865929Y-80841271D01*
X127725843Y-80747669D01*
X127560600Y-80714800D01*
X127310771Y-80714800D01*
X127310771Y-79629000D01*
X127287115Y-79510073D01*
X127219748Y-79409252D01*
X127118927Y-79341885D01*
X127000000Y-79318229D01*
X124460000Y-79318229D01*
X124341073Y-79341885D01*
X124240252Y-79409252D01*
X124172885Y-79510073D01*
X124149229Y-79629000D01*
X124149229Y-80899000D01*
X124172885Y-81017927D01*
X124240252Y-81118748D01*
X124341073Y-81186115D01*
X124460000Y-81209771D01*
X125062572Y-81209771D01*
X108279671Y-97992671D01*
X108186069Y-98132757D01*
X108153200Y-98298000D01*
X108153200Y-105160238D01*
X108113572Y-105168121D01*
X107848700Y-105345103D01*
X107848700Y-94564958D01*
X120955326Y-81458331D01*
X120955329Y-81458329D01*
X121048931Y-81318243D01*
X121070508Y-81209771D01*
X121920000Y-81209771D01*
X122038927Y-81186115D01*
X122139748Y-81118748D01*
X122207115Y-81017927D01*
X122230771Y-80899000D01*
X122230771Y-79629000D01*
X122207115Y-79510073D01*
X122139748Y-79409252D01*
X122038927Y-79341885D01*
X121920000Y-79318229D01*
X119380000Y-79318229D01*
X119261073Y-79341885D01*
X119160252Y-79409252D01*
X119092885Y-79510073D01*
X119069229Y-79629000D01*
X119069229Y-80899000D01*
X119092885Y-81017927D01*
X119160252Y-81118748D01*
X119261073Y-81186115D01*
X119380000Y-81209771D01*
X119982572Y-81209771D01*
X107111571Y-94080771D01*
X107017969Y-94220857D01*
X106985100Y-94386100D01*
X106985100Y-105538451D01*
X106916085Y-105435163D01*
X106516428Y-105168121D01*
X106045000Y-105074348D01*
X105573572Y-105168121D01*
X105173915Y-105435163D01*
X104906873Y-105834820D01*
X104813100Y-106306248D01*
X104813100Y-107053752D01*
X104906873Y-107525180D01*
X105173915Y-107924837D01*
X105440854Y-108103200D01*
X104109146Y-108103200D01*
X104376085Y-107924837D01*
X104643127Y-107525180D01*
X104736900Y-107053752D01*
X104736900Y-106306248D01*
X104643127Y-105834820D01*
X104376085Y-105435163D01*
X103976428Y-105168121D01*
X103505000Y-105074348D01*
X103033572Y-105168121D01*
X102633915Y-105435163D01*
X102366873Y-105834820D01*
X102279373Y-106274710D01*
X102186971Y-106256330D01*
X102103127Y-105834820D01*
X101836085Y-105435163D01*
X101436428Y-105168121D01*
X100965000Y-105074348D01*
X100493572Y-105168121D01*
X100093915Y-105435163D01*
X99826873Y-105834820D01*
X99739373Y-106274710D01*
X99646971Y-106256330D01*
X99563127Y-105834820D01*
X99296085Y-105435163D01*
X98896428Y-105168121D01*
X98425000Y-105074348D01*
X97953572Y-105168121D01*
X97553915Y-105435163D01*
X97306414Y-105805575D01*
X97246405Y-105608231D01*
X96863848Y-105142726D01*
X96332270Y-104859053D01*
X96274731Y-104850643D01*
X96037400Y-104961215D01*
X96037400Y-106527600D01*
X96057400Y-106527600D01*
X96057400Y-106832400D01*
X96037400Y-106832400D01*
X96037400Y-108398785D01*
X96274731Y-108509357D01*
X96332270Y-108500947D01*
X96863848Y-108217274D01*
X97246405Y-107751769D01*
X97306414Y-107554425D01*
X97553915Y-107924837D01*
X97953572Y-108191879D01*
X98425000Y-108285652D01*
X98896428Y-108191879D01*
X99296085Y-107924837D01*
X99408155Y-107757113D01*
X100451942Y-108800900D01*
X86144100Y-108800900D01*
X86144100Y-106306248D01*
X87033100Y-106306248D01*
X87033100Y-107053752D01*
X87126873Y-107525180D01*
X87393915Y-107924837D01*
X87793572Y-108191879D01*
X88265000Y-108285652D01*
X88736428Y-108191879D01*
X89136085Y-107924837D01*
X89403127Y-107525180D01*
X89496900Y-107053752D01*
X89496900Y-106306248D01*
X89573100Y-106306248D01*
X89573100Y-107053752D01*
X89666873Y-107525180D01*
X89933915Y-107924837D01*
X90333572Y-108191879D01*
X90805000Y-108285652D01*
X91276428Y-108191879D01*
X91676085Y-107924837D01*
X91943127Y-107525180D01*
X92036900Y-107053752D01*
X92036900Y-106306248D01*
X92113100Y-106306248D01*
X92113100Y-107053752D01*
X92206873Y-107525180D01*
X92473915Y-107924837D01*
X92873572Y-108191879D01*
X93345000Y-108285652D01*
X93816428Y-108191879D01*
X94216085Y-107924837D01*
X94463586Y-107554425D01*
X94523595Y-107751769D01*
X94906152Y-108217274D01*
X95437730Y-108500947D01*
X95495269Y-108509357D01*
X95732600Y-108398785D01*
X95732600Y-106832400D01*
X95712600Y-106832400D01*
X95712600Y-106527600D01*
X95732600Y-106527600D01*
X95732600Y-104961215D01*
X95495269Y-104850643D01*
X95437730Y-104859053D01*
X94906152Y-105142726D01*
X94523595Y-105608231D01*
X94463586Y-105805575D01*
X94216085Y-105435163D01*
X93816428Y-105168121D01*
X93345000Y-105074348D01*
X92873572Y-105168121D01*
X92473915Y-105435163D01*
X92206873Y-105834820D01*
X92113100Y-106306248D01*
X92036900Y-106306248D01*
X91943127Y-105834820D01*
X91676085Y-105435163D01*
X91276428Y-105168121D01*
X90805000Y-105074348D01*
X90333572Y-105168121D01*
X89933915Y-105435163D01*
X89666873Y-105834820D01*
X89573100Y-106306248D01*
X89496900Y-106306248D01*
X89403127Y-105834820D01*
X89136085Y-105435163D01*
X88736428Y-105168121D01*
X88265000Y-105074348D01*
X87793572Y-105168121D01*
X87393915Y-105435163D01*
X87126873Y-105834820D01*
X87033100Y-106306248D01*
X86144100Y-106306248D01*
X86144100Y-102012477D01*
X87451840Y-102012477D01*
X87768259Y-102778270D01*
X88353648Y-103364682D01*
X89118888Y-103682437D01*
X89947477Y-103683160D01*
X90713270Y-103366741D01*
X91299682Y-102781352D01*
X91617437Y-102016112D01*
X91618160Y-101187523D01*
X91301741Y-100421730D01*
X90716352Y-99835318D01*
X89951112Y-99517563D01*
X89122523Y-99516840D01*
X88356730Y-99833259D01*
X87770318Y-100418648D01*
X87452563Y-101183888D01*
X87451840Y-102012477D01*
X86144100Y-102012477D01*
X86144100Y-76612477D01*
X87451840Y-76612477D01*
X87768259Y-77378270D01*
X88353648Y-77964682D01*
X89118888Y-78282437D01*
X89947477Y-78283160D01*
X90713270Y-77966741D01*
X91159990Y-77520800D01*
X118770400Y-77520800D01*
X118770400Y-77972257D01*
X118863206Y-78196311D01*
X119034689Y-78367794D01*
X119258743Y-78460600D01*
X120345200Y-78460600D01*
X120497600Y-78308200D01*
X120497600Y-77368400D01*
X120802400Y-77368400D01*
X120802400Y-78308200D01*
X120954800Y-78460600D01*
X122041257Y-78460600D01*
X122265311Y-78367794D01*
X122436794Y-78196311D01*
X122529600Y-77972257D01*
X122529600Y-77520800D01*
X123850400Y-77520800D01*
X123850400Y-77972257D01*
X123943206Y-78196311D01*
X124114689Y-78367794D01*
X124338743Y-78460600D01*
X125425200Y-78460600D01*
X125577600Y-78308200D01*
X125577600Y-77368400D01*
X125882400Y-77368400D01*
X125882400Y-78308200D01*
X126034800Y-78460600D01*
X127121257Y-78460600D01*
X127345311Y-78367794D01*
X127516794Y-78196311D01*
X127609600Y-77972257D01*
X127609600Y-77520800D01*
X127457200Y-77368400D01*
X125882400Y-77368400D01*
X125577600Y-77368400D01*
X124002800Y-77368400D01*
X123850400Y-77520800D01*
X122529600Y-77520800D01*
X122377200Y-77368400D01*
X120802400Y-77368400D01*
X120497600Y-77368400D01*
X118922800Y-77368400D01*
X118770400Y-77520800D01*
X91159990Y-77520800D01*
X91299682Y-77381352D01*
X91617437Y-76616112D01*
X91617573Y-76459743D01*
X118770400Y-76459743D01*
X118770400Y-76911200D01*
X118922800Y-77063600D01*
X120497600Y-77063600D01*
X120497600Y-76123800D01*
X120802400Y-76123800D01*
X120802400Y-77063600D01*
X122377200Y-77063600D01*
X122529600Y-76911200D01*
X122529600Y-76459743D01*
X123850400Y-76459743D01*
X123850400Y-76911200D01*
X124002800Y-77063600D01*
X125577600Y-77063600D01*
X125577600Y-76123800D01*
X125882400Y-76123800D01*
X125882400Y-77063600D01*
X127457200Y-77063600D01*
X127609600Y-76911200D01*
X127609600Y-76459743D01*
X128930400Y-76459743D01*
X128930400Y-76911200D01*
X129082800Y-77063600D01*
X130657600Y-77063600D01*
X130657600Y-76123800D01*
X130962400Y-76123800D01*
X130962400Y-77063600D01*
X132537200Y-77063600D01*
X132689600Y-76911200D01*
X132689600Y-76459743D01*
X134010400Y-76459743D01*
X134010400Y-76911200D01*
X134162800Y-77063600D01*
X135737600Y-77063600D01*
X135737600Y-76123800D01*
X136042400Y-76123800D01*
X136042400Y-77063600D01*
X137617200Y-77063600D01*
X137761317Y-76919483D01*
X139059920Y-76919483D01*
X139059920Y-77236320D01*
X139212320Y-77388720D01*
X139867640Y-77388720D01*
X139867640Y-76583540D01*
X139715240Y-76431140D01*
X139548263Y-76431140D01*
X139324209Y-76523946D01*
X139152726Y-76695429D01*
X139059920Y-76919483D01*
X137761317Y-76919483D01*
X137769600Y-76911200D01*
X137769600Y-76459743D01*
X137676794Y-76235689D01*
X137505311Y-76064206D01*
X137281257Y-75971400D01*
X136194800Y-75971400D01*
X136042400Y-76123800D01*
X135737600Y-76123800D01*
X135585200Y-75971400D01*
X134498743Y-75971400D01*
X134274689Y-76064206D01*
X134103206Y-76235689D01*
X134010400Y-76459743D01*
X132689600Y-76459743D01*
X132596794Y-76235689D01*
X132425311Y-76064206D01*
X132201257Y-75971400D01*
X131114800Y-75971400D01*
X130962400Y-76123800D01*
X130657600Y-76123800D01*
X130505200Y-75971400D01*
X129418743Y-75971400D01*
X129194689Y-76064206D01*
X129023206Y-76235689D01*
X128930400Y-76459743D01*
X127609600Y-76459743D01*
X127516794Y-76235689D01*
X127345311Y-76064206D01*
X127121257Y-75971400D01*
X126034800Y-75971400D01*
X125882400Y-76123800D01*
X125577600Y-76123800D01*
X125425200Y-75971400D01*
X124338743Y-75971400D01*
X124114689Y-76064206D01*
X123943206Y-76235689D01*
X123850400Y-76459743D01*
X122529600Y-76459743D01*
X122436794Y-76235689D01*
X122265311Y-76064206D01*
X122041257Y-75971400D01*
X120954800Y-75971400D01*
X120802400Y-76123800D01*
X120497600Y-76123800D01*
X120345200Y-75971400D01*
X119258743Y-75971400D01*
X119034689Y-76064206D01*
X118863206Y-76235689D01*
X118770400Y-76459743D01*
X91617573Y-76459743D01*
X91618160Y-75787523D01*
X91301741Y-75021730D01*
X90716352Y-74435318D01*
X89951112Y-74117563D01*
X89122523Y-74116840D01*
X88356730Y-74433259D01*
X87770318Y-75018648D01*
X87452563Y-75783888D01*
X87451840Y-76612477D01*
X86144100Y-76612477D01*
X86144100Y-69850000D01*
X87027129Y-69850000D01*
X87027129Y-72390000D01*
X87050785Y-72508927D01*
X87118152Y-72609748D01*
X87218973Y-72677115D01*
X87337900Y-72700771D01*
X89192100Y-72700771D01*
X89311027Y-72677115D01*
X89411848Y-72609748D01*
X89479215Y-72508927D01*
X89502871Y-72390000D01*
X89502871Y-70746248D01*
X89573100Y-70746248D01*
X89573100Y-71493752D01*
X89666873Y-71965180D01*
X89933915Y-72364837D01*
X90333572Y-72631879D01*
X90805000Y-72725652D01*
X91276428Y-72631879D01*
X91676085Y-72364837D01*
X91943127Y-71965180D01*
X92036900Y-71493752D01*
X92036900Y-70746248D01*
X92113100Y-70746248D01*
X92113100Y-71493752D01*
X92206873Y-71965180D01*
X92473915Y-72364837D01*
X92873572Y-72631879D01*
X93345000Y-72725652D01*
X93816428Y-72631879D01*
X94216085Y-72364837D01*
X94483127Y-71965180D01*
X94576900Y-71493752D01*
X94576900Y-70746248D01*
X94653100Y-70746248D01*
X94653100Y-71493752D01*
X94746873Y-71965180D01*
X95013915Y-72364837D01*
X95413572Y-72631879D01*
X95885000Y-72725652D01*
X96356428Y-72631879D01*
X96756085Y-72364837D01*
X97023127Y-71965180D01*
X97116900Y-71493752D01*
X97116900Y-70746248D01*
X97193100Y-70746248D01*
X97193100Y-71493752D01*
X97286873Y-71965180D01*
X97553915Y-72364837D01*
X97953572Y-72631879D01*
X98425000Y-72725652D01*
X98896428Y-72631879D01*
X99296085Y-72364837D01*
X99563127Y-71965180D01*
X99656900Y-71493752D01*
X99656900Y-70746248D01*
X99733100Y-70746248D01*
X99733100Y-71493752D01*
X99826873Y-71965180D01*
X100093915Y-72364837D01*
X100493572Y-72631879D01*
X100965000Y-72725652D01*
X101436428Y-72631879D01*
X101836085Y-72364837D01*
X102103127Y-71965180D01*
X102196900Y-71493752D01*
X102196900Y-70746248D01*
X102273100Y-70746248D01*
X102273100Y-71493752D01*
X102366873Y-71965180D01*
X102633915Y-72364837D01*
X103033572Y-72631879D01*
X103505000Y-72725652D01*
X103976428Y-72631879D01*
X104376085Y-72364837D01*
X104643127Y-71965180D01*
X104736900Y-71493752D01*
X104736900Y-70746248D01*
X104813100Y-70746248D01*
X104813100Y-71493752D01*
X104906873Y-71965180D01*
X105173915Y-72364837D01*
X105573572Y-72631879D01*
X106045000Y-72725652D01*
X106516428Y-72631879D01*
X106916085Y-72364837D01*
X107183127Y-71965180D01*
X107276900Y-71493752D01*
X107276900Y-70746248D01*
X107353100Y-70746248D01*
X107353100Y-71493752D01*
X107446873Y-71965180D01*
X107713915Y-72364837D01*
X108113572Y-72631879D01*
X108585000Y-72725652D01*
X109056428Y-72631879D01*
X109456085Y-72364837D01*
X109723127Y-71965180D01*
X109816900Y-71493752D01*
X109816900Y-70746248D01*
X109893100Y-70746248D01*
X109893100Y-71493752D01*
X109986873Y-71965180D01*
X110253915Y-72364837D01*
X110653572Y-72631879D01*
X111125000Y-72725652D01*
X111596428Y-72631879D01*
X111996085Y-72364837D01*
X112263127Y-71965180D01*
X112356900Y-71493752D01*
X112356900Y-70746248D01*
X112433100Y-70746248D01*
X112433100Y-71493752D01*
X112526873Y-71965180D01*
X112793915Y-72364837D01*
X113193572Y-72631879D01*
X113665000Y-72725652D01*
X114136428Y-72631879D01*
X114536085Y-72364837D01*
X114803127Y-71965180D01*
X114896900Y-71493752D01*
X114896900Y-70746248D01*
X114973100Y-70746248D01*
X114973100Y-71493752D01*
X115066873Y-71965180D01*
X115333915Y-72364837D01*
X115733572Y-72631879D01*
X116205000Y-72725652D01*
X116676428Y-72631879D01*
X117076085Y-72364837D01*
X117343127Y-71965180D01*
X117436900Y-71493752D01*
X117436900Y-70746248D01*
X117513100Y-70746248D01*
X117513100Y-71493752D01*
X117606873Y-71965180D01*
X117873915Y-72364837D01*
X118273572Y-72631879D01*
X118745000Y-72725652D01*
X119216428Y-72631879D01*
X119616085Y-72364837D01*
X119883127Y-71965180D01*
X119976900Y-71493752D01*
X119976900Y-70746248D01*
X120053100Y-70746248D01*
X120053100Y-71493752D01*
X120146873Y-71965180D01*
X120413915Y-72364837D01*
X120813572Y-72631879D01*
X121285000Y-72725652D01*
X121756428Y-72631879D01*
X122156085Y-72364837D01*
X122423127Y-71965180D01*
X122516900Y-71493752D01*
X122516900Y-70746248D01*
X122593100Y-70746248D01*
X122593100Y-71493752D01*
X122686873Y-71965180D01*
X122953915Y-72364837D01*
X123353572Y-72631879D01*
X123825000Y-72725652D01*
X124296428Y-72631879D01*
X124696085Y-72364837D01*
X124963127Y-71965180D01*
X125056900Y-71493752D01*
X125056900Y-70746248D01*
X125133100Y-70746248D01*
X125133100Y-71493752D01*
X125226873Y-71965180D01*
X125493915Y-72364837D01*
X125893572Y-72631879D01*
X126365000Y-72725652D01*
X126836428Y-72631879D01*
X127236085Y-72364837D01*
X127503127Y-71965180D01*
X127589197Y-71532477D01*
X128091840Y-71532477D01*
X128408259Y-72298270D01*
X128993648Y-72884682D01*
X129758888Y-73202437D01*
X130587477Y-73203160D01*
X131353270Y-72886741D01*
X131939682Y-72301352D01*
X132257437Y-71536112D01*
X132258160Y-70707523D01*
X131941741Y-69941730D01*
X131356352Y-69355318D01*
X130591112Y-69037563D01*
X129762523Y-69036840D01*
X128996730Y-69353259D01*
X128410318Y-69938648D01*
X128092563Y-70703888D01*
X128091840Y-71532477D01*
X127589197Y-71532477D01*
X127596900Y-71493752D01*
X127596900Y-70746248D01*
X127503127Y-70274820D01*
X127236085Y-69875163D01*
X126836428Y-69608121D01*
X126365000Y-69514348D01*
X125893572Y-69608121D01*
X125493915Y-69875163D01*
X125226873Y-70274820D01*
X125133100Y-70746248D01*
X125056900Y-70746248D01*
X124963127Y-70274820D01*
X124696085Y-69875163D01*
X124296428Y-69608121D01*
X123825000Y-69514348D01*
X123353572Y-69608121D01*
X122953915Y-69875163D01*
X122686873Y-70274820D01*
X122593100Y-70746248D01*
X122516900Y-70746248D01*
X122423127Y-70274820D01*
X122156085Y-69875163D01*
X121756428Y-69608121D01*
X121285000Y-69514348D01*
X120813572Y-69608121D01*
X120413915Y-69875163D01*
X120146873Y-70274820D01*
X120053100Y-70746248D01*
X119976900Y-70746248D01*
X119883127Y-70274820D01*
X119616085Y-69875163D01*
X119216428Y-69608121D01*
X118745000Y-69514348D01*
X118273572Y-69608121D01*
X117873915Y-69875163D01*
X117606873Y-70274820D01*
X117513100Y-70746248D01*
X117436900Y-70746248D01*
X117343127Y-70274820D01*
X117076085Y-69875163D01*
X116676428Y-69608121D01*
X116205000Y-69514348D01*
X115733572Y-69608121D01*
X115333915Y-69875163D01*
X115066873Y-70274820D01*
X114973100Y-70746248D01*
X114896900Y-70746248D01*
X114803127Y-70274820D01*
X114536085Y-69875163D01*
X114136428Y-69608121D01*
X113665000Y-69514348D01*
X113193572Y-69608121D01*
X112793915Y-69875163D01*
X112526873Y-70274820D01*
X112433100Y-70746248D01*
X112356900Y-70746248D01*
X112263127Y-70274820D01*
X111996085Y-69875163D01*
X111596428Y-69608121D01*
X111125000Y-69514348D01*
X110653572Y-69608121D01*
X110253915Y-69875163D01*
X109986873Y-70274820D01*
X109893100Y-70746248D01*
X109816900Y-70746248D01*
X109723127Y-70274820D01*
X109456085Y-69875163D01*
X109056428Y-69608121D01*
X108585000Y-69514348D01*
X108113572Y-69608121D01*
X107713915Y-69875163D01*
X107446873Y-70274820D01*
X107353100Y-70746248D01*
X107276900Y-70746248D01*
X107183127Y-70274820D01*
X106916085Y-69875163D01*
X106516428Y-69608121D01*
X106045000Y-69514348D01*
X105573572Y-69608121D01*
X105173915Y-69875163D01*
X104906873Y-70274820D01*
X104813100Y-70746248D01*
X104736900Y-70746248D01*
X104643127Y-70274820D01*
X104376085Y-69875163D01*
X103976428Y-69608121D01*
X103505000Y-69514348D01*
X103033572Y-69608121D01*
X102633915Y-69875163D01*
X102366873Y-70274820D01*
X102273100Y-70746248D01*
X102196900Y-70746248D01*
X102103127Y-70274820D01*
X101836085Y-69875163D01*
X101436428Y-69608121D01*
X100965000Y-69514348D01*
X100493572Y-69608121D01*
X100093915Y-69875163D01*
X99826873Y-70274820D01*
X99733100Y-70746248D01*
X99656900Y-70746248D01*
X99563127Y-70274820D01*
X99296085Y-69875163D01*
X98896428Y-69608121D01*
X98425000Y-69514348D01*
X97953572Y-69608121D01*
X97553915Y-69875163D01*
X97286873Y-70274820D01*
X97193100Y-70746248D01*
X97116900Y-70746248D01*
X97023127Y-70274820D01*
X96756085Y-69875163D01*
X96356428Y-69608121D01*
X95885000Y-69514348D01*
X95413572Y-69608121D01*
X95013915Y-69875163D01*
X94746873Y-70274820D01*
X94653100Y-70746248D01*
X94576900Y-70746248D01*
X94483127Y-70274820D01*
X94216085Y-69875163D01*
X93816428Y-69608121D01*
X93345000Y-69514348D01*
X92873572Y-69608121D01*
X92473915Y-69875163D01*
X92206873Y-70274820D01*
X92113100Y-70746248D01*
X92036900Y-70746248D01*
X91943127Y-70274820D01*
X91676085Y-69875163D01*
X91276428Y-69608121D01*
X90805000Y-69514348D01*
X90333572Y-69608121D01*
X89933915Y-69875163D01*
X89666873Y-70274820D01*
X89573100Y-70746248D01*
X89502871Y-70746248D01*
X89502871Y-69850000D01*
X89479215Y-69731073D01*
X89411848Y-69630252D01*
X89311027Y-69562885D01*
X89192100Y-69539229D01*
X87337900Y-69539229D01*
X87218973Y-69562885D01*
X87118152Y-69630252D01*
X87050785Y-69731073D01*
X87027129Y-69850000D01*
X86144100Y-69850000D01*
X86144100Y-68999100D01*
X155155900Y-68999100D01*
X155155900Y-108800900D01*
G36*
X125495004Y-86852090D02*
X125698800Y-87056243D01*
X125698800Y-88224600D01*
X125731669Y-88389843D01*
X125801764Y-88494748D01*
X125825271Y-88529929D01*
X126200400Y-88905057D01*
X126200400Y-88935100D01*
X126352800Y-89087500D01*
X127657600Y-89087500D01*
X127657600Y-89085771D01*
X127962400Y-89085771D01*
X127962400Y-89087500D01*
X127982400Y-89087500D01*
X127982400Y-89212500D01*
X127962400Y-89212500D01*
X127962400Y-89214229D01*
X127657600Y-89214229D01*
X127657600Y-89212500D01*
X126352800Y-89212500D01*
X126200400Y-89364900D01*
X126200400Y-89396257D01*
X126293206Y-89620311D01*
X126464689Y-89791794D01*
X126505971Y-89808893D01*
X126522885Y-89893927D01*
X126526943Y-89900000D01*
X126522885Y-89906073D01*
X126499229Y-90025000D01*
X126499229Y-90275000D01*
X126522885Y-90393927D01*
X126526943Y-90400000D01*
X126522885Y-90406073D01*
X126499229Y-90525000D01*
X126499229Y-90775000D01*
X126522885Y-90893927D01*
X126590252Y-90994748D01*
X126691073Y-91062115D01*
X126810000Y-91085771D01*
X128624229Y-91085771D01*
X128624229Y-92722200D01*
X127824400Y-92722200D01*
X127659157Y-92755069D01*
X127600288Y-92794404D01*
X127519071Y-92848671D01*
X123925671Y-96442071D01*
X123853400Y-96550233D01*
X123853400Y-88363758D01*
X125457013Y-86760144D01*
X125495004Y-86852090D01*
X125495004Y-86852090D01*
G37*
X125495004Y-86852090D02*
X125698800Y-87056243D01*
X125698800Y-88224600D01*
X125731669Y-88389843D01*
X125801764Y-88494748D01*
X125825271Y-88529929D01*
X126200400Y-88905057D01*
X126200400Y-88935100D01*
X126352800Y-89087500D01*
X127657600Y-89087500D01*
X127657600Y-89085771D01*
X127962400Y-89085771D01*
X127962400Y-89087500D01*
X127982400Y-89087500D01*
X127982400Y-89212500D01*
X127962400Y-89212500D01*
X127962400Y-89214229D01*
X127657600Y-89214229D01*
X127657600Y-89212500D01*
X126352800Y-89212500D01*
X126200400Y-89364900D01*
X126200400Y-89396257D01*
X126293206Y-89620311D01*
X126464689Y-89791794D01*
X126505971Y-89808893D01*
X126522885Y-89893927D01*
X126526943Y-89900000D01*
X126522885Y-89906073D01*
X126499229Y-90025000D01*
X126499229Y-90275000D01*
X126522885Y-90393927D01*
X126526943Y-90400000D01*
X126522885Y-90406073D01*
X126499229Y-90525000D01*
X126499229Y-90775000D01*
X126522885Y-90893927D01*
X126590252Y-90994748D01*
X126691073Y-91062115D01*
X126810000Y-91085771D01*
X128624229Y-91085771D01*
X128624229Y-92722200D01*
X127824400Y-92722200D01*
X127659157Y-92755069D01*
X127600288Y-92794404D01*
X127519071Y-92848671D01*
X123925671Y-96442071D01*
X123853400Y-96550233D01*
X123853400Y-88363758D01*
X125457013Y-86760144D01*
X125495004Y-86852090D01*
M02*
