%TF.GenerationSoftware,KiCad,Pcbnew,no-vcs-found-33cc7b3~60~ubuntu16.04.1*%
%TF.CreationDate,2017-09-14T13:01:54-04:00*%
%TF.ProjectId,audio_controller_3x2,617564696F5F636F6E74726F6C6C6572,1.1*%
%TF.SameCoordinates,Original*%
%TF.FileFunction,Copper,L1,Top,Signal*%
%TF.FilePolarity,Positive*%
%FSLAX46Y46*%
G04 Gerber Fmt 4.6, Leading zero omitted, Abs format (unit mm)*
G04 Created by KiCad (PCBNEW no-vcs-found-33cc7b3~60~ubuntu16.04.1) date Thu Sep 14 13:01:54 2017*
%MOMM*%
%LPD*%
G01*
G04 APERTURE LIST*
%TA.AperFunction,NonConductor*%
%ADD10C,0.228600*%
%TD*%
%TA.AperFunction,SMDPad,CuDef*%
%ADD11R,6.500000X3.500000*%
%TD*%
%TA.AperFunction,SMDPad,CuDef*%
%ADD12R,4.500000X3.500000*%
%TD*%
%TA.AperFunction,ComponentPad*%
%ADD13C,3.556000*%
%TD*%
%TA.AperFunction,ComponentPad*%
%ADD14O,1.854200X2.540000*%
%TD*%
%TA.AperFunction,ComponentPad*%
%ADD15R,1.854200X2.540000*%
%TD*%
%TA.AperFunction,ComponentPad*%
%ADD16R,3.400000X3.400000*%
%TD*%
%TA.AperFunction,ComponentPad*%
%ADD17C,2.100000*%
%TD*%
%TA.AperFunction,ViaPad*%
%ADD18C,0.889000*%
%TD*%
%TA.AperFunction,Conductor*%
%ADD19C,0.304800*%
%TD*%
%TA.AperFunction,Conductor*%
%ADD20C,0.254000*%
%TD*%
%TA.AperFunction,Conductor*%
%ADD21C,0.203200*%
%TD*%
G04 APERTURE END LIST*
D10*
X156210000Y-67945000D02*
X85725000Y-67945000D01*
X156210000Y-109855000D02*
X156210000Y-67945000D01*
X85725000Y-109855000D02*
X156210000Y-109855000D01*
X85725000Y-67945000D02*
X85725000Y-109855000D01*
D11*
%TO.P,SP1,1*%
%TO.N,/AMP+*%
X101565000Y-95150000D03*
%TO.P,SP1,2*%
%TO.N,/AMP-*%
X113065000Y-95150000D03*
D12*
%TO.P,SP1,*%
%TO.N,*%
X100565000Y-82650000D03*
X114065000Y-82650000D03*
%TD*%
D13*
%TO.P,MDB1,*%
%TO.N,*%
X130175000Y-71120000D03*
X130175000Y-106680000D03*
X89535000Y-101600000D03*
X89535000Y-76200000D03*
D14*
%TO.P,MDB1,AREF*%
%TO.N,N/C*%
X88265000Y-106680000D03*
%TO.P,MDB1,VEE*%
%TO.N,VEE*%
X90805000Y-106680000D03*
%TO.P,MDB1,AGND*%
%TO.N,/AGND*%
X93345000Y-106680000D03*
%TO.P,MDB1,3V3*%
%TO.N,+3V3*%
X95885000Y-106680000D03*
%TO.P,MDB1,23*%
%TO.N,/LRCLK*%
X98425000Y-106680000D03*
%TO.P,MDB1,22*%
%TO.N,/I2STX*%
X100965000Y-106680000D03*
%TO.P,MDB1,21*%
%TO.N,N/C*%
X103505000Y-106680000D03*
%TO.P,MDB1,20*%
X106045000Y-106680000D03*
%TO.P,MDB1,19*%
%TO.N,/SCL*%
X108585000Y-106680000D03*
%TO.P,MDB1,18*%
%TO.N,/SDA*%
X111125000Y-106680000D03*
%TO.P,MDB1,17*%
%TO.N,N/C*%
X113665000Y-106680000D03*
%TO.P,MDB1,16*%
X116205000Y-106680000D03*
%TO.P,MDB1,15*%
X118745000Y-106680000D03*
%TO.P,MDB1,14*%
X121285000Y-106680000D03*
%TO.P,MDB1,13*%
%TO.N,/I2SRX*%
X123825000Y-106680000D03*
%TO.P,MDB1,DAC*%
%TO.N,/DAC*%
X126365000Y-106680000D03*
%TO.P,MDB1,28*%
%TO.N,N/C*%
X126365000Y-71120000D03*
%TO.P,MDB1,12*%
X123825000Y-71120000D03*
%TO.P,MDB1,11*%
%TO.N,/MCLK*%
X121285000Y-71120000D03*
%TO.P,MDB1,10*%
%TO.N,N/C*%
X118745000Y-71120000D03*
%TO.P,MDB1,9*%
%TO.N,/BCLK*%
X116205000Y-71120000D03*
%TO.P,MDB1,29*%
%TO.N,N/C*%
X113665000Y-71120000D03*
%TO.P,MDB1,30*%
X111125000Y-71120000D03*
%TO.P,MDB1,6*%
%TO.N,/SPEAKER_ENABLE*%
X108585000Y-71120000D03*
%TO.P,MDB1,5*%
%TO.N,N/C*%
X106045000Y-71120000D03*
%TO.P,MDB1,4*%
X103505000Y-71120000D03*
%TO.P,MDB1,3*%
X100965000Y-71120000D03*
%TO.P,MDB1,2*%
X98425000Y-71120000D03*
%TO.P,MDB1,25*%
X95885000Y-71120000D03*
D15*
%TO.P,MDB1,VDD*%
X88265000Y-71120000D03*
D14*
%TO.P,MDB1,24*%
X93345000Y-71120000D03*
%TO.P,MDB1,GND*%
%TO.N,GND*%
X90805000Y-71120000D03*
%TD*%
D16*
%TO.P,U1,PAD*%
%TO.N,GND*%
X130810000Y-88900000D03*
%TD*%
D17*
%TO.P,J1,*%
%TO.N,*%
X145075000Y-88900000D03*
X152075000Y-88900000D03*
%TD*%
D18*
%TO.N,GND*%
X122555000Y-93345000D03*
X127000000Y-94615000D03*
X107701300Y-85638700D03*
%TO.N,/I2SRX*%
X128381800Y-85900100D03*
%TO.N,/SCL*%
X130169300Y-83913600D03*
%TO.N,/I2STX*%
X125893900Y-86505400D03*
%TO.N,/LRCLK*%
X126194300Y-87878900D03*
%TO.N,/AMP-*%
X106607700Y-86053200D03*
%TO.N,/AMP+*%
X108861500Y-88599800D03*
%TD*%
D19*
%TO.N,GND*%
X125730000Y-93345000D02*
X122555000Y-93345000D01*
X127000000Y-94615000D02*
X125730000Y-93345000D01*
X130810000Y-88900000D02*
X128832600Y-88900000D01*
X107701300Y-85424500D02*
X107701300Y-85638700D01*
X98780900Y-76504100D02*
X107701300Y-85424500D01*
X96640800Y-76504100D02*
X98780900Y-76504100D01*
X92009500Y-71872800D02*
X96640800Y-76504100D01*
X92009500Y-71120000D02*
X92009500Y-71872800D01*
X90805000Y-71120000D02*
X92009500Y-71120000D01*
X126015500Y-85638700D02*
X107701300Y-85638700D01*
X128832600Y-88455800D02*
X126015500Y-85638700D01*
X128832600Y-88900000D02*
X128832600Y-88455800D01*
D20*
%TO.N,/I2SRX*%
X123825000Y-106680000D02*
X125004100Y-106680000D01*
X132202800Y-85900100D02*
X128381800Y-85900100D01*
X133117200Y-86814500D02*
X132202800Y-85900100D01*
X133117200Y-91132100D02*
X133117200Y-86814500D01*
X125004100Y-99245200D02*
X133117200Y-91132100D01*
X125004100Y-106680000D02*
X125004100Y-99245200D01*
%TO.N,/SCL*%
X109764100Y-106056400D02*
X109764100Y-106680000D01*
X113141600Y-102678900D02*
X109764100Y-106056400D01*
X120782900Y-102678900D02*
X113141600Y-102678900D01*
X132738900Y-90722900D02*
X120782900Y-102678900D01*
X132738900Y-87045300D02*
X132738900Y-90722900D01*
X132317700Y-86624100D02*
X132738900Y-87045300D01*
X128146700Y-86624100D02*
X132317700Y-86624100D01*
X127666300Y-86143700D02*
X128146700Y-86624100D01*
X127666300Y-85663100D02*
X127666300Y-86143700D01*
X129415800Y-83913600D02*
X127666300Y-85663100D01*
X130169300Y-83913600D02*
X129415800Y-83913600D01*
X108585000Y-106680000D02*
X109764100Y-106680000D01*
%TO.N,/I2STX*%
X100965000Y-106680000D02*
X102144100Y-106680000D01*
X116544000Y-95855300D02*
X125893900Y-86505400D01*
X116544000Y-97003200D02*
X116544000Y-95855300D01*
X116317200Y-97230000D02*
X116544000Y-97003200D01*
X110930900Y-97230000D02*
X116317200Y-97230000D01*
X102144100Y-106016800D02*
X110930900Y-97230000D01*
X102144100Y-106680000D02*
X102144100Y-106016800D01*
%TO.N,/LRCLK*%
X98425000Y-106680000D02*
X99604100Y-106680000D01*
X99604100Y-107303600D02*
X99604100Y-106680000D01*
X100494200Y-108193700D02*
X99604100Y-107303600D01*
X103970800Y-108193700D02*
X100494200Y-108193700D01*
X104888900Y-107275600D02*
X103970800Y-108193700D01*
X104888900Y-105809900D02*
X104888900Y-107275600D01*
X108756500Y-101942300D02*
X104888900Y-105809900D01*
X112130900Y-101942300D02*
X108756500Y-101942300D01*
X126194300Y-87878900D02*
X112130900Y-101942300D01*
%TO.N,/AMP-*%
X113065000Y-95150000D02*
X109563000Y-95150000D01*
X108438600Y-87884100D02*
X106607700Y-86053200D01*
X109172100Y-87884100D02*
X108438600Y-87884100D01*
X109563000Y-88275000D02*
X109172100Y-87884100D01*
X109563000Y-95150000D02*
X109563000Y-88275000D01*
%TO.N,/AMP+*%
X105067000Y-92394300D02*
X105067000Y-95150000D01*
X108861500Y-88599800D02*
X105067000Y-92394300D01*
X101565000Y-95150000D02*
X105067000Y-95150000D01*
%TD*%
D21*
%TO.N,GND*%
G36*
X155790900Y-109435900D02*
X86144100Y-109435900D01*
X86144100Y-106306248D01*
X87033100Y-106306248D01*
X87033100Y-107053752D01*
X87126873Y-107525180D01*
X87393915Y-107924837D01*
X87793572Y-108191879D01*
X88265000Y-108285652D01*
X88736428Y-108191879D01*
X89136085Y-107924837D01*
X89403127Y-107525180D01*
X89496900Y-107053752D01*
X89496900Y-106306248D01*
X89573100Y-106306248D01*
X89573100Y-107053752D01*
X89666873Y-107525180D01*
X89933915Y-107924837D01*
X90333572Y-108191879D01*
X90805000Y-108285652D01*
X91276428Y-108191879D01*
X91676085Y-107924837D01*
X91943127Y-107525180D01*
X92036900Y-107053752D01*
X92036900Y-106306248D01*
X92113100Y-106306248D01*
X92113100Y-107053752D01*
X92206873Y-107525180D01*
X92473915Y-107924837D01*
X92873572Y-108191879D01*
X93345000Y-108285652D01*
X93816428Y-108191879D01*
X94216085Y-107924837D01*
X94483127Y-107525180D01*
X94576900Y-107053752D01*
X94576900Y-106306248D01*
X94653100Y-106306248D01*
X94653100Y-107053752D01*
X94746873Y-107525180D01*
X95013915Y-107924837D01*
X95413572Y-108191879D01*
X95885000Y-108285652D01*
X96356428Y-108191879D01*
X96756085Y-107924837D01*
X97023127Y-107525180D01*
X97116900Y-107053752D01*
X97116900Y-106306248D01*
X97193100Y-106306248D01*
X97193100Y-107053752D01*
X97286873Y-107525180D01*
X97553915Y-107924837D01*
X97953572Y-108191879D01*
X98425000Y-108285652D01*
X98896428Y-108191879D01*
X99296085Y-107924837D01*
X99423696Y-107733854D01*
X100188869Y-108499026D01*
X100188871Y-108499029D01*
X100328957Y-108592631D01*
X100494200Y-108625500D01*
X103970800Y-108625500D01*
X104136043Y-108592631D01*
X104276129Y-108499029D01*
X104276130Y-108499028D01*
X105044301Y-107730856D01*
X105173915Y-107924837D01*
X105573572Y-108191879D01*
X106045000Y-108285652D01*
X106516428Y-108191879D01*
X106916085Y-107924837D01*
X107183127Y-107525180D01*
X107276900Y-107053752D01*
X107276900Y-106306248D01*
X107353100Y-106306248D01*
X107353100Y-107053752D01*
X107446873Y-107525180D01*
X107713915Y-107924837D01*
X108113572Y-108191879D01*
X108585000Y-108285652D01*
X109056428Y-108191879D01*
X109456085Y-107924837D01*
X109723127Y-107525180D01*
X109807053Y-107103256D01*
X109899297Y-107084907D01*
X109986873Y-107525180D01*
X110253915Y-107924837D01*
X110653572Y-108191879D01*
X111125000Y-108285652D01*
X111596428Y-108191879D01*
X111996085Y-107924837D01*
X112263127Y-107525180D01*
X112356900Y-107053752D01*
X112356900Y-106306248D01*
X112433100Y-106306248D01*
X112433100Y-107053752D01*
X112526873Y-107525180D01*
X112793915Y-107924837D01*
X113193572Y-108191879D01*
X113665000Y-108285652D01*
X114136428Y-108191879D01*
X114536085Y-107924837D01*
X114803127Y-107525180D01*
X114896900Y-107053752D01*
X114896900Y-106306248D01*
X114973100Y-106306248D01*
X114973100Y-107053752D01*
X115066873Y-107525180D01*
X115333915Y-107924837D01*
X115733572Y-108191879D01*
X116205000Y-108285652D01*
X116676428Y-108191879D01*
X117076085Y-107924837D01*
X117343127Y-107525180D01*
X117436900Y-107053752D01*
X117436900Y-106306248D01*
X117513100Y-106306248D01*
X117513100Y-107053752D01*
X117606873Y-107525180D01*
X117873915Y-107924837D01*
X118273572Y-108191879D01*
X118745000Y-108285652D01*
X119216428Y-108191879D01*
X119616085Y-107924837D01*
X119883127Y-107525180D01*
X119976900Y-107053752D01*
X119976900Y-106306248D01*
X120053100Y-106306248D01*
X120053100Y-107053752D01*
X120146873Y-107525180D01*
X120413915Y-107924837D01*
X120813572Y-108191879D01*
X121285000Y-108285652D01*
X121756428Y-108191879D01*
X122156085Y-107924837D01*
X122423127Y-107525180D01*
X122516900Y-107053752D01*
X122516900Y-106306248D01*
X122423127Y-105834820D01*
X122156085Y-105435163D01*
X121756428Y-105168121D01*
X121285000Y-105074348D01*
X120813572Y-105168121D01*
X120413915Y-105435163D01*
X120146873Y-105834820D01*
X120053100Y-106306248D01*
X119976900Y-106306248D01*
X119883127Y-105834820D01*
X119616085Y-105435163D01*
X119216428Y-105168121D01*
X118745000Y-105074348D01*
X118273572Y-105168121D01*
X117873915Y-105435163D01*
X117606873Y-105834820D01*
X117513100Y-106306248D01*
X117436900Y-106306248D01*
X117343127Y-105834820D01*
X117076085Y-105435163D01*
X116676428Y-105168121D01*
X116205000Y-105074348D01*
X115733572Y-105168121D01*
X115333915Y-105435163D01*
X115066873Y-105834820D01*
X114973100Y-106306248D01*
X114896900Y-106306248D01*
X114803127Y-105834820D01*
X114536085Y-105435163D01*
X114136428Y-105168121D01*
X113665000Y-105074348D01*
X113193572Y-105168121D01*
X112793915Y-105435163D01*
X112526873Y-105834820D01*
X112433100Y-106306248D01*
X112356900Y-106306248D01*
X112263127Y-105834820D01*
X111996085Y-105435163D01*
X111596428Y-105168121D01*
X111318350Y-105112808D01*
X113320457Y-103110700D01*
X120782900Y-103110700D01*
X120948143Y-103077831D01*
X121088229Y-102984229D01*
X124572300Y-99500158D01*
X124572300Y-105352453D01*
X124296428Y-105168121D01*
X123825000Y-105074348D01*
X123353572Y-105168121D01*
X122953915Y-105435163D01*
X122686873Y-105834820D01*
X122593100Y-106306248D01*
X122593100Y-107053752D01*
X122686873Y-107525180D01*
X122953915Y-107924837D01*
X123353572Y-108191879D01*
X123825000Y-108285652D01*
X124296428Y-108191879D01*
X124696085Y-107924837D01*
X124963127Y-107525180D01*
X125047053Y-107103256D01*
X125139297Y-107084907D01*
X125226873Y-107525180D01*
X125493915Y-107924837D01*
X125893572Y-108191879D01*
X126365000Y-108285652D01*
X126836428Y-108191879D01*
X127236085Y-107924837D01*
X127503127Y-107525180D01*
X127589197Y-107092477D01*
X128091840Y-107092477D01*
X128408259Y-107858270D01*
X128993648Y-108444682D01*
X129758888Y-108762437D01*
X130587477Y-108763160D01*
X131353270Y-108446741D01*
X131939682Y-107861352D01*
X132257437Y-107096112D01*
X132258160Y-106267523D01*
X131941741Y-105501730D01*
X131356352Y-104915318D01*
X130591112Y-104597563D01*
X129762523Y-104596840D01*
X128996730Y-104913259D01*
X128410318Y-105498648D01*
X128092563Y-106263888D01*
X128091840Y-107092477D01*
X127589197Y-107092477D01*
X127596900Y-107053752D01*
X127596900Y-106306248D01*
X127503127Y-105834820D01*
X127236085Y-105435163D01*
X126836428Y-105168121D01*
X126365000Y-105074348D01*
X125893572Y-105168121D01*
X125493915Y-105435163D01*
X125435900Y-105521989D01*
X125435900Y-99424058D01*
X133422529Y-91437429D01*
X133516131Y-91297343D01*
X133549000Y-91132100D01*
X133549000Y-89168304D01*
X143719965Y-89168304D01*
X143925787Y-89666430D01*
X144306566Y-90047874D01*
X144804331Y-90254564D01*
X145343304Y-90255035D01*
X145841430Y-90049213D01*
X146222874Y-89668434D01*
X146429564Y-89170669D01*
X146429566Y-89168304D01*
X150719965Y-89168304D01*
X150925787Y-89666430D01*
X151306566Y-90047874D01*
X151804331Y-90254564D01*
X152343304Y-90255035D01*
X152841430Y-90049213D01*
X153222874Y-89668434D01*
X153429564Y-89170669D01*
X153430035Y-88631696D01*
X153224213Y-88133570D01*
X152843434Y-87752126D01*
X152345669Y-87545436D01*
X151806696Y-87544965D01*
X151308570Y-87750787D01*
X150927126Y-88131566D01*
X150720436Y-88629331D01*
X150719965Y-89168304D01*
X146429566Y-89168304D01*
X146430035Y-88631696D01*
X146224213Y-88133570D01*
X145843434Y-87752126D01*
X145345669Y-87545436D01*
X144806696Y-87544965D01*
X144308570Y-87750787D01*
X143927126Y-88131566D01*
X143720436Y-88629331D01*
X143719965Y-89168304D01*
X133549000Y-89168304D01*
X133549000Y-86814500D01*
X133516131Y-86649257D01*
X133422529Y-86509171D01*
X132508129Y-85594771D01*
X132368043Y-85501169D01*
X132202800Y-85468300D01*
X129009500Y-85468300D01*
X128806799Y-85265244D01*
X128713539Y-85226519D01*
X129568105Y-84371952D01*
X129744301Y-84548456D01*
X130019601Y-84662770D01*
X130317691Y-84663030D01*
X130593190Y-84549196D01*
X130804156Y-84338599D01*
X130918470Y-84063299D01*
X130918730Y-83765209D01*
X130804896Y-83489710D01*
X130594299Y-83278744D01*
X130318999Y-83164430D01*
X130020909Y-83164170D01*
X129745410Y-83278004D01*
X129541257Y-83481800D01*
X129415805Y-83481800D01*
X129415800Y-83481799D01*
X129250558Y-83514668D01*
X129250556Y-83514669D01*
X129250557Y-83514669D01*
X129110471Y-83608271D01*
X129110469Y-83608274D01*
X127360971Y-85357771D01*
X127267369Y-85497857D01*
X127234500Y-85663100D01*
X127234500Y-86143700D01*
X127267369Y-86308943D01*
X127316652Y-86382700D01*
X127360971Y-86449029D01*
X127841371Y-86929429D01*
X127981457Y-87023031D01*
X128146700Y-87055900D01*
X128509862Y-87055900D01*
X128500400Y-87078743D01*
X128500400Y-88595200D01*
X128652800Y-88747600D01*
X130657600Y-88747600D01*
X130657600Y-88727600D01*
X130962400Y-88727600D01*
X130962400Y-88747600D01*
X130982400Y-88747600D01*
X130982400Y-89052400D01*
X130962400Y-89052400D01*
X130962400Y-91057200D01*
X131114800Y-91209600D01*
X131641543Y-91209600D01*
X120604042Y-102247100D01*
X113141600Y-102247100D01*
X112976357Y-102279969D01*
X112836271Y-102373571D01*
X112836269Y-102373574D01*
X109583696Y-105626146D01*
X109456085Y-105435163D01*
X109056428Y-105168121D01*
X108585000Y-105074348D01*
X108113572Y-105168121D01*
X107713915Y-105435163D01*
X107446873Y-105834820D01*
X107353100Y-106306248D01*
X107276900Y-106306248D01*
X107183127Y-105834820D01*
X106916085Y-105435163D01*
X106516428Y-105168121D01*
X106203568Y-105105889D01*
X108935357Y-102374100D01*
X112130900Y-102374100D01*
X112296143Y-102341231D01*
X112436229Y-102247629D01*
X125479058Y-89204800D01*
X128500400Y-89204800D01*
X128500400Y-90721257D01*
X128593206Y-90945311D01*
X128764689Y-91116794D01*
X128988743Y-91209600D01*
X130505200Y-91209600D01*
X130657600Y-91057200D01*
X130657600Y-89052400D01*
X128652800Y-89052400D01*
X128500400Y-89204800D01*
X125479058Y-89204800D01*
X126055778Y-88628080D01*
X126342691Y-88628330D01*
X126618190Y-88514496D01*
X126829156Y-88303899D01*
X126943470Y-88028599D01*
X126943730Y-87730509D01*
X126829896Y-87455010D01*
X126619299Y-87244044D01*
X126343999Y-87129730D01*
X126329089Y-87129717D01*
X126528756Y-86930399D01*
X126643070Y-86655099D01*
X126643330Y-86357009D01*
X126529496Y-86081510D01*
X126318899Y-85870544D01*
X126043599Y-85756230D01*
X125745509Y-85755970D01*
X125470010Y-85869804D01*
X125259044Y-86080401D01*
X125144730Y-86355701D01*
X125144478Y-86644165D01*
X116625771Y-95162871D01*
X116625771Y-93400000D01*
X116602115Y-93281073D01*
X116534748Y-93180252D01*
X116433927Y-93112885D01*
X116315000Y-93089229D01*
X109994800Y-93089229D01*
X109994800Y-88275000D01*
X109961931Y-88109757D01*
X109868329Y-87969671D01*
X109477429Y-87578771D01*
X109426834Y-87544965D01*
X109337343Y-87485169D01*
X109172100Y-87452300D01*
X108617457Y-87452300D01*
X107356880Y-86191722D01*
X107357130Y-85904809D01*
X107243296Y-85629310D01*
X107032699Y-85418344D01*
X106757399Y-85304030D01*
X106459309Y-85303770D01*
X106183810Y-85417604D01*
X105972844Y-85628201D01*
X105858530Y-85903501D01*
X105858270Y-86201591D01*
X105972104Y-86477090D01*
X106182701Y-86688056D01*
X106458001Y-86802370D01*
X106746464Y-86802622D01*
X108133269Y-88189426D01*
X108133271Y-88189429D01*
X108201609Y-88235091D01*
X108112330Y-88450101D01*
X108112078Y-88738564D01*
X104761671Y-92088971D01*
X104668069Y-92229057D01*
X104635200Y-92394300D01*
X104635200Y-93089229D01*
X98315000Y-93089229D01*
X98196073Y-93112885D01*
X98095252Y-93180252D01*
X98027885Y-93281073D01*
X98004229Y-93400000D01*
X98004229Y-96900000D01*
X98027885Y-97018927D01*
X98095252Y-97119748D01*
X98196073Y-97187115D01*
X98315000Y-97210771D01*
X104815000Y-97210771D01*
X104933927Y-97187115D01*
X105034748Y-97119748D01*
X105102115Y-97018927D01*
X105125771Y-96900000D01*
X105125771Y-95570110D01*
X105232243Y-95548931D01*
X105372329Y-95455329D01*
X105465931Y-95315243D01*
X105498800Y-95150000D01*
X105498800Y-92573158D01*
X108722977Y-89348980D01*
X109009891Y-89349230D01*
X109131200Y-89299106D01*
X109131200Y-95150000D01*
X109164069Y-95315243D01*
X109257671Y-95455329D01*
X109397757Y-95548931D01*
X109504229Y-95570110D01*
X109504229Y-96900000D01*
X109527885Y-97018927D01*
X109595252Y-97119748D01*
X109696073Y-97187115D01*
X109815000Y-97210771D01*
X110339471Y-97210771D01*
X101947834Y-105602408D01*
X101836085Y-105435163D01*
X101436428Y-105168121D01*
X100965000Y-105074348D01*
X100493572Y-105168121D01*
X100093915Y-105435163D01*
X99826873Y-105834820D01*
X99739297Y-106275093D01*
X99647053Y-106256744D01*
X99563127Y-105834820D01*
X99296085Y-105435163D01*
X98896428Y-105168121D01*
X98425000Y-105074348D01*
X97953572Y-105168121D01*
X97553915Y-105435163D01*
X97286873Y-105834820D01*
X97193100Y-106306248D01*
X97116900Y-106306248D01*
X97023127Y-105834820D01*
X96756085Y-105435163D01*
X96356428Y-105168121D01*
X95885000Y-105074348D01*
X95413572Y-105168121D01*
X95013915Y-105435163D01*
X94746873Y-105834820D01*
X94653100Y-106306248D01*
X94576900Y-106306248D01*
X94483127Y-105834820D01*
X94216085Y-105435163D01*
X93816428Y-105168121D01*
X93345000Y-105074348D01*
X92873572Y-105168121D01*
X92473915Y-105435163D01*
X92206873Y-105834820D01*
X92113100Y-106306248D01*
X92036900Y-106306248D01*
X91943127Y-105834820D01*
X91676085Y-105435163D01*
X91276428Y-105168121D01*
X90805000Y-105074348D01*
X90333572Y-105168121D01*
X89933915Y-105435163D01*
X89666873Y-105834820D01*
X89573100Y-106306248D01*
X89496900Y-106306248D01*
X89403127Y-105834820D01*
X89136085Y-105435163D01*
X88736428Y-105168121D01*
X88265000Y-105074348D01*
X87793572Y-105168121D01*
X87393915Y-105435163D01*
X87126873Y-105834820D01*
X87033100Y-106306248D01*
X86144100Y-106306248D01*
X86144100Y-102012477D01*
X87451840Y-102012477D01*
X87768259Y-102778270D01*
X88353648Y-103364682D01*
X89118888Y-103682437D01*
X89947477Y-103683160D01*
X90713270Y-103366741D01*
X91299682Y-102781352D01*
X91617437Y-102016112D01*
X91618160Y-101187523D01*
X91301741Y-100421730D01*
X90716352Y-99835318D01*
X89951112Y-99517563D01*
X89122523Y-99516840D01*
X88356730Y-99833259D01*
X87770318Y-100418648D01*
X87452563Y-101183888D01*
X87451840Y-102012477D01*
X86144100Y-102012477D01*
X86144100Y-80900000D01*
X98004229Y-80900000D01*
X98004229Y-84400000D01*
X98027885Y-84518927D01*
X98095252Y-84619748D01*
X98196073Y-84687115D01*
X98315000Y-84710771D01*
X102815000Y-84710771D01*
X102933927Y-84687115D01*
X103034748Y-84619748D01*
X103102115Y-84518927D01*
X103125771Y-84400000D01*
X103125771Y-80900000D01*
X111504229Y-80900000D01*
X111504229Y-84400000D01*
X111527885Y-84518927D01*
X111595252Y-84619748D01*
X111696073Y-84687115D01*
X111815000Y-84710771D01*
X116315000Y-84710771D01*
X116433927Y-84687115D01*
X116534748Y-84619748D01*
X116602115Y-84518927D01*
X116625771Y-84400000D01*
X116625771Y-80900000D01*
X116602115Y-80781073D01*
X116534748Y-80680252D01*
X116433927Y-80612885D01*
X116315000Y-80589229D01*
X111815000Y-80589229D01*
X111696073Y-80612885D01*
X111595252Y-80680252D01*
X111527885Y-80781073D01*
X111504229Y-80900000D01*
X103125771Y-80900000D01*
X103102115Y-80781073D01*
X103034748Y-80680252D01*
X102933927Y-80612885D01*
X102815000Y-80589229D01*
X98315000Y-80589229D01*
X98196073Y-80612885D01*
X98095252Y-80680252D01*
X98027885Y-80781073D01*
X98004229Y-80900000D01*
X86144100Y-80900000D01*
X86144100Y-76612477D01*
X87451840Y-76612477D01*
X87768259Y-77378270D01*
X88353648Y-77964682D01*
X89118888Y-78282437D01*
X89947477Y-78283160D01*
X90713270Y-77966741D01*
X91299682Y-77381352D01*
X91617437Y-76616112D01*
X91618160Y-75787523D01*
X91301741Y-75021730D01*
X90716352Y-74435318D01*
X89951112Y-74117563D01*
X89122523Y-74116840D01*
X88356730Y-74433259D01*
X87770318Y-75018648D01*
X87452563Y-75783888D01*
X87451840Y-76612477D01*
X86144100Y-76612477D01*
X86144100Y-69850000D01*
X87027129Y-69850000D01*
X87027129Y-72390000D01*
X87050785Y-72508927D01*
X87118152Y-72609748D01*
X87218973Y-72677115D01*
X87337900Y-72700771D01*
X89192100Y-72700771D01*
X89311027Y-72677115D01*
X89411848Y-72609748D01*
X89479215Y-72508927D01*
X89502871Y-72390000D01*
X89502871Y-72263898D01*
X89826152Y-72657274D01*
X90357730Y-72940947D01*
X90415269Y-72949357D01*
X90652600Y-72838785D01*
X90652600Y-71272400D01*
X90632600Y-71272400D01*
X90632600Y-70967600D01*
X90652600Y-70967600D01*
X90652600Y-69401215D01*
X90957400Y-69401215D01*
X90957400Y-70967600D01*
X90977400Y-70967600D01*
X90977400Y-71272400D01*
X90957400Y-71272400D01*
X90957400Y-72838785D01*
X91194731Y-72949357D01*
X91252270Y-72940947D01*
X91783848Y-72657274D01*
X92166405Y-72191769D01*
X92226414Y-71994425D01*
X92473915Y-72364837D01*
X92873572Y-72631879D01*
X93345000Y-72725652D01*
X93816428Y-72631879D01*
X94216085Y-72364837D01*
X94483127Y-71965180D01*
X94576900Y-71493752D01*
X94576900Y-70746248D01*
X94653100Y-70746248D01*
X94653100Y-71493752D01*
X94746873Y-71965180D01*
X95013915Y-72364837D01*
X95413572Y-72631879D01*
X95885000Y-72725652D01*
X96356428Y-72631879D01*
X96756085Y-72364837D01*
X97023127Y-71965180D01*
X97116900Y-71493752D01*
X97116900Y-70746248D01*
X97193100Y-70746248D01*
X97193100Y-71493752D01*
X97286873Y-71965180D01*
X97553915Y-72364837D01*
X97953572Y-72631879D01*
X98425000Y-72725652D01*
X98896428Y-72631879D01*
X99296085Y-72364837D01*
X99563127Y-71965180D01*
X99656900Y-71493752D01*
X99656900Y-70746248D01*
X99733100Y-70746248D01*
X99733100Y-71493752D01*
X99826873Y-71965180D01*
X100093915Y-72364837D01*
X100493572Y-72631879D01*
X100965000Y-72725652D01*
X101436428Y-72631879D01*
X101836085Y-72364837D01*
X102103127Y-71965180D01*
X102196900Y-71493752D01*
X102196900Y-70746248D01*
X102273100Y-70746248D01*
X102273100Y-71493752D01*
X102366873Y-71965180D01*
X102633915Y-72364837D01*
X103033572Y-72631879D01*
X103505000Y-72725652D01*
X103976428Y-72631879D01*
X104376085Y-72364837D01*
X104643127Y-71965180D01*
X104736900Y-71493752D01*
X104736900Y-70746248D01*
X104813100Y-70746248D01*
X104813100Y-71493752D01*
X104906873Y-71965180D01*
X105173915Y-72364837D01*
X105573572Y-72631879D01*
X106045000Y-72725652D01*
X106516428Y-72631879D01*
X106916085Y-72364837D01*
X107183127Y-71965180D01*
X107276900Y-71493752D01*
X107276900Y-70746248D01*
X107353100Y-70746248D01*
X107353100Y-71493752D01*
X107446873Y-71965180D01*
X107713915Y-72364837D01*
X108113572Y-72631879D01*
X108585000Y-72725652D01*
X109056428Y-72631879D01*
X109456085Y-72364837D01*
X109723127Y-71965180D01*
X109816900Y-71493752D01*
X109816900Y-70746248D01*
X109893100Y-70746248D01*
X109893100Y-71493752D01*
X109986873Y-71965180D01*
X110253915Y-72364837D01*
X110653572Y-72631879D01*
X111125000Y-72725652D01*
X111596428Y-72631879D01*
X111996085Y-72364837D01*
X112263127Y-71965180D01*
X112356900Y-71493752D01*
X112356900Y-70746248D01*
X112433100Y-70746248D01*
X112433100Y-71493752D01*
X112526873Y-71965180D01*
X112793915Y-72364837D01*
X113193572Y-72631879D01*
X113665000Y-72725652D01*
X114136428Y-72631879D01*
X114536085Y-72364837D01*
X114803127Y-71965180D01*
X114896900Y-71493752D01*
X114896900Y-70746248D01*
X114973100Y-70746248D01*
X114973100Y-71493752D01*
X115066873Y-71965180D01*
X115333915Y-72364837D01*
X115733572Y-72631879D01*
X116205000Y-72725652D01*
X116676428Y-72631879D01*
X117076085Y-72364837D01*
X117343127Y-71965180D01*
X117436900Y-71493752D01*
X117436900Y-70746248D01*
X117513100Y-70746248D01*
X117513100Y-71493752D01*
X117606873Y-71965180D01*
X117873915Y-72364837D01*
X118273572Y-72631879D01*
X118745000Y-72725652D01*
X119216428Y-72631879D01*
X119616085Y-72364837D01*
X119883127Y-71965180D01*
X119976900Y-71493752D01*
X119976900Y-70746248D01*
X120053100Y-70746248D01*
X120053100Y-71493752D01*
X120146873Y-71965180D01*
X120413915Y-72364837D01*
X120813572Y-72631879D01*
X121285000Y-72725652D01*
X121756428Y-72631879D01*
X122156085Y-72364837D01*
X122423127Y-71965180D01*
X122516900Y-71493752D01*
X122516900Y-70746248D01*
X122593100Y-70746248D01*
X122593100Y-71493752D01*
X122686873Y-71965180D01*
X122953915Y-72364837D01*
X123353572Y-72631879D01*
X123825000Y-72725652D01*
X124296428Y-72631879D01*
X124696085Y-72364837D01*
X124963127Y-71965180D01*
X125056900Y-71493752D01*
X125056900Y-70746248D01*
X125133100Y-70746248D01*
X125133100Y-71493752D01*
X125226873Y-71965180D01*
X125493915Y-72364837D01*
X125893572Y-72631879D01*
X126365000Y-72725652D01*
X126836428Y-72631879D01*
X127236085Y-72364837D01*
X127503127Y-71965180D01*
X127589197Y-71532477D01*
X128091840Y-71532477D01*
X128408259Y-72298270D01*
X128993648Y-72884682D01*
X129758888Y-73202437D01*
X130587477Y-73203160D01*
X131353270Y-72886741D01*
X131939682Y-72301352D01*
X132257437Y-71536112D01*
X132258160Y-70707523D01*
X131941741Y-69941730D01*
X131356352Y-69355318D01*
X130591112Y-69037563D01*
X129762523Y-69036840D01*
X128996730Y-69353259D01*
X128410318Y-69938648D01*
X128092563Y-70703888D01*
X128091840Y-71532477D01*
X127589197Y-71532477D01*
X127596900Y-71493752D01*
X127596900Y-70746248D01*
X127503127Y-70274820D01*
X127236085Y-69875163D01*
X126836428Y-69608121D01*
X126365000Y-69514348D01*
X125893572Y-69608121D01*
X125493915Y-69875163D01*
X125226873Y-70274820D01*
X125133100Y-70746248D01*
X125056900Y-70746248D01*
X124963127Y-70274820D01*
X124696085Y-69875163D01*
X124296428Y-69608121D01*
X123825000Y-69514348D01*
X123353572Y-69608121D01*
X122953915Y-69875163D01*
X122686873Y-70274820D01*
X122593100Y-70746248D01*
X122516900Y-70746248D01*
X122423127Y-70274820D01*
X122156085Y-69875163D01*
X121756428Y-69608121D01*
X121285000Y-69514348D01*
X120813572Y-69608121D01*
X120413915Y-69875163D01*
X120146873Y-70274820D01*
X120053100Y-70746248D01*
X119976900Y-70746248D01*
X119883127Y-70274820D01*
X119616085Y-69875163D01*
X119216428Y-69608121D01*
X118745000Y-69514348D01*
X118273572Y-69608121D01*
X117873915Y-69875163D01*
X117606873Y-70274820D01*
X117513100Y-70746248D01*
X117436900Y-70746248D01*
X117343127Y-70274820D01*
X117076085Y-69875163D01*
X116676428Y-69608121D01*
X116205000Y-69514348D01*
X115733572Y-69608121D01*
X115333915Y-69875163D01*
X115066873Y-70274820D01*
X114973100Y-70746248D01*
X114896900Y-70746248D01*
X114803127Y-70274820D01*
X114536085Y-69875163D01*
X114136428Y-69608121D01*
X113665000Y-69514348D01*
X113193572Y-69608121D01*
X112793915Y-69875163D01*
X112526873Y-70274820D01*
X112433100Y-70746248D01*
X112356900Y-70746248D01*
X112263127Y-70274820D01*
X111996085Y-69875163D01*
X111596428Y-69608121D01*
X111125000Y-69514348D01*
X110653572Y-69608121D01*
X110253915Y-69875163D01*
X109986873Y-70274820D01*
X109893100Y-70746248D01*
X109816900Y-70746248D01*
X109723127Y-70274820D01*
X109456085Y-69875163D01*
X109056428Y-69608121D01*
X108585000Y-69514348D01*
X108113572Y-69608121D01*
X107713915Y-69875163D01*
X107446873Y-70274820D01*
X107353100Y-70746248D01*
X107276900Y-70746248D01*
X107183127Y-70274820D01*
X106916085Y-69875163D01*
X106516428Y-69608121D01*
X106045000Y-69514348D01*
X105573572Y-69608121D01*
X105173915Y-69875163D01*
X104906873Y-70274820D01*
X104813100Y-70746248D01*
X104736900Y-70746248D01*
X104643127Y-70274820D01*
X104376085Y-69875163D01*
X103976428Y-69608121D01*
X103505000Y-69514348D01*
X103033572Y-69608121D01*
X102633915Y-69875163D01*
X102366873Y-70274820D01*
X102273100Y-70746248D01*
X102196900Y-70746248D01*
X102103127Y-70274820D01*
X101836085Y-69875163D01*
X101436428Y-69608121D01*
X100965000Y-69514348D01*
X100493572Y-69608121D01*
X100093915Y-69875163D01*
X99826873Y-70274820D01*
X99733100Y-70746248D01*
X99656900Y-70746248D01*
X99563127Y-70274820D01*
X99296085Y-69875163D01*
X98896428Y-69608121D01*
X98425000Y-69514348D01*
X97953572Y-69608121D01*
X97553915Y-69875163D01*
X97286873Y-70274820D01*
X97193100Y-70746248D01*
X97116900Y-70746248D01*
X97023127Y-70274820D01*
X96756085Y-69875163D01*
X96356428Y-69608121D01*
X95885000Y-69514348D01*
X95413572Y-69608121D01*
X95013915Y-69875163D01*
X94746873Y-70274820D01*
X94653100Y-70746248D01*
X94576900Y-70746248D01*
X94483127Y-70274820D01*
X94216085Y-69875163D01*
X93816428Y-69608121D01*
X93345000Y-69514348D01*
X92873572Y-69608121D01*
X92473915Y-69875163D01*
X92226414Y-70245575D01*
X92166405Y-70048231D01*
X91783848Y-69582726D01*
X91252270Y-69299053D01*
X91194731Y-69290643D01*
X90957400Y-69401215D01*
X90652600Y-69401215D01*
X90415269Y-69290643D01*
X90357730Y-69299053D01*
X89826152Y-69582726D01*
X89502871Y-69976102D01*
X89502871Y-69850000D01*
X89479215Y-69731073D01*
X89411848Y-69630252D01*
X89311027Y-69562885D01*
X89192100Y-69539229D01*
X87337900Y-69539229D01*
X87218973Y-69562885D01*
X87118152Y-69630252D01*
X87050785Y-69731073D01*
X87027129Y-69850000D01*
X86144100Y-69850000D01*
X86144100Y-68364100D01*
X155790900Y-68364100D01*
X155790900Y-109435900D01*
X155790900Y-109435900D01*
G37*
X155790900Y-109435900D02*
X86144100Y-109435900D01*
X86144100Y-106306248D01*
X87033100Y-106306248D01*
X87033100Y-107053752D01*
X87126873Y-107525180D01*
X87393915Y-107924837D01*
X87793572Y-108191879D01*
X88265000Y-108285652D01*
X88736428Y-108191879D01*
X89136085Y-107924837D01*
X89403127Y-107525180D01*
X89496900Y-107053752D01*
X89496900Y-106306248D01*
X89573100Y-106306248D01*
X89573100Y-107053752D01*
X89666873Y-107525180D01*
X89933915Y-107924837D01*
X90333572Y-108191879D01*
X90805000Y-108285652D01*
X91276428Y-108191879D01*
X91676085Y-107924837D01*
X91943127Y-107525180D01*
X92036900Y-107053752D01*
X92036900Y-106306248D01*
X92113100Y-106306248D01*
X92113100Y-107053752D01*
X92206873Y-107525180D01*
X92473915Y-107924837D01*
X92873572Y-108191879D01*
X93345000Y-108285652D01*
X93816428Y-108191879D01*
X94216085Y-107924837D01*
X94483127Y-107525180D01*
X94576900Y-107053752D01*
X94576900Y-106306248D01*
X94653100Y-106306248D01*
X94653100Y-107053752D01*
X94746873Y-107525180D01*
X95013915Y-107924837D01*
X95413572Y-108191879D01*
X95885000Y-108285652D01*
X96356428Y-108191879D01*
X96756085Y-107924837D01*
X97023127Y-107525180D01*
X97116900Y-107053752D01*
X97116900Y-106306248D01*
X97193100Y-106306248D01*
X97193100Y-107053752D01*
X97286873Y-107525180D01*
X97553915Y-107924837D01*
X97953572Y-108191879D01*
X98425000Y-108285652D01*
X98896428Y-108191879D01*
X99296085Y-107924837D01*
X99423696Y-107733854D01*
X100188869Y-108499026D01*
X100188871Y-108499029D01*
X100328957Y-108592631D01*
X100494200Y-108625500D01*
X103970800Y-108625500D01*
X104136043Y-108592631D01*
X104276129Y-108499029D01*
X104276130Y-108499028D01*
X105044301Y-107730856D01*
X105173915Y-107924837D01*
X105573572Y-108191879D01*
X106045000Y-108285652D01*
X106516428Y-108191879D01*
X106916085Y-107924837D01*
X107183127Y-107525180D01*
X107276900Y-107053752D01*
X107276900Y-106306248D01*
X107353100Y-106306248D01*
X107353100Y-107053752D01*
X107446873Y-107525180D01*
X107713915Y-107924837D01*
X108113572Y-108191879D01*
X108585000Y-108285652D01*
X109056428Y-108191879D01*
X109456085Y-107924837D01*
X109723127Y-107525180D01*
X109807053Y-107103256D01*
X109899297Y-107084907D01*
X109986873Y-107525180D01*
X110253915Y-107924837D01*
X110653572Y-108191879D01*
X111125000Y-108285652D01*
X111596428Y-108191879D01*
X111996085Y-107924837D01*
X112263127Y-107525180D01*
X112356900Y-107053752D01*
X112356900Y-106306248D01*
X112433100Y-106306248D01*
X112433100Y-107053752D01*
X112526873Y-107525180D01*
X112793915Y-107924837D01*
X113193572Y-108191879D01*
X113665000Y-108285652D01*
X114136428Y-108191879D01*
X114536085Y-107924837D01*
X114803127Y-107525180D01*
X114896900Y-107053752D01*
X114896900Y-106306248D01*
X114973100Y-106306248D01*
X114973100Y-107053752D01*
X115066873Y-107525180D01*
X115333915Y-107924837D01*
X115733572Y-108191879D01*
X116205000Y-108285652D01*
X116676428Y-108191879D01*
X117076085Y-107924837D01*
X117343127Y-107525180D01*
X117436900Y-107053752D01*
X117436900Y-106306248D01*
X117513100Y-106306248D01*
X117513100Y-107053752D01*
X117606873Y-107525180D01*
X117873915Y-107924837D01*
X118273572Y-108191879D01*
X118745000Y-108285652D01*
X119216428Y-108191879D01*
X119616085Y-107924837D01*
X119883127Y-107525180D01*
X119976900Y-107053752D01*
X119976900Y-106306248D01*
X120053100Y-106306248D01*
X120053100Y-107053752D01*
X120146873Y-107525180D01*
X120413915Y-107924837D01*
X120813572Y-108191879D01*
X121285000Y-108285652D01*
X121756428Y-108191879D01*
X122156085Y-107924837D01*
X122423127Y-107525180D01*
X122516900Y-107053752D01*
X122516900Y-106306248D01*
X122423127Y-105834820D01*
X122156085Y-105435163D01*
X121756428Y-105168121D01*
X121285000Y-105074348D01*
X120813572Y-105168121D01*
X120413915Y-105435163D01*
X120146873Y-105834820D01*
X120053100Y-106306248D01*
X119976900Y-106306248D01*
X119883127Y-105834820D01*
X119616085Y-105435163D01*
X119216428Y-105168121D01*
X118745000Y-105074348D01*
X118273572Y-105168121D01*
X117873915Y-105435163D01*
X117606873Y-105834820D01*
X117513100Y-106306248D01*
X117436900Y-106306248D01*
X117343127Y-105834820D01*
X117076085Y-105435163D01*
X116676428Y-105168121D01*
X116205000Y-105074348D01*
X115733572Y-105168121D01*
X115333915Y-105435163D01*
X115066873Y-105834820D01*
X114973100Y-106306248D01*
X114896900Y-106306248D01*
X114803127Y-105834820D01*
X114536085Y-105435163D01*
X114136428Y-105168121D01*
X113665000Y-105074348D01*
X113193572Y-105168121D01*
X112793915Y-105435163D01*
X112526873Y-105834820D01*
X112433100Y-106306248D01*
X112356900Y-106306248D01*
X112263127Y-105834820D01*
X111996085Y-105435163D01*
X111596428Y-105168121D01*
X111318350Y-105112808D01*
X113320457Y-103110700D01*
X120782900Y-103110700D01*
X120948143Y-103077831D01*
X121088229Y-102984229D01*
X124572300Y-99500158D01*
X124572300Y-105352453D01*
X124296428Y-105168121D01*
X123825000Y-105074348D01*
X123353572Y-105168121D01*
X122953915Y-105435163D01*
X122686873Y-105834820D01*
X122593100Y-106306248D01*
X122593100Y-107053752D01*
X122686873Y-107525180D01*
X122953915Y-107924837D01*
X123353572Y-108191879D01*
X123825000Y-108285652D01*
X124296428Y-108191879D01*
X124696085Y-107924837D01*
X124963127Y-107525180D01*
X125047053Y-107103256D01*
X125139297Y-107084907D01*
X125226873Y-107525180D01*
X125493915Y-107924837D01*
X125893572Y-108191879D01*
X126365000Y-108285652D01*
X126836428Y-108191879D01*
X127236085Y-107924837D01*
X127503127Y-107525180D01*
X127589197Y-107092477D01*
X128091840Y-107092477D01*
X128408259Y-107858270D01*
X128993648Y-108444682D01*
X129758888Y-108762437D01*
X130587477Y-108763160D01*
X131353270Y-108446741D01*
X131939682Y-107861352D01*
X132257437Y-107096112D01*
X132258160Y-106267523D01*
X131941741Y-105501730D01*
X131356352Y-104915318D01*
X130591112Y-104597563D01*
X129762523Y-104596840D01*
X128996730Y-104913259D01*
X128410318Y-105498648D01*
X128092563Y-106263888D01*
X128091840Y-107092477D01*
X127589197Y-107092477D01*
X127596900Y-107053752D01*
X127596900Y-106306248D01*
X127503127Y-105834820D01*
X127236085Y-105435163D01*
X126836428Y-105168121D01*
X126365000Y-105074348D01*
X125893572Y-105168121D01*
X125493915Y-105435163D01*
X125435900Y-105521989D01*
X125435900Y-99424058D01*
X133422529Y-91437429D01*
X133516131Y-91297343D01*
X133549000Y-91132100D01*
X133549000Y-89168304D01*
X143719965Y-89168304D01*
X143925787Y-89666430D01*
X144306566Y-90047874D01*
X144804331Y-90254564D01*
X145343304Y-90255035D01*
X145841430Y-90049213D01*
X146222874Y-89668434D01*
X146429564Y-89170669D01*
X146429566Y-89168304D01*
X150719965Y-89168304D01*
X150925787Y-89666430D01*
X151306566Y-90047874D01*
X151804331Y-90254564D01*
X152343304Y-90255035D01*
X152841430Y-90049213D01*
X153222874Y-89668434D01*
X153429564Y-89170669D01*
X153430035Y-88631696D01*
X153224213Y-88133570D01*
X152843434Y-87752126D01*
X152345669Y-87545436D01*
X151806696Y-87544965D01*
X151308570Y-87750787D01*
X150927126Y-88131566D01*
X150720436Y-88629331D01*
X150719965Y-89168304D01*
X146429566Y-89168304D01*
X146430035Y-88631696D01*
X146224213Y-88133570D01*
X145843434Y-87752126D01*
X145345669Y-87545436D01*
X144806696Y-87544965D01*
X144308570Y-87750787D01*
X143927126Y-88131566D01*
X143720436Y-88629331D01*
X143719965Y-89168304D01*
X133549000Y-89168304D01*
X133549000Y-86814500D01*
X133516131Y-86649257D01*
X133422529Y-86509171D01*
X132508129Y-85594771D01*
X132368043Y-85501169D01*
X132202800Y-85468300D01*
X129009500Y-85468300D01*
X128806799Y-85265244D01*
X128713539Y-85226519D01*
X129568105Y-84371952D01*
X129744301Y-84548456D01*
X130019601Y-84662770D01*
X130317691Y-84663030D01*
X130593190Y-84549196D01*
X130804156Y-84338599D01*
X130918470Y-84063299D01*
X130918730Y-83765209D01*
X130804896Y-83489710D01*
X130594299Y-83278744D01*
X130318999Y-83164430D01*
X130020909Y-83164170D01*
X129745410Y-83278004D01*
X129541257Y-83481800D01*
X129415805Y-83481800D01*
X129415800Y-83481799D01*
X129250558Y-83514668D01*
X129250556Y-83514669D01*
X129250557Y-83514669D01*
X129110471Y-83608271D01*
X129110469Y-83608274D01*
X127360971Y-85357771D01*
X127267369Y-85497857D01*
X127234500Y-85663100D01*
X127234500Y-86143700D01*
X127267369Y-86308943D01*
X127316652Y-86382700D01*
X127360971Y-86449029D01*
X127841371Y-86929429D01*
X127981457Y-87023031D01*
X128146700Y-87055900D01*
X128509862Y-87055900D01*
X128500400Y-87078743D01*
X128500400Y-88595200D01*
X128652800Y-88747600D01*
X130657600Y-88747600D01*
X130657600Y-88727600D01*
X130962400Y-88727600D01*
X130962400Y-88747600D01*
X130982400Y-88747600D01*
X130982400Y-89052400D01*
X130962400Y-89052400D01*
X130962400Y-91057200D01*
X131114800Y-91209600D01*
X131641543Y-91209600D01*
X120604042Y-102247100D01*
X113141600Y-102247100D01*
X112976357Y-102279969D01*
X112836271Y-102373571D01*
X112836269Y-102373574D01*
X109583696Y-105626146D01*
X109456085Y-105435163D01*
X109056428Y-105168121D01*
X108585000Y-105074348D01*
X108113572Y-105168121D01*
X107713915Y-105435163D01*
X107446873Y-105834820D01*
X107353100Y-106306248D01*
X107276900Y-106306248D01*
X107183127Y-105834820D01*
X106916085Y-105435163D01*
X106516428Y-105168121D01*
X106203568Y-105105889D01*
X108935357Y-102374100D01*
X112130900Y-102374100D01*
X112296143Y-102341231D01*
X112436229Y-102247629D01*
X125479058Y-89204800D01*
X128500400Y-89204800D01*
X128500400Y-90721257D01*
X128593206Y-90945311D01*
X128764689Y-91116794D01*
X128988743Y-91209600D01*
X130505200Y-91209600D01*
X130657600Y-91057200D01*
X130657600Y-89052400D01*
X128652800Y-89052400D01*
X128500400Y-89204800D01*
X125479058Y-89204800D01*
X126055778Y-88628080D01*
X126342691Y-88628330D01*
X126618190Y-88514496D01*
X126829156Y-88303899D01*
X126943470Y-88028599D01*
X126943730Y-87730509D01*
X126829896Y-87455010D01*
X126619299Y-87244044D01*
X126343999Y-87129730D01*
X126329089Y-87129717D01*
X126528756Y-86930399D01*
X126643070Y-86655099D01*
X126643330Y-86357009D01*
X126529496Y-86081510D01*
X126318899Y-85870544D01*
X126043599Y-85756230D01*
X125745509Y-85755970D01*
X125470010Y-85869804D01*
X125259044Y-86080401D01*
X125144730Y-86355701D01*
X125144478Y-86644165D01*
X116625771Y-95162871D01*
X116625771Y-93400000D01*
X116602115Y-93281073D01*
X116534748Y-93180252D01*
X116433927Y-93112885D01*
X116315000Y-93089229D01*
X109994800Y-93089229D01*
X109994800Y-88275000D01*
X109961931Y-88109757D01*
X109868329Y-87969671D01*
X109477429Y-87578771D01*
X109426834Y-87544965D01*
X109337343Y-87485169D01*
X109172100Y-87452300D01*
X108617457Y-87452300D01*
X107356880Y-86191722D01*
X107357130Y-85904809D01*
X107243296Y-85629310D01*
X107032699Y-85418344D01*
X106757399Y-85304030D01*
X106459309Y-85303770D01*
X106183810Y-85417604D01*
X105972844Y-85628201D01*
X105858530Y-85903501D01*
X105858270Y-86201591D01*
X105972104Y-86477090D01*
X106182701Y-86688056D01*
X106458001Y-86802370D01*
X106746464Y-86802622D01*
X108133269Y-88189426D01*
X108133271Y-88189429D01*
X108201609Y-88235091D01*
X108112330Y-88450101D01*
X108112078Y-88738564D01*
X104761671Y-92088971D01*
X104668069Y-92229057D01*
X104635200Y-92394300D01*
X104635200Y-93089229D01*
X98315000Y-93089229D01*
X98196073Y-93112885D01*
X98095252Y-93180252D01*
X98027885Y-93281073D01*
X98004229Y-93400000D01*
X98004229Y-96900000D01*
X98027885Y-97018927D01*
X98095252Y-97119748D01*
X98196073Y-97187115D01*
X98315000Y-97210771D01*
X104815000Y-97210771D01*
X104933927Y-97187115D01*
X105034748Y-97119748D01*
X105102115Y-97018927D01*
X105125771Y-96900000D01*
X105125771Y-95570110D01*
X105232243Y-95548931D01*
X105372329Y-95455329D01*
X105465931Y-95315243D01*
X105498800Y-95150000D01*
X105498800Y-92573158D01*
X108722977Y-89348980D01*
X109009891Y-89349230D01*
X109131200Y-89299106D01*
X109131200Y-95150000D01*
X109164069Y-95315243D01*
X109257671Y-95455329D01*
X109397757Y-95548931D01*
X109504229Y-95570110D01*
X109504229Y-96900000D01*
X109527885Y-97018927D01*
X109595252Y-97119748D01*
X109696073Y-97187115D01*
X109815000Y-97210771D01*
X110339471Y-97210771D01*
X101947834Y-105602408D01*
X101836085Y-105435163D01*
X101436428Y-105168121D01*
X100965000Y-105074348D01*
X100493572Y-105168121D01*
X100093915Y-105435163D01*
X99826873Y-105834820D01*
X99739297Y-106275093D01*
X99647053Y-106256744D01*
X99563127Y-105834820D01*
X99296085Y-105435163D01*
X98896428Y-105168121D01*
X98425000Y-105074348D01*
X97953572Y-105168121D01*
X97553915Y-105435163D01*
X97286873Y-105834820D01*
X97193100Y-106306248D01*
X97116900Y-106306248D01*
X97023127Y-105834820D01*
X96756085Y-105435163D01*
X96356428Y-105168121D01*
X95885000Y-105074348D01*
X95413572Y-105168121D01*
X95013915Y-105435163D01*
X94746873Y-105834820D01*
X94653100Y-106306248D01*
X94576900Y-106306248D01*
X94483127Y-105834820D01*
X94216085Y-105435163D01*
X93816428Y-105168121D01*
X93345000Y-105074348D01*
X92873572Y-105168121D01*
X92473915Y-105435163D01*
X92206873Y-105834820D01*
X92113100Y-106306248D01*
X92036900Y-106306248D01*
X91943127Y-105834820D01*
X91676085Y-105435163D01*
X91276428Y-105168121D01*
X90805000Y-105074348D01*
X90333572Y-105168121D01*
X89933915Y-105435163D01*
X89666873Y-105834820D01*
X89573100Y-106306248D01*
X89496900Y-106306248D01*
X89403127Y-105834820D01*
X89136085Y-105435163D01*
X88736428Y-105168121D01*
X88265000Y-105074348D01*
X87793572Y-105168121D01*
X87393915Y-105435163D01*
X87126873Y-105834820D01*
X87033100Y-106306248D01*
X86144100Y-106306248D01*
X86144100Y-102012477D01*
X87451840Y-102012477D01*
X87768259Y-102778270D01*
X88353648Y-103364682D01*
X89118888Y-103682437D01*
X89947477Y-103683160D01*
X90713270Y-103366741D01*
X91299682Y-102781352D01*
X91617437Y-102016112D01*
X91618160Y-101187523D01*
X91301741Y-100421730D01*
X90716352Y-99835318D01*
X89951112Y-99517563D01*
X89122523Y-99516840D01*
X88356730Y-99833259D01*
X87770318Y-100418648D01*
X87452563Y-101183888D01*
X87451840Y-102012477D01*
X86144100Y-102012477D01*
X86144100Y-80900000D01*
X98004229Y-80900000D01*
X98004229Y-84400000D01*
X98027885Y-84518927D01*
X98095252Y-84619748D01*
X98196073Y-84687115D01*
X98315000Y-84710771D01*
X102815000Y-84710771D01*
X102933927Y-84687115D01*
X103034748Y-84619748D01*
X103102115Y-84518927D01*
X103125771Y-84400000D01*
X103125771Y-80900000D01*
X111504229Y-80900000D01*
X111504229Y-84400000D01*
X111527885Y-84518927D01*
X111595252Y-84619748D01*
X111696073Y-84687115D01*
X111815000Y-84710771D01*
X116315000Y-84710771D01*
X116433927Y-84687115D01*
X116534748Y-84619748D01*
X116602115Y-84518927D01*
X116625771Y-84400000D01*
X116625771Y-80900000D01*
X116602115Y-80781073D01*
X116534748Y-80680252D01*
X116433927Y-80612885D01*
X116315000Y-80589229D01*
X111815000Y-80589229D01*
X111696073Y-80612885D01*
X111595252Y-80680252D01*
X111527885Y-80781073D01*
X111504229Y-80900000D01*
X103125771Y-80900000D01*
X103102115Y-80781073D01*
X103034748Y-80680252D01*
X102933927Y-80612885D01*
X102815000Y-80589229D01*
X98315000Y-80589229D01*
X98196073Y-80612885D01*
X98095252Y-80680252D01*
X98027885Y-80781073D01*
X98004229Y-80900000D01*
X86144100Y-80900000D01*
X86144100Y-76612477D01*
X87451840Y-76612477D01*
X87768259Y-77378270D01*
X88353648Y-77964682D01*
X89118888Y-78282437D01*
X89947477Y-78283160D01*
X90713270Y-77966741D01*
X91299682Y-77381352D01*
X91617437Y-76616112D01*
X91618160Y-75787523D01*
X91301741Y-75021730D01*
X90716352Y-74435318D01*
X89951112Y-74117563D01*
X89122523Y-74116840D01*
X88356730Y-74433259D01*
X87770318Y-75018648D01*
X87452563Y-75783888D01*
X87451840Y-76612477D01*
X86144100Y-76612477D01*
X86144100Y-69850000D01*
X87027129Y-69850000D01*
X87027129Y-72390000D01*
X87050785Y-72508927D01*
X87118152Y-72609748D01*
X87218973Y-72677115D01*
X87337900Y-72700771D01*
X89192100Y-72700771D01*
X89311027Y-72677115D01*
X89411848Y-72609748D01*
X89479215Y-72508927D01*
X89502871Y-72390000D01*
X89502871Y-72263898D01*
X89826152Y-72657274D01*
X90357730Y-72940947D01*
X90415269Y-72949357D01*
X90652600Y-72838785D01*
X90652600Y-71272400D01*
X90632600Y-71272400D01*
X90632600Y-70967600D01*
X90652600Y-70967600D01*
X90652600Y-69401215D01*
X90957400Y-69401215D01*
X90957400Y-70967600D01*
X90977400Y-70967600D01*
X90977400Y-71272400D01*
X90957400Y-71272400D01*
X90957400Y-72838785D01*
X91194731Y-72949357D01*
X91252270Y-72940947D01*
X91783848Y-72657274D01*
X92166405Y-72191769D01*
X92226414Y-71994425D01*
X92473915Y-72364837D01*
X92873572Y-72631879D01*
X93345000Y-72725652D01*
X93816428Y-72631879D01*
X94216085Y-72364837D01*
X94483127Y-71965180D01*
X94576900Y-71493752D01*
X94576900Y-70746248D01*
X94653100Y-70746248D01*
X94653100Y-71493752D01*
X94746873Y-71965180D01*
X95013915Y-72364837D01*
X95413572Y-72631879D01*
X95885000Y-72725652D01*
X96356428Y-72631879D01*
X96756085Y-72364837D01*
X97023127Y-71965180D01*
X97116900Y-71493752D01*
X97116900Y-70746248D01*
X97193100Y-70746248D01*
X97193100Y-71493752D01*
X97286873Y-71965180D01*
X97553915Y-72364837D01*
X97953572Y-72631879D01*
X98425000Y-72725652D01*
X98896428Y-72631879D01*
X99296085Y-72364837D01*
X99563127Y-71965180D01*
X99656900Y-71493752D01*
X99656900Y-70746248D01*
X99733100Y-70746248D01*
X99733100Y-71493752D01*
X99826873Y-71965180D01*
X100093915Y-72364837D01*
X100493572Y-72631879D01*
X100965000Y-72725652D01*
X101436428Y-72631879D01*
X101836085Y-72364837D01*
X102103127Y-71965180D01*
X102196900Y-71493752D01*
X102196900Y-70746248D01*
X102273100Y-70746248D01*
X102273100Y-71493752D01*
X102366873Y-71965180D01*
X102633915Y-72364837D01*
X103033572Y-72631879D01*
X103505000Y-72725652D01*
X103976428Y-72631879D01*
X104376085Y-72364837D01*
X104643127Y-71965180D01*
X104736900Y-71493752D01*
X104736900Y-70746248D01*
X104813100Y-70746248D01*
X104813100Y-71493752D01*
X104906873Y-71965180D01*
X105173915Y-72364837D01*
X105573572Y-72631879D01*
X106045000Y-72725652D01*
X106516428Y-72631879D01*
X106916085Y-72364837D01*
X107183127Y-71965180D01*
X107276900Y-71493752D01*
X107276900Y-70746248D01*
X107353100Y-70746248D01*
X107353100Y-71493752D01*
X107446873Y-71965180D01*
X107713915Y-72364837D01*
X108113572Y-72631879D01*
X108585000Y-72725652D01*
X109056428Y-72631879D01*
X109456085Y-72364837D01*
X109723127Y-71965180D01*
X109816900Y-71493752D01*
X109816900Y-70746248D01*
X109893100Y-70746248D01*
X109893100Y-71493752D01*
X109986873Y-71965180D01*
X110253915Y-72364837D01*
X110653572Y-72631879D01*
X111125000Y-72725652D01*
X111596428Y-72631879D01*
X111996085Y-72364837D01*
X112263127Y-71965180D01*
X112356900Y-71493752D01*
X112356900Y-70746248D01*
X112433100Y-70746248D01*
X112433100Y-71493752D01*
X112526873Y-71965180D01*
X112793915Y-72364837D01*
X113193572Y-72631879D01*
X113665000Y-72725652D01*
X114136428Y-72631879D01*
X114536085Y-72364837D01*
X114803127Y-71965180D01*
X114896900Y-71493752D01*
X114896900Y-70746248D01*
X114973100Y-70746248D01*
X114973100Y-71493752D01*
X115066873Y-71965180D01*
X115333915Y-72364837D01*
X115733572Y-72631879D01*
X116205000Y-72725652D01*
X116676428Y-72631879D01*
X117076085Y-72364837D01*
X117343127Y-71965180D01*
X117436900Y-71493752D01*
X117436900Y-70746248D01*
X117513100Y-70746248D01*
X117513100Y-71493752D01*
X117606873Y-71965180D01*
X117873915Y-72364837D01*
X118273572Y-72631879D01*
X118745000Y-72725652D01*
X119216428Y-72631879D01*
X119616085Y-72364837D01*
X119883127Y-71965180D01*
X119976900Y-71493752D01*
X119976900Y-70746248D01*
X120053100Y-70746248D01*
X120053100Y-71493752D01*
X120146873Y-71965180D01*
X120413915Y-72364837D01*
X120813572Y-72631879D01*
X121285000Y-72725652D01*
X121756428Y-72631879D01*
X122156085Y-72364837D01*
X122423127Y-71965180D01*
X122516900Y-71493752D01*
X122516900Y-70746248D01*
X122593100Y-70746248D01*
X122593100Y-71493752D01*
X122686873Y-71965180D01*
X122953915Y-72364837D01*
X123353572Y-72631879D01*
X123825000Y-72725652D01*
X124296428Y-72631879D01*
X124696085Y-72364837D01*
X124963127Y-71965180D01*
X125056900Y-71493752D01*
X125056900Y-70746248D01*
X125133100Y-70746248D01*
X125133100Y-71493752D01*
X125226873Y-71965180D01*
X125493915Y-72364837D01*
X125893572Y-72631879D01*
X126365000Y-72725652D01*
X126836428Y-72631879D01*
X127236085Y-72364837D01*
X127503127Y-71965180D01*
X127589197Y-71532477D01*
X128091840Y-71532477D01*
X128408259Y-72298270D01*
X128993648Y-72884682D01*
X129758888Y-73202437D01*
X130587477Y-73203160D01*
X131353270Y-72886741D01*
X131939682Y-72301352D01*
X132257437Y-71536112D01*
X132258160Y-70707523D01*
X131941741Y-69941730D01*
X131356352Y-69355318D01*
X130591112Y-69037563D01*
X129762523Y-69036840D01*
X128996730Y-69353259D01*
X128410318Y-69938648D01*
X128092563Y-70703888D01*
X128091840Y-71532477D01*
X127589197Y-71532477D01*
X127596900Y-71493752D01*
X127596900Y-70746248D01*
X127503127Y-70274820D01*
X127236085Y-69875163D01*
X126836428Y-69608121D01*
X126365000Y-69514348D01*
X125893572Y-69608121D01*
X125493915Y-69875163D01*
X125226873Y-70274820D01*
X125133100Y-70746248D01*
X125056900Y-70746248D01*
X124963127Y-70274820D01*
X124696085Y-69875163D01*
X124296428Y-69608121D01*
X123825000Y-69514348D01*
X123353572Y-69608121D01*
X122953915Y-69875163D01*
X122686873Y-70274820D01*
X122593100Y-70746248D01*
X122516900Y-70746248D01*
X122423127Y-70274820D01*
X122156085Y-69875163D01*
X121756428Y-69608121D01*
X121285000Y-69514348D01*
X120813572Y-69608121D01*
X120413915Y-69875163D01*
X120146873Y-70274820D01*
X120053100Y-70746248D01*
X119976900Y-70746248D01*
X119883127Y-70274820D01*
X119616085Y-69875163D01*
X119216428Y-69608121D01*
X118745000Y-69514348D01*
X118273572Y-69608121D01*
X117873915Y-69875163D01*
X117606873Y-70274820D01*
X117513100Y-70746248D01*
X117436900Y-70746248D01*
X117343127Y-70274820D01*
X117076085Y-69875163D01*
X116676428Y-69608121D01*
X116205000Y-69514348D01*
X115733572Y-69608121D01*
X115333915Y-69875163D01*
X115066873Y-70274820D01*
X114973100Y-70746248D01*
X114896900Y-70746248D01*
X114803127Y-70274820D01*
X114536085Y-69875163D01*
X114136428Y-69608121D01*
X113665000Y-69514348D01*
X113193572Y-69608121D01*
X112793915Y-69875163D01*
X112526873Y-70274820D01*
X112433100Y-70746248D01*
X112356900Y-70746248D01*
X112263127Y-70274820D01*
X111996085Y-69875163D01*
X111596428Y-69608121D01*
X111125000Y-69514348D01*
X110653572Y-69608121D01*
X110253915Y-69875163D01*
X109986873Y-70274820D01*
X109893100Y-70746248D01*
X109816900Y-70746248D01*
X109723127Y-70274820D01*
X109456085Y-69875163D01*
X109056428Y-69608121D01*
X108585000Y-69514348D01*
X108113572Y-69608121D01*
X107713915Y-69875163D01*
X107446873Y-70274820D01*
X107353100Y-70746248D01*
X107276900Y-70746248D01*
X107183127Y-70274820D01*
X106916085Y-69875163D01*
X106516428Y-69608121D01*
X106045000Y-69514348D01*
X105573572Y-69608121D01*
X105173915Y-69875163D01*
X104906873Y-70274820D01*
X104813100Y-70746248D01*
X104736900Y-70746248D01*
X104643127Y-70274820D01*
X104376085Y-69875163D01*
X103976428Y-69608121D01*
X103505000Y-69514348D01*
X103033572Y-69608121D01*
X102633915Y-69875163D01*
X102366873Y-70274820D01*
X102273100Y-70746248D01*
X102196900Y-70746248D01*
X102103127Y-70274820D01*
X101836085Y-69875163D01*
X101436428Y-69608121D01*
X100965000Y-69514348D01*
X100493572Y-69608121D01*
X100093915Y-69875163D01*
X99826873Y-70274820D01*
X99733100Y-70746248D01*
X99656900Y-70746248D01*
X99563127Y-70274820D01*
X99296085Y-69875163D01*
X98896428Y-69608121D01*
X98425000Y-69514348D01*
X97953572Y-69608121D01*
X97553915Y-69875163D01*
X97286873Y-70274820D01*
X97193100Y-70746248D01*
X97116900Y-70746248D01*
X97023127Y-70274820D01*
X96756085Y-69875163D01*
X96356428Y-69608121D01*
X95885000Y-69514348D01*
X95413572Y-69608121D01*
X95013915Y-69875163D01*
X94746873Y-70274820D01*
X94653100Y-70746248D01*
X94576900Y-70746248D01*
X94483127Y-70274820D01*
X94216085Y-69875163D01*
X93816428Y-69608121D01*
X93345000Y-69514348D01*
X92873572Y-69608121D01*
X92473915Y-69875163D01*
X92226414Y-70245575D01*
X92166405Y-70048231D01*
X91783848Y-69582726D01*
X91252270Y-69299053D01*
X91194731Y-69290643D01*
X90957400Y-69401215D01*
X90652600Y-69401215D01*
X90415269Y-69290643D01*
X90357730Y-69299053D01*
X89826152Y-69582726D01*
X89502871Y-69976102D01*
X89502871Y-69850000D01*
X89479215Y-69731073D01*
X89411848Y-69630252D01*
X89311027Y-69562885D01*
X89192100Y-69539229D01*
X87337900Y-69539229D01*
X87218973Y-69562885D01*
X87118152Y-69630252D01*
X87050785Y-69731073D01*
X87027129Y-69850000D01*
X86144100Y-69850000D01*
X86144100Y-68364100D01*
X155790900Y-68364100D01*
X155790900Y-109435900D01*
%TD*%
M02*
