M48
;DRILL file {KiCad no-vcs-found-72d4889~60~ubuntu16.04.1} date Thu Oct 19 13:37:10 2017
;FORMAT={-:-/ absolute / inch / decimal}
FMAT,2
INCH,TZ
T1C0.025
T2C0.043
T3C0.067
T4C0.079
T5C0.130
%
G90
G05
M72
T1
X4.1518Y-3.5371
X4.1896Y-3.3875
X4.2919Y-3.5892
X4.4545Y-3.9742
X5.1709Y-3.4787
X5.2151Y-3.4045
X5.35Y-3.694
T2
X3.475Y-2.8
X3.475Y-4.2
X3.575Y-2.8
X3.575Y-4.2
X3.675Y-2.8
X3.675Y-4.2
X3.775Y-2.8
X3.775Y-4.2
X3.875Y-2.8
X3.875Y-4.2
X3.975Y-2.8
X3.975Y-4.2
X4.075Y-2.8
X4.075Y-4.2
X4.175Y-2.8
X4.175Y-4.2
X4.275Y-2.8
X4.275Y-4.2
X4.375Y-2.8
X4.375Y-4.2
X4.475Y-2.8
X4.475Y-4.2
X4.575Y-2.8
X4.575Y-4.2
X4.675Y-2.8
X4.675Y-4.2
X4.775Y-2.8
X4.775Y-4.2
X4.875Y-2.8
X4.875Y-4.2
X4.975Y-2.8
X4.975Y-4.2
T3
X5.7116Y-3.5
X5.9872Y-3.5
T4
X5.35Y-3.5
T5
X3.525Y-3.
X3.525Y-4.
X5.125Y-2.8
X5.125Y-4.2
T0
M30
