%TF.GenerationSoftware,KiCad,Pcbnew,no-vcs-found-33cc7b3~60~ubuntu16.04.1*%
%TF.CreationDate,2017-09-14T13:01:55-04:00*%
%TF.ProjectId,audio_controller_3x2,617564696F5F636F6E74726F6C6C6572,1.1*%
%TF.SameCoordinates,Original*%
%TF.FileFunction,Legend,Bot*%
%TF.FilePolarity,Positive*%
%FSLAX46Y46*%
G04 Gerber Fmt 4.6, Leading zero omitted, Abs format (unit mm)*
G04 Created by KiCad (PCBNEW no-vcs-found-33cc7b3~60~ubuntu16.04.1) date Thu Sep 14 13:01:55 2017*
%MOMM*%
%LPD*%
G01*
G04 APERTURE LIST*
%ADD10C,0.228600*%
%ADD11C,0.381000*%
%ADD12C,0.250000*%
%ADD13C,0.127000*%
%ADD14C,0.150000*%
%ADD15C,0.254000*%
%ADD16R,0.350000X1.300000*%
%ADD17R,2.100000X1.700000*%
%ADD18C,3.556000*%
%ADD19O,1.854200X2.540000*%
%ADD20R,1.854200X2.540000*%
%ADD21R,3.475000X3.475000*%
%ADD22R,0.325000X2.075000*%
%ADD23R,2.075000X0.325000*%
%ADD24R,2.540000X1.270000*%
%ADD25C,2.100000*%
%ADD26R,2.800000X2.800000*%
%ADD27R,2.200000X2.800000*%
%ADD28R,0.701040X1.000760*%
G04 APERTURE END LIST*
D10*
X156210000Y-67945000D02*
X85725000Y-67945000D01*
X156210000Y-109855000D02*
X156210000Y-67945000D01*
X85725000Y-109855000D02*
X156210000Y-109855000D01*
X85725000Y-67945000D02*
X85725000Y-109855000D01*
%TO.C,U3*%
X108315000Y-90400000D02*
X108815000Y-89900000D01*
X105815000Y-90400000D02*
X108315000Y-90400000D01*
X108815000Y-87400000D02*
X108815000Y-89900000D01*
X109038607Y-90400000D02*
G75*
G03X109038607Y-90400000I-223607J0D01*
G01*
X105815000Y-90400000D02*
X105815000Y-87400000D01*
X105815000Y-87400000D02*
X108815000Y-87400000D01*
D11*
%TO.C,MDB1*%
X127635000Y-69850000D02*
X86995000Y-69850000D01*
X127635000Y-72390000D02*
X127635000Y-69850000D01*
X86995000Y-72390000D02*
X127635000Y-72390000D01*
X86995000Y-69850000D02*
X86995000Y-72390000D01*
X127635000Y-105410000D02*
X86995000Y-105410000D01*
X127635000Y-107950000D02*
X127635000Y-105410000D01*
X86995000Y-107950000D02*
X127635000Y-107950000D01*
X86995000Y-105410000D02*
X86995000Y-107950000D01*
D12*
%TO.C,U1*%
X133560000Y-86400000D02*
G75*
G03X133560000Y-86400000I-250000J0D01*
G01*
X128310000Y-86400000D02*
X128310000Y-86900000D01*
X128810000Y-86400000D02*
X128310000Y-86400000D01*
X128310000Y-91400000D02*
X128810000Y-91400000D01*
X128310000Y-90900000D02*
X128310000Y-91400000D01*
X133310000Y-91400000D02*
X132810000Y-91400000D01*
X133310000Y-90900000D02*
X133310000Y-91400000D01*
X132810000Y-86400000D02*
X133310000Y-86900000D01*
D13*
%TO.C,C1*%
X132207000Y-96774000D02*
X132207000Y-98298000D01*
X129413000Y-96774000D02*
X132207000Y-96774000D01*
X129413000Y-98298000D02*
X129413000Y-96774000D01*
X129413000Y-101346000D02*
X129413000Y-99822000D01*
X132207000Y-101346000D02*
X129413000Y-101346000D01*
X132207000Y-99822000D02*
X132207000Y-101346000D01*
%TO.C,C2*%
X144653000Y-98298000D02*
X144653000Y-96774000D01*
X144653000Y-96774000D02*
X147447000Y-96774000D01*
X147447000Y-96774000D02*
X147447000Y-98298000D01*
X147447000Y-99822000D02*
X147447000Y-101346000D01*
X147447000Y-101346000D02*
X144653000Y-101346000D01*
X144653000Y-101346000D02*
X144653000Y-99822000D01*
%TO.C,C3*%
X139573000Y-101346000D02*
X139573000Y-99822000D01*
X142367000Y-101346000D02*
X139573000Y-101346000D01*
X142367000Y-99822000D02*
X142367000Y-101346000D01*
X142367000Y-96774000D02*
X142367000Y-98298000D01*
X139573000Y-96774000D02*
X142367000Y-96774000D01*
X139573000Y-98298000D02*
X139573000Y-96774000D01*
%TO.C,C4*%
X127127000Y-99822000D02*
X127127000Y-101346000D01*
X127127000Y-101346000D02*
X124333000Y-101346000D01*
X124333000Y-101346000D02*
X124333000Y-99822000D01*
X124333000Y-98298000D02*
X124333000Y-96774000D01*
X124333000Y-96774000D02*
X127127000Y-96774000D01*
X127127000Y-96774000D02*
X127127000Y-98298000D01*
%TO.C,C5*%
X129413000Y-81026000D02*
X129413000Y-79502000D01*
X132207000Y-81026000D02*
X129413000Y-81026000D01*
X132207000Y-79502000D02*
X132207000Y-81026000D01*
X132207000Y-76454000D02*
X132207000Y-77978000D01*
X129413000Y-76454000D02*
X132207000Y-76454000D01*
X129413000Y-77978000D02*
X129413000Y-76454000D01*
%TO.C,C6*%
X134493000Y-77978000D02*
X134493000Y-76454000D01*
X134493000Y-76454000D02*
X137287000Y-76454000D01*
X137287000Y-76454000D02*
X137287000Y-77978000D01*
X137287000Y-79502000D02*
X137287000Y-81026000D01*
X137287000Y-81026000D02*
X134493000Y-81026000D01*
X134493000Y-81026000D02*
X134493000Y-79502000D01*
%TO.C,C7*%
X144653000Y-81026000D02*
X144653000Y-79502000D01*
X147447000Y-81026000D02*
X144653000Y-81026000D01*
X147447000Y-79502000D02*
X147447000Y-81026000D01*
X147447000Y-76454000D02*
X147447000Y-77978000D01*
X144653000Y-76454000D02*
X147447000Y-76454000D01*
X144653000Y-77978000D02*
X144653000Y-76454000D01*
D12*
%TO.C,J1*%
X140575000Y-85900000D02*
X155575000Y-85900000D01*
X140575000Y-91900000D02*
X140575000Y-85900000D01*
X155575000Y-91900000D02*
X140575000Y-91900000D01*
X155575000Y-85900000D02*
X155575000Y-91900000D01*
X158075000Y-91900000D02*
X155575000Y-91900000D01*
X158075000Y-85900000D02*
X158075000Y-91900000D01*
X155575000Y-85900000D02*
X158075000Y-85900000D01*
D13*
%TO.C,L1*%
X137287000Y-99822000D02*
X137287000Y-101346000D01*
X137287000Y-101346000D02*
X134493000Y-101346000D01*
X134493000Y-101346000D02*
X134493000Y-99822000D01*
X134493000Y-98298000D02*
X134493000Y-96774000D01*
X134493000Y-96774000D02*
X137287000Y-96774000D01*
X137287000Y-96774000D02*
X137287000Y-98298000D01*
%TO.C,R1*%
X124333000Y-77978000D02*
X124333000Y-76454000D01*
X124333000Y-76454000D02*
X127127000Y-76454000D01*
X127127000Y-76454000D02*
X127127000Y-77978000D01*
X127127000Y-79502000D02*
X127127000Y-81026000D01*
X127127000Y-81026000D02*
X124333000Y-81026000D01*
X124333000Y-81026000D02*
X124333000Y-79502000D01*
%TO.C,R2*%
X119253000Y-81026000D02*
X119253000Y-79502000D01*
X122047000Y-81026000D02*
X119253000Y-81026000D01*
X122047000Y-79502000D02*
X122047000Y-81026000D01*
X122047000Y-76454000D02*
X122047000Y-77978000D01*
X119253000Y-76454000D02*
X122047000Y-76454000D01*
X119253000Y-77978000D02*
X119253000Y-76454000D01*
D14*
%TO.C,U2*%
X139700000Y-78740000D02*
X142240000Y-78740000D01*
D13*
%TO.C,C8*%
X115443000Y-98298000D02*
X115443000Y-96774000D01*
X115443000Y-96774000D02*
X118237000Y-96774000D01*
X118237000Y-96774000D02*
X118237000Y-98298000D01*
X118237000Y-99822000D02*
X118237000Y-101346000D01*
X118237000Y-101346000D02*
X115443000Y-101346000D01*
X115443000Y-101346000D02*
X115443000Y-99822000D01*
%TO.C,C9*%
X96393000Y-101346000D02*
X96393000Y-99822000D01*
X99187000Y-101346000D02*
X96393000Y-101346000D01*
X99187000Y-99822000D02*
X99187000Y-101346000D01*
X99187000Y-96774000D02*
X99187000Y-98298000D01*
X96393000Y-96774000D02*
X99187000Y-96774000D01*
X96393000Y-98298000D02*
X96393000Y-96774000D01*
%TO.C,C10*%
X111887000Y-91694000D02*
X111887000Y-93218000D01*
X109093000Y-91694000D02*
X111887000Y-91694000D01*
X109093000Y-93218000D02*
X109093000Y-91694000D01*
X109093000Y-96266000D02*
X109093000Y-94742000D01*
X111887000Y-96266000D02*
X109093000Y-96266000D01*
X111887000Y-94742000D02*
X111887000Y-96266000D01*
%TO.C,C11*%
X105537000Y-94742000D02*
X105537000Y-96266000D01*
X105537000Y-96266000D02*
X102743000Y-96266000D01*
X102743000Y-96266000D02*
X102743000Y-94742000D01*
X102743000Y-93218000D02*
X102743000Y-91694000D01*
X102743000Y-91694000D02*
X105537000Y-91694000D01*
X105537000Y-91694000D02*
X105537000Y-93218000D01*
%TO.C,C12*%
X92837000Y-89662000D02*
X92837000Y-91186000D01*
X92837000Y-91186000D02*
X90043000Y-91186000D01*
X90043000Y-91186000D02*
X90043000Y-89662000D01*
X90043000Y-88138000D02*
X90043000Y-86614000D01*
X90043000Y-86614000D02*
X92837000Y-86614000D01*
X92837000Y-86614000D02*
X92837000Y-88138000D01*
%TO.C,C13*%
X99187000Y-89662000D02*
X99187000Y-91186000D01*
X99187000Y-91186000D02*
X96393000Y-91186000D01*
X96393000Y-91186000D02*
X96393000Y-89662000D01*
X96393000Y-88138000D02*
X96393000Y-86614000D01*
X96393000Y-86614000D02*
X99187000Y-86614000D01*
X99187000Y-86614000D02*
X99187000Y-88138000D01*
%TO.C,R3*%
X109093000Y-101346000D02*
X109093000Y-99822000D01*
X111887000Y-101346000D02*
X109093000Y-101346000D01*
X111887000Y-99822000D02*
X111887000Y-101346000D01*
X111887000Y-96774000D02*
X111887000Y-98298000D01*
X109093000Y-96774000D02*
X111887000Y-96774000D01*
X109093000Y-98298000D02*
X109093000Y-96774000D01*
%TO.C,R4*%
X102743000Y-98298000D02*
X102743000Y-96774000D01*
X102743000Y-96774000D02*
X105537000Y-96774000D01*
X105537000Y-96774000D02*
X105537000Y-98298000D01*
X105537000Y-99822000D02*
X105537000Y-101346000D01*
X105537000Y-101346000D02*
X102743000Y-101346000D01*
X102743000Y-101346000D02*
X102743000Y-99822000D01*
%TD*%
%TO.C,U3*%
D15*
X105371380Y-89674095D02*
X104548904Y-89674095D01*
X104452142Y-89625714D01*
X104403761Y-89577333D01*
X104355380Y-89480571D01*
X104355380Y-89287047D01*
X104403761Y-89190285D01*
X104452142Y-89141904D01*
X104548904Y-89093523D01*
X105371380Y-89093523D01*
X105371380Y-88706476D02*
X105371380Y-88077523D01*
X104984333Y-88416190D01*
X104984333Y-88271047D01*
X104935952Y-88174285D01*
X104887571Y-88125904D01*
X104790809Y-88077523D01*
X104548904Y-88077523D01*
X104452142Y-88125904D01*
X104403761Y-88174285D01*
X104355380Y-88271047D01*
X104355380Y-88561333D01*
X104403761Y-88658095D01*
X104452142Y-88706476D01*
%TO.C,U1*%
X131584095Y-93423619D02*
X131584095Y-94246095D01*
X131535714Y-94342857D01*
X131487333Y-94391238D01*
X131390571Y-94439619D01*
X131197047Y-94439619D01*
X131100285Y-94391238D01*
X131051904Y-94342857D01*
X131003523Y-94246095D01*
X131003523Y-93423619D01*
X129987523Y-94439619D02*
X130568095Y-94439619D01*
X130277809Y-94439619D02*
X130277809Y-93423619D01*
X130374571Y-93568761D01*
X130471333Y-93665523D01*
X130568095Y-93713904D01*
%TO.C,C1*%
X130979333Y-102597857D02*
X131027714Y-102646238D01*
X131172857Y-102694619D01*
X131269619Y-102694619D01*
X131414761Y-102646238D01*
X131511523Y-102549476D01*
X131559904Y-102452714D01*
X131608285Y-102259190D01*
X131608285Y-102114047D01*
X131559904Y-101920523D01*
X131511523Y-101823761D01*
X131414761Y-101727000D01*
X131269619Y-101678619D01*
X131172857Y-101678619D01*
X131027714Y-101727000D01*
X130979333Y-101775380D01*
X130011714Y-102694619D02*
X130592285Y-102694619D01*
X130302000Y-102694619D02*
X130302000Y-101678619D01*
X130398761Y-101823761D01*
X130495523Y-101920523D01*
X130592285Y-101968904D01*
X132479142Y-95328619D02*
X132382380Y-95328619D01*
X132285619Y-95377000D01*
X132237238Y-95425380D01*
X132188857Y-95522142D01*
X132140476Y-95715666D01*
X132140476Y-95957571D01*
X132188857Y-96151095D01*
X132237238Y-96247857D01*
X132285619Y-96296238D01*
X132382380Y-96344619D01*
X132479142Y-96344619D01*
X132575904Y-96296238D01*
X132624285Y-96247857D01*
X132672666Y-96151095D01*
X132721047Y-95957571D01*
X132721047Y-95715666D01*
X132672666Y-95522142D01*
X132624285Y-95425380D01*
X132575904Y-95377000D01*
X132479142Y-95328619D01*
X131705047Y-96247857D02*
X131656666Y-96296238D01*
X131705047Y-96344619D01*
X131753428Y-96296238D01*
X131705047Y-96247857D01*
X131705047Y-96344619D01*
X130689047Y-96344619D02*
X131269619Y-96344619D01*
X130979333Y-96344619D02*
X130979333Y-95328619D01*
X131076095Y-95473761D01*
X131172857Y-95570523D01*
X131269619Y-95618904D01*
X129818190Y-95667285D02*
X129818190Y-96344619D01*
X130253619Y-95667285D02*
X130253619Y-96199476D01*
X130205238Y-96296238D01*
X130108476Y-96344619D01*
X129963333Y-96344619D01*
X129866571Y-96296238D01*
X129818190Y-96247857D01*
X128995714Y-95812428D02*
X129334380Y-95812428D01*
X129334380Y-96344619D02*
X129334380Y-95328619D01*
X128850571Y-95328619D01*
%TO.C,C2*%
X146219333Y-102597857D02*
X146267714Y-102646238D01*
X146412857Y-102694619D01*
X146509619Y-102694619D01*
X146654761Y-102646238D01*
X146751523Y-102549476D01*
X146799904Y-102452714D01*
X146848285Y-102259190D01*
X146848285Y-102114047D01*
X146799904Y-101920523D01*
X146751523Y-101823761D01*
X146654761Y-101727000D01*
X146509619Y-101678619D01*
X146412857Y-101678619D01*
X146267714Y-101727000D01*
X146219333Y-101775380D01*
X145832285Y-101775380D02*
X145783904Y-101727000D01*
X145687142Y-101678619D01*
X145445238Y-101678619D01*
X145348476Y-101727000D01*
X145300095Y-101775380D01*
X145251714Y-101872142D01*
X145251714Y-101968904D01*
X145300095Y-102114047D01*
X145880666Y-102694619D01*
X145251714Y-102694619D01*
X147961047Y-95425380D02*
X147912666Y-95377000D01*
X147815904Y-95328619D01*
X147574000Y-95328619D01*
X147477238Y-95377000D01*
X147428857Y-95425380D01*
X147380476Y-95522142D01*
X147380476Y-95618904D01*
X147428857Y-95764047D01*
X148009428Y-96344619D01*
X147380476Y-96344619D01*
X146945047Y-96247857D02*
X146896666Y-96296238D01*
X146945047Y-96344619D01*
X146993428Y-96296238D01*
X146945047Y-96247857D01*
X146945047Y-96344619D01*
X146509619Y-95425380D02*
X146461238Y-95377000D01*
X146364476Y-95328619D01*
X146122571Y-95328619D01*
X146025809Y-95377000D01*
X145977428Y-95425380D01*
X145929047Y-95522142D01*
X145929047Y-95618904D01*
X145977428Y-95764047D01*
X146558000Y-96344619D01*
X145929047Y-96344619D01*
X145058190Y-95667285D02*
X145058190Y-96344619D01*
X145493619Y-95667285D02*
X145493619Y-96199476D01*
X145445238Y-96296238D01*
X145348476Y-96344619D01*
X145203333Y-96344619D01*
X145106571Y-96296238D01*
X145058190Y-96247857D01*
X144235714Y-95812428D02*
X144574380Y-95812428D01*
X144574380Y-96344619D02*
X144574380Y-95328619D01*
X144090571Y-95328619D01*
%TO.C,C3*%
X141139333Y-102597857D02*
X141187714Y-102646238D01*
X141332857Y-102694619D01*
X141429619Y-102694619D01*
X141574761Y-102646238D01*
X141671523Y-102549476D01*
X141719904Y-102452714D01*
X141768285Y-102259190D01*
X141768285Y-102114047D01*
X141719904Y-101920523D01*
X141671523Y-101823761D01*
X141574761Y-101727000D01*
X141429619Y-101678619D01*
X141332857Y-101678619D01*
X141187714Y-101727000D01*
X141139333Y-101775380D01*
X140800666Y-101678619D02*
X140171714Y-101678619D01*
X140510380Y-102065666D01*
X140365238Y-102065666D01*
X140268476Y-102114047D01*
X140220095Y-102162428D01*
X140171714Y-102259190D01*
X140171714Y-102501095D01*
X140220095Y-102597857D01*
X140268476Y-102646238D01*
X140365238Y-102694619D01*
X140655523Y-102694619D01*
X140752285Y-102646238D01*
X140800666Y-102597857D01*
X142639142Y-95328619D02*
X142542380Y-95328619D01*
X142445619Y-95377000D01*
X142397238Y-95425380D01*
X142348857Y-95522142D01*
X142300476Y-95715666D01*
X142300476Y-95957571D01*
X142348857Y-96151095D01*
X142397238Y-96247857D01*
X142445619Y-96296238D01*
X142542380Y-96344619D01*
X142639142Y-96344619D01*
X142735904Y-96296238D01*
X142784285Y-96247857D01*
X142832666Y-96151095D01*
X142881047Y-95957571D01*
X142881047Y-95715666D01*
X142832666Y-95522142D01*
X142784285Y-95425380D01*
X142735904Y-95377000D01*
X142639142Y-95328619D01*
X141865047Y-96247857D02*
X141816666Y-96296238D01*
X141865047Y-96344619D01*
X141913428Y-96296238D01*
X141865047Y-96247857D01*
X141865047Y-96344619D01*
X140849047Y-96344619D02*
X141429619Y-96344619D01*
X141139333Y-96344619D02*
X141139333Y-95328619D01*
X141236095Y-95473761D01*
X141332857Y-95570523D01*
X141429619Y-95618904D01*
X139978190Y-95667285D02*
X139978190Y-96344619D01*
X140413619Y-95667285D02*
X140413619Y-96199476D01*
X140365238Y-96296238D01*
X140268476Y-96344619D01*
X140123333Y-96344619D01*
X140026571Y-96296238D01*
X139978190Y-96247857D01*
X139155714Y-95812428D02*
X139494380Y-95812428D01*
X139494380Y-96344619D02*
X139494380Y-95328619D01*
X139010571Y-95328619D01*
%TO.C,C4*%
X125899333Y-96247857D02*
X125947714Y-96296238D01*
X126092857Y-96344619D01*
X126189619Y-96344619D01*
X126334761Y-96296238D01*
X126431523Y-96199476D01*
X126479904Y-96102714D01*
X126528285Y-95909190D01*
X126528285Y-95764047D01*
X126479904Y-95570523D01*
X126431523Y-95473761D01*
X126334761Y-95377000D01*
X126189619Y-95328619D01*
X126092857Y-95328619D01*
X125947714Y-95377000D01*
X125899333Y-95425380D01*
X125028476Y-95667285D02*
X125028476Y-96344619D01*
X125270380Y-95280238D02*
X125512285Y-96005952D01*
X124883333Y-96005952D01*
X127882952Y-101678619D02*
X127786190Y-101678619D01*
X127689428Y-101727000D01*
X127641047Y-101775380D01*
X127592666Y-101872142D01*
X127544285Y-102065666D01*
X127544285Y-102307571D01*
X127592666Y-102501095D01*
X127641047Y-102597857D01*
X127689428Y-102646238D01*
X127786190Y-102694619D01*
X127882952Y-102694619D01*
X127979714Y-102646238D01*
X128028095Y-102597857D01*
X128076476Y-102501095D01*
X128124857Y-102307571D01*
X128124857Y-102065666D01*
X128076476Y-101872142D01*
X128028095Y-101775380D01*
X127979714Y-101727000D01*
X127882952Y-101678619D01*
X127108857Y-102597857D02*
X127060476Y-102646238D01*
X127108857Y-102694619D01*
X127157238Y-102646238D01*
X127108857Y-102597857D01*
X127108857Y-102694619D01*
X126092857Y-102694619D02*
X126673428Y-102694619D01*
X126383142Y-102694619D02*
X126383142Y-101678619D01*
X126479904Y-101823761D01*
X126576666Y-101920523D01*
X126673428Y-101968904D01*
X125173619Y-101678619D02*
X125657428Y-101678619D01*
X125705809Y-102162428D01*
X125657428Y-102114047D01*
X125560666Y-102065666D01*
X125318761Y-102065666D01*
X125222000Y-102114047D01*
X125173619Y-102162428D01*
X125125238Y-102259190D01*
X125125238Y-102501095D01*
X125173619Y-102597857D01*
X125222000Y-102646238D01*
X125318761Y-102694619D01*
X125560666Y-102694619D01*
X125657428Y-102646238D01*
X125705809Y-102597857D01*
X124254380Y-102017285D02*
X124254380Y-102694619D01*
X124689809Y-102017285D02*
X124689809Y-102549476D01*
X124641428Y-102646238D01*
X124544666Y-102694619D01*
X124399523Y-102694619D01*
X124302761Y-102646238D01*
X124254380Y-102597857D01*
X123431904Y-102162428D02*
X123770571Y-102162428D01*
X123770571Y-102694619D02*
X123770571Y-101678619D01*
X123286761Y-101678619D01*
%TO.C,C5*%
X130979333Y-75927857D02*
X131027714Y-75976238D01*
X131172857Y-76024619D01*
X131269619Y-76024619D01*
X131414761Y-75976238D01*
X131511523Y-75879476D01*
X131559904Y-75782714D01*
X131608285Y-75589190D01*
X131608285Y-75444047D01*
X131559904Y-75250523D01*
X131511523Y-75153761D01*
X131414761Y-75057000D01*
X131269619Y-75008619D01*
X131172857Y-75008619D01*
X131027714Y-75057000D01*
X130979333Y-75105380D01*
X130060095Y-75008619D02*
X130543904Y-75008619D01*
X130592285Y-75492428D01*
X130543904Y-75444047D01*
X130447142Y-75395666D01*
X130205238Y-75395666D01*
X130108476Y-75444047D01*
X130060095Y-75492428D01*
X130011714Y-75589190D01*
X130011714Y-75831095D01*
X130060095Y-75927857D01*
X130108476Y-75976238D01*
X130205238Y-76024619D01*
X130447142Y-76024619D01*
X130543904Y-75976238D01*
X130592285Y-75927857D01*
X132721047Y-81455380D02*
X132672666Y-81407000D01*
X132575904Y-81358619D01*
X132334000Y-81358619D01*
X132237238Y-81407000D01*
X132188857Y-81455380D01*
X132140476Y-81552142D01*
X132140476Y-81648904D01*
X132188857Y-81794047D01*
X132769428Y-82374619D01*
X132140476Y-82374619D01*
X131705047Y-82277857D02*
X131656666Y-82326238D01*
X131705047Y-82374619D01*
X131753428Y-82326238D01*
X131705047Y-82277857D01*
X131705047Y-82374619D01*
X131269619Y-81455380D02*
X131221238Y-81407000D01*
X131124476Y-81358619D01*
X130882571Y-81358619D01*
X130785809Y-81407000D01*
X130737428Y-81455380D01*
X130689047Y-81552142D01*
X130689047Y-81648904D01*
X130737428Y-81794047D01*
X131318000Y-82374619D01*
X130689047Y-82374619D01*
X129818190Y-81697285D02*
X129818190Y-82374619D01*
X130253619Y-81697285D02*
X130253619Y-82229476D01*
X130205238Y-82326238D01*
X130108476Y-82374619D01*
X129963333Y-82374619D01*
X129866571Y-82326238D01*
X129818190Y-82277857D01*
X128995714Y-81842428D02*
X129334380Y-81842428D01*
X129334380Y-82374619D02*
X129334380Y-81358619D01*
X128850571Y-81358619D01*
%TO.C,C6*%
X136059333Y-75927857D02*
X136107714Y-75976238D01*
X136252857Y-76024619D01*
X136349619Y-76024619D01*
X136494761Y-75976238D01*
X136591523Y-75879476D01*
X136639904Y-75782714D01*
X136688285Y-75589190D01*
X136688285Y-75444047D01*
X136639904Y-75250523D01*
X136591523Y-75153761D01*
X136494761Y-75057000D01*
X136349619Y-75008619D01*
X136252857Y-75008619D01*
X136107714Y-75057000D01*
X136059333Y-75105380D01*
X135188476Y-75008619D02*
X135382000Y-75008619D01*
X135478761Y-75057000D01*
X135527142Y-75105380D01*
X135623904Y-75250523D01*
X135672285Y-75444047D01*
X135672285Y-75831095D01*
X135623904Y-75927857D01*
X135575523Y-75976238D01*
X135478761Y-76024619D01*
X135285238Y-76024619D01*
X135188476Y-75976238D01*
X135140095Y-75927857D01*
X135091714Y-75831095D01*
X135091714Y-75589190D01*
X135140095Y-75492428D01*
X135188476Y-75444047D01*
X135285238Y-75395666D01*
X135478761Y-75395666D01*
X135575523Y-75444047D01*
X135623904Y-75492428D01*
X135672285Y-75589190D01*
X137559142Y-81358619D02*
X137462380Y-81358619D01*
X137365619Y-81407000D01*
X137317238Y-81455380D01*
X137268857Y-81552142D01*
X137220476Y-81745666D01*
X137220476Y-81987571D01*
X137268857Y-82181095D01*
X137317238Y-82277857D01*
X137365619Y-82326238D01*
X137462380Y-82374619D01*
X137559142Y-82374619D01*
X137655904Y-82326238D01*
X137704285Y-82277857D01*
X137752666Y-82181095D01*
X137801047Y-81987571D01*
X137801047Y-81745666D01*
X137752666Y-81552142D01*
X137704285Y-81455380D01*
X137655904Y-81407000D01*
X137559142Y-81358619D01*
X136785047Y-82277857D02*
X136736666Y-82326238D01*
X136785047Y-82374619D01*
X136833428Y-82326238D01*
X136785047Y-82277857D01*
X136785047Y-82374619D01*
X135769047Y-82374619D02*
X136349619Y-82374619D01*
X136059333Y-82374619D02*
X136059333Y-81358619D01*
X136156095Y-81503761D01*
X136252857Y-81600523D01*
X136349619Y-81648904D01*
X134898190Y-81697285D02*
X134898190Y-82374619D01*
X135333619Y-81697285D02*
X135333619Y-82229476D01*
X135285238Y-82326238D01*
X135188476Y-82374619D01*
X135043333Y-82374619D01*
X134946571Y-82326238D01*
X134898190Y-82277857D01*
X134075714Y-81842428D02*
X134414380Y-81842428D01*
X134414380Y-82374619D02*
X134414380Y-81358619D01*
X133930571Y-81358619D01*
%TO.C,C7*%
X146219333Y-75927857D02*
X146267714Y-75976238D01*
X146412857Y-76024619D01*
X146509619Y-76024619D01*
X146654761Y-75976238D01*
X146751523Y-75879476D01*
X146799904Y-75782714D01*
X146848285Y-75589190D01*
X146848285Y-75444047D01*
X146799904Y-75250523D01*
X146751523Y-75153761D01*
X146654761Y-75057000D01*
X146509619Y-75008619D01*
X146412857Y-75008619D01*
X146267714Y-75057000D01*
X146219333Y-75105380D01*
X145880666Y-75008619D02*
X145203333Y-75008619D01*
X145638761Y-76024619D01*
X147961047Y-81455380D02*
X147912666Y-81407000D01*
X147815904Y-81358619D01*
X147574000Y-81358619D01*
X147477238Y-81407000D01*
X147428857Y-81455380D01*
X147380476Y-81552142D01*
X147380476Y-81648904D01*
X147428857Y-81794047D01*
X148009428Y-82374619D01*
X147380476Y-82374619D01*
X146945047Y-82277857D02*
X146896666Y-82326238D01*
X146945047Y-82374619D01*
X146993428Y-82326238D01*
X146945047Y-82277857D01*
X146945047Y-82374619D01*
X146509619Y-81455380D02*
X146461238Y-81407000D01*
X146364476Y-81358619D01*
X146122571Y-81358619D01*
X146025809Y-81407000D01*
X145977428Y-81455380D01*
X145929047Y-81552142D01*
X145929047Y-81648904D01*
X145977428Y-81794047D01*
X146558000Y-82374619D01*
X145929047Y-82374619D01*
X145058190Y-81697285D02*
X145058190Y-82374619D01*
X145493619Y-81697285D02*
X145493619Y-82229476D01*
X145445238Y-82326238D01*
X145348476Y-82374619D01*
X145203333Y-82374619D01*
X145106571Y-82326238D01*
X145058190Y-82277857D01*
X144235714Y-81842428D02*
X144574380Y-81842428D01*
X144574380Y-82374619D02*
X144574380Y-81358619D01*
X144090571Y-81358619D01*
%TO.C,J1*%
X148913666Y-92343619D02*
X148913666Y-93069333D01*
X148962047Y-93214476D01*
X149058809Y-93311238D01*
X149203952Y-93359619D01*
X149300714Y-93359619D01*
X147897666Y-93359619D02*
X148478238Y-93359619D01*
X148187952Y-93359619D02*
X148187952Y-92343619D01*
X148284714Y-92488761D01*
X148381476Y-92585523D01*
X148478238Y-92633904D01*
%TO.C,L1*%
X136059333Y-102694619D02*
X136543142Y-102694619D01*
X136543142Y-101678619D01*
X135188476Y-102694619D02*
X135769047Y-102694619D01*
X135478761Y-102694619D02*
X135478761Y-101678619D01*
X135575523Y-101823761D01*
X135672285Y-101920523D01*
X135769047Y-101968904D01*
X136664095Y-95328619D02*
X136857619Y-95328619D01*
X136954380Y-95377000D01*
X137002761Y-95425380D01*
X137099523Y-95570523D01*
X137147904Y-95764047D01*
X137147904Y-96151095D01*
X137099523Y-96247857D01*
X137051142Y-96296238D01*
X136954380Y-96344619D01*
X136760857Y-96344619D01*
X136664095Y-96296238D01*
X136615714Y-96247857D01*
X136567333Y-96151095D01*
X136567333Y-95909190D01*
X136615714Y-95812428D01*
X136664095Y-95764047D01*
X136760857Y-95715666D01*
X136954380Y-95715666D01*
X137051142Y-95764047D01*
X137099523Y-95812428D01*
X137147904Y-95909190D01*
X135938380Y-95328619D02*
X135841619Y-95328619D01*
X135744857Y-95377000D01*
X135696476Y-95425380D01*
X135648095Y-95522142D01*
X135599714Y-95715666D01*
X135599714Y-95957571D01*
X135648095Y-96151095D01*
X135696476Y-96247857D01*
X135744857Y-96296238D01*
X135841619Y-96344619D01*
X135938380Y-96344619D01*
X136035142Y-96296238D01*
X136083523Y-96247857D01*
X136131904Y-96151095D01*
X136180285Y-95957571D01*
X136180285Y-95715666D01*
X136131904Y-95522142D01*
X136083523Y-95425380D01*
X136035142Y-95377000D01*
X135938380Y-95328619D01*
X134970761Y-95328619D02*
X134874000Y-95328619D01*
X134777238Y-95377000D01*
X134728857Y-95425380D01*
X134680476Y-95522142D01*
X134632095Y-95715666D01*
X134632095Y-95957571D01*
X134680476Y-96151095D01*
X134728857Y-96247857D01*
X134777238Y-96296238D01*
X134874000Y-96344619D01*
X134970761Y-96344619D01*
X135067523Y-96296238D01*
X135115904Y-96247857D01*
X135164285Y-96151095D01*
X135212666Y-95957571D01*
X135212666Y-95715666D01*
X135164285Y-95522142D01*
X135115904Y-95425380D01*
X135067523Y-95377000D01*
X134970761Y-95328619D01*
%TO.C,R1*%
X125899333Y-76024619D02*
X126238000Y-75540809D01*
X126479904Y-76024619D02*
X126479904Y-75008619D01*
X126092857Y-75008619D01*
X125996095Y-75057000D01*
X125947714Y-75105380D01*
X125899333Y-75202142D01*
X125899333Y-75347285D01*
X125947714Y-75444047D01*
X125996095Y-75492428D01*
X126092857Y-75540809D01*
X126479904Y-75540809D01*
X124931714Y-76024619D02*
X125512285Y-76024619D01*
X125222000Y-76024619D02*
X125222000Y-75008619D01*
X125318761Y-75153761D01*
X125415523Y-75250523D01*
X125512285Y-75298904D01*
X127641047Y-81455380D02*
X127592666Y-81407000D01*
X127495904Y-81358619D01*
X127254000Y-81358619D01*
X127157238Y-81407000D01*
X127108857Y-81455380D01*
X127060476Y-81552142D01*
X127060476Y-81648904D01*
X127108857Y-81794047D01*
X127689428Y-82374619D01*
X127060476Y-82374619D01*
X126625047Y-82277857D02*
X126576666Y-82326238D01*
X126625047Y-82374619D01*
X126673428Y-82326238D01*
X126625047Y-82277857D01*
X126625047Y-82374619D01*
X126189619Y-81455380D02*
X126141238Y-81407000D01*
X126044476Y-81358619D01*
X125802571Y-81358619D01*
X125705809Y-81407000D01*
X125657428Y-81455380D01*
X125609047Y-81552142D01*
X125609047Y-81648904D01*
X125657428Y-81794047D01*
X126238000Y-82374619D01*
X125609047Y-82374619D01*
X124641428Y-82374619D02*
X125222000Y-82374619D01*
X124931714Y-82374619D02*
X124931714Y-81358619D01*
X125028476Y-81503761D01*
X125125238Y-81600523D01*
X125222000Y-81648904D01*
X124206000Y-82374619D02*
X124206000Y-81358619D01*
X124109238Y-81987571D02*
X123818952Y-82374619D01*
X123818952Y-81697285D02*
X124206000Y-82084333D01*
%TO.C,R2*%
X120819333Y-76024619D02*
X121158000Y-75540809D01*
X121399904Y-76024619D02*
X121399904Y-75008619D01*
X121012857Y-75008619D01*
X120916095Y-75057000D01*
X120867714Y-75105380D01*
X120819333Y-75202142D01*
X120819333Y-75347285D01*
X120867714Y-75444047D01*
X120916095Y-75492428D01*
X121012857Y-75540809D01*
X121399904Y-75540809D01*
X120432285Y-75105380D02*
X120383904Y-75057000D01*
X120287142Y-75008619D01*
X120045238Y-75008619D01*
X119948476Y-75057000D01*
X119900095Y-75105380D01*
X119851714Y-75202142D01*
X119851714Y-75298904D01*
X119900095Y-75444047D01*
X120480666Y-76024619D01*
X119851714Y-76024619D01*
X122561047Y-81455380D02*
X122512666Y-81407000D01*
X122415904Y-81358619D01*
X122174000Y-81358619D01*
X122077238Y-81407000D01*
X122028857Y-81455380D01*
X121980476Y-81552142D01*
X121980476Y-81648904D01*
X122028857Y-81794047D01*
X122609428Y-82374619D01*
X121980476Y-82374619D01*
X121545047Y-82277857D02*
X121496666Y-82326238D01*
X121545047Y-82374619D01*
X121593428Y-82326238D01*
X121545047Y-82277857D01*
X121545047Y-82374619D01*
X121109619Y-81455380D02*
X121061238Y-81407000D01*
X120964476Y-81358619D01*
X120722571Y-81358619D01*
X120625809Y-81407000D01*
X120577428Y-81455380D01*
X120529047Y-81552142D01*
X120529047Y-81648904D01*
X120577428Y-81794047D01*
X121158000Y-82374619D01*
X120529047Y-82374619D01*
X119561428Y-82374619D02*
X120142000Y-82374619D01*
X119851714Y-82374619D02*
X119851714Y-81358619D01*
X119948476Y-81503761D01*
X120045238Y-81600523D01*
X120142000Y-81648904D01*
X119126000Y-82374619D02*
X119126000Y-81358619D01*
X119029238Y-81987571D02*
X118738952Y-82374619D01*
X118738952Y-81697285D02*
X119126000Y-82084333D01*
%TO.C,U2*%
X141744095Y-75643619D02*
X141744095Y-76466095D01*
X141695714Y-76562857D01*
X141647333Y-76611238D01*
X141550571Y-76659619D01*
X141357047Y-76659619D01*
X141260285Y-76611238D01*
X141211904Y-76562857D01*
X141163523Y-76466095D01*
X141163523Y-75643619D01*
X140728095Y-75740380D02*
X140679714Y-75692000D01*
X140582952Y-75643619D01*
X140341047Y-75643619D01*
X140244285Y-75692000D01*
X140195904Y-75740380D01*
X140147523Y-75837142D01*
X140147523Y-75933904D01*
X140195904Y-76079047D01*
X140776476Y-76659619D01*
X140147523Y-76659619D01*
%TO.C,C8*%
X114916857Y-98890666D02*
X114965238Y-98842285D01*
X115013619Y-98697142D01*
X115013619Y-98600380D01*
X114965238Y-98455238D01*
X114868476Y-98358476D01*
X114771714Y-98310095D01*
X114578190Y-98261714D01*
X114433047Y-98261714D01*
X114239523Y-98310095D01*
X114142761Y-98358476D01*
X114046000Y-98455238D01*
X113997619Y-98600380D01*
X113997619Y-98697142D01*
X114046000Y-98842285D01*
X114094380Y-98890666D01*
X114433047Y-99471238D02*
X114384666Y-99374476D01*
X114336285Y-99326095D01*
X114239523Y-99277714D01*
X114191142Y-99277714D01*
X114094380Y-99326095D01*
X114046000Y-99374476D01*
X113997619Y-99471238D01*
X113997619Y-99664761D01*
X114046000Y-99761523D01*
X114094380Y-99809904D01*
X114191142Y-99858285D01*
X114239523Y-99858285D01*
X114336285Y-99809904D01*
X114384666Y-99761523D01*
X114433047Y-99664761D01*
X114433047Y-99471238D01*
X114481428Y-99374476D01*
X114529809Y-99326095D01*
X114626571Y-99277714D01*
X114820095Y-99277714D01*
X114916857Y-99326095D01*
X114965238Y-99374476D01*
X115013619Y-99471238D01*
X115013619Y-99664761D01*
X114965238Y-99761523D01*
X114916857Y-99809904D01*
X114820095Y-99858285D01*
X114626571Y-99858285D01*
X114529809Y-99809904D01*
X114481428Y-99761523D01*
X114433047Y-99664761D01*
X118569619Y-97100571D02*
X118569619Y-97729523D01*
X118956666Y-97390857D01*
X118956666Y-97536000D01*
X119005047Y-97632761D01*
X119053428Y-97681142D01*
X119150190Y-97729523D01*
X119392095Y-97729523D01*
X119488857Y-97681142D01*
X119537238Y-97632761D01*
X119585619Y-97536000D01*
X119585619Y-97245714D01*
X119537238Y-97148952D01*
X119488857Y-97100571D01*
X119488857Y-98164952D02*
X119537238Y-98213333D01*
X119585619Y-98164952D01*
X119537238Y-98116571D01*
X119488857Y-98164952D01*
X119585619Y-98164952D01*
X118569619Y-98552000D02*
X118569619Y-99180952D01*
X118956666Y-98842285D01*
X118956666Y-98987428D01*
X119005047Y-99084190D01*
X119053428Y-99132571D01*
X119150190Y-99180952D01*
X119392095Y-99180952D01*
X119488857Y-99132571D01*
X119537238Y-99084190D01*
X119585619Y-98987428D01*
X119585619Y-98697142D01*
X119537238Y-98600380D01*
X119488857Y-98552000D01*
X118908285Y-99616380D02*
X119585619Y-99616380D01*
X119005047Y-99616380D02*
X118956666Y-99664761D01*
X118908285Y-99761523D01*
X118908285Y-99906666D01*
X118956666Y-100003428D01*
X119053428Y-100051809D01*
X119585619Y-100051809D01*
X119053428Y-100874285D02*
X119053428Y-100535619D01*
X119585619Y-100535619D02*
X118569619Y-100535619D01*
X118569619Y-101019428D01*
%TO.C,C9*%
X95866857Y-98890666D02*
X95915238Y-98842285D01*
X95963619Y-98697142D01*
X95963619Y-98600380D01*
X95915238Y-98455238D01*
X95818476Y-98358476D01*
X95721714Y-98310095D01*
X95528190Y-98261714D01*
X95383047Y-98261714D01*
X95189523Y-98310095D01*
X95092761Y-98358476D01*
X94996000Y-98455238D01*
X94947619Y-98600380D01*
X94947619Y-98697142D01*
X94996000Y-98842285D01*
X95044380Y-98890666D01*
X95963619Y-99374476D02*
X95963619Y-99568000D01*
X95915238Y-99664761D01*
X95866857Y-99713142D01*
X95721714Y-99809904D01*
X95528190Y-99858285D01*
X95141142Y-99858285D01*
X95044380Y-99809904D01*
X94996000Y-99761523D01*
X94947619Y-99664761D01*
X94947619Y-99471238D01*
X94996000Y-99374476D01*
X95044380Y-99326095D01*
X95141142Y-99277714D01*
X95383047Y-99277714D01*
X95479809Y-99326095D01*
X95528190Y-99374476D01*
X95576571Y-99471238D01*
X95576571Y-99664761D01*
X95528190Y-99761523D01*
X95479809Y-99809904D01*
X95383047Y-99858285D01*
X99519619Y-97100571D02*
X99519619Y-97729523D01*
X99906666Y-97390857D01*
X99906666Y-97536000D01*
X99955047Y-97632761D01*
X100003428Y-97681142D01*
X100100190Y-97729523D01*
X100342095Y-97729523D01*
X100438857Y-97681142D01*
X100487238Y-97632761D01*
X100535619Y-97536000D01*
X100535619Y-97245714D01*
X100487238Y-97148952D01*
X100438857Y-97100571D01*
X100438857Y-98164952D02*
X100487238Y-98213333D01*
X100535619Y-98164952D01*
X100487238Y-98116571D01*
X100438857Y-98164952D01*
X100535619Y-98164952D01*
X99519619Y-98552000D02*
X99519619Y-99180952D01*
X99906666Y-98842285D01*
X99906666Y-98987428D01*
X99955047Y-99084190D01*
X100003428Y-99132571D01*
X100100190Y-99180952D01*
X100342095Y-99180952D01*
X100438857Y-99132571D01*
X100487238Y-99084190D01*
X100535619Y-98987428D01*
X100535619Y-98697142D01*
X100487238Y-98600380D01*
X100438857Y-98552000D01*
X99858285Y-99616380D02*
X100535619Y-99616380D01*
X99955047Y-99616380D02*
X99906666Y-99664761D01*
X99858285Y-99761523D01*
X99858285Y-99906666D01*
X99906666Y-100003428D01*
X100003428Y-100051809D01*
X100535619Y-100051809D01*
X100003428Y-100874285D02*
X100003428Y-100535619D01*
X100535619Y-100535619D02*
X99519619Y-100535619D01*
X99519619Y-101019428D01*
%TO.C,C10*%
X113138857Y-93326857D02*
X113187238Y-93278476D01*
X113235619Y-93133333D01*
X113235619Y-93036571D01*
X113187238Y-92891428D01*
X113090476Y-92794666D01*
X112993714Y-92746285D01*
X112800190Y-92697904D01*
X112655047Y-92697904D01*
X112461523Y-92746285D01*
X112364761Y-92794666D01*
X112268000Y-92891428D01*
X112219619Y-93036571D01*
X112219619Y-93133333D01*
X112268000Y-93278476D01*
X112316380Y-93326857D01*
X113235619Y-94294476D02*
X113235619Y-93713904D01*
X113235619Y-94004190D02*
X112219619Y-94004190D01*
X112364761Y-93907428D01*
X112461523Y-93810666D01*
X112509904Y-93713904D01*
X112219619Y-94923428D02*
X112219619Y-95020190D01*
X112268000Y-95116952D01*
X112316380Y-95165333D01*
X112413142Y-95213714D01*
X112606666Y-95262095D01*
X112848571Y-95262095D01*
X113042095Y-95213714D01*
X113138857Y-95165333D01*
X113187238Y-95116952D01*
X113235619Y-95020190D01*
X113235619Y-94923428D01*
X113187238Y-94826666D01*
X113138857Y-94778285D01*
X113042095Y-94729904D01*
X112848571Y-94681523D01*
X112606666Y-94681523D01*
X112413142Y-94729904D01*
X112316380Y-94778285D01*
X112268000Y-94826666D01*
X112219619Y-94923428D01*
X108663619Y-93375238D02*
X108663619Y-92794666D01*
X108663619Y-93084952D02*
X107647619Y-93084952D01*
X107792761Y-92988190D01*
X107889523Y-92891428D01*
X107937904Y-92794666D01*
X107986285Y-94246095D02*
X108663619Y-94246095D01*
X107986285Y-93810666D02*
X108518476Y-93810666D01*
X108615238Y-93859047D01*
X108663619Y-93955809D01*
X108663619Y-94100952D01*
X108615238Y-94197714D01*
X108566857Y-94246095D01*
X108131428Y-95068571D02*
X108131428Y-94729904D01*
X108663619Y-94729904D02*
X107647619Y-94729904D01*
X107647619Y-95213714D01*
%TO.C,C11*%
X106788857Y-93326857D02*
X106837238Y-93278476D01*
X106885619Y-93133333D01*
X106885619Y-93036571D01*
X106837238Y-92891428D01*
X106740476Y-92794666D01*
X106643714Y-92746285D01*
X106450190Y-92697904D01*
X106305047Y-92697904D01*
X106111523Y-92746285D01*
X106014761Y-92794666D01*
X105918000Y-92891428D01*
X105869619Y-93036571D01*
X105869619Y-93133333D01*
X105918000Y-93278476D01*
X105966380Y-93326857D01*
X106885619Y-94294476D02*
X106885619Y-93713904D01*
X106885619Y-94004190D02*
X105869619Y-94004190D01*
X106014761Y-93907428D01*
X106111523Y-93810666D01*
X106159904Y-93713904D01*
X106885619Y-95262095D02*
X106885619Y-94681523D01*
X106885619Y-94971809D02*
X105869619Y-94971809D01*
X106014761Y-94875047D01*
X106111523Y-94778285D01*
X106159904Y-94681523D01*
X102313619Y-93375238D02*
X102313619Y-92794666D01*
X102313619Y-93084952D02*
X101297619Y-93084952D01*
X101442761Y-92988190D01*
X101539523Y-92891428D01*
X101587904Y-92794666D01*
X101636285Y-94246095D02*
X102313619Y-94246095D01*
X101636285Y-93810666D02*
X102168476Y-93810666D01*
X102265238Y-93859047D01*
X102313619Y-93955809D01*
X102313619Y-94100952D01*
X102265238Y-94197714D01*
X102216857Y-94246095D01*
X101781428Y-95068571D02*
X101781428Y-94729904D01*
X102313619Y-94729904D02*
X101297619Y-94729904D01*
X101297619Y-95213714D01*
%TO.C,C12*%
X94088857Y-88246857D02*
X94137238Y-88198476D01*
X94185619Y-88053333D01*
X94185619Y-87956571D01*
X94137238Y-87811428D01*
X94040476Y-87714666D01*
X93943714Y-87666285D01*
X93750190Y-87617904D01*
X93605047Y-87617904D01*
X93411523Y-87666285D01*
X93314761Y-87714666D01*
X93218000Y-87811428D01*
X93169619Y-87956571D01*
X93169619Y-88053333D01*
X93218000Y-88198476D01*
X93266380Y-88246857D01*
X94185619Y-89214476D02*
X94185619Y-88633904D01*
X94185619Y-88924190D02*
X93169619Y-88924190D01*
X93314761Y-88827428D01*
X93411523Y-88730666D01*
X93459904Y-88633904D01*
X93266380Y-89601523D02*
X93218000Y-89649904D01*
X93169619Y-89746666D01*
X93169619Y-89988571D01*
X93218000Y-90085333D01*
X93266380Y-90133714D01*
X93363142Y-90182095D01*
X93459904Y-90182095D01*
X93605047Y-90133714D01*
X94185619Y-89553142D01*
X94185619Y-90182095D01*
X88694380Y-86988952D02*
X88646000Y-87037333D01*
X88597619Y-87134095D01*
X88597619Y-87376000D01*
X88646000Y-87472761D01*
X88694380Y-87521142D01*
X88791142Y-87569523D01*
X88887904Y-87569523D01*
X89033047Y-87521142D01*
X89613619Y-86940571D01*
X89613619Y-87569523D01*
X89516857Y-88004952D02*
X89565238Y-88053333D01*
X89613619Y-88004952D01*
X89565238Y-87956571D01*
X89516857Y-88004952D01*
X89613619Y-88004952D01*
X88694380Y-88440380D02*
X88646000Y-88488761D01*
X88597619Y-88585523D01*
X88597619Y-88827428D01*
X88646000Y-88924190D01*
X88694380Y-88972571D01*
X88791142Y-89020952D01*
X88887904Y-89020952D01*
X89033047Y-88972571D01*
X89613619Y-88392000D01*
X89613619Y-89020952D01*
X88936285Y-89891809D02*
X89613619Y-89891809D01*
X88936285Y-89456380D02*
X89468476Y-89456380D01*
X89565238Y-89504761D01*
X89613619Y-89601523D01*
X89613619Y-89746666D01*
X89565238Y-89843428D01*
X89516857Y-89891809D01*
X89081428Y-90714285D02*
X89081428Y-90375619D01*
X89613619Y-90375619D02*
X88597619Y-90375619D01*
X88597619Y-90859428D01*
%TO.C,C13*%
X100438857Y-88246857D02*
X100487238Y-88198476D01*
X100535619Y-88053333D01*
X100535619Y-87956571D01*
X100487238Y-87811428D01*
X100390476Y-87714666D01*
X100293714Y-87666285D01*
X100100190Y-87617904D01*
X99955047Y-87617904D01*
X99761523Y-87666285D01*
X99664761Y-87714666D01*
X99568000Y-87811428D01*
X99519619Y-87956571D01*
X99519619Y-88053333D01*
X99568000Y-88198476D01*
X99616380Y-88246857D01*
X100535619Y-89214476D02*
X100535619Y-88633904D01*
X100535619Y-88924190D02*
X99519619Y-88924190D01*
X99664761Y-88827428D01*
X99761523Y-88730666D01*
X99809904Y-88633904D01*
X99519619Y-89553142D02*
X99519619Y-90182095D01*
X99906666Y-89843428D01*
X99906666Y-89988571D01*
X99955047Y-90085333D01*
X100003428Y-90133714D01*
X100100190Y-90182095D01*
X100342095Y-90182095D01*
X100438857Y-90133714D01*
X100487238Y-90085333D01*
X100535619Y-89988571D01*
X100535619Y-89698285D01*
X100487238Y-89601523D01*
X100438857Y-89553142D01*
X94947619Y-87230857D02*
X94947619Y-87327619D01*
X94996000Y-87424380D01*
X95044380Y-87472761D01*
X95141142Y-87521142D01*
X95334666Y-87569523D01*
X95576571Y-87569523D01*
X95770095Y-87521142D01*
X95866857Y-87472761D01*
X95915238Y-87424380D01*
X95963619Y-87327619D01*
X95963619Y-87230857D01*
X95915238Y-87134095D01*
X95866857Y-87085714D01*
X95770095Y-87037333D01*
X95576571Y-86988952D01*
X95334666Y-86988952D01*
X95141142Y-87037333D01*
X95044380Y-87085714D01*
X94996000Y-87134095D01*
X94947619Y-87230857D01*
X95866857Y-88004952D02*
X95915238Y-88053333D01*
X95963619Y-88004952D01*
X95915238Y-87956571D01*
X95866857Y-88004952D01*
X95963619Y-88004952D01*
X95963619Y-89020952D02*
X95963619Y-88440380D01*
X95963619Y-88730666D02*
X94947619Y-88730666D01*
X95092761Y-88633904D01*
X95189523Y-88537142D01*
X95237904Y-88440380D01*
X95286285Y-89891809D02*
X95963619Y-89891809D01*
X95286285Y-89456380D02*
X95818476Y-89456380D01*
X95915238Y-89504761D01*
X95963619Y-89601523D01*
X95963619Y-89746666D01*
X95915238Y-89843428D01*
X95866857Y-89891809D01*
X95431428Y-90714285D02*
X95431428Y-90375619D01*
X95963619Y-90375619D02*
X94947619Y-90375619D01*
X94947619Y-90859428D01*
%TO.C,R3*%
X108663619Y-98890666D02*
X108179809Y-98552000D01*
X108663619Y-98310095D02*
X107647619Y-98310095D01*
X107647619Y-98697142D01*
X107696000Y-98793904D01*
X107744380Y-98842285D01*
X107841142Y-98890666D01*
X107986285Y-98890666D01*
X108083047Y-98842285D01*
X108131428Y-98793904D01*
X108179809Y-98697142D01*
X108179809Y-98310095D01*
X107647619Y-99229333D02*
X107647619Y-99858285D01*
X108034666Y-99519619D01*
X108034666Y-99664761D01*
X108083047Y-99761523D01*
X108131428Y-99809904D01*
X108228190Y-99858285D01*
X108470095Y-99858285D01*
X108566857Y-99809904D01*
X108615238Y-99761523D01*
X108663619Y-99664761D01*
X108663619Y-99374476D01*
X108615238Y-99277714D01*
X108566857Y-99229333D01*
X112316380Y-97148952D02*
X112268000Y-97197333D01*
X112219619Y-97294095D01*
X112219619Y-97536000D01*
X112268000Y-97632761D01*
X112316380Y-97681142D01*
X112413142Y-97729523D01*
X112509904Y-97729523D01*
X112655047Y-97681142D01*
X113235619Y-97100571D01*
X113235619Y-97729523D01*
X113138857Y-98164952D02*
X113187238Y-98213333D01*
X113235619Y-98164952D01*
X113187238Y-98116571D01*
X113138857Y-98164952D01*
X113235619Y-98164952D01*
X112316380Y-98600380D02*
X112268000Y-98648761D01*
X112219619Y-98745523D01*
X112219619Y-98987428D01*
X112268000Y-99084190D01*
X112316380Y-99132571D01*
X112413142Y-99180952D01*
X112509904Y-99180952D01*
X112655047Y-99132571D01*
X113235619Y-98552000D01*
X113235619Y-99180952D01*
X113235619Y-100148571D02*
X113235619Y-99568000D01*
X113235619Y-99858285D02*
X112219619Y-99858285D01*
X112364761Y-99761523D01*
X112461523Y-99664761D01*
X112509904Y-99568000D01*
X113235619Y-100584000D02*
X112219619Y-100584000D01*
X112848571Y-100680761D02*
X113235619Y-100971047D01*
X112558285Y-100971047D02*
X112945333Y-100584000D01*
%TO.C,R4*%
X102313619Y-98890666D02*
X101829809Y-98552000D01*
X102313619Y-98310095D02*
X101297619Y-98310095D01*
X101297619Y-98697142D01*
X101346000Y-98793904D01*
X101394380Y-98842285D01*
X101491142Y-98890666D01*
X101636285Y-98890666D01*
X101733047Y-98842285D01*
X101781428Y-98793904D01*
X101829809Y-98697142D01*
X101829809Y-98310095D01*
X101636285Y-99761523D02*
X102313619Y-99761523D01*
X101249238Y-99519619D02*
X101974952Y-99277714D01*
X101974952Y-99906666D01*
X105966380Y-97148952D02*
X105918000Y-97197333D01*
X105869619Y-97294095D01*
X105869619Y-97536000D01*
X105918000Y-97632761D01*
X105966380Y-97681142D01*
X106063142Y-97729523D01*
X106159904Y-97729523D01*
X106305047Y-97681142D01*
X106885619Y-97100571D01*
X106885619Y-97729523D01*
X106788857Y-98164952D02*
X106837238Y-98213333D01*
X106885619Y-98164952D01*
X106837238Y-98116571D01*
X106788857Y-98164952D01*
X106885619Y-98164952D01*
X105966380Y-98600380D02*
X105918000Y-98648761D01*
X105869619Y-98745523D01*
X105869619Y-98987428D01*
X105918000Y-99084190D01*
X105966380Y-99132571D01*
X106063142Y-99180952D01*
X106159904Y-99180952D01*
X106305047Y-99132571D01*
X106885619Y-98552000D01*
X106885619Y-99180952D01*
X106885619Y-100148571D02*
X106885619Y-99568000D01*
X106885619Y-99858285D02*
X105869619Y-99858285D01*
X106014761Y-99761523D01*
X106111523Y-99664761D01*
X106159904Y-99568000D01*
X106885619Y-100584000D02*
X105869619Y-100584000D01*
X106498571Y-100680761D02*
X106885619Y-100971047D01*
X106208285Y-100971047D02*
X106595333Y-100584000D01*
%TD*%
%LPC*%
D16*
%TO.C,U3*%
X108315000Y-90600000D03*
X107815000Y-90600000D03*
X107315000Y-90600000D03*
X106815000Y-90600000D03*
X106315000Y-90600000D03*
X106315000Y-87200000D03*
X106815000Y-87200000D03*
X107315000Y-87200000D03*
X107815000Y-87200000D03*
X108315000Y-87200000D03*
D17*
X107315000Y-88900000D03*
%TD*%
D18*
%TO.C,MDB1*%
X130175000Y-71120000D03*
X130175000Y-106680000D03*
X89535000Y-101600000D03*
X89535000Y-76200000D03*
D19*
X88265000Y-106680000D03*
X90805000Y-106680000D03*
X93345000Y-106680000D03*
X95885000Y-106680000D03*
X98425000Y-106680000D03*
X100965000Y-106680000D03*
X103505000Y-106680000D03*
X106045000Y-106680000D03*
X108585000Y-106680000D03*
X111125000Y-106680000D03*
X113665000Y-106680000D03*
X116205000Y-106680000D03*
X118745000Y-106680000D03*
X121285000Y-106680000D03*
X123825000Y-106680000D03*
X126365000Y-106680000D03*
X126365000Y-71120000D03*
X123825000Y-71120000D03*
X121285000Y-71120000D03*
X118745000Y-71120000D03*
X116205000Y-71120000D03*
X113665000Y-71120000D03*
X111125000Y-71120000D03*
X108585000Y-71120000D03*
X106045000Y-71120000D03*
X103505000Y-71120000D03*
X100965000Y-71120000D03*
X98425000Y-71120000D03*
X95885000Y-71120000D03*
D20*
X88265000Y-71120000D03*
D19*
X93345000Y-71120000D03*
X90805000Y-71120000D03*
%TD*%
D21*
%TO.C,U1*%
X130810000Y-88900000D03*
D22*
X129060000Y-85900000D03*
X129560000Y-85900000D03*
X130060000Y-85900000D03*
X130560000Y-85900000D03*
X131060000Y-85900000D03*
X131560000Y-85900000D03*
X132060000Y-85900000D03*
X132560000Y-85900000D03*
X132560000Y-91900000D03*
X132060000Y-91900000D03*
X131560000Y-91900000D03*
X131060000Y-91900000D03*
X130560000Y-91900000D03*
X130060000Y-91900000D03*
X129560000Y-91900000D03*
X129060000Y-91900000D03*
D23*
X133810000Y-87150000D03*
X133810000Y-87650000D03*
X133810000Y-88150000D03*
X133810000Y-88650000D03*
X133810000Y-89150000D03*
X133810000Y-89650000D03*
X133810000Y-90150000D03*
X133810000Y-90650000D03*
X127810000Y-90650000D03*
X127810000Y-90150000D03*
X127810000Y-89650000D03*
X127810000Y-89150000D03*
X127810000Y-88650000D03*
X127810000Y-88150000D03*
X127810000Y-87650000D03*
X127810000Y-87150000D03*
%TD*%
D24*
%TO.C,C1*%
X130810000Y-97536000D03*
X130810000Y-100584000D03*
%TD*%
%TO.C,C2*%
X146050000Y-97536000D03*
X146050000Y-100584000D03*
%TD*%
%TO.C,C3*%
X140970000Y-100584000D03*
X140970000Y-97536000D03*
%TD*%
%TO.C,C4*%
X125730000Y-100584000D03*
X125730000Y-97536000D03*
%TD*%
%TO.C,C5*%
X130810000Y-80264000D03*
X130810000Y-77216000D03*
%TD*%
%TO.C,C6*%
X135890000Y-77216000D03*
X135890000Y-80264000D03*
%TD*%
%TO.C,C7*%
X146050000Y-80264000D03*
X146050000Y-77216000D03*
%TD*%
D25*
%TO.C,J1*%
X145075000Y-88900000D03*
X152075000Y-88900000D03*
D26*
X143775000Y-92600000D03*
D27*
X151175000Y-85200000D03*
X153175000Y-92600000D03*
%TD*%
D24*
%TO.C,L1*%
X135890000Y-100584000D03*
X135890000Y-97536000D03*
%TD*%
%TO.C,R1*%
X125730000Y-77216000D03*
X125730000Y-80264000D03*
%TD*%
%TO.C,R2*%
X120650000Y-80264000D03*
X120650000Y-77216000D03*
%TD*%
D28*
%TO.C,U2*%
X140020040Y-77541120D03*
X141919960Y-77541120D03*
X140970000Y-79938880D03*
%TD*%
D24*
%TO.C,C8*%
X116840000Y-97536000D03*
X116840000Y-100584000D03*
%TD*%
%TO.C,C9*%
X97790000Y-100584000D03*
X97790000Y-97536000D03*
%TD*%
%TO.C,C10*%
X110490000Y-92456000D03*
X110490000Y-95504000D03*
%TD*%
%TO.C,C11*%
X104140000Y-95504000D03*
X104140000Y-92456000D03*
%TD*%
%TO.C,C12*%
X91440000Y-90424000D03*
X91440000Y-87376000D03*
%TD*%
%TO.C,C13*%
X97790000Y-90424000D03*
X97790000Y-87376000D03*
%TD*%
%TO.C,R3*%
X110490000Y-100584000D03*
X110490000Y-97536000D03*
%TD*%
%TO.C,R4*%
X104140000Y-97536000D03*
X104140000Y-100584000D03*
%TD*%
M02*
