G04 #@! TF.GenerationSoftware,KiCad,Pcbnew,no-vcs-found-0f0cb64~58~ubuntu16.04.1*
G04 #@! TF.CreationDate,2017-03-27T14:16:00-04:00*
G04 #@! TF.ProjectId,audio_controller_3x2,617564696F5F636F6E74726F6C6C6572,1.0*
G04 #@! TF.FileFunction,Copper,L1,Top,Signal*
G04 #@! TF.FilePolarity,Positive*
%FSLAX46Y46*%
G04 Gerber Fmt 4.6, Leading zero omitted, Abs format (unit mm)*
G04 Created by KiCad (PCBNEW no-vcs-found-0f0cb64~58~ubuntu16.04.1) date Mon Mar 27 14:16:00 2017*
%MOMM*%
%LPD*%
G01*
G04 APERTURE LIST*
%ADD10C,0.100000*%
%ADD11C,0.228600*%
%ADD12R,3.400000X3.400000*%
%ADD13O,1.854200X2.540000*%
%ADD14R,1.854200X2.540000*%
%ADD15C,3.556000*%
%ADD16C,2.100000*%
%ADD17C,0.889000*%
%ADD18C,0.304800*%
%ADD19C,0.254000*%
%ADD20C,0.203200*%
G04 APERTURE END LIST*
D10*
D11*
X155575000Y-68580000D02*
X85725000Y-68580000D01*
X155575000Y-109220000D02*
X155575000Y-68580000D01*
X85725000Y-109220000D02*
X155575000Y-109220000D01*
X85725000Y-68580000D02*
X85725000Y-109220000D01*
D12*
X130810000Y-88900000D03*
D13*
X90805000Y-71120000D03*
X93345000Y-71120000D03*
D14*
X88265000Y-71120000D03*
D13*
X95885000Y-71120000D03*
X98425000Y-71120000D03*
X100965000Y-71120000D03*
X103505000Y-71120000D03*
X106045000Y-71120000D03*
X108585000Y-71120000D03*
X111125000Y-71120000D03*
X113665000Y-71120000D03*
X116205000Y-71120000D03*
X118745000Y-71120000D03*
X121285000Y-71120000D03*
X123825000Y-71120000D03*
X126365000Y-71120000D03*
X126365000Y-106680000D03*
X123825000Y-106680000D03*
X121285000Y-106680000D03*
X118745000Y-106680000D03*
X116205000Y-106680000D03*
X113665000Y-106680000D03*
X111125000Y-106680000D03*
X108585000Y-106680000D03*
X106045000Y-106680000D03*
X103505000Y-106680000D03*
X100965000Y-106680000D03*
X98425000Y-106680000D03*
X95885000Y-106680000D03*
X93345000Y-106680000D03*
X90805000Y-106680000D03*
X88265000Y-106680000D03*
D15*
X89535000Y-76200000D03*
X89535000Y-101600000D03*
X130175000Y-106680000D03*
X130175000Y-71120000D03*
D16*
X145075000Y-88900000D03*
X152075000Y-88900000D03*
D17*
X145730100Y-91971000D03*
X135539800Y-91971000D03*
X127810000Y-86473700D03*
X126130600Y-86428200D03*
D18*
X130810000Y-88900000D02*
X128830600Y-88900000D01*
X90805000Y-71120000D02*
X92011500Y-71120000D01*
X128562300Y-89168300D02*
X128830600Y-88900000D01*
X109322300Y-89168300D02*
X128562300Y-89168300D01*
X92011500Y-71857500D02*
X109322300Y-89168300D01*
X92011500Y-71120000D02*
X92011500Y-71857500D01*
D19*
X135539800Y-91971000D02*
X145730100Y-91971000D01*
X127182000Y-87101700D02*
X127810000Y-86473700D01*
X125839200Y-87101700D02*
X127182000Y-87101700D01*
X116205000Y-77467500D02*
X125839200Y-87101700D01*
X116205000Y-71120000D02*
X116205000Y-77467500D01*
X121285000Y-81582600D02*
X126130600Y-86428200D01*
X121285000Y-71120000D02*
X121285000Y-81582600D01*
D20*
G36*
X155155900Y-108800900D02*
X86144100Y-108800900D01*
X86144100Y-106306248D01*
X87033100Y-106306248D01*
X87033100Y-107053752D01*
X87126873Y-107525180D01*
X87393915Y-107924837D01*
X87793572Y-108191879D01*
X88265000Y-108285652D01*
X88736428Y-108191879D01*
X89136085Y-107924837D01*
X89403127Y-107525180D01*
X89496900Y-107053752D01*
X89496900Y-106306248D01*
X89573100Y-106306248D01*
X89573100Y-107053752D01*
X89666873Y-107525180D01*
X89933915Y-107924837D01*
X90333572Y-108191879D01*
X90805000Y-108285652D01*
X91276428Y-108191879D01*
X91676085Y-107924837D01*
X91943127Y-107525180D01*
X92036900Y-107053752D01*
X92036900Y-106306248D01*
X92113100Y-106306248D01*
X92113100Y-107053752D01*
X92206873Y-107525180D01*
X92473915Y-107924837D01*
X92873572Y-108191879D01*
X93345000Y-108285652D01*
X93816428Y-108191879D01*
X94216085Y-107924837D01*
X94483127Y-107525180D01*
X94576900Y-107053752D01*
X94576900Y-106306248D01*
X94653100Y-106306248D01*
X94653100Y-107053752D01*
X94746873Y-107525180D01*
X95013915Y-107924837D01*
X95413572Y-108191879D01*
X95885000Y-108285652D01*
X96356428Y-108191879D01*
X96756085Y-107924837D01*
X97023127Y-107525180D01*
X97116900Y-107053752D01*
X97116900Y-106306248D01*
X97193100Y-106306248D01*
X97193100Y-107053752D01*
X97286873Y-107525180D01*
X97553915Y-107924837D01*
X97953572Y-108191879D01*
X98425000Y-108285652D01*
X98896428Y-108191879D01*
X99296085Y-107924837D01*
X99563127Y-107525180D01*
X99656900Y-107053752D01*
X99656900Y-106306248D01*
X99733100Y-106306248D01*
X99733100Y-107053752D01*
X99826873Y-107525180D01*
X100093915Y-107924837D01*
X100493572Y-108191879D01*
X100965000Y-108285652D01*
X101436428Y-108191879D01*
X101836085Y-107924837D01*
X102103127Y-107525180D01*
X102196900Y-107053752D01*
X102196900Y-106306248D01*
X102273100Y-106306248D01*
X102273100Y-107053752D01*
X102366873Y-107525180D01*
X102633915Y-107924837D01*
X103033572Y-108191879D01*
X103505000Y-108285652D01*
X103976428Y-108191879D01*
X104376085Y-107924837D01*
X104643127Y-107525180D01*
X104736900Y-107053752D01*
X104736900Y-106306248D01*
X104813100Y-106306248D01*
X104813100Y-107053752D01*
X104906873Y-107525180D01*
X105173915Y-107924837D01*
X105573572Y-108191879D01*
X106045000Y-108285652D01*
X106516428Y-108191879D01*
X106916085Y-107924837D01*
X107183127Y-107525180D01*
X107276900Y-107053752D01*
X107276900Y-106306248D01*
X107353100Y-106306248D01*
X107353100Y-107053752D01*
X107446873Y-107525180D01*
X107713915Y-107924837D01*
X108113572Y-108191879D01*
X108585000Y-108285652D01*
X109056428Y-108191879D01*
X109456085Y-107924837D01*
X109723127Y-107525180D01*
X109816900Y-107053752D01*
X109816900Y-106306248D01*
X109893100Y-106306248D01*
X109893100Y-107053752D01*
X109986873Y-107525180D01*
X110253915Y-107924837D01*
X110653572Y-108191879D01*
X111125000Y-108285652D01*
X111596428Y-108191879D01*
X111996085Y-107924837D01*
X112263127Y-107525180D01*
X112356900Y-107053752D01*
X112356900Y-106306248D01*
X112433100Y-106306248D01*
X112433100Y-107053752D01*
X112526873Y-107525180D01*
X112793915Y-107924837D01*
X113193572Y-108191879D01*
X113665000Y-108285652D01*
X114136428Y-108191879D01*
X114536085Y-107924837D01*
X114803127Y-107525180D01*
X114896900Y-107053752D01*
X114896900Y-106306248D01*
X114973100Y-106306248D01*
X114973100Y-107053752D01*
X115066873Y-107525180D01*
X115333915Y-107924837D01*
X115733572Y-108191879D01*
X116205000Y-108285652D01*
X116676428Y-108191879D01*
X117076085Y-107924837D01*
X117343127Y-107525180D01*
X117436900Y-107053752D01*
X117436900Y-106306248D01*
X117513100Y-106306248D01*
X117513100Y-107053752D01*
X117606873Y-107525180D01*
X117873915Y-107924837D01*
X118273572Y-108191879D01*
X118745000Y-108285652D01*
X119216428Y-108191879D01*
X119616085Y-107924837D01*
X119883127Y-107525180D01*
X119976900Y-107053752D01*
X119976900Y-106306248D01*
X120053100Y-106306248D01*
X120053100Y-107053752D01*
X120146873Y-107525180D01*
X120413915Y-107924837D01*
X120813572Y-108191879D01*
X121285000Y-108285652D01*
X121756428Y-108191879D01*
X122156085Y-107924837D01*
X122423127Y-107525180D01*
X122516900Y-107053752D01*
X122516900Y-106306248D01*
X122593100Y-106306248D01*
X122593100Y-107053752D01*
X122686873Y-107525180D01*
X122953915Y-107924837D01*
X123353572Y-108191879D01*
X123825000Y-108285652D01*
X124296428Y-108191879D01*
X124696085Y-107924837D01*
X124963127Y-107525180D01*
X125056900Y-107053752D01*
X125056900Y-106306248D01*
X125133100Y-106306248D01*
X125133100Y-107053752D01*
X125226873Y-107525180D01*
X125493915Y-107924837D01*
X125893572Y-108191879D01*
X126365000Y-108285652D01*
X126836428Y-108191879D01*
X127236085Y-107924837D01*
X127503127Y-107525180D01*
X127589197Y-107092477D01*
X128091840Y-107092477D01*
X128408259Y-107858270D01*
X128993648Y-108444682D01*
X129758888Y-108762437D01*
X130587477Y-108763160D01*
X131353270Y-108446741D01*
X131939682Y-107861352D01*
X132257437Y-107096112D01*
X132258160Y-106267523D01*
X131941741Y-105501730D01*
X131356352Y-104915318D01*
X130591112Y-104597563D01*
X129762523Y-104596840D01*
X128996730Y-104913259D01*
X128410318Y-105498648D01*
X128092563Y-106263888D01*
X128091840Y-107092477D01*
X127589197Y-107092477D01*
X127596900Y-107053752D01*
X127596900Y-106306248D01*
X127503127Y-105834820D01*
X127236085Y-105435163D01*
X126836428Y-105168121D01*
X126365000Y-105074348D01*
X125893572Y-105168121D01*
X125493915Y-105435163D01*
X125226873Y-105834820D01*
X125133100Y-106306248D01*
X125056900Y-106306248D01*
X124963127Y-105834820D01*
X124696085Y-105435163D01*
X124296428Y-105168121D01*
X123825000Y-105074348D01*
X123353572Y-105168121D01*
X122953915Y-105435163D01*
X122686873Y-105834820D01*
X122593100Y-106306248D01*
X122516900Y-106306248D01*
X122423127Y-105834820D01*
X122156085Y-105435163D01*
X121756428Y-105168121D01*
X121285000Y-105074348D01*
X120813572Y-105168121D01*
X120413915Y-105435163D01*
X120146873Y-105834820D01*
X120053100Y-106306248D01*
X119976900Y-106306248D01*
X119883127Y-105834820D01*
X119616085Y-105435163D01*
X119216428Y-105168121D01*
X118745000Y-105074348D01*
X118273572Y-105168121D01*
X117873915Y-105435163D01*
X117606873Y-105834820D01*
X117513100Y-106306248D01*
X117436900Y-106306248D01*
X117343127Y-105834820D01*
X117076085Y-105435163D01*
X116676428Y-105168121D01*
X116205000Y-105074348D01*
X115733572Y-105168121D01*
X115333915Y-105435163D01*
X115066873Y-105834820D01*
X114973100Y-106306248D01*
X114896900Y-106306248D01*
X114803127Y-105834820D01*
X114536085Y-105435163D01*
X114136428Y-105168121D01*
X113665000Y-105074348D01*
X113193572Y-105168121D01*
X112793915Y-105435163D01*
X112526873Y-105834820D01*
X112433100Y-106306248D01*
X112356900Y-106306248D01*
X112263127Y-105834820D01*
X111996085Y-105435163D01*
X111596428Y-105168121D01*
X111125000Y-105074348D01*
X110653572Y-105168121D01*
X110253915Y-105435163D01*
X109986873Y-105834820D01*
X109893100Y-106306248D01*
X109816900Y-106306248D01*
X109723127Y-105834820D01*
X109456085Y-105435163D01*
X109056428Y-105168121D01*
X108585000Y-105074348D01*
X108113572Y-105168121D01*
X107713915Y-105435163D01*
X107446873Y-105834820D01*
X107353100Y-106306248D01*
X107276900Y-106306248D01*
X107183127Y-105834820D01*
X106916085Y-105435163D01*
X106516428Y-105168121D01*
X106045000Y-105074348D01*
X105573572Y-105168121D01*
X105173915Y-105435163D01*
X104906873Y-105834820D01*
X104813100Y-106306248D01*
X104736900Y-106306248D01*
X104643127Y-105834820D01*
X104376085Y-105435163D01*
X103976428Y-105168121D01*
X103505000Y-105074348D01*
X103033572Y-105168121D01*
X102633915Y-105435163D01*
X102366873Y-105834820D01*
X102273100Y-106306248D01*
X102196900Y-106306248D01*
X102103127Y-105834820D01*
X101836085Y-105435163D01*
X101436428Y-105168121D01*
X100965000Y-105074348D01*
X100493572Y-105168121D01*
X100093915Y-105435163D01*
X99826873Y-105834820D01*
X99733100Y-106306248D01*
X99656900Y-106306248D01*
X99563127Y-105834820D01*
X99296085Y-105435163D01*
X98896428Y-105168121D01*
X98425000Y-105074348D01*
X97953572Y-105168121D01*
X97553915Y-105435163D01*
X97286873Y-105834820D01*
X97193100Y-106306248D01*
X97116900Y-106306248D01*
X97023127Y-105834820D01*
X96756085Y-105435163D01*
X96356428Y-105168121D01*
X95885000Y-105074348D01*
X95413572Y-105168121D01*
X95013915Y-105435163D01*
X94746873Y-105834820D01*
X94653100Y-106306248D01*
X94576900Y-106306248D01*
X94483127Y-105834820D01*
X94216085Y-105435163D01*
X93816428Y-105168121D01*
X93345000Y-105074348D01*
X92873572Y-105168121D01*
X92473915Y-105435163D01*
X92206873Y-105834820D01*
X92113100Y-106306248D01*
X92036900Y-106306248D01*
X91943127Y-105834820D01*
X91676085Y-105435163D01*
X91276428Y-105168121D01*
X90805000Y-105074348D01*
X90333572Y-105168121D01*
X89933915Y-105435163D01*
X89666873Y-105834820D01*
X89573100Y-106306248D01*
X89496900Y-106306248D01*
X89403127Y-105834820D01*
X89136085Y-105435163D01*
X88736428Y-105168121D01*
X88265000Y-105074348D01*
X87793572Y-105168121D01*
X87393915Y-105435163D01*
X87126873Y-105834820D01*
X87033100Y-106306248D01*
X86144100Y-106306248D01*
X86144100Y-102012477D01*
X87451840Y-102012477D01*
X87768259Y-102778270D01*
X88353648Y-103364682D01*
X89118888Y-103682437D01*
X89947477Y-103683160D01*
X90713270Y-103366741D01*
X91299682Y-102781352D01*
X91617437Y-102016112D01*
X91618160Y-101187523D01*
X91301741Y-100421730D01*
X90716352Y-99835318D01*
X89951112Y-99517563D01*
X89122523Y-99516840D01*
X88356730Y-99833259D01*
X87770318Y-100418648D01*
X87452563Y-101183888D01*
X87451840Y-102012477D01*
X86144100Y-102012477D01*
X86144100Y-92119391D01*
X134790370Y-92119391D01*
X134904204Y-92394890D01*
X135114801Y-92605856D01*
X135390101Y-92720170D01*
X135688191Y-92720430D01*
X135963690Y-92606596D01*
X136167843Y-92402800D01*
X145102400Y-92402800D01*
X145305101Y-92605856D01*
X145580401Y-92720170D01*
X145878491Y-92720430D01*
X146153990Y-92606596D01*
X146364956Y-92395999D01*
X146479270Y-92120699D01*
X146479530Y-91822609D01*
X146365696Y-91547110D01*
X146155099Y-91336144D01*
X145879799Y-91221830D01*
X145581709Y-91221570D01*
X145306210Y-91335404D01*
X145102057Y-91539200D01*
X136167500Y-91539200D01*
X135964799Y-91336144D01*
X135689499Y-91221830D01*
X135391409Y-91221570D01*
X135115910Y-91335404D01*
X134904944Y-91546001D01*
X134790630Y-91821301D01*
X134790370Y-92119391D01*
X86144100Y-92119391D01*
X86144100Y-89204800D01*
X128500400Y-89204800D01*
X128500400Y-90721257D01*
X128593206Y-90945311D01*
X128764689Y-91116794D01*
X128988743Y-91209600D01*
X130505200Y-91209600D01*
X130657600Y-91057200D01*
X130657600Y-89052400D01*
X130962400Y-89052400D01*
X130962400Y-91057200D01*
X131114800Y-91209600D01*
X132631257Y-91209600D01*
X132855311Y-91116794D01*
X133026794Y-90945311D01*
X133119600Y-90721257D01*
X133119600Y-89204800D01*
X133083104Y-89168304D01*
X143719965Y-89168304D01*
X143925787Y-89666430D01*
X144306566Y-90047874D01*
X144804331Y-90254564D01*
X145343304Y-90255035D01*
X145841430Y-90049213D01*
X146222874Y-89668434D01*
X146429564Y-89170669D01*
X146429566Y-89168304D01*
X150719965Y-89168304D01*
X150925787Y-89666430D01*
X151306566Y-90047874D01*
X151804331Y-90254564D01*
X152343304Y-90255035D01*
X152841430Y-90049213D01*
X153222874Y-89668434D01*
X153429564Y-89170669D01*
X153430035Y-88631696D01*
X153224213Y-88133570D01*
X152843434Y-87752126D01*
X152345669Y-87545436D01*
X151806696Y-87544965D01*
X151308570Y-87750787D01*
X150927126Y-88131566D01*
X150720436Y-88629331D01*
X150719965Y-89168304D01*
X146429566Y-89168304D01*
X146430035Y-88631696D01*
X146224213Y-88133570D01*
X145843434Y-87752126D01*
X145345669Y-87545436D01*
X144806696Y-87544965D01*
X144308570Y-87750787D01*
X143927126Y-88131566D01*
X143720436Y-88629331D01*
X143719965Y-89168304D01*
X133083104Y-89168304D01*
X132967200Y-89052400D01*
X130962400Y-89052400D01*
X130657600Y-89052400D01*
X128652800Y-89052400D01*
X128500400Y-89204800D01*
X86144100Y-89204800D01*
X86144100Y-76612477D01*
X87451840Y-76612477D01*
X87768259Y-77378270D01*
X88353648Y-77964682D01*
X89118888Y-78282437D01*
X89947477Y-78283160D01*
X90713270Y-77966741D01*
X91299682Y-77381352D01*
X91617437Y-76616112D01*
X91618160Y-75787523D01*
X91301741Y-75021730D01*
X90716352Y-74435318D01*
X89951112Y-74117563D01*
X89122523Y-74116840D01*
X88356730Y-74433259D01*
X87770318Y-75018648D01*
X87452563Y-75783888D01*
X87451840Y-76612477D01*
X86144100Y-76612477D01*
X86144100Y-69850000D01*
X87027129Y-69850000D01*
X87027129Y-72390000D01*
X87050785Y-72508927D01*
X87118152Y-72609748D01*
X87218973Y-72677115D01*
X87337900Y-72700771D01*
X89192100Y-72700771D01*
X89311027Y-72677115D01*
X89411848Y-72609748D01*
X89479215Y-72508927D01*
X89502871Y-72390000D01*
X89502871Y-72263898D01*
X89826152Y-72657274D01*
X90357730Y-72940947D01*
X90415269Y-72949357D01*
X90652600Y-72838785D01*
X90652600Y-71272400D01*
X90632600Y-71272400D01*
X90632600Y-70967600D01*
X90652600Y-70967600D01*
X90652600Y-69401215D01*
X90957400Y-69401215D01*
X90957400Y-70967600D01*
X90977400Y-70967600D01*
X90977400Y-71272400D01*
X90957400Y-71272400D01*
X90957400Y-72838785D01*
X91194731Y-72949357D01*
X91252270Y-72940947D01*
X91783848Y-72657274D01*
X92166405Y-72191769D01*
X92226414Y-71994425D01*
X92473915Y-72364837D01*
X92873572Y-72631879D01*
X93345000Y-72725652D01*
X93816428Y-72631879D01*
X94216085Y-72364837D01*
X94483127Y-71965180D01*
X94576900Y-71493752D01*
X94576900Y-70746248D01*
X94653100Y-70746248D01*
X94653100Y-71493752D01*
X94746873Y-71965180D01*
X95013915Y-72364837D01*
X95413572Y-72631879D01*
X95885000Y-72725652D01*
X96356428Y-72631879D01*
X96756085Y-72364837D01*
X97023127Y-71965180D01*
X97116900Y-71493752D01*
X97116900Y-70746248D01*
X97193100Y-70746248D01*
X97193100Y-71493752D01*
X97286873Y-71965180D01*
X97553915Y-72364837D01*
X97953572Y-72631879D01*
X98425000Y-72725652D01*
X98896428Y-72631879D01*
X99296085Y-72364837D01*
X99563127Y-71965180D01*
X99656900Y-71493752D01*
X99656900Y-70746248D01*
X99733100Y-70746248D01*
X99733100Y-71493752D01*
X99826873Y-71965180D01*
X100093915Y-72364837D01*
X100493572Y-72631879D01*
X100965000Y-72725652D01*
X101436428Y-72631879D01*
X101836085Y-72364837D01*
X102103127Y-71965180D01*
X102196900Y-71493752D01*
X102196900Y-70746248D01*
X102273100Y-70746248D01*
X102273100Y-71493752D01*
X102366873Y-71965180D01*
X102633915Y-72364837D01*
X103033572Y-72631879D01*
X103505000Y-72725652D01*
X103976428Y-72631879D01*
X104376085Y-72364837D01*
X104643127Y-71965180D01*
X104736900Y-71493752D01*
X104736900Y-70746248D01*
X104813100Y-70746248D01*
X104813100Y-71493752D01*
X104906873Y-71965180D01*
X105173915Y-72364837D01*
X105573572Y-72631879D01*
X106045000Y-72725652D01*
X106516428Y-72631879D01*
X106916085Y-72364837D01*
X107183127Y-71965180D01*
X107276900Y-71493752D01*
X107276900Y-70746248D01*
X107353100Y-70746248D01*
X107353100Y-71493752D01*
X107446873Y-71965180D01*
X107713915Y-72364837D01*
X108113572Y-72631879D01*
X108585000Y-72725652D01*
X109056428Y-72631879D01*
X109456085Y-72364837D01*
X109723127Y-71965180D01*
X109816900Y-71493752D01*
X109816900Y-70746248D01*
X109893100Y-70746248D01*
X109893100Y-71493752D01*
X109986873Y-71965180D01*
X110253915Y-72364837D01*
X110653572Y-72631879D01*
X111125000Y-72725652D01*
X111596428Y-72631879D01*
X111996085Y-72364837D01*
X112263127Y-71965180D01*
X112356900Y-71493752D01*
X112356900Y-70746248D01*
X112433100Y-70746248D01*
X112433100Y-71493752D01*
X112526873Y-71965180D01*
X112793915Y-72364837D01*
X113193572Y-72631879D01*
X113665000Y-72725652D01*
X114136428Y-72631879D01*
X114536085Y-72364837D01*
X114803127Y-71965180D01*
X114896900Y-71493752D01*
X114896900Y-70746248D01*
X114973100Y-70746248D01*
X114973100Y-71493752D01*
X115066873Y-71965180D01*
X115333915Y-72364837D01*
X115733572Y-72631879D01*
X115773200Y-72639762D01*
X115773200Y-77467500D01*
X115806069Y-77632743D01*
X115899671Y-77772829D01*
X125533869Y-87407026D01*
X125533871Y-87407029D01*
X125673957Y-87500631D01*
X125839200Y-87533500D01*
X127182000Y-87533500D01*
X127347243Y-87500631D01*
X127487329Y-87407029D01*
X127671478Y-87222880D01*
X127958391Y-87223130D01*
X128233890Y-87109296D01*
X128264496Y-87078743D01*
X128500400Y-87078743D01*
X128500400Y-88595200D01*
X128652800Y-88747600D01*
X130657600Y-88747600D01*
X130657600Y-86742800D01*
X130962400Y-86742800D01*
X130962400Y-88747600D01*
X132967200Y-88747600D01*
X133119600Y-88595200D01*
X133119600Y-87078743D01*
X133026794Y-86854689D01*
X132855311Y-86683206D01*
X132631257Y-86590400D01*
X131114800Y-86590400D01*
X130962400Y-86742800D01*
X130657600Y-86742800D01*
X130505200Y-86590400D01*
X128988743Y-86590400D01*
X128764689Y-86683206D01*
X128593206Y-86854689D01*
X128500400Y-87078743D01*
X128264496Y-87078743D01*
X128444856Y-86898699D01*
X128559170Y-86623399D01*
X128559430Y-86325309D01*
X128445596Y-86049810D01*
X128234999Y-85838844D01*
X127959699Y-85724530D01*
X127661609Y-85724270D01*
X127386110Y-85838104D01*
X127175144Y-86048701D01*
X127060830Y-86324001D01*
X127060578Y-86612464D01*
X127003142Y-86669900D01*
X126841568Y-86669900D01*
X126879770Y-86577899D01*
X126880030Y-86279809D01*
X126766196Y-86004310D01*
X126555599Y-85793344D01*
X126280299Y-85679030D01*
X125991836Y-85678778D01*
X121716800Y-81403742D01*
X121716800Y-72639762D01*
X121756428Y-72631879D01*
X122156085Y-72364837D01*
X122423127Y-71965180D01*
X122516900Y-71493752D01*
X122516900Y-70746248D01*
X122593100Y-70746248D01*
X122593100Y-71493752D01*
X122686873Y-71965180D01*
X122953915Y-72364837D01*
X123353572Y-72631879D01*
X123825000Y-72725652D01*
X124296428Y-72631879D01*
X124696085Y-72364837D01*
X124963127Y-71965180D01*
X125056900Y-71493752D01*
X125056900Y-70746248D01*
X125133100Y-70746248D01*
X125133100Y-71493752D01*
X125226873Y-71965180D01*
X125493915Y-72364837D01*
X125893572Y-72631879D01*
X126365000Y-72725652D01*
X126836428Y-72631879D01*
X127236085Y-72364837D01*
X127503127Y-71965180D01*
X127589197Y-71532477D01*
X128091840Y-71532477D01*
X128408259Y-72298270D01*
X128993648Y-72884682D01*
X129758888Y-73202437D01*
X130587477Y-73203160D01*
X131353270Y-72886741D01*
X131939682Y-72301352D01*
X132257437Y-71536112D01*
X132258160Y-70707523D01*
X131941741Y-69941730D01*
X131356352Y-69355318D01*
X130591112Y-69037563D01*
X129762523Y-69036840D01*
X128996730Y-69353259D01*
X128410318Y-69938648D01*
X128092563Y-70703888D01*
X128091840Y-71532477D01*
X127589197Y-71532477D01*
X127596900Y-71493752D01*
X127596900Y-70746248D01*
X127503127Y-70274820D01*
X127236085Y-69875163D01*
X126836428Y-69608121D01*
X126365000Y-69514348D01*
X125893572Y-69608121D01*
X125493915Y-69875163D01*
X125226873Y-70274820D01*
X125133100Y-70746248D01*
X125056900Y-70746248D01*
X124963127Y-70274820D01*
X124696085Y-69875163D01*
X124296428Y-69608121D01*
X123825000Y-69514348D01*
X123353572Y-69608121D01*
X122953915Y-69875163D01*
X122686873Y-70274820D01*
X122593100Y-70746248D01*
X122516900Y-70746248D01*
X122423127Y-70274820D01*
X122156085Y-69875163D01*
X121756428Y-69608121D01*
X121285000Y-69514348D01*
X120813572Y-69608121D01*
X120413915Y-69875163D01*
X120146873Y-70274820D01*
X120053100Y-70746248D01*
X120053100Y-71493752D01*
X120146873Y-71965180D01*
X120413915Y-72364837D01*
X120813572Y-72631879D01*
X120853200Y-72639762D01*
X120853200Y-81505042D01*
X116636800Y-77288642D01*
X116636800Y-72639762D01*
X116676428Y-72631879D01*
X117076085Y-72364837D01*
X117343127Y-71965180D01*
X117436900Y-71493752D01*
X117436900Y-70746248D01*
X117513100Y-70746248D01*
X117513100Y-71493752D01*
X117606873Y-71965180D01*
X117873915Y-72364837D01*
X118273572Y-72631879D01*
X118745000Y-72725652D01*
X119216428Y-72631879D01*
X119616085Y-72364837D01*
X119883127Y-71965180D01*
X119976900Y-71493752D01*
X119976900Y-70746248D01*
X119883127Y-70274820D01*
X119616085Y-69875163D01*
X119216428Y-69608121D01*
X118745000Y-69514348D01*
X118273572Y-69608121D01*
X117873915Y-69875163D01*
X117606873Y-70274820D01*
X117513100Y-70746248D01*
X117436900Y-70746248D01*
X117343127Y-70274820D01*
X117076085Y-69875163D01*
X116676428Y-69608121D01*
X116205000Y-69514348D01*
X115733572Y-69608121D01*
X115333915Y-69875163D01*
X115066873Y-70274820D01*
X114973100Y-70746248D01*
X114896900Y-70746248D01*
X114803127Y-70274820D01*
X114536085Y-69875163D01*
X114136428Y-69608121D01*
X113665000Y-69514348D01*
X113193572Y-69608121D01*
X112793915Y-69875163D01*
X112526873Y-70274820D01*
X112433100Y-70746248D01*
X112356900Y-70746248D01*
X112263127Y-70274820D01*
X111996085Y-69875163D01*
X111596428Y-69608121D01*
X111125000Y-69514348D01*
X110653572Y-69608121D01*
X110253915Y-69875163D01*
X109986873Y-70274820D01*
X109893100Y-70746248D01*
X109816900Y-70746248D01*
X109723127Y-70274820D01*
X109456085Y-69875163D01*
X109056428Y-69608121D01*
X108585000Y-69514348D01*
X108113572Y-69608121D01*
X107713915Y-69875163D01*
X107446873Y-70274820D01*
X107353100Y-70746248D01*
X107276900Y-70746248D01*
X107183127Y-70274820D01*
X106916085Y-69875163D01*
X106516428Y-69608121D01*
X106045000Y-69514348D01*
X105573572Y-69608121D01*
X105173915Y-69875163D01*
X104906873Y-70274820D01*
X104813100Y-70746248D01*
X104736900Y-70746248D01*
X104643127Y-70274820D01*
X104376085Y-69875163D01*
X103976428Y-69608121D01*
X103505000Y-69514348D01*
X103033572Y-69608121D01*
X102633915Y-69875163D01*
X102366873Y-70274820D01*
X102273100Y-70746248D01*
X102196900Y-70746248D01*
X102103127Y-70274820D01*
X101836085Y-69875163D01*
X101436428Y-69608121D01*
X100965000Y-69514348D01*
X100493572Y-69608121D01*
X100093915Y-69875163D01*
X99826873Y-70274820D01*
X99733100Y-70746248D01*
X99656900Y-70746248D01*
X99563127Y-70274820D01*
X99296085Y-69875163D01*
X98896428Y-69608121D01*
X98425000Y-69514348D01*
X97953572Y-69608121D01*
X97553915Y-69875163D01*
X97286873Y-70274820D01*
X97193100Y-70746248D01*
X97116900Y-70746248D01*
X97023127Y-70274820D01*
X96756085Y-69875163D01*
X96356428Y-69608121D01*
X95885000Y-69514348D01*
X95413572Y-69608121D01*
X95013915Y-69875163D01*
X94746873Y-70274820D01*
X94653100Y-70746248D01*
X94576900Y-70746248D01*
X94483127Y-70274820D01*
X94216085Y-69875163D01*
X93816428Y-69608121D01*
X93345000Y-69514348D01*
X92873572Y-69608121D01*
X92473915Y-69875163D01*
X92226414Y-70245575D01*
X92166405Y-70048231D01*
X91783848Y-69582726D01*
X91252270Y-69299053D01*
X91194731Y-69290643D01*
X90957400Y-69401215D01*
X90652600Y-69401215D01*
X90415269Y-69290643D01*
X90357730Y-69299053D01*
X89826152Y-69582726D01*
X89502871Y-69976102D01*
X89502871Y-69850000D01*
X89479215Y-69731073D01*
X89411848Y-69630252D01*
X89311027Y-69562885D01*
X89192100Y-69539229D01*
X87337900Y-69539229D01*
X87218973Y-69562885D01*
X87118152Y-69630252D01*
X87050785Y-69731073D01*
X87027129Y-69850000D01*
X86144100Y-69850000D01*
X86144100Y-68999100D01*
X155155900Y-68999100D01*
X155155900Y-108800900D01*
X155155900Y-108800900D01*
G37*
X155155900Y-108800900D02*
X86144100Y-108800900D01*
X86144100Y-106306248D01*
X87033100Y-106306248D01*
X87033100Y-107053752D01*
X87126873Y-107525180D01*
X87393915Y-107924837D01*
X87793572Y-108191879D01*
X88265000Y-108285652D01*
X88736428Y-108191879D01*
X89136085Y-107924837D01*
X89403127Y-107525180D01*
X89496900Y-107053752D01*
X89496900Y-106306248D01*
X89573100Y-106306248D01*
X89573100Y-107053752D01*
X89666873Y-107525180D01*
X89933915Y-107924837D01*
X90333572Y-108191879D01*
X90805000Y-108285652D01*
X91276428Y-108191879D01*
X91676085Y-107924837D01*
X91943127Y-107525180D01*
X92036900Y-107053752D01*
X92036900Y-106306248D01*
X92113100Y-106306248D01*
X92113100Y-107053752D01*
X92206873Y-107525180D01*
X92473915Y-107924837D01*
X92873572Y-108191879D01*
X93345000Y-108285652D01*
X93816428Y-108191879D01*
X94216085Y-107924837D01*
X94483127Y-107525180D01*
X94576900Y-107053752D01*
X94576900Y-106306248D01*
X94653100Y-106306248D01*
X94653100Y-107053752D01*
X94746873Y-107525180D01*
X95013915Y-107924837D01*
X95413572Y-108191879D01*
X95885000Y-108285652D01*
X96356428Y-108191879D01*
X96756085Y-107924837D01*
X97023127Y-107525180D01*
X97116900Y-107053752D01*
X97116900Y-106306248D01*
X97193100Y-106306248D01*
X97193100Y-107053752D01*
X97286873Y-107525180D01*
X97553915Y-107924837D01*
X97953572Y-108191879D01*
X98425000Y-108285652D01*
X98896428Y-108191879D01*
X99296085Y-107924837D01*
X99563127Y-107525180D01*
X99656900Y-107053752D01*
X99656900Y-106306248D01*
X99733100Y-106306248D01*
X99733100Y-107053752D01*
X99826873Y-107525180D01*
X100093915Y-107924837D01*
X100493572Y-108191879D01*
X100965000Y-108285652D01*
X101436428Y-108191879D01*
X101836085Y-107924837D01*
X102103127Y-107525180D01*
X102196900Y-107053752D01*
X102196900Y-106306248D01*
X102273100Y-106306248D01*
X102273100Y-107053752D01*
X102366873Y-107525180D01*
X102633915Y-107924837D01*
X103033572Y-108191879D01*
X103505000Y-108285652D01*
X103976428Y-108191879D01*
X104376085Y-107924837D01*
X104643127Y-107525180D01*
X104736900Y-107053752D01*
X104736900Y-106306248D01*
X104813100Y-106306248D01*
X104813100Y-107053752D01*
X104906873Y-107525180D01*
X105173915Y-107924837D01*
X105573572Y-108191879D01*
X106045000Y-108285652D01*
X106516428Y-108191879D01*
X106916085Y-107924837D01*
X107183127Y-107525180D01*
X107276900Y-107053752D01*
X107276900Y-106306248D01*
X107353100Y-106306248D01*
X107353100Y-107053752D01*
X107446873Y-107525180D01*
X107713915Y-107924837D01*
X108113572Y-108191879D01*
X108585000Y-108285652D01*
X109056428Y-108191879D01*
X109456085Y-107924837D01*
X109723127Y-107525180D01*
X109816900Y-107053752D01*
X109816900Y-106306248D01*
X109893100Y-106306248D01*
X109893100Y-107053752D01*
X109986873Y-107525180D01*
X110253915Y-107924837D01*
X110653572Y-108191879D01*
X111125000Y-108285652D01*
X111596428Y-108191879D01*
X111996085Y-107924837D01*
X112263127Y-107525180D01*
X112356900Y-107053752D01*
X112356900Y-106306248D01*
X112433100Y-106306248D01*
X112433100Y-107053752D01*
X112526873Y-107525180D01*
X112793915Y-107924837D01*
X113193572Y-108191879D01*
X113665000Y-108285652D01*
X114136428Y-108191879D01*
X114536085Y-107924837D01*
X114803127Y-107525180D01*
X114896900Y-107053752D01*
X114896900Y-106306248D01*
X114973100Y-106306248D01*
X114973100Y-107053752D01*
X115066873Y-107525180D01*
X115333915Y-107924837D01*
X115733572Y-108191879D01*
X116205000Y-108285652D01*
X116676428Y-108191879D01*
X117076085Y-107924837D01*
X117343127Y-107525180D01*
X117436900Y-107053752D01*
X117436900Y-106306248D01*
X117513100Y-106306248D01*
X117513100Y-107053752D01*
X117606873Y-107525180D01*
X117873915Y-107924837D01*
X118273572Y-108191879D01*
X118745000Y-108285652D01*
X119216428Y-108191879D01*
X119616085Y-107924837D01*
X119883127Y-107525180D01*
X119976900Y-107053752D01*
X119976900Y-106306248D01*
X120053100Y-106306248D01*
X120053100Y-107053752D01*
X120146873Y-107525180D01*
X120413915Y-107924837D01*
X120813572Y-108191879D01*
X121285000Y-108285652D01*
X121756428Y-108191879D01*
X122156085Y-107924837D01*
X122423127Y-107525180D01*
X122516900Y-107053752D01*
X122516900Y-106306248D01*
X122593100Y-106306248D01*
X122593100Y-107053752D01*
X122686873Y-107525180D01*
X122953915Y-107924837D01*
X123353572Y-108191879D01*
X123825000Y-108285652D01*
X124296428Y-108191879D01*
X124696085Y-107924837D01*
X124963127Y-107525180D01*
X125056900Y-107053752D01*
X125056900Y-106306248D01*
X125133100Y-106306248D01*
X125133100Y-107053752D01*
X125226873Y-107525180D01*
X125493915Y-107924837D01*
X125893572Y-108191879D01*
X126365000Y-108285652D01*
X126836428Y-108191879D01*
X127236085Y-107924837D01*
X127503127Y-107525180D01*
X127589197Y-107092477D01*
X128091840Y-107092477D01*
X128408259Y-107858270D01*
X128993648Y-108444682D01*
X129758888Y-108762437D01*
X130587477Y-108763160D01*
X131353270Y-108446741D01*
X131939682Y-107861352D01*
X132257437Y-107096112D01*
X132258160Y-106267523D01*
X131941741Y-105501730D01*
X131356352Y-104915318D01*
X130591112Y-104597563D01*
X129762523Y-104596840D01*
X128996730Y-104913259D01*
X128410318Y-105498648D01*
X128092563Y-106263888D01*
X128091840Y-107092477D01*
X127589197Y-107092477D01*
X127596900Y-107053752D01*
X127596900Y-106306248D01*
X127503127Y-105834820D01*
X127236085Y-105435163D01*
X126836428Y-105168121D01*
X126365000Y-105074348D01*
X125893572Y-105168121D01*
X125493915Y-105435163D01*
X125226873Y-105834820D01*
X125133100Y-106306248D01*
X125056900Y-106306248D01*
X124963127Y-105834820D01*
X124696085Y-105435163D01*
X124296428Y-105168121D01*
X123825000Y-105074348D01*
X123353572Y-105168121D01*
X122953915Y-105435163D01*
X122686873Y-105834820D01*
X122593100Y-106306248D01*
X122516900Y-106306248D01*
X122423127Y-105834820D01*
X122156085Y-105435163D01*
X121756428Y-105168121D01*
X121285000Y-105074348D01*
X120813572Y-105168121D01*
X120413915Y-105435163D01*
X120146873Y-105834820D01*
X120053100Y-106306248D01*
X119976900Y-106306248D01*
X119883127Y-105834820D01*
X119616085Y-105435163D01*
X119216428Y-105168121D01*
X118745000Y-105074348D01*
X118273572Y-105168121D01*
X117873915Y-105435163D01*
X117606873Y-105834820D01*
X117513100Y-106306248D01*
X117436900Y-106306248D01*
X117343127Y-105834820D01*
X117076085Y-105435163D01*
X116676428Y-105168121D01*
X116205000Y-105074348D01*
X115733572Y-105168121D01*
X115333915Y-105435163D01*
X115066873Y-105834820D01*
X114973100Y-106306248D01*
X114896900Y-106306248D01*
X114803127Y-105834820D01*
X114536085Y-105435163D01*
X114136428Y-105168121D01*
X113665000Y-105074348D01*
X113193572Y-105168121D01*
X112793915Y-105435163D01*
X112526873Y-105834820D01*
X112433100Y-106306248D01*
X112356900Y-106306248D01*
X112263127Y-105834820D01*
X111996085Y-105435163D01*
X111596428Y-105168121D01*
X111125000Y-105074348D01*
X110653572Y-105168121D01*
X110253915Y-105435163D01*
X109986873Y-105834820D01*
X109893100Y-106306248D01*
X109816900Y-106306248D01*
X109723127Y-105834820D01*
X109456085Y-105435163D01*
X109056428Y-105168121D01*
X108585000Y-105074348D01*
X108113572Y-105168121D01*
X107713915Y-105435163D01*
X107446873Y-105834820D01*
X107353100Y-106306248D01*
X107276900Y-106306248D01*
X107183127Y-105834820D01*
X106916085Y-105435163D01*
X106516428Y-105168121D01*
X106045000Y-105074348D01*
X105573572Y-105168121D01*
X105173915Y-105435163D01*
X104906873Y-105834820D01*
X104813100Y-106306248D01*
X104736900Y-106306248D01*
X104643127Y-105834820D01*
X104376085Y-105435163D01*
X103976428Y-105168121D01*
X103505000Y-105074348D01*
X103033572Y-105168121D01*
X102633915Y-105435163D01*
X102366873Y-105834820D01*
X102273100Y-106306248D01*
X102196900Y-106306248D01*
X102103127Y-105834820D01*
X101836085Y-105435163D01*
X101436428Y-105168121D01*
X100965000Y-105074348D01*
X100493572Y-105168121D01*
X100093915Y-105435163D01*
X99826873Y-105834820D01*
X99733100Y-106306248D01*
X99656900Y-106306248D01*
X99563127Y-105834820D01*
X99296085Y-105435163D01*
X98896428Y-105168121D01*
X98425000Y-105074348D01*
X97953572Y-105168121D01*
X97553915Y-105435163D01*
X97286873Y-105834820D01*
X97193100Y-106306248D01*
X97116900Y-106306248D01*
X97023127Y-105834820D01*
X96756085Y-105435163D01*
X96356428Y-105168121D01*
X95885000Y-105074348D01*
X95413572Y-105168121D01*
X95013915Y-105435163D01*
X94746873Y-105834820D01*
X94653100Y-106306248D01*
X94576900Y-106306248D01*
X94483127Y-105834820D01*
X94216085Y-105435163D01*
X93816428Y-105168121D01*
X93345000Y-105074348D01*
X92873572Y-105168121D01*
X92473915Y-105435163D01*
X92206873Y-105834820D01*
X92113100Y-106306248D01*
X92036900Y-106306248D01*
X91943127Y-105834820D01*
X91676085Y-105435163D01*
X91276428Y-105168121D01*
X90805000Y-105074348D01*
X90333572Y-105168121D01*
X89933915Y-105435163D01*
X89666873Y-105834820D01*
X89573100Y-106306248D01*
X89496900Y-106306248D01*
X89403127Y-105834820D01*
X89136085Y-105435163D01*
X88736428Y-105168121D01*
X88265000Y-105074348D01*
X87793572Y-105168121D01*
X87393915Y-105435163D01*
X87126873Y-105834820D01*
X87033100Y-106306248D01*
X86144100Y-106306248D01*
X86144100Y-102012477D01*
X87451840Y-102012477D01*
X87768259Y-102778270D01*
X88353648Y-103364682D01*
X89118888Y-103682437D01*
X89947477Y-103683160D01*
X90713270Y-103366741D01*
X91299682Y-102781352D01*
X91617437Y-102016112D01*
X91618160Y-101187523D01*
X91301741Y-100421730D01*
X90716352Y-99835318D01*
X89951112Y-99517563D01*
X89122523Y-99516840D01*
X88356730Y-99833259D01*
X87770318Y-100418648D01*
X87452563Y-101183888D01*
X87451840Y-102012477D01*
X86144100Y-102012477D01*
X86144100Y-92119391D01*
X134790370Y-92119391D01*
X134904204Y-92394890D01*
X135114801Y-92605856D01*
X135390101Y-92720170D01*
X135688191Y-92720430D01*
X135963690Y-92606596D01*
X136167843Y-92402800D01*
X145102400Y-92402800D01*
X145305101Y-92605856D01*
X145580401Y-92720170D01*
X145878491Y-92720430D01*
X146153990Y-92606596D01*
X146364956Y-92395999D01*
X146479270Y-92120699D01*
X146479530Y-91822609D01*
X146365696Y-91547110D01*
X146155099Y-91336144D01*
X145879799Y-91221830D01*
X145581709Y-91221570D01*
X145306210Y-91335404D01*
X145102057Y-91539200D01*
X136167500Y-91539200D01*
X135964799Y-91336144D01*
X135689499Y-91221830D01*
X135391409Y-91221570D01*
X135115910Y-91335404D01*
X134904944Y-91546001D01*
X134790630Y-91821301D01*
X134790370Y-92119391D01*
X86144100Y-92119391D01*
X86144100Y-89204800D01*
X128500400Y-89204800D01*
X128500400Y-90721257D01*
X128593206Y-90945311D01*
X128764689Y-91116794D01*
X128988743Y-91209600D01*
X130505200Y-91209600D01*
X130657600Y-91057200D01*
X130657600Y-89052400D01*
X130962400Y-89052400D01*
X130962400Y-91057200D01*
X131114800Y-91209600D01*
X132631257Y-91209600D01*
X132855311Y-91116794D01*
X133026794Y-90945311D01*
X133119600Y-90721257D01*
X133119600Y-89204800D01*
X133083104Y-89168304D01*
X143719965Y-89168304D01*
X143925787Y-89666430D01*
X144306566Y-90047874D01*
X144804331Y-90254564D01*
X145343304Y-90255035D01*
X145841430Y-90049213D01*
X146222874Y-89668434D01*
X146429564Y-89170669D01*
X146429566Y-89168304D01*
X150719965Y-89168304D01*
X150925787Y-89666430D01*
X151306566Y-90047874D01*
X151804331Y-90254564D01*
X152343304Y-90255035D01*
X152841430Y-90049213D01*
X153222874Y-89668434D01*
X153429564Y-89170669D01*
X153430035Y-88631696D01*
X153224213Y-88133570D01*
X152843434Y-87752126D01*
X152345669Y-87545436D01*
X151806696Y-87544965D01*
X151308570Y-87750787D01*
X150927126Y-88131566D01*
X150720436Y-88629331D01*
X150719965Y-89168304D01*
X146429566Y-89168304D01*
X146430035Y-88631696D01*
X146224213Y-88133570D01*
X145843434Y-87752126D01*
X145345669Y-87545436D01*
X144806696Y-87544965D01*
X144308570Y-87750787D01*
X143927126Y-88131566D01*
X143720436Y-88629331D01*
X143719965Y-89168304D01*
X133083104Y-89168304D01*
X132967200Y-89052400D01*
X130962400Y-89052400D01*
X130657600Y-89052400D01*
X128652800Y-89052400D01*
X128500400Y-89204800D01*
X86144100Y-89204800D01*
X86144100Y-76612477D01*
X87451840Y-76612477D01*
X87768259Y-77378270D01*
X88353648Y-77964682D01*
X89118888Y-78282437D01*
X89947477Y-78283160D01*
X90713270Y-77966741D01*
X91299682Y-77381352D01*
X91617437Y-76616112D01*
X91618160Y-75787523D01*
X91301741Y-75021730D01*
X90716352Y-74435318D01*
X89951112Y-74117563D01*
X89122523Y-74116840D01*
X88356730Y-74433259D01*
X87770318Y-75018648D01*
X87452563Y-75783888D01*
X87451840Y-76612477D01*
X86144100Y-76612477D01*
X86144100Y-69850000D01*
X87027129Y-69850000D01*
X87027129Y-72390000D01*
X87050785Y-72508927D01*
X87118152Y-72609748D01*
X87218973Y-72677115D01*
X87337900Y-72700771D01*
X89192100Y-72700771D01*
X89311027Y-72677115D01*
X89411848Y-72609748D01*
X89479215Y-72508927D01*
X89502871Y-72390000D01*
X89502871Y-72263898D01*
X89826152Y-72657274D01*
X90357730Y-72940947D01*
X90415269Y-72949357D01*
X90652600Y-72838785D01*
X90652600Y-71272400D01*
X90632600Y-71272400D01*
X90632600Y-70967600D01*
X90652600Y-70967600D01*
X90652600Y-69401215D01*
X90957400Y-69401215D01*
X90957400Y-70967600D01*
X90977400Y-70967600D01*
X90977400Y-71272400D01*
X90957400Y-71272400D01*
X90957400Y-72838785D01*
X91194731Y-72949357D01*
X91252270Y-72940947D01*
X91783848Y-72657274D01*
X92166405Y-72191769D01*
X92226414Y-71994425D01*
X92473915Y-72364837D01*
X92873572Y-72631879D01*
X93345000Y-72725652D01*
X93816428Y-72631879D01*
X94216085Y-72364837D01*
X94483127Y-71965180D01*
X94576900Y-71493752D01*
X94576900Y-70746248D01*
X94653100Y-70746248D01*
X94653100Y-71493752D01*
X94746873Y-71965180D01*
X95013915Y-72364837D01*
X95413572Y-72631879D01*
X95885000Y-72725652D01*
X96356428Y-72631879D01*
X96756085Y-72364837D01*
X97023127Y-71965180D01*
X97116900Y-71493752D01*
X97116900Y-70746248D01*
X97193100Y-70746248D01*
X97193100Y-71493752D01*
X97286873Y-71965180D01*
X97553915Y-72364837D01*
X97953572Y-72631879D01*
X98425000Y-72725652D01*
X98896428Y-72631879D01*
X99296085Y-72364837D01*
X99563127Y-71965180D01*
X99656900Y-71493752D01*
X99656900Y-70746248D01*
X99733100Y-70746248D01*
X99733100Y-71493752D01*
X99826873Y-71965180D01*
X100093915Y-72364837D01*
X100493572Y-72631879D01*
X100965000Y-72725652D01*
X101436428Y-72631879D01*
X101836085Y-72364837D01*
X102103127Y-71965180D01*
X102196900Y-71493752D01*
X102196900Y-70746248D01*
X102273100Y-70746248D01*
X102273100Y-71493752D01*
X102366873Y-71965180D01*
X102633915Y-72364837D01*
X103033572Y-72631879D01*
X103505000Y-72725652D01*
X103976428Y-72631879D01*
X104376085Y-72364837D01*
X104643127Y-71965180D01*
X104736900Y-71493752D01*
X104736900Y-70746248D01*
X104813100Y-70746248D01*
X104813100Y-71493752D01*
X104906873Y-71965180D01*
X105173915Y-72364837D01*
X105573572Y-72631879D01*
X106045000Y-72725652D01*
X106516428Y-72631879D01*
X106916085Y-72364837D01*
X107183127Y-71965180D01*
X107276900Y-71493752D01*
X107276900Y-70746248D01*
X107353100Y-70746248D01*
X107353100Y-71493752D01*
X107446873Y-71965180D01*
X107713915Y-72364837D01*
X108113572Y-72631879D01*
X108585000Y-72725652D01*
X109056428Y-72631879D01*
X109456085Y-72364837D01*
X109723127Y-71965180D01*
X109816900Y-71493752D01*
X109816900Y-70746248D01*
X109893100Y-70746248D01*
X109893100Y-71493752D01*
X109986873Y-71965180D01*
X110253915Y-72364837D01*
X110653572Y-72631879D01*
X111125000Y-72725652D01*
X111596428Y-72631879D01*
X111996085Y-72364837D01*
X112263127Y-71965180D01*
X112356900Y-71493752D01*
X112356900Y-70746248D01*
X112433100Y-70746248D01*
X112433100Y-71493752D01*
X112526873Y-71965180D01*
X112793915Y-72364837D01*
X113193572Y-72631879D01*
X113665000Y-72725652D01*
X114136428Y-72631879D01*
X114536085Y-72364837D01*
X114803127Y-71965180D01*
X114896900Y-71493752D01*
X114896900Y-70746248D01*
X114973100Y-70746248D01*
X114973100Y-71493752D01*
X115066873Y-71965180D01*
X115333915Y-72364837D01*
X115733572Y-72631879D01*
X115773200Y-72639762D01*
X115773200Y-77467500D01*
X115806069Y-77632743D01*
X115899671Y-77772829D01*
X125533869Y-87407026D01*
X125533871Y-87407029D01*
X125673957Y-87500631D01*
X125839200Y-87533500D01*
X127182000Y-87533500D01*
X127347243Y-87500631D01*
X127487329Y-87407029D01*
X127671478Y-87222880D01*
X127958391Y-87223130D01*
X128233890Y-87109296D01*
X128264496Y-87078743D01*
X128500400Y-87078743D01*
X128500400Y-88595200D01*
X128652800Y-88747600D01*
X130657600Y-88747600D01*
X130657600Y-86742800D01*
X130962400Y-86742800D01*
X130962400Y-88747600D01*
X132967200Y-88747600D01*
X133119600Y-88595200D01*
X133119600Y-87078743D01*
X133026794Y-86854689D01*
X132855311Y-86683206D01*
X132631257Y-86590400D01*
X131114800Y-86590400D01*
X130962400Y-86742800D01*
X130657600Y-86742800D01*
X130505200Y-86590400D01*
X128988743Y-86590400D01*
X128764689Y-86683206D01*
X128593206Y-86854689D01*
X128500400Y-87078743D01*
X128264496Y-87078743D01*
X128444856Y-86898699D01*
X128559170Y-86623399D01*
X128559430Y-86325309D01*
X128445596Y-86049810D01*
X128234999Y-85838844D01*
X127959699Y-85724530D01*
X127661609Y-85724270D01*
X127386110Y-85838104D01*
X127175144Y-86048701D01*
X127060830Y-86324001D01*
X127060578Y-86612464D01*
X127003142Y-86669900D01*
X126841568Y-86669900D01*
X126879770Y-86577899D01*
X126880030Y-86279809D01*
X126766196Y-86004310D01*
X126555599Y-85793344D01*
X126280299Y-85679030D01*
X125991836Y-85678778D01*
X121716800Y-81403742D01*
X121716800Y-72639762D01*
X121756428Y-72631879D01*
X122156085Y-72364837D01*
X122423127Y-71965180D01*
X122516900Y-71493752D01*
X122516900Y-70746248D01*
X122593100Y-70746248D01*
X122593100Y-71493752D01*
X122686873Y-71965180D01*
X122953915Y-72364837D01*
X123353572Y-72631879D01*
X123825000Y-72725652D01*
X124296428Y-72631879D01*
X124696085Y-72364837D01*
X124963127Y-71965180D01*
X125056900Y-71493752D01*
X125056900Y-70746248D01*
X125133100Y-70746248D01*
X125133100Y-71493752D01*
X125226873Y-71965180D01*
X125493915Y-72364837D01*
X125893572Y-72631879D01*
X126365000Y-72725652D01*
X126836428Y-72631879D01*
X127236085Y-72364837D01*
X127503127Y-71965180D01*
X127589197Y-71532477D01*
X128091840Y-71532477D01*
X128408259Y-72298270D01*
X128993648Y-72884682D01*
X129758888Y-73202437D01*
X130587477Y-73203160D01*
X131353270Y-72886741D01*
X131939682Y-72301352D01*
X132257437Y-71536112D01*
X132258160Y-70707523D01*
X131941741Y-69941730D01*
X131356352Y-69355318D01*
X130591112Y-69037563D01*
X129762523Y-69036840D01*
X128996730Y-69353259D01*
X128410318Y-69938648D01*
X128092563Y-70703888D01*
X128091840Y-71532477D01*
X127589197Y-71532477D01*
X127596900Y-71493752D01*
X127596900Y-70746248D01*
X127503127Y-70274820D01*
X127236085Y-69875163D01*
X126836428Y-69608121D01*
X126365000Y-69514348D01*
X125893572Y-69608121D01*
X125493915Y-69875163D01*
X125226873Y-70274820D01*
X125133100Y-70746248D01*
X125056900Y-70746248D01*
X124963127Y-70274820D01*
X124696085Y-69875163D01*
X124296428Y-69608121D01*
X123825000Y-69514348D01*
X123353572Y-69608121D01*
X122953915Y-69875163D01*
X122686873Y-70274820D01*
X122593100Y-70746248D01*
X122516900Y-70746248D01*
X122423127Y-70274820D01*
X122156085Y-69875163D01*
X121756428Y-69608121D01*
X121285000Y-69514348D01*
X120813572Y-69608121D01*
X120413915Y-69875163D01*
X120146873Y-70274820D01*
X120053100Y-70746248D01*
X120053100Y-71493752D01*
X120146873Y-71965180D01*
X120413915Y-72364837D01*
X120813572Y-72631879D01*
X120853200Y-72639762D01*
X120853200Y-81505042D01*
X116636800Y-77288642D01*
X116636800Y-72639762D01*
X116676428Y-72631879D01*
X117076085Y-72364837D01*
X117343127Y-71965180D01*
X117436900Y-71493752D01*
X117436900Y-70746248D01*
X117513100Y-70746248D01*
X117513100Y-71493752D01*
X117606873Y-71965180D01*
X117873915Y-72364837D01*
X118273572Y-72631879D01*
X118745000Y-72725652D01*
X119216428Y-72631879D01*
X119616085Y-72364837D01*
X119883127Y-71965180D01*
X119976900Y-71493752D01*
X119976900Y-70746248D01*
X119883127Y-70274820D01*
X119616085Y-69875163D01*
X119216428Y-69608121D01*
X118745000Y-69514348D01*
X118273572Y-69608121D01*
X117873915Y-69875163D01*
X117606873Y-70274820D01*
X117513100Y-70746248D01*
X117436900Y-70746248D01*
X117343127Y-70274820D01*
X117076085Y-69875163D01*
X116676428Y-69608121D01*
X116205000Y-69514348D01*
X115733572Y-69608121D01*
X115333915Y-69875163D01*
X115066873Y-70274820D01*
X114973100Y-70746248D01*
X114896900Y-70746248D01*
X114803127Y-70274820D01*
X114536085Y-69875163D01*
X114136428Y-69608121D01*
X113665000Y-69514348D01*
X113193572Y-69608121D01*
X112793915Y-69875163D01*
X112526873Y-70274820D01*
X112433100Y-70746248D01*
X112356900Y-70746248D01*
X112263127Y-70274820D01*
X111996085Y-69875163D01*
X111596428Y-69608121D01*
X111125000Y-69514348D01*
X110653572Y-69608121D01*
X110253915Y-69875163D01*
X109986873Y-70274820D01*
X109893100Y-70746248D01*
X109816900Y-70746248D01*
X109723127Y-70274820D01*
X109456085Y-69875163D01*
X109056428Y-69608121D01*
X108585000Y-69514348D01*
X108113572Y-69608121D01*
X107713915Y-69875163D01*
X107446873Y-70274820D01*
X107353100Y-70746248D01*
X107276900Y-70746248D01*
X107183127Y-70274820D01*
X106916085Y-69875163D01*
X106516428Y-69608121D01*
X106045000Y-69514348D01*
X105573572Y-69608121D01*
X105173915Y-69875163D01*
X104906873Y-70274820D01*
X104813100Y-70746248D01*
X104736900Y-70746248D01*
X104643127Y-70274820D01*
X104376085Y-69875163D01*
X103976428Y-69608121D01*
X103505000Y-69514348D01*
X103033572Y-69608121D01*
X102633915Y-69875163D01*
X102366873Y-70274820D01*
X102273100Y-70746248D01*
X102196900Y-70746248D01*
X102103127Y-70274820D01*
X101836085Y-69875163D01*
X101436428Y-69608121D01*
X100965000Y-69514348D01*
X100493572Y-69608121D01*
X100093915Y-69875163D01*
X99826873Y-70274820D01*
X99733100Y-70746248D01*
X99656900Y-70746248D01*
X99563127Y-70274820D01*
X99296085Y-69875163D01*
X98896428Y-69608121D01*
X98425000Y-69514348D01*
X97953572Y-69608121D01*
X97553915Y-69875163D01*
X97286873Y-70274820D01*
X97193100Y-70746248D01*
X97116900Y-70746248D01*
X97023127Y-70274820D01*
X96756085Y-69875163D01*
X96356428Y-69608121D01*
X95885000Y-69514348D01*
X95413572Y-69608121D01*
X95013915Y-69875163D01*
X94746873Y-70274820D01*
X94653100Y-70746248D01*
X94576900Y-70746248D01*
X94483127Y-70274820D01*
X94216085Y-69875163D01*
X93816428Y-69608121D01*
X93345000Y-69514348D01*
X92873572Y-69608121D01*
X92473915Y-69875163D01*
X92226414Y-70245575D01*
X92166405Y-70048231D01*
X91783848Y-69582726D01*
X91252270Y-69299053D01*
X91194731Y-69290643D01*
X90957400Y-69401215D01*
X90652600Y-69401215D01*
X90415269Y-69290643D01*
X90357730Y-69299053D01*
X89826152Y-69582726D01*
X89502871Y-69976102D01*
X89502871Y-69850000D01*
X89479215Y-69731073D01*
X89411848Y-69630252D01*
X89311027Y-69562885D01*
X89192100Y-69539229D01*
X87337900Y-69539229D01*
X87218973Y-69562885D01*
X87118152Y-69630252D01*
X87050785Y-69731073D01*
X87027129Y-69850000D01*
X86144100Y-69850000D01*
X86144100Y-68999100D01*
X155155900Y-68999100D01*
X155155900Y-108800900D01*
M02*
