%TF.GenerationSoftware,KiCad,Pcbnew,no-vcs-found-72d4889~60~ubuntu16.04.1*%
%TF.CreationDate,2017-10-19T13:37:08-04:00*%
%TF.ProjectId,audio_controller_3x2,617564696F5F636F6E74726F6C6C6572,1.2*%
%TF.SameCoordinates,Original*%
%TF.FileFunction,Copper,L1,Top,Signal*%
%TF.FilePolarity,Positive*%
%FSLAX46Y46*%
G04 Gerber Fmt 4.6, Leading zero omitted, Abs format (unit mm)*
G04 Created by KiCad (PCBNEW no-vcs-found-72d4889~60~ubuntu16.04.1) date Thu Oct 19 13:37:08 2017*
%MOMM*%
%LPD*%
G01*
G04 APERTURE LIST*
%TA.AperFunction,NonConductor*%
%ADD10C,0.228600*%
%TD*%
%TA.AperFunction,SMDPad,CuDef*%
%ADD11R,6.500000X3.500000*%
%TD*%
%TA.AperFunction,SMDPad,CuDef*%
%ADD12R,4.500000X3.500000*%
%TD*%
%TA.AperFunction,ComponentPad*%
%ADD13C,3.556000*%
%TD*%
%TA.AperFunction,ComponentPad*%
%ADD14O,1.854200X2.540000*%
%TD*%
%TA.AperFunction,ComponentPad*%
%ADD15R,1.854200X2.540000*%
%TD*%
%TA.AperFunction,ComponentPad*%
%ADD16R,3.400000X3.400000*%
%TD*%
%TA.AperFunction,ComponentPad*%
%ADD17C,2.100000*%
%TD*%
%TA.AperFunction,ViaPad*%
%ADD18C,0.889000*%
%TD*%
%TA.AperFunction,Conductor*%
%ADD19C,0.304800*%
%TD*%
%TA.AperFunction,Conductor*%
%ADD20C,0.254000*%
%TD*%
%TA.AperFunction,Conductor*%
%ADD21C,0.355600*%
%TD*%
G04 APERTURE END LIST*
D10*
X156210000Y-67945000D02*
X85725000Y-67945000D01*
X156210000Y-109855000D02*
X156210000Y-67945000D01*
X85725000Y-109855000D02*
X156210000Y-109855000D01*
X85725000Y-67945000D02*
X85725000Y-109855000D01*
D11*
%TO.P,SP1,1*%
%TO.N,/AMP+*%
X101565000Y-95150000D03*
%TO.P,SP1,2*%
%TO.N,/AMP-*%
X113065000Y-95150000D03*
D12*
%TO.P,SP1,*%
%TO.N,*%
X100565000Y-82650000D03*
X114065000Y-82650000D03*
%TD*%
D13*
%TO.P,MDB1,*%
%TO.N,*%
X130175000Y-71120000D03*
X130175000Y-106680000D03*
X89535000Y-101600000D03*
X89535000Y-76200000D03*
D14*
%TO.P,MDB1,AREF*%
%TO.N,N/C*%
X88265000Y-106680000D03*
%TO.P,MDB1,VEE*%
%TO.N,VEE*%
X90805000Y-106680000D03*
%TO.P,MDB1,AGND*%
%TO.N,/AGND*%
X93345000Y-106680000D03*
%TO.P,MDB1,3V3*%
%TO.N,+3V3*%
X95885000Y-106680000D03*
%TO.P,MDB1,23*%
%TO.N,/LRCLK*%
X98425000Y-106680000D03*
%TO.P,MDB1,22*%
%TO.N,/I2STX*%
X100965000Y-106680000D03*
%TO.P,MDB1,21*%
%TO.N,N/C*%
X103505000Y-106680000D03*
%TO.P,MDB1,20*%
X106045000Y-106680000D03*
%TO.P,MDB1,19*%
%TO.N,/SCL*%
X108585000Y-106680000D03*
%TO.P,MDB1,18*%
%TO.N,/SDA*%
X111125000Y-106680000D03*
%TO.P,MDB1,17*%
%TO.N,N/C*%
X113665000Y-106680000D03*
%TO.P,MDB1,16*%
X116205000Y-106680000D03*
%TO.P,MDB1,15*%
X118745000Y-106680000D03*
%TO.P,MDB1,14*%
X121285000Y-106680000D03*
%TO.P,MDB1,13*%
%TO.N,/I2SRX*%
X123825000Y-106680000D03*
%TO.P,MDB1,DAC*%
%TO.N,/DAC*%
X126365000Y-106680000D03*
%TO.P,MDB1,28*%
%TO.N,N/C*%
X126365000Y-71120000D03*
%TO.P,MDB1,12*%
X123825000Y-71120000D03*
%TO.P,MDB1,11*%
%TO.N,/MCLK*%
X121285000Y-71120000D03*
%TO.P,MDB1,10*%
%TO.N,N/C*%
X118745000Y-71120000D03*
%TO.P,MDB1,9*%
%TO.N,/BCLK*%
X116205000Y-71120000D03*
%TO.P,MDB1,29*%
%TO.N,N/C*%
X113665000Y-71120000D03*
%TO.P,MDB1,30*%
X111125000Y-71120000D03*
%TO.P,MDB1,6*%
%TO.N,/PCB_SPEAKER_ENABLE*%
X108585000Y-71120000D03*
%TO.P,MDB1,5*%
%TO.N,N/C*%
X106045000Y-71120000D03*
%TO.P,MDB1,4*%
X103505000Y-71120000D03*
%TO.P,MDB1,3*%
X100965000Y-71120000D03*
%TO.P,MDB1,2*%
X98425000Y-71120000D03*
%TO.P,MDB1,25*%
X95885000Y-71120000D03*
D15*
%TO.P,MDB1,VDD*%
X88265000Y-71120000D03*
D14*
%TO.P,MDB1,24*%
X93345000Y-71120000D03*
%TO.P,MDB1,GND*%
%TO.N,GND*%
X90805000Y-71120000D03*
%TD*%
D16*
%TO.P,U1,PAD*%
%TO.N,GND*%
X135890000Y-88900000D03*
%TD*%
D17*
%TO.P,J1,*%
%TO.N,*%
X145075000Y-88900000D03*
X152075000Y-88900000D03*
%TD*%
D18*
%TO.N,GND*%
X135890000Y-93828400D03*
%TO.N,/BCLK*%
X132463200Y-86474400D03*
%TO.N,/MCLK*%
X131341500Y-88359900D03*
%TO.N,VEE*%
X105455100Y-89842800D03*
%TO.N,/DAC*%
X113145000Y-100943900D03*
%TO.N,/AMP-*%
X106416000Y-86043500D03*
%TO.N,/AMP+*%
X109013900Y-91164600D03*
%TD*%
D19*
%TO.N,GND*%
X135890000Y-88900000D02*
X135890000Y-93828400D01*
D20*
%TO.N,/BCLK*%
X117386100Y-71813600D02*
X117386100Y-71120000D01*
X132046900Y-86474400D02*
X117386100Y-71813600D01*
X132463200Y-86474400D02*
X132046900Y-86474400D01*
X116205000Y-71120000D02*
X117386100Y-71120000D01*
%TO.N,/MCLK*%
X121285000Y-71120000D02*
X122466100Y-71120000D01*
X122466100Y-75297300D02*
X122466100Y-71120000D01*
X133183800Y-86015000D02*
X122466100Y-75297300D01*
X133183800Y-86739200D02*
X133183800Y-86015000D01*
X131563100Y-88359900D02*
X133183800Y-86739200D01*
X131341500Y-88359900D02*
X131563100Y-88359900D01*
D21*
%TO.N,VEE*%
X101421800Y-89842800D02*
X105455100Y-89842800D01*
X92036900Y-99227700D02*
X101421800Y-89842800D01*
X92036900Y-106680000D02*
X92036900Y-99227700D01*
X90805000Y-106680000D02*
X92036900Y-106680000D01*
D20*
%TO.N,/DAC*%
X125183900Y-106055800D02*
X125183900Y-106680000D01*
X120072000Y-100943900D02*
X125183900Y-106055800D01*
X113145000Y-100943900D02*
X120072000Y-100943900D01*
X126365000Y-106680000D02*
X125183900Y-106680000D01*
D21*
%TO.N,/AMP-*%
X113065000Y-95150000D02*
X109510200Y-95150000D01*
X109510200Y-92970200D02*
X109510200Y-95150000D01*
X109787900Y-92692500D02*
X109510200Y-92970200D01*
X109787900Y-89415400D02*
X109787900Y-92692500D01*
X106416000Y-86043500D02*
X109787900Y-89415400D01*
%TO.N,/AMP+*%
X101565000Y-95150000D02*
X105119800Y-95150000D01*
X105119800Y-95058700D02*
X105119800Y-95150000D01*
X109013900Y-91164600D02*
X105119800Y-95058700D01*
%TD*%
M02*
