M48
;DRILL file {KiCad no-vcs-found-33cc7b3~60~ubuntu16.04.1} date Thu Sep 14 13:01:59 2017
;FORMAT={-:-/ absolute / inch / decimal}
FMAT,2
INCH,TZ
T1C0.025
T2C0.043
T3C0.067
T4C0.079
T5C0.130
%
G90
G05
M72
T1
X4.1972Y-3.3879
X4.2402Y-3.3716
X4.2859Y-3.4882
X4.825Y-3.675
X4.9565Y-3.4057
X4.9683Y-3.4598
X5.Y-3.725
X5.0544Y-3.3819
X5.1248Y-3.3037
T2
X3.475Y-2.8
X3.475Y-4.2
X3.575Y-2.8
X3.575Y-4.2
X3.675Y-2.8
X3.675Y-4.2
X3.775Y-2.8
X3.775Y-4.2
X3.875Y-2.8
X3.875Y-4.2
X3.975Y-2.8
X3.975Y-4.2
X4.075Y-2.8
X4.075Y-4.2
X4.175Y-2.8
X4.175Y-4.2
X4.275Y-2.8
X4.275Y-4.2
X4.375Y-2.8
X4.375Y-4.2
X4.475Y-2.8
X4.475Y-4.2
X4.575Y-2.8
X4.575Y-4.2
X4.675Y-2.8
X4.675Y-4.2
X4.775Y-2.8
X4.775Y-4.2
X4.875Y-2.8
X4.875Y-4.2
X4.975Y-2.8
X4.975Y-4.2
T3
X5.7116Y-3.5
X5.9872Y-3.5
T4
X5.15Y-3.5
T5
X3.525Y-3.
X3.525Y-4.
X5.125Y-2.8
X5.125Y-4.2
T0
M30
