%TF.GenerationSoftware,KiCad,Pcbnew,no-vcs-found-72d4889~60~ubuntu16.04.1*%
%TF.CreationDate,2017-10-19T13:37:08-04:00*%
%TF.ProjectId,audio_controller_3x2,617564696F5F636F6E74726F6C6C6572,1.2*%
%TF.SameCoordinates,Original*%
%TF.FileFunction,Legend,Top*%
%TF.FilePolarity,Positive*%
%FSLAX46Y46*%
G04 Gerber Fmt 4.6, Leading zero omitted, Abs format (unit mm)*
G04 Created by KiCad (PCBNEW no-vcs-found-72d4889~60~ubuntu16.04.1) date Thu Oct 19 13:37:08 2017*
%MOMM*%
%LPD*%
G01*
G04 APERTURE LIST*
%ADD10C,0.381000*%
%ADD11C,0.228600*%
%ADD12C,0.190500*%
%ADD13C,0.254000*%
%ADD14C,0.250000*%
%ADD15C,0.375000*%
%ADD16R,6.500000X3.500000*%
%ADD17R,4.500000X3.500000*%
%ADD18C,3.556000*%
%ADD19O,1.854200X2.540000*%
%ADD20R,1.854200X2.540000*%
%ADD21R,3.475000X3.475000*%
%ADD22C,2.100000*%
G04 APERTURE END LIST*
D10*
X118799428Y-95903142D02*
X117275428Y-95903142D01*
X117275428Y-95322571D01*
X117348000Y-95177428D01*
X117420571Y-95104857D01*
X117565714Y-95032285D01*
X117783428Y-95032285D01*
X117928571Y-95104857D01*
X118001142Y-95177428D01*
X118073714Y-95322571D01*
X118073714Y-95903142D01*
X118654285Y-93508285D02*
X118726857Y-93580857D01*
X118799428Y-93798571D01*
X118799428Y-93943714D01*
X118726857Y-94161428D01*
X118581714Y-94306571D01*
X118436571Y-94379142D01*
X118146285Y-94451714D01*
X117928571Y-94451714D01*
X117638285Y-94379142D01*
X117493142Y-94306571D01*
X117348000Y-94161428D01*
X117275428Y-93943714D01*
X117275428Y-93798571D01*
X117348000Y-93580857D01*
X117420571Y-93508285D01*
X118001142Y-92347142D02*
X118073714Y-92129428D01*
X118146285Y-92056857D01*
X118291428Y-91984285D01*
X118509142Y-91984285D01*
X118654285Y-92056857D01*
X118726857Y-92129428D01*
X118799428Y-92274571D01*
X118799428Y-92855142D01*
X117275428Y-92855142D01*
X117275428Y-92347142D01*
X117348000Y-92202000D01*
X117420571Y-92129428D01*
X117565714Y-92056857D01*
X117710857Y-92056857D01*
X117856000Y-92129428D01*
X117928571Y-92202000D01*
X118001142Y-92347142D01*
X118001142Y-92855142D01*
X118726857Y-90242571D02*
X118799428Y-90024857D01*
X118799428Y-89662000D01*
X118726857Y-89516857D01*
X118654285Y-89444285D01*
X118509142Y-89371714D01*
X118364000Y-89371714D01*
X118218857Y-89444285D01*
X118146285Y-89516857D01*
X118073714Y-89662000D01*
X118001142Y-89952285D01*
X117928571Y-90097428D01*
X117856000Y-90170000D01*
X117710857Y-90242571D01*
X117565714Y-90242571D01*
X117420571Y-90170000D01*
X117348000Y-90097428D01*
X117275428Y-89952285D01*
X117275428Y-89589428D01*
X117348000Y-89371714D01*
X117783428Y-88718571D02*
X119307428Y-88718571D01*
X117856000Y-88718571D02*
X117783428Y-88573428D01*
X117783428Y-88283142D01*
X117856000Y-88138000D01*
X117928571Y-88065428D01*
X118073714Y-87992857D01*
X118509142Y-87992857D01*
X118654285Y-88065428D01*
X118726857Y-88138000D01*
X118799428Y-88283142D01*
X118799428Y-88573428D01*
X118726857Y-88718571D01*
X118726857Y-86759142D02*
X118799428Y-86904285D01*
X118799428Y-87194571D01*
X118726857Y-87339714D01*
X118581714Y-87412285D01*
X118001142Y-87412285D01*
X117856000Y-87339714D01*
X117783428Y-87194571D01*
X117783428Y-86904285D01*
X117856000Y-86759142D01*
X118001142Y-86686571D01*
X118146285Y-86686571D01*
X118291428Y-87412285D01*
X118799428Y-85380285D02*
X118001142Y-85380285D01*
X117856000Y-85452857D01*
X117783428Y-85598000D01*
X117783428Y-85888285D01*
X117856000Y-86033428D01*
X118726857Y-85380285D02*
X118799428Y-85525428D01*
X118799428Y-85888285D01*
X118726857Y-86033428D01*
X118581714Y-86106000D01*
X118436571Y-86106000D01*
X118291428Y-86033428D01*
X118218857Y-85888285D01*
X118218857Y-85525428D01*
X118146285Y-85380285D01*
X118799428Y-84654571D02*
X117275428Y-84654571D01*
X118218857Y-84509428D02*
X118799428Y-84074000D01*
X117783428Y-84074000D02*
X118364000Y-84654571D01*
X118726857Y-82840285D02*
X118799428Y-82985428D01*
X118799428Y-83275714D01*
X118726857Y-83420857D01*
X118581714Y-83493428D01*
X118001142Y-83493428D01*
X117856000Y-83420857D01*
X117783428Y-83275714D01*
X117783428Y-82985428D01*
X117856000Y-82840285D01*
X118001142Y-82767714D01*
X118146285Y-82767714D01*
X118291428Y-83493428D01*
X118799428Y-82114571D02*
X117783428Y-82114571D01*
X118073714Y-82114571D02*
X117928571Y-82042000D01*
X117856000Y-81969428D01*
X117783428Y-81824285D01*
X117783428Y-81679142D01*
D11*
X156210000Y-67945000D02*
X85725000Y-67945000D01*
X156210000Y-109855000D02*
X156210000Y-67945000D01*
X85725000Y-109855000D02*
X156210000Y-109855000D01*
X85725000Y-67945000D02*
X85725000Y-109855000D01*
D10*
X147873357Y-101636285D02*
X147945928Y-101418571D01*
X147945928Y-101055714D01*
X147873357Y-100910571D01*
X147800785Y-100838000D01*
X147655642Y-100765428D01*
X147510500Y-100765428D01*
X147365357Y-100838000D01*
X147292785Y-100910571D01*
X147220214Y-101055714D01*
X147147642Y-101346000D01*
X147075071Y-101491142D01*
X147002500Y-101563714D01*
X146857357Y-101636285D01*
X146712214Y-101636285D01*
X146567071Y-101563714D01*
X146494500Y-101491142D01*
X146421928Y-101346000D01*
X146421928Y-100983142D01*
X146494500Y-100765428D01*
X146929928Y-100330000D02*
X146929928Y-99749428D01*
X146421928Y-100112285D02*
X147728214Y-100112285D01*
X147873357Y-100039714D01*
X147945928Y-99894571D01*
X147945928Y-99749428D01*
X147873357Y-98660857D02*
X147945928Y-98806000D01*
X147945928Y-99096285D01*
X147873357Y-99241428D01*
X147728214Y-99314000D01*
X147147642Y-99314000D01*
X147002500Y-99241428D01*
X146929928Y-99096285D01*
X146929928Y-98806000D01*
X147002500Y-98660857D01*
X147147642Y-98588285D01*
X147292785Y-98588285D01*
X147437928Y-99314000D01*
X147945928Y-97935142D02*
X146929928Y-97935142D01*
X147220214Y-97935142D02*
X147075071Y-97862571D01*
X147002500Y-97790000D01*
X146929928Y-97644857D01*
X146929928Y-97499714D01*
X147873357Y-96411142D02*
X147945928Y-96556285D01*
X147945928Y-96846571D01*
X147873357Y-96991714D01*
X147728214Y-97064285D01*
X147147642Y-97064285D01*
X147002500Y-96991714D01*
X146929928Y-96846571D01*
X146929928Y-96556285D01*
X147002500Y-96411142D01*
X147147642Y-96338571D01*
X147292785Y-96338571D01*
X147437928Y-97064285D01*
X147945928Y-95467714D02*
X147873357Y-95612857D01*
X147800785Y-95685428D01*
X147655642Y-95758000D01*
X147220214Y-95758000D01*
X147075071Y-95685428D01*
X147002500Y-95612857D01*
X146929928Y-95467714D01*
X146929928Y-95250000D01*
X147002500Y-95104857D01*
X147075071Y-95032285D01*
X147220214Y-94959714D01*
X147655642Y-94959714D01*
X147800785Y-95032285D01*
X147873357Y-95104857D01*
X147945928Y-95250000D01*
X147945928Y-95467714D01*
X147873357Y-93218000D02*
X147945928Y-93000285D01*
X147945928Y-92637428D01*
X147873357Y-92492285D01*
X147800785Y-92419714D01*
X147655642Y-92347142D01*
X147510500Y-92347142D01*
X147365357Y-92419714D01*
X147292785Y-92492285D01*
X147220214Y-92637428D01*
X147147642Y-92927714D01*
X147075071Y-93072857D01*
X147002500Y-93145428D01*
X146857357Y-93218000D01*
X146712214Y-93218000D01*
X146567071Y-93145428D01*
X146494500Y-93072857D01*
X146421928Y-92927714D01*
X146421928Y-92564857D01*
X146494500Y-92347142D01*
X146929928Y-91694000D02*
X148453928Y-91694000D01*
X147002500Y-91694000D02*
X146929928Y-91548857D01*
X146929928Y-91258571D01*
X147002500Y-91113428D01*
X147075071Y-91040857D01*
X147220214Y-90968285D01*
X147655642Y-90968285D01*
X147800785Y-91040857D01*
X147873357Y-91113428D01*
X147945928Y-91258571D01*
X147945928Y-91548857D01*
X147873357Y-91694000D01*
X147873357Y-89734571D02*
X147945928Y-89879714D01*
X147945928Y-90170000D01*
X147873357Y-90315142D01*
X147728214Y-90387714D01*
X147147642Y-90387714D01*
X147002500Y-90315142D01*
X146929928Y-90170000D01*
X146929928Y-89879714D01*
X147002500Y-89734571D01*
X147147642Y-89662000D01*
X147292785Y-89662000D01*
X147437928Y-90387714D01*
X147945928Y-88355714D02*
X147147642Y-88355714D01*
X147002500Y-88428285D01*
X146929928Y-88573428D01*
X146929928Y-88863714D01*
X147002500Y-89008857D01*
X147873357Y-88355714D02*
X147945928Y-88500857D01*
X147945928Y-88863714D01*
X147873357Y-89008857D01*
X147728214Y-89081428D01*
X147583071Y-89081428D01*
X147437928Y-89008857D01*
X147365357Y-88863714D01*
X147365357Y-88500857D01*
X147292785Y-88355714D01*
X147945928Y-87630000D02*
X146421928Y-87630000D01*
X147365357Y-87484857D02*
X147945928Y-87049428D01*
X146929928Y-87049428D02*
X147510500Y-87630000D01*
X147873357Y-85815714D02*
X147945928Y-85960857D01*
X147945928Y-86251142D01*
X147873357Y-86396285D01*
X147728214Y-86468857D01*
X147147642Y-86468857D01*
X147002500Y-86396285D01*
X146929928Y-86251142D01*
X146929928Y-85960857D01*
X147002500Y-85815714D01*
X147147642Y-85743142D01*
X147292785Y-85743142D01*
X147437928Y-86468857D01*
X147945928Y-85090000D02*
X146929928Y-85090000D01*
X147220214Y-85090000D02*
X147075071Y-85017428D01*
X147002500Y-84944857D01*
X146929928Y-84799714D01*
X146929928Y-84654571D01*
X146421928Y-82695142D02*
X146421928Y-82404857D01*
X146494500Y-82259714D01*
X146639642Y-82114571D01*
X146929928Y-82042000D01*
X147437928Y-82042000D01*
X147728214Y-82114571D01*
X147873357Y-82259714D01*
X147945928Y-82404857D01*
X147945928Y-82695142D01*
X147873357Y-82840285D01*
X147728214Y-82985428D01*
X147437928Y-83058000D01*
X146929928Y-83058000D01*
X146639642Y-82985428D01*
X146494500Y-82840285D01*
X146421928Y-82695142D01*
X146929928Y-80735714D02*
X147945928Y-80735714D01*
X146929928Y-81388857D02*
X147728214Y-81388857D01*
X147873357Y-81316285D01*
X147945928Y-81171142D01*
X147945928Y-80953428D01*
X147873357Y-80808285D01*
X147800785Y-80735714D01*
X146929928Y-80227714D02*
X146929928Y-79647142D01*
X146421928Y-80010000D02*
X147728214Y-80010000D01*
X147873357Y-79937428D01*
X147945928Y-79792285D01*
X147945928Y-79647142D01*
X146929928Y-79139142D02*
X148453928Y-79139142D01*
X147002500Y-79139142D02*
X146929928Y-78994000D01*
X146929928Y-78703714D01*
X147002500Y-78558571D01*
X147075071Y-78486000D01*
X147220214Y-78413428D01*
X147655642Y-78413428D01*
X147800785Y-78486000D01*
X147873357Y-78558571D01*
X147945928Y-78703714D01*
X147945928Y-78994000D01*
X147873357Y-79139142D01*
X146929928Y-77107142D02*
X147945928Y-77107142D01*
X146929928Y-77760285D02*
X147728214Y-77760285D01*
X147873357Y-77687714D01*
X147945928Y-77542571D01*
X147945928Y-77324857D01*
X147873357Y-77179714D01*
X147800785Y-77107142D01*
X146929928Y-76599142D02*
X146929928Y-76018571D01*
X146421928Y-76381428D02*
X147728214Y-76381428D01*
X147873357Y-76308857D01*
X147945928Y-76163714D01*
X147945928Y-76018571D01*
X149088928Y-101926571D02*
X149088928Y-100983142D01*
X149669500Y-101491142D01*
X149669500Y-101273428D01*
X149742071Y-101128285D01*
X149814642Y-101055714D01*
X149959785Y-100983142D01*
X150322642Y-100983142D01*
X150467785Y-101055714D01*
X150540357Y-101128285D01*
X150612928Y-101273428D01*
X150612928Y-101708857D01*
X150540357Y-101854000D01*
X150467785Y-101926571D01*
X150467785Y-100330000D02*
X150540357Y-100257428D01*
X150612928Y-100330000D01*
X150540357Y-100402571D01*
X150467785Y-100330000D01*
X150612928Y-100330000D01*
X149088928Y-98878571D02*
X149088928Y-99604285D01*
X149814642Y-99676857D01*
X149742071Y-99604285D01*
X149669500Y-99459142D01*
X149669500Y-99096285D01*
X149742071Y-98951142D01*
X149814642Y-98878571D01*
X149959785Y-98806000D01*
X150322642Y-98806000D01*
X150467785Y-98878571D01*
X150540357Y-98951142D01*
X150612928Y-99096285D01*
X150612928Y-99459142D01*
X150540357Y-99604285D01*
X150467785Y-99676857D01*
X150612928Y-98152857D02*
X149596928Y-98152857D01*
X149742071Y-98152857D02*
X149669500Y-98080285D01*
X149596928Y-97935142D01*
X149596928Y-97717428D01*
X149669500Y-97572285D01*
X149814642Y-97499714D01*
X150612928Y-97499714D01*
X149814642Y-97499714D02*
X149669500Y-97427142D01*
X149596928Y-97282000D01*
X149596928Y-97064285D01*
X149669500Y-96919142D01*
X149814642Y-96846571D01*
X150612928Y-96846571D01*
X150612928Y-96120857D02*
X149596928Y-96120857D01*
X149742071Y-96120857D02*
X149669500Y-96048285D01*
X149596928Y-95903142D01*
X149596928Y-95685428D01*
X149669500Y-95540285D01*
X149814642Y-95467714D01*
X150612928Y-95467714D01*
X149814642Y-95467714D02*
X149669500Y-95395142D01*
X149596928Y-95250000D01*
X149596928Y-95032285D01*
X149669500Y-94887142D01*
X149814642Y-94814571D01*
X150612928Y-94814571D01*
X150612928Y-92129428D02*
X150612928Y-93000285D01*
X150612928Y-92564857D02*
X149088928Y-92564857D01*
X149306642Y-92710000D01*
X149451785Y-92855142D01*
X149524357Y-93000285D01*
X149016357Y-90387714D02*
X150975785Y-91694000D01*
X149742071Y-89662000D02*
X149669500Y-89807142D01*
X149596928Y-89879714D01*
X149451785Y-89952285D01*
X149379214Y-89952285D01*
X149234071Y-89879714D01*
X149161500Y-89807142D01*
X149088928Y-89662000D01*
X149088928Y-89371714D01*
X149161500Y-89226571D01*
X149234071Y-89154000D01*
X149379214Y-89081428D01*
X149451785Y-89081428D01*
X149596928Y-89154000D01*
X149669500Y-89226571D01*
X149742071Y-89371714D01*
X149742071Y-89662000D01*
X149814642Y-89807142D01*
X149887214Y-89879714D01*
X150032357Y-89952285D01*
X150322642Y-89952285D01*
X150467785Y-89879714D01*
X150540357Y-89807142D01*
X150612928Y-89662000D01*
X150612928Y-89371714D01*
X150540357Y-89226571D01*
X150467785Y-89154000D01*
X150322642Y-89081428D01*
X150032357Y-89081428D01*
X149887214Y-89154000D01*
X149814642Y-89226571D01*
X149742071Y-89371714D01*
X149088928Y-88500857D02*
X149379214Y-88500857D01*
X149088928Y-87920285D02*
X149379214Y-87920285D01*
X150612928Y-86106000D02*
X149088928Y-86106000D01*
X150177500Y-85598000D01*
X149088928Y-85090000D01*
X150612928Y-85090000D01*
X150612928Y-84364285D02*
X149596928Y-84364285D01*
X149088928Y-84364285D02*
X149161500Y-84436857D01*
X149234071Y-84364285D01*
X149161500Y-84291714D01*
X149088928Y-84364285D01*
X149234071Y-84364285D01*
X149596928Y-83638571D02*
X150612928Y-83638571D01*
X149742071Y-83638571D02*
X149669500Y-83566000D01*
X149596928Y-83420857D01*
X149596928Y-83203142D01*
X149669500Y-83058000D01*
X149814642Y-82985428D01*
X150612928Y-82985428D01*
X150612928Y-82259714D02*
X149596928Y-82259714D01*
X149088928Y-82259714D02*
X149161500Y-82332285D01*
X149234071Y-82259714D01*
X149161500Y-82187142D01*
X149088928Y-82259714D01*
X149234071Y-82259714D01*
X150612928Y-80372857D02*
X149088928Y-80372857D01*
X149088928Y-79792285D01*
X149161500Y-79647142D01*
X149234071Y-79574571D01*
X149379214Y-79502000D01*
X149596928Y-79502000D01*
X149742071Y-79574571D01*
X149814642Y-79647142D01*
X149887214Y-79792285D01*
X149887214Y-80372857D01*
X150612928Y-78631142D02*
X150540357Y-78776285D01*
X150395214Y-78848857D01*
X149088928Y-78848857D01*
X149596928Y-77397428D02*
X150612928Y-77397428D01*
X149596928Y-78050571D02*
X150395214Y-78050571D01*
X150540357Y-77978000D01*
X150612928Y-77832857D01*
X150612928Y-77615142D01*
X150540357Y-77470000D01*
X150467785Y-77397428D01*
X149596928Y-76018571D02*
X150830642Y-76018571D01*
X150975785Y-76091142D01*
X151048357Y-76163714D01*
X151120928Y-76308857D01*
X151120928Y-76526571D01*
X151048357Y-76671714D01*
X150540357Y-76018571D02*
X150612928Y-76163714D01*
X150612928Y-76454000D01*
X150540357Y-76599142D01*
X150467785Y-76671714D01*
X150322642Y-76744285D01*
X149887214Y-76744285D01*
X149742071Y-76671714D01*
X149669500Y-76599142D01*
X149596928Y-76454000D01*
X149596928Y-76163714D01*
X149669500Y-76018571D01*
D12*
X92437857Y-104599619D02*
X92437857Y-103583619D01*
X92873285Y-104599619D02*
X92873285Y-104067428D01*
X92824904Y-103970666D01*
X92728142Y-103922285D01*
X92583000Y-103922285D01*
X92486238Y-103970666D01*
X92437857Y-104019047D01*
X93211952Y-103922285D02*
X93599000Y-103922285D01*
X93357095Y-103583619D02*
X93357095Y-104454476D01*
X93405476Y-104551238D01*
X93502238Y-104599619D01*
X93599000Y-104599619D01*
X93792523Y-103922285D02*
X94179571Y-103922285D01*
X93937666Y-103583619D02*
X93937666Y-104454476D01*
X93986047Y-104551238D01*
X94082809Y-104599619D01*
X94179571Y-104599619D01*
X94518238Y-103922285D02*
X94518238Y-104938285D01*
X94518238Y-103970666D02*
X94615000Y-103922285D01*
X94808523Y-103922285D01*
X94905285Y-103970666D01*
X94953666Y-104019047D01*
X95002047Y-104115809D01*
X95002047Y-104406095D01*
X94953666Y-104502857D01*
X94905285Y-104551238D01*
X94808523Y-104599619D01*
X94615000Y-104599619D01*
X94518238Y-104551238D01*
X95389095Y-104551238D02*
X95485857Y-104599619D01*
X95679380Y-104599619D01*
X95776142Y-104551238D01*
X95824523Y-104454476D01*
X95824523Y-104406095D01*
X95776142Y-104309333D01*
X95679380Y-104260952D01*
X95534238Y-104260952D01*
X95437476Y-104212571D01*
X95389095Y-104115809D01*
X95389095Y-104067428D01*
X95437476Y-103970666D01*
X95534238Y-103922285D01*
X95679380Y-103922285D01*
X95776142Y-103970666D01*
X96259952Y-104502857D02*
X96308333Y-104551238D01*
X96259952Y-104599619D01*
X96211571Y-104551238D01*
X96259952Y-104502857D01*
X96259952Y-104599619D01*
X96259952Y-103970666D02*
X96308333Y-104019047D01*
X96259952Y-104067428D01*
X96211571Y-104019047D01*
X96259952Y-103970666D01*
X96259952Y-104067428D01*
X97469476Y-103535238D02*
X96598619Y-104841523D01*
X98533857Y-103535238D02*
X97663000Y-104841523D01*
X99307952Y-103922285D02*
X99307952Y-104744761D01*
X99259571Y-104841523D01*
X99211190Y-104889904D01*
X99114428Y-104938285D01*
X98969285Y-104938285D01*
X98872523Y-104889904D01*
X99307952Y-104551238D02*
X99211190Y-104599619D01*
X99017666Y-104599619D01*
X98920904Y-104551238D01*
X98872523Y-104502857D01*
X98824142Y-104406095D01*
X98824142Y-104115809D01*
X98872523Y-104019047D01*
X98920904Y-103970666D01*
X99017666Y-103922285D01*
X99211190Y-103922285D01*
X99307952Y-103970666D01*
X99791761Y-104599619D02*
X99791761Y-103922285D01*
X99791761Y-103583619D02*
X99743380Y-103632000D01*
X99791761Y-103680380D01*
X99840142Y-103632000D01*
X99791761Y-103583619D01*
X99791761Y-103680380D01*
X100130428Y-103922285D02*
X100517476Y-103922285D01*
X100275571Y-103583619D02*
X100275571Y-104454476D01*
X100323952Y-104551238D01*
X100420714Y-104599619D01*
X100517476Y-104599619D01*
X100856142Y-104599619D02*
X100856142Y-103583619D01*
X101291571Y-104599619D02*
X101291571Y-104067428D01*
X101243190Y-103970666D01*
X101146428Y-103922285D01*
X101001285Y-103922285D01*
X100904523Y-103970666D01*
X100856142Y-104019047D01*
X102210809Y-103922285D02*
X102210809Y-104599619D01*
X101775380Y-103922285D02*
X101775380Y-104454476D01*
X101823761Y-104551238D01*
X101920523Y-104599619D01*
X102065666Y-104599619D01*
X102162428Y-104551238D01*
X102210809Y-104502857D01*
X102694619Y-104599619D02*
X102694619Y-103583619D01*
X102694619Y-103970666D02*
X102791380Y-103922285D01*
X102984904Y-103922285D01*
X103081666Y-103970666D01*
X103130047Y-104019047D01*
X103178428Y-104115809D01*
X103178428Y-104406095D01*
X103130047Y-104502857D01*
X103081666Y-104551238D01*
X102984904Y-104599619D01*
X102791380Y-104599619D01*
X102694619Y-104551238D01*
X103613857Y-104502857D02*
X103662238Y-104551238D01*
X103613857Y-104599619D01*
X103565476Y-104551238D01*
X103613857Y-104502857D01*
X103613857Y-104599619D01*
X104533095Y-104551238D02*
X104436333Y-104599619D01*
X104242809Y-104599619D01*
X104146047Y-104551238D01*
X104097666Y-104502857D01*
X104049285Y-104406095D01*
X104049285Y-104115809D01*
X104097666Y-104019047D01*
X104146047Y-103970666D01*
X104242809Y-103922285D01*
X104436333Y-103922285D01*
X104533095Y-103970666D01*
X105113666Y-104599619D02*
X105016904Y-104551238D01*
X104968523Y-104502857D01*
X104920142Y-104406095D01*
X104920142Y-104115809D01*
X104968523Y-104019047D01*
X105016904Y-103970666D01*
X105113666Y-103922285D01*
X105258809Y-103922285D01*
X105355571Y-103970666D01*
X105403952Y-104019047D01*
X105452333Y-104115809D01*
X105452333Y-104406095D01*
X105403952Y-104502857D01*
X105355571Y-104551238D01*
X105258809Y-104599619D01*
X105113666Y-104599619D01*
X105887761Y-104599619D02*
X105887761Y-103922285D01*
X105887761Y-104019047D02*
X105936142Y-103970666D01*
X106032904Y-103922285D01*
X106178047Y-103922285D01*
X106274809Y-103970666D01*
X106323190Y-104067428D01*
X106323190Y-104599619D01*
X106323190Y-104067428D02*
X106371571Y-103970666D01*
X106468333Y-103922285D01*
X106613476Y-103922285D01*
X106710238Y-103970666D01*
X106758619Y-104067428D01*
X106758619Y-104599619D01*
X107968142Y-103535238D02*
X107097285Y-104841523D01*
X108306809Y-103922285D02*
X108306809Y-104793142D01*
X108258428Y-104889904D01*
X108161666Y-104938285D01*
X108113285Y-104938285D01*
X108306809Y-103583619D02*
X108258428Y-103632000D01*
X108306809Y-103680380D01*
X108355190Y-103632000D01*
X108306809Y-103583619D01*
X108306809Y-103680380D01*
X109226047Y-104599619D02*
X109226047Y-104067428D01*
X109177666Y-103970666D01*
X109080904Y-103922285D01*
X108887380Y-103922285D01*
X108790619Y-103970666D01*
X109226047Y-104551238D02*
X109129285Y-104599619D01*
X108887380Y-104599619D01*
X108790619Y-104551238D01*
X108742238Y-104454476D01*
X108742238Y-104357714D01*
X108790619Y-104260952D01*
X108887380Y-104212571D01*
X109129285Y-104212571D01*
X109226047Y-104164190D01*
X109709857Y-103922285D02*
X109709857Y-104599619D01*
X109709857Y-104019047D02*
X109758238Y-103970666D01*
X109855000Y-103922285D01*
X110000142Y-103922285D01*
X110096904Y-103970666D01*
X110145285Y-104067428D01*
X110145285Y-104599619D01*
X111016142Y-104551238D02*
X110919380Y-104599619D01*
X110725857Y-104599619D01*
X110629095Y-104551238D01*
X110580714Y-104454476D01*
X110580714Y-104067428D01*
X110629095Y-103970666D01*
X110725857Y-103922285D01*
X110919380Y-103922285D01*
X111016142Y-103970666D01*
X111064523Y-104067428D01*
X111064523Y-104164190D01*
X110580714Y-104260952D01*
X111645095Y-104599619D02*
X111548333Y-104551238D01*
X111499952Y-104454476D01*
X111499952Y-103583619D01*
X112032142Y-104599619D02*
X112032142Y-103922285D01*
X112032142Y-103583619D02*
X111983761Y-103632000D01*
X112032142Y-103680380D01*
X112080523Y-103632000D01*
X112032142Y-103583619D01*
X112032142Y-103680380D01*
X112951380Y-104599619D02*
X112951380Y-104067428D01*
X112903000Y-103970666D01*
X112806238Y-103922285D01*
X112612714Y-103922285D01*
X112515952Y-103970666D01*
X112951380Y-104551238D02*
X112854619Y-104599619D01*
X112612714Y-104599619D01*
X112515952Y-104551238D01*
X112467571Y-104454476D01*
X112467571Y-104357714D01*
X112515952Y-104260952D01*
X112612714Y-104212571D01*
X112854619Y-104212571D01*
X112951380Y-104164190D01*
X113435190Y-104212571D02*
X114209285Y-104212571D01*
X114693095Y-104599619D02*
X114693095Y-103922285D01*
X114693095Y-104019047D02*
X114741476Y-103970666D01*
X114838238Y-103922285D01*
X114983380Y-103922285D01*
X115080142Y-103970666D01*
X115128523Y-104067428D01*
X115128523Y-104599619D01*
X115128523Y-104067428D02*
X115176904Y-103970666D01*
X115273666Y-103922285D01*
X115418809Y-103922285D01*
X115515571Y-103970666D01*
X115563952Y-104067428D01*
X115563952Y-104599619D01*
X116192904Y-104599619D02*
X116096142Y-104551238D01*
X116047761Y-104502857D01*
X115999380Y-104406095D01*
X115999380Y-104115809D01*
X116047761Y-104019047D01*
X116096142Y-103970666D01*
X116192904Y-103922285D01*
X116338047Y-103922285D01*
X116434809Y-103970666D01*
X116483190Y-104019047D01*
X116531571Y-104115809D01*
X116531571Y-104406095D01*
X116483190Y-104502857D01*
X116434809Y-104551238D01*
X116338047Y-104599619D01*
X116192904Y-104599619D01*
X117402428Y-104599619D02*
X117402428Y-103583619D01*
X117402428Y-104551238D02*
X117305666Y-104599619D01*
X117112142Y-104599619D01*
X117015380Y-104551238D01*
X116967000Y-104502857D01*
X116918619Y-104406095D01*
X116918619Y-104115809D01*
X116967000Y-104019047D01*
X117015380Y-103970666D01*
X117112142Y-103922285D01*
X117305666Y-103922285D01*
X117402428Y-103970666D01*
X118321666Y-103922285D02*
X118321666Y-104599619D01*
X117886238Y-103922285D02*
X117886238Y-104454476D01*
X117934619Y-104551238D01*
X118031380Y-104599619D01*
X118176523Y-104599619D01*
X118273285Y-104551238D01*
X118321666Y-104502857D01*
X118950619Y-104599619D02*
X118853857Y-104551238D01*
X118805476Y-104454476D01*
X118805476Y-103583619D01*
X119773095Y-104599619D02*
X119773095Y-104067428D01*
X119724714Y-103970666D01*
X119627952Y-103922285D01*
X119434428Y-103922285D01*
X119337666Y-103970666D01*
X119773095Y-104551238D02*
X119676333Y-104599619D01*
X119434428Y-104599619D01*
X119337666Y-104551238D01*
X119289285Y-104454476D01*
X119289285Y-104357714D01*
X119337666Y-104260952D01*
X119434428Y-104212571D01*
X119676333Y-104212571D01*
X119773095Y-104164190D01*
X120256904Y-104599619D02*
X120256904Y-103922285D01*
X120256904Y-104115809D02*
X120305285Y-104019047D01*
X120353666Y-103970666D01*
X120450428Y-103922285D01*
X120547190Y-103922285D01*
X120885857Y-104212571D02*
X121659952Y-104212571D01*
X122579190Y-104599619D02*
X122579190Y-103583619D01*
X122579190Y-104551238D02*
X122482428Y-104599619D01*
X122288904Y-104599619D01*
X122192142Y-104551238D01*
X122143761Y-104502857D01*
X122095380Y-104406095D01*
X122095380Y-104115809D01*
X122143761Y-104019047D01*
X122192142Y-103970666D01*
X122288904Y-103922285D01*
X122482428Y-103922285D01*
X122579190Y-103970666D01*
X123450047Y-104551238D02*
X123353285Y-104599619D01*
X123159761Y-104599619D01*
X123063000Y-104551238D01*
X123014619Y-104454476D01*
X123014619Y-104067428D01*
X123063000Y-103970666D01*
X123159761Y-103922285D01*
X123353285Y-103922285D01*
X123450047Y-103970666D01*
X123498428Y-104067428D01*
X123498428Y-104164190D01*
X123014619Y-104260952D01*
X123837095Y-103922285D02*
X124079000Y-104599619D01*
X124320904Y-103922285D01*
X124707952Y-104599619D02*
X124707952Y-103922285D01*
X124707952Y-103583619D02*
X124659571Y-103632000D01*
X124707952Y-103680380D01*
X124756333Y-103632000D01*
X124707952Y-103583619D01*
X124707952Y-103680380D01*
X125627190Y-104551238D02*
X125530428Y-104599619D01*
X125336904Y-104599619D01*
X125240142Y-104551238D01*
X125191761Y-104502857D01*
X125143380Y-104406095D01*
X125143380Y-104115809D01*
X125191761Y-104019047D01*
X125240142Y-103970666D01*
X125336904Y-103922285D01*
X125530428Y-103922285D01*
X125627190Y-103970666D01*
X126449666Y-104551238D02*
X126352904Y-104599619D01*
X126159380Y-104599619D01*
X126062619Y-104551238D01*
X126014238Y-104454476D01*
X126014238Y-104067428D01*
X126062619Y-103970666D01*
X126159380Y-103922285D01*
X126352904Y-103922285D01*
X126449666Y-103970666D01*
X126498047Y-104067428D01*
X126498047Y-104164190D01*
X126014238Y-104260952D01*
X126885095Y-104551238D02*
X126981857Y-104599619D01*
X127175380Y-104599619D01*
X127272142Y-104551238D01*
X127320523Y-104454476D01*
X127320523Y-104406095D01*
X127272142Y-104309333D01*
X127175380Y-104260952D01*
X127030238Y-104260952D01*
X126933476Y-104212571D01*
X126885095Y-104115809D01*
X126885095Y-104067428D01*
X126933476Y-103970666D01*
X127030238Y-103922285D01*
X127175380Y-103922285D01*
X127272142Y-103970666D01*
D13*
X86311619Y-97294095D02*
X87037333Y-97294095D01*
X87182476Y-97342476D01*
X87279238Y-97439238D01*
X87327619Y-97584380D01*
X87327619Y-97681142D01*
X87327619Y-96374857D02*
X86795428Y-96374857D01*
X86698666Y-96423238D01*
X86650285Y-96520000D01*
X86650285Y-96713523D01*
X86698666Y-96810285D01*
X87279238Y-96374857D02*
X87327619Y-96471619D01*
X87327619Y-96713523D01*
X87279238Y-96810285D01*
X87182476Y-96858666D01*
X87085714Y-96858666D01*
X86988952Y-96810285D01*
X86940571Y-96713523D01*
X86940571Y-96471619D01*
X86892190Y-96374857D01*
X86650285Y-95891047D02*
X87327619Y-95891047D01*
X86747047Y-95891047D02*
X86698666Y-95842666D01*
X86650285Y-95745904D01*
X86650285Y-95600761D01*
X86698666Y-95504000D01*
X86795428Y-95455619D01*
X87327619Y-95455619D01*
X87279238Y-94584761D02*
X87327619Y-94681523D01*
X87327619Y-94875047D01*
X87279238Y-94971809D01*
X87182476Y-95020190D01*
X86795428Y-95020190D01*
X86698666Y-94971809D01*
X86650285Y-94875047D01*
X86650285Y-94681523D01*
X86698666Y-94584761D01*
X86795428Y-94536380D01*
X86892190Y-94536380D01*
X86988952Y-95020190D01*
X87327619Y-93955809D02*
X87279238Y-94052571D01*
X87182476Y-94100952D01*
X86311619Y-94100952D01*
X87327619Y-93568761D02*
X86650285Y-93568761D01*
X86311619Y-93568761D02*
X86360000Y-93617142D01*
X86408380Y-93568761D01*
X86360000Y-93520380D01*
X86311619Y-93568761D01*
X86408380Y-93568761D01*
X87327619Y-92649523D02*
X86795428Y-92649523D01*
X86698666Y-92697904D01*
X86650285Y-92794666D01*
X86650285Y-92988190D01*
X86698666Y-93084952D01*
X87279238Y-92649523D02*
X87327619Y-92746285D01*
X87327619Y-92988190D01*
X87279238Y-93084952D01*
X87182476Y-93133333D01*
X87085714Y-93133333D01*
X86988952Y-93084952D01*
X86940571Y-92988190D01*
X86940571Y-92746285D01*
X86892190Y-92649523D01*
X87327619Y-91391619D02*
X86311619Y-91391619D01*
X87037333Y-91052952D01*
X86311619Y-90714285D01*
X87327619Y-90714285D01*
X87327619Y-90085333D02*
X87279238Y-90182095D01*
X87230857Y-90230476D01*
X87134095Y-90278857D01*
X86843809Y-90278857D01*
X86747047Y-90230476D01*
X86698666Y-90182095D01*
X86650285Y-90085333D01*
X86650285Y-89940190D01*
X86698666Y-89843428D01*
X86747047Y-89795047D01*
X86843809Y-89746666D01*
X87134095Y-89746666D01*
X87230857Y-89795047D01*
X87279238Y-89843428D01*
X87327619Y-89940190D01*
X87327619Y-90085333D01*
X87327619Y-88875809D02*
X86311619Y-88875809D01*
X87279238Y-88875809D02*
X87327619Y-88972571D01*
X87327619Y-89166095D01*
X87279238Y-89262857D01*
X87230857Y-89311238D01*
X87134095Y-89359619D01*
X86843809Y-89359619D01*
X86747047Y-89311238D01*
X86698666Y-89262857D01*
X86650285Y-89166095D01*
X86650285Y-88972571D01*
X86698666Y-88875809D01*
X86650285Y-87956571D02*
X87327619Y-87956571D01*
X86650285Y-88392000D02*
X87182476Y-88392000D01*
X87279238Y-88343619D01*
X87327619Y-88246857D01*
X87327619Y-88101714D01*
X87279238Y-88004952D01*
X87230857Y-87956571D01*
X87327619Y-87327619D02*
X87279238Y-87424380D01*
X87182476Y-87472761D01*
X86311619Y-87472761D01*
X87327619Y-86505142D02*
X86795428Y-86505142D01*
X86698666Y-86553523D01*
X86650285Y-86650285D01*
X86650285Y-86843809D01*
X86698666Y-86940571D01*
X87279238Y-86505142D02*
X87327619Y-86601904D01*
X87327619Y-86843809D01*
X87279238Y-86940571D01*
X87182476Y-86988952D01*
X87085714Y-86988952D01*
X86988952Y-86940571D01*
X86940571Y-86843809D01*
X86940571Y-86601904D01*
X86892190Y-86505142D01*
X87327619Y-86021333D02*
X86650285Y-86021333D01*
X86843809Y-86021333D02*
X86747047Y-85972952D01*
X86698666Y-85924571D01*
X86650285Y-85827809D01*
X86650285Y-85731047D01*
X87327619Y-84618285D02*
X86311619Y-84618285D01*
X86311619Y-84376380D01*
X86360000Y-84231238D01*
X86456761Y-84134476D01*
X86553523Y-84086095D01*
X86747047Y-84037714D01*
X86892190Y-84037714D01*
X87085714Y-84086095D01*
X87182476Y-84134476D01*
X87279238Y-84231238D01*
X87327619Y-84376380D01*
X87327619Y-84618285D01*
X87279238Y-83215238D02*
X87327619Y-83312000D01*
X87327619Y-83505523D01*
X87279238Y-83602285D01*
X87182476Y-83650666D01*
X86795428Y-83650666D01*
X86698666Y-83602285D01*
X86650285Y-83505523D01*
X86650285Y-83312000D01*
X86698666Y-83215238D01*
X86795428Y-83166857D01*
X86892190Y-83166857D01*
X86988952Y-83650666D01*
X86650285Y-82828190D02*
X87327619Y-82586285D01*
X86650285Y-82344380D01*
X87327619Y-81957333D02*
X86650285Y-81957333D01*
X86311619Y-81957333D02*
X86360000Y-82005714D01*
X86408380Y-81957333D01*
X86360000Y-81908952D01*
X86311619Y-81957333D01*
X86408380Y-81957333D01*
X87279238Y-81038095D02*
X87327619Y-81134857D01*
X87327619Y-81328380D01*
X87279238Y-81425142D01*
X87230857Y-81473523D01*
X87134095Y-81521904D01*
X86843809Y-81521904D01*
X86747047Y-81473523D01*
X86698666Y-81425142D01*
X86650285Y-81328380D01*
X86650285Y-81134857D01*
X86698666Y-81038095D01*
X87279238Y-80215619D02*
X87327619Y-80312380D01*
X87327619Y-80505904D01*
X87279238Y-80602666D01*
X87182476Y-80651047D01*
X86795428Y-80651047D01*
X86698666Y-80602666D01*
X86650285Y-80505904D01*
X86650285Y-80312380D01*
X86698666Y-80215619D01*
X86795428Y-80167238D01*
X86892190Y-80167238D01*
X86988952Y-80651047D01*
X89105619Y-94391238D02*
X88573428Y-94391238D01*
X88476666Y-94439619D01*
X88428285Y-94536380D01*
X88428285Y-94729904D01*
X88476666Y-94826666D01*
X89057238Y-94391238D02*
X89105619Y-94488000D01*
X89105619Y-94729904D01*
X89057238Y-94826666D01*
X88960476Y-94875047D01*
X88863714Y-94875047D01*
X88766952Y-94826666D01*
X88718571Y-94729904D01*
X88718571Y-94488000D01*
X88670190Y-94391238D01*
X88428285Y-93472000D02*
X89105619Y-93472000D01*
X88428285Y-93907428D02*
X88960476Y-93907428D01*
X89057238Y-93859047D01*
X89105619Y-93762285D01*
X89105619Y-93617142D01*
X89057238Y-93520380D01*
X89008857Y-93472000D01*
X89105619Y-92552761D02*
X88089619Y-92552761D01*
X89057238Y-92552761D02*
X89105619Y-92649523D01*
X89105619Y-92843047D01*
X89057238Y-92939809D01*
X89008857Y-92988190D01*
X88912095Y-93036571D01*
X88621809Y-93036571D01*
X88525047Y-92988190D01*
X88476666Y-92939809D01*
X88428285Y-92843047D01*
X88428285Y-92649523D01*
X88476666Y-92552761D01*
X89105619Y-92068952D02*
X88428285Y-92068952D01*
X88089619Y-92068952D02*
X88138000Y-92117333D01*
X88186380Y-92068952D01*
X88138000Y-92020571D01*
X88089619Y-92068952D01*
X88186380Y-92068952D01*
X89105619Y-91440000D02*
X89057238Y-91536761D01*
X89008857Y-91585142D01*
X88912095Y-91633523D01*
X88621809Y-91633523D01*
X88525047Y-91585142D01*
X88476666Y-91536761D01*
X88428285Y-91440000D01*
X88428285Y-91294857D01*
X88476666Y-91198095D01*
X88525047Y-91149714D01*
X88621809Y-91101333D01*
X88912095Y-91101333D01*
X89008857Y-91149714D01*
X89057238Y-91198095D01*
X89105619Y-91294857D01*
X89105619Y-91440000D01*
X89202380Y-90907809D02*
X89202380Y-90133714D01*
X89057238Y-89456380D02*
X89105619Y-89553142D01*
X89105619Y-89746666D01*
X89057238Y-89843428D01*
X89008857Y-89891809D01*
X88912095Y-89940190D01*
X88621809Y-89940190D01*
X88525047Y-89891809D01*
X88476666Y-89843428D01*
X88428285Y-89746666D01*
X88428285Y-89553142D01*
X88476666Y-89456380D01*
X89105619Y-88875809D02*
X89057238Y-88972571D01*
X89008857Y-89020952D01*
X88912095Y-89069333D01*
X88621809Y-89069333D01*
X88525047Y-89020952D01*
X88476666Y-88972571D01*
X88428285Y-88875809D01*
X88428285Y-88730666D01*
X88476666Y-88633904D01*
X88525047Y-88585523D01*
X88621809Y-88537142D01*
X88912095Y-88537142D01*
X89008857Y-88585523D01*
X89057238Y-88633904D01*
X89105619Y-88730666D01*
X89105619Y-88875809D01*
X88428285Y-88101714D02*
X89105619Y-88101714D01*
X88525047Y-88101714D02*
X88476666Y-88053333D01*
X88428285Y-87956571D01*
X88428285Y-87811428D01*
X88476666Y-87714666D01*
X88573428Y-87666285D01*
X89105619Y-87666285D01*
X88428285Y-87327619D02*
X88428285Y-86940571D01*
X88089619Y-87182476D02*
X88960476Y-87182476D01*
X89057238Y-87134095D01*
X89105619Y-87037333D01*
X89105619Y-86940571D01*
X89105619Y-86601904D02*
X88428285Y-86601904D01*
X88621809Y-86601904D02*
X88525047Y-86553523D01*
X88476666Y-86505142D01*
X88428285Y-86408380D01*
X88428285Y-86311619D01*
X89105619Y-85827809D02*
X89057238Y-85924571D01*
X89008857Y-85972952D01*
X88912095Y-86021333D01*
X88621809Y-86021333D01*
X88525047Y-85972952D01*
X88476666Y-85924571D01*
X88428285Y-85827809D01*
X88428285Y-85682666D01*
X88476666Y-85585904D01*
X88525047Y-85537523D01*
X88621809Y-85489142D01*
X88912095Y-85489142D01*
X89008857Y-85537523D01*
X89057238Y-85585904D01*
X89105619Y-85682666D01*
X89105619Y-85827809D01*
X89105619Y-84908571D02*
X89057238Y-85005333D01*
X88960476Y-85053714D01*
X88089619Y-85053714D01*
X89105619Y-84376380D02*
X89057238Y-84473142D01*
X88960476Y-84521523D01*
X88089619Y-84521523D01*
X89057238Y-83602285D02*
X89105619Y-83699047D01*
X89105619Y-83892571D01*
X89057238Y-83989333D01*
X88960476Y-84037714D01*
X88573428Y-84037714D01*
X88476666Y-83989333D01*
X88428285Y-83892571D01*
X88428285Y-83699047D01*
X88476666Y-83602285D01*
X88573428Y-83553904D01*
X88670190Y-83553904D01*
X88766952Y-84037714D01*
X89105619Y-83118476D02*
X88428285Y-83118476D01*
X88621809Y-83118476D02*
X88525047Y-83070095D01*
X88476666Y-83021714D01*
X88428285Y-82924952D01*
X88428285Y-82828190D01*
X90206285Y-95939428D02*
X91222285Y-95939428D01*
X90254666Y-95939428D02*
X90206285Y-95842666D01*
X90206285Y-95649142D01*
X90254666Y-95552380D01*
X90303047Y-95504000D01*
X90399809Y-95455619D01*
X90690095Y-95455619D01*
X90786857Y-95504000D01*
X90835238Y-95552380D01*
X90883619Y-95649142D01*
X90883619Y-95842666D01*
X90835238Y-95939428D01*
X90883619Y-94584761D02*
X90351428Y-94584761D01*
X90254666Y-94633142D01*
X90206285Y-94729904D01*
X90206285Y-94923428D01*
X90254666Y-95020190D01*
X90835238Y-94584761D02*
X90883619Y-94681523D01*
X90883619Y-94923428D01*
X90835238Y-95020190D01*
X90738476Y-95068571D01*
X90641714Y-95068571D01*
X90544952Y-95020190D01*
X90496571Y-94923428D01*
X90496571Y-94681523D01*
X90448190Y-94584761D01*
X90883619Y-94100952D02*
X90206285Y-94100952D01*
X90399809Y-94100952D02*
X90303047Y-94052571D01*
X90254666Y-94004190D01*
X90206285Y-93907428D01*
X90206285Y-93810666D01*
X90206285Y-93617142D02*
X90206285Y-93230095D01*
X89867619Y-93472000D02*
X90738476Y-93472000D01*
X90835238Y-93423619D01*
X90883619Y-93326857D01*
X90883619Y-93230095D01*
X90980380Y-93133333D02*
X90980380Y-92359238D01*
X90206285Y-92117333D02*
X90883619Y-92117333D01*
X90303047Y-92117333D02*
X90254666Y-92068952D01*
X90206285Y-91972190D01*
X90206285Y-91827047D01*
X90254666Y-91730285D01*
X90351428Y-91681904D01*
X90883619Y-91681904D01*
X90206285Y-90762666D02*
X90883619Y-90762666D01*
X90206285Y-91198095D02*
X90738476Y-91198095D01*
X90835238Y-91149714D01*
X90883619Y-91052952D01*
X90883619Y-90907809D01*
X90835238Y-90811047D01*
X90786857Y-90762666D01*
X90883619Y-90278857D02*
X90206285Y-90278857D01*
X90303047Y-90278857D02*
X90254666Y-90230476D01*
X90206285Y-90133714D01*
X90206285Y-89988571D01*
X90254666Y-89891809D01*
X90351428Y-89843428D01*
X90883619Y-89843428D01*
X90351428Y-89843428D02*
X90254666Y-89795047D01*
X90206285Y-89698285D01*
X90206285Y-89553142D01*
X90254666Y-89456380D01*
X90351428Y-89408000D01*
X90883619Y-89408000D01*
X90883619Y-88924190D02*
X89867619Y-88924190D01*
X90254666Y-88924190D02*
X90206285Y-88827428D01*
X90206285Y-88633904D01*
X90254666Y-88537142D01*
X90303047Y-88488761D01*
X90399809Y-88440380D01*
X90690095Y-88440380D01*
X90786857Y-88488761D01*
X90835238Y-88537142D01*
X90883619Y-88633904D01*
X90883619Y-88827428D01*
X90835238Y-88924190D01*
X90835238Y-87617904D02*
X90883619Y-87714666D01*
X90883619Y-87908190D01*
X90835238Y-88004952D01*
X90738476Y-88053333D01*
X90351428Y-88053333D01*
X90254666Y-88004952D01*
X90206285Y-87908190D01*
X90206285Y-87714666D01*
X90254666Y-87617904D01*
X90351428Y-87569523D01*
X90448190Y-87569523D01*
X90544952Y-88053333D01*
X90883619Y-87134095D02*
X90206285Y-87134095D01*
X90399809Y-87134095D02*
X90303047Y-87085714D01*
X90254666Y-87037333D01*
X90206285Y-86940571D01*
X90206285Y-86843809D01*
X90786857Y-86505142D02*
X90835238Y-86456761D01*
X90883619Y-86505142D01*
X90835238Y-86553523D01*
X90786857Y-86505142D01*
X90883619Y-86505142D01*
X90254666Y-86505142D02*
X90303047Y-86456761D01*
X90351428Y-86505142D01*
X90303047Y-86553523D01*
X90254666Y-86505142D01*
X90351428Y-86505142D01*
X90883619Y-84715047D02*
X90883619Y-85295619D01*
X90883619Y-85005333D02*
X89867619Y-85005333D01*
X90012761Y-85102095D01*
X90109523Y-85198857D01*
X90157904Y-85295619D01*
X90883619Y-83747428D02*
X90883619Y-84328000D01*
X90883619Y-84037714D02*
X89867619Y-84037714D01*
X90012761Y-84134476D01*
X90109523Y-84231238D01*
X90157904Y-84328000D01*
X89867619Y-82828190D02*
X89867619Y-83312000D01*
X90351428Y-83360380D01*
X90303047Y-83312000D01*
X90254666Y-83215238D01*
X90254666Y-82973333D01*
X90303047Y-82876571D01*
X90351428Y-82828190D01*
X90448190Y-82779809D01*
X90690095Y-82779809D01*
X90786857Y-82828190D01*
X90835238Y-82876571D01*
X90883619Y-82973333D01*
X90883619Y-83215238D01*
X90835238Y-83312000D01*
X90786857Y-83360380D01*
X90883619Y-81812190D02*
X90883619Y-82392761D01*
X90883619Y-82102476D02*
X89867619Y-82102476D01*
X90012761Y-82199238D01*
X90109523Y-82295999D01*
X90157904Y-82392761D01*
X92661619Y-96447428D02*
X92661619Y-97028000D01*
X92661619Y-96737714D02*
X91645619Y-96737714D01*
X91790761Y-96834476D01*
X91887523Y-96931238D01*
X91935904Y-97028000D01*
X91645619Y-95818476D02*
X91645619Y-95721714D01*
X91694000Y-95624952D01*
X91742380Y-95576571D01*
X91839142Y-95528190D01*
X92032666Y-95479809D01*
X92274571Y-95479809D01*
X92468095Y-95528190D01*
X92564857Y-95576571D01*
X92613238Y-95624952D01*
X92661619Y-95721714D01*
X92661619Y-95818476D01*
X92613238Y-95915238D01*
X92564857Y-95963619D01*
X92468095Y-96012000D01*
X92274571Y-96060380D01*
X92032666Y-96060380D01*
X91839142Y-96012000D01*
X91742380Y-95963619D01*
X91694000Y-95915238D01*
X91645619Y-95818476D01*
X91597238Y-94318666D02*
X92903523Y-95189523D01*
X91742380Y-94028380D02*
X91694000Y-93980000D01*
X91645619Y-93883238D01*
X91645619Y-93641333D01*
X91694000Y-93544571D01*
X91742380Y-93496190D01*
X91839142Y-93447809D01*
X91935904Y-93447809D01*
X92081047Y-93496190D01*
X92661619Y-94076761D01*
X92661619Y-93447809D01*
X91645619Y-92818857D02*
X91645619Y-92722095D01*
X91694000Y-92625333D01*
X91742380Y-92576952D01*
X91839142Y-92528571D01*
X92032666Y-92480190D01*
X92274571Y-92480190D01*
X92468095Y-92528571D01*
X92564857Y-92576952D01*
X92613238Y-92625333D01*
X92661619Y-92722095D01*
X92661619Y-92818857D01*
X92613238Y-92915619D01*
X92564857Y-92964000D01*
X92468095Y-93012380D01*
X92274571Y-93060761D01*
X92032666Y-93060761D01*
X91839142Y-93012380D01*
X91742380Y-92964000D01*
X91694000Y-92915619D01*
X91645619Y-92818857D01*
X92661619Y-91512571D02*
X92661619Y-92093142D01*
X92661619Y-91802857D02*
X91645619Y-91802857D01*
X91790761Y-91899619D01*
X91887523Y-91996380D01*
X91935904Y-92093142D01*
X91645619Y-91173904D02*
X91645619Y-90496571D01*
X92661619Y-90932000D01*
X91984285Y-89432190D02*
X92661619Y-89190285D01*
X91984285Y-88948380D01*
X92613238Y-88174285D02*
X92661619Y-88271047D01*
X92661619Y-88464571D01*
X92613238Y-88561333D01*
X92516476Y-88609714D01*
X92129428Y-88609714D01*
X92032666Y-88561333D01*
X91984285Y-88464571D01*
X91984285Y-88271047D01*
X92032666Y-88174285D01*
X92129428Y-88125904D01*
X92226190Y-88125904D01*
X92322952Y-88609714D01*
X92661619Y-87690476D02*
X91984285Y-87690476D01*
X92177809Y-87690476D02*
X92081047Y-87642095D01*
X92032666Y-87593714D01*
X91984285Y-87496952D01*
X91984285Y-87400190D01*
X92661619Y-85755238D02*
X92661619Y-86335809D01*
X92661619Y-86045523D02*
X91645619Y-86045523D01*
X91790761Y-86142285D01*
X91887523Y-86239047D01*
X91935904Y-86335809D01*
X92564857Y-85319809D02*
X92613238Y-85271428D01*
X92661619Y-85319809D01*
X92613238Y-85368190D01*
X92564857Y-85319809D01*
X92661619Y-85319809D01*
X91742380Y-84884380D02*
X91694000Y-84836000D01*
X91645619Y-84739238D01*
X91645619Y-84497333D01*
X91694000Y-84400571D01*
X91742380Y-84352190D01*
X91839142Y-84303809D01*
X91935904Y-84303809D01*
X92081047Y-84352190D01*
X92661619Y-84932761D01*
X92661619Y-84303809D01*
X91645619Y-83191047D02*
X91645619Y-82562095D01*
X92032666Y-82900761D01*
X92032666Y-82755619D01*
X92081047Y-82658857D01*
X92129428Y-82610476D01*
X92226190Y-82562095D01*
X92468095Y-82562095D01*
X92564857Y-82610476D01*
X92613238Y-82658857D01*
X92661619Y-82755619D01*
X92661619Y-83045904D01*
X92613238Y-83142666D01*
X92564857Y-83191047D01*
X92661619Y-82223428D02*
X91984285Y-81691238D01*
X91984285Y-82223428D02*
X92661619Y-81691238D01*
X91742380Y-81352571D02*
X91694000Y-81304190D01*
X91645619Y-81207428D01*
X91645619Y-80965523D01*
X91694000Y-80868761D01*
X91742380Y-80820380D01*
X91839142Y-80772000D01*
X91935904Y-80772000D01*
X92081047Y-80820380D01*
X92661619Y-81400952D01*
X92661619Y-80772000D01*
D11*
%TO.C,SP1*%
X109315000Y-88900000D02*
G75*
G03X109315000Y-88900000I-2000000J0D01*
G01*
X113315000Y-88900000D02*
G75*
G03X113315000Y-88900000I-6000000J0D01*
G01*
X104315000Y-96400000D02*
X104315000Y-97900000D01*
X104315000Y-97900000D02*
X110315000Y-97900000D01*
X110315000Y-97900000D02*
X110315000Y-96400000D01*
X99815000Y-81400000D02*
X114815000Y-81400000D01*
X114815000Y-81400000D02*
X114815000Y-96400000D01*
X114815000Y-96400000D02*
X99815000Y-96400000D01*
X99815000Y-96400000D02*
X99815000Y-81400000D01*
%TO.C,MDB1*%
X132715000Y-71120000D02*
G75*
G03X132715000Y-71120000I-2540000J0D01*
G01*
X132715000Y-106680000D02*
G75*
G03X132715000Y-106680000I-2540000J0D01*
G01*
X92075000Y-101600000D02*
G75*
G03X92075000Y-101600000I-2540000J0D01*
G01*
X92075000Y-76200000D02*
G75*
G03X92075000Y-76200000I-2540000J0D01*
G01*
D14*
%TO.C,U1*%
X133890000Y-86900000D02*
X137890000Y-86900000D01*
X133890000Y-90900000D02*
X133890000Y-86900000D01*
X137890000Y-90900000D02*
X133890000Y-90900000D01*
X137890000Y-86900000D02*
X137890000Y-90900000D01*
%TD*%
%TO.C,SP1*%
D13*
X111532904Y-98311238D02*
X111678047Y-98359619D01*
X111919952Y-98359619D01*
X112016714Y-98311238D01*
X112065095Y-98262857D01*
X112113476Y-98166095D01*
X112113476Y-98069333D01*
X112065095Y-97972571D01*
X112016714Y-97924190D01*
X111919952Y-97875809D01*
X111726428Y-97827428D01*
X111629666Y-97779047D01*
X111581285Y-97730666D01*
X111532904Y-97633904D01*
X111532904Y-97537142D01*
X111581285Y-97440380D01*
X111629666Y-97392000D01*
X111726428Y-97343619D01*
X111968333Y-97343619D01*
X112113476Y-97392000D01*
X112548904Y-98359619D02*
X112548904Y-97343619D01*
X112935952Y-97343619D01*
X113032714Y-97392000D01*
X113081095Y-97440380D01*
X113129476Y-97537142D01*
X113129476Y-97682285D01*
X113081095Y-97779047D01*
X113032714Y-97827428D01*
X112935952Y-97875809D01*
X112548904Y-97875809D01*
X114097095Y-98359619D02*
X113516523Y-98359619D01*
X113806809Y-98359619D02*
X113806809Y-97343619D01*
X113710047Y-97488761D01*
X113613285Y-97585523D01*
X113516523Y-97633904D01*
D15*
X113243571Y-92507142D02*
X114386428Y-92507142D01*
X100243571Y-92507142D02*
X101386428Y-92507142D01*
X100815000Y-93078571D02*
X100815000Y-91935714D01*
%TD*%
%LPC*%
D16*
%TO.C,SP1*%
X101565000Y-95150000D03*
X113065000Y-95150000D03*
D17*
X100565000Y-82650000D03*
X114065000Y-82650000D03*
%TD*%
D18*
%TO.C,MDB1*%
X130175000Y-71120000D03*
X130175000Y-106680000D03*
X89535000Y-101600000D03*
X89535000Y-76200000D03*
D19*
X88265000Y-106680000D03*
X90805000Y-106680000D03*
X93345000Y-106680000D03*
X95885000Y-106680000D03*
X98425000Y-106680000D03*
X100965000Y-106680000D03*
X103505000Y-106680000D03*
X106045000Y-106680000D03*
X108585000Y-106680000D03*
X111125000Y-106680000D03*
X113665000Y-106680000D03*
X116205000Y-106680000D03*
X118745000Y-106680000D03*
X121285000Y-106680000D03*
X123825000Y-106680000D03*
X126365000Y-106680000D03*
X126365000Y-71120000D03*
X123825000Y-71120000D03*
X121285000Y-71120000D03*
X118745000Y-71120000D03*
X116205000Y-71120000D03*
X113665000Y-71120000D03*
X111125000Y-71120000D03*
X108585000Y-71120000D03*
X106045000Y-71120000D03*
X103505000Y-71120000D03*
X100965000Y-71120000D03*
X98425000Y-71120000D03*
X95885000Y-71120000D03*
D20*
X88265000Y-71120000D03*
D19*
X93345000Y-71120000D03*
X90805000Y-71120000D03*
%TD*%
D21*
%TO.C,U1*%
X135890000Y-88900000D03*
%TD*%
D22*
%TO.C,J1*%
X145075000Y-88900000D03*
X152075000Y-88900000D03*
%TD*%
M02*
